G04*
G04 #@! TF.GenerationSoftware,Altium Limited,Altium Designer,23.1.1 (15)*
G04*
G04 Layer_Color=32768*
%FSLAX44Y44*%
%MOMM*%
G71*
G04*
G04 #@! TF.SameCoordinates,71942028-349F-4B58-9001-873325432457*
G04*
G04*
G04 #@! TF.FilePolarity,Positive*
G04*
G01*
G75*
%ADD14C,0.1500*%
D14*
X826250Y423750D02*
Y476250D01*
X878750D01*
Y423750D02*
Y476250D01*
X826250Y423750D02*
X878750D01*
X40600Y473080D02*
Y716920D01*
Y473080D02*
X589240D01*
X40600Y716920D02*
X589240D01*
X320000Y590000D02*
Y600000D01*
X315000Y595000D02*
X325000D01*
X589240Y473080D02*
Y716920D01*
X985001Y386070D02*
X1091001D01*
Y523930D01*
X985001D02*
X1091001D01*
X985001Y386070D02*
Y523930D01*
X814000Y128800D02*
X942000D01*
Y250400D01*
X814000D02*
X942000D01*
X814000Y128800D02*
Y250400D01*
X947500Y377500D02*
Y387500D01*
X942500Y382500D02*
X952500D01*
X927500Y392000D02*
X967500D01*
X927500Y373000D02*
X967500D01*
X927500D02*
Y392000D01*
X967500Y373000D02*
Y392000D01*
X911500Y412500D02*
Y427500D01*
X938500Y412500D02*
Y427500D01*
X911500D02*
X938500D01*
X911500Y412500D02*
X938500D01*
X920500Y420000D02*
X929500D01*
X925000Y415500D02*
Y424500D01*
X715000Y435250D02*
Y444750D01*
X710250Y440000D02*
X719750D01*
X702000Y447500D02*
X728000D01*
X702000Y432500D02*
X728000D01*
X702000D02*
Y447500D01*
X728000Y432500D02*
Y447500D01*
X911500Y477500D02*
Y492500D01*
X938500Y477500D02*
Y492500D01*
X911500D02*
X938500D01*
X911500Y477500D02*
X938500D01*
X920500Y485000D02*
X929500D01*
X925000Y480500D02*
Y489500D01*
X955250Y477500D02*
X964750D01*
X960000Y472750D02*
Y482250D01*
X952500Y464500D02*
Y490500D01*
X967500Y464500D02*
Y490500D01*
X952500Y464500D02*
X967500D01*
X952500Y490500D02*
X967500D01*
X955250Y425000D02*
X964750D01*
X960000Y420250D02*
Y429750D01*
X952500Y412000D02*
Y438000D01*
X967500Y412000D02*
Y438000D01*
X952500Y412000D02*
X967500D01*
X952500Y438000D02*
X967500D01*
X717500Y472750D02*
Y482250D01*
X712750Y477500D02*
X722250D01*
X704500Y485000D02*
X730500D01*
X704500Y470000D02*
X730500D01*
X704500D02*
Y485000D01*
X730500Y470000D02*
Y485000D01*
X361000Y726500D02*
Y788500D01*
X279000D02*
X361000D01*
X279000Y726500D02*
Y788500D01*
Y726500D02*
X361000D01*
X320000Y752500D02*
Y762500D01*
X315000Y757500D02*
X325000D01*
X40500Y393999D02*
X198500D01*
Y235999D02*
Y393999D01*
X40500Y235999D02*
X198500D01*
X40500D02*
Y393999D01*
X119500Y309999D02*
Y319999D01*
X114500Y314999D02*
X124500D01*
X86500Y725000D02*
Y745000D01*
X53500Y725000D02*
Y745000D01*
Y725000D02*
X86500D01*
X53500Y745000D02*
X86500D01*
X65500Y735000D02*
X74500D01*
X70000Y730500D02*
Y739500D01*
X174000Y755000D02*
Y775000D01*
X141000Y755000D02*
Y775000D01*
Y755000D02*
X174000D01*
X141000Y775000D02*
X174000D01*
X153000Y765000D02*
X162000D01*
X157500Y760500D02*
Y769500D01*
X96000Y755000D02*
Y775000D01*
X129000Y755000D02*
Y775000D01*
X96000D02*
X129000D01*
X96000Y755000D02*
X129000D01*
X108000Y765000D02*
X117000D01*
X112500Y760500D02*
Y769500D01*
X471999Y314999D02*
X481999D01*
X476999Y309999D02*
Y319999D01*
X397999Y235999D02*
Y393999D01*
Y235999D02*
X555999D01*
Y393999D01*
X397999D02*
X555999D01*
X294500Y314999D02*
X304500D01*
X299500Y309999D02*
Y319999D01*
X220500Y235999D02*
Y393999D01*
Y235999D02*
X378500D01*
Y393999D01*
X220500D02*
X378500D01*
X647000Y604800D02*
X657000D01*
X652000Y599800D02*
Y609800D01*
X620250Y659300D02*
X683750D01*
X620250Y550300D02*
Y659300D01*
Y550300D02*
X683750D01*
Y659300D01*
X471999Y114999D02*
X481999D01*
X476999Y109999D02*
Y119999D01*
X397999Y35999D02*
Y193999D01*
Y35999D02*
X555999D01*
Y193999D01*
X397999D02*
X555999D01*
X294500Y114999D02*
X304500D01*
X299500Y109999D02*
Y119999D01*
X220500Y35999D02*
Y193999D01*
Y35999D02*
X378500D01*
Y193999D01*
X220500D02*
X378500D01*
X114500Y114999D02*
X124500D01*
X119500Y109999D02*
Y119999D01*
X40500Y35999D02*
Y193999D01*
Y35999D02*
X198500D01*
Y193999D01*
X40500D02*
X198500D01*
M02*
