G04*
G04 #@! TF.GenerationSoftware,Altium Limited,Altium Designer,23.1.1 (15)*
G04*
G04 Layer_Color=0*
%FSLAX44Y44*%
%MOMM*%
G71*
G04*
G04 #@! TF.SameCoordinates,71942028-349F-4B58-9001-873325432457*
G04*
G04*
G04 #@! TF.FilePolarity,Positive*
G04*
G01*
G75*
%ADD14C,0.1500*%
D14*
X882500Y335000D02*
Y345000D01*
X877500Y340000D02*
X887500D01*
X947500Y357500D02*
X957500D01*
X952500Y352500D02*
Y362500D01*
X767500Y440000D02*
X777500D01*
X772500Y435000D02*
Y445000D01*
X867500Y502500D02*
X877500D01*
X872500Y497500D02*
Y507500D01*
X830000Y495000D02*
X840000D01*
X835000Y490000D02*
Y500000D01*
X920000Y462500D02*
X930000D01*
X925000Y457500D02*
Y467500D01*
X919991Y440000D02*
X929991D01*
X924991Y435000D02*
Y445000D01*
X767500Y477500D02*
X777500D01*
X772500Y472500D02*
Y482500D01*
X662500Y202500D02*
X672500D01*
X667500Y197500D02*
Y207500D01*
X665000Y295000D02*
Y305000D01*
X660000Y300000D02*
X670000D01*
X785200Y635200D02*
X795200D01*
X790200Y630200D02*
Y640200D01*
X298500Y207500D02*
Y217500D01*
X293500Y212500D02*
X303500D01*
X118500Y207500D02*
Y217500D01*
X113500Y212500D02*
X123500D01*
X475999Y207500D02*
Y217500D01*
X470999Y212500D02*
X480999D01*
X302500Y2500D02*
Y12500D01*
X297500Y7500D02*
X307500D01*
X117500Y2500D02*
Y12500D01*
X112500Y7500D02*
X122500D01*
X477500Y2500D02*
Y12500D01*
X472500Y7500D02*
X482500D01*
M02*
