G04*
G04 #@! TF.GenerationSoftware,Altium Limited,Altium Designer,23.1.1 (15)*
G04*
G04 Layer_Color=255*
%FSLAX44Y44*%
%MOMM*%
G71*
G04*
G04 #@! TF.SameCoordinates,71942028-349F-4B58-9001-873325432457*
G04*
G04*
G04 #@! TF.FilePolarity,Positive*
G04*
G01*
G75*
%ADD17R,0.3500X0.8500*%
%ADD18R,0.8500X0.3500*%
%ADD19R,2.1500X2.1500*%
G04:AMPARAMS|DCode=20|XSize=1.5mm|YSize=1.5mm|CornerRadius=0.225mm|HoleSize=0mm|Usage=FLASHONLY|Rotation=90.000|XOffset=0mm|YOffset=0mm|HoleType=Round|Shape=RoundedRectangle|*
%AMROUNDEDRECTD20*
21,1,1.5000,1.0500,0,0,90.0*
21,1,1.0500,1.5000,0,0,90.0*
1,1,0.4500,0.5250,0.5250*
1,1,0.4500,0.5250,-0.5250*
1,1,0.4500,-0.5250,-0.5250*
1,1,0.4500,-0.5250,0.5250*
%
%ADD20ROUNDEDRECTD20*%
%ADD21R,1.0000X2.5000*%
G04:AMPARAMS|DCode=22|XSize=2.5mm|YSize=1mm|CornerRadius=0.125mm|HoleSize=0mm|Usage=FLASHONLY|Rotation=90.000|XOffset=0mm|YOffset=0mm|HoleType=Round|Shape=RoundedRectangle|*
%AMROUNDEDRECTD22*
21,1,2.5000,0.7500,0,0,90.0*
21,1,2.2500,1.0000,0,0,90.0*
1,1,0.2500,0.3750,1.1250*
1,1,0.2500,0.3750,-1.1250*
1,1,0.2500,-0.3750,-1.1250*
1,1,0.2500,-0.3750,1.1250*
%
%ADD22ROUNDEDRECTD22*%
%ADD23R,2.5000X1.0000*%
%ADD24R,1.2500X0.3000*%
%ADD25R,1.2500X0.6000*%
%ADD26R,0.8000X0.9000*%
%ADD27R,1.1500X1.0000*%
%ADD28R,0.8500X0.9500*%
%ADD29R,1.1000X1.2000*%
%ADD30R,0.8000X0.9500*%
%ADD31R,0.7500X0.9000*%
%ADD32R,0.9565X0.9621*%
%ADD33R,0.9500X0.8000*%
%ADD34R,0.8000X1.0000*%
%ADD54R,1.2000X1.2000*%
%ADD55C,1.2000*%
G04:AMPARAMS|DCode=59|XSize=2.4mm|YSize=5mm|CornerRadius=1.2mm|HoleSize=0mm|Usage=FLASHONLY|Rotation=90.000|XOffset=0mm|YOffset=0mm|HoleType=Round|Shape=RoundedRectangle|*
%AMROUNDEDRECTD59*
21,1,2.4000,2.6000,0,0,90.0*
21,1,0.0000,5.0000,0,0,90.0*
1,1,2.4000,1.3000,0.0000*
1,1,2.4000,1.3000,0.0000*
1,1,2.4000,-1.3000,0.0000*
1,1,2.4000,-1.3000,0.0000*
%
%ADD59ROUNDEDRECTD59*%
%ADD60C,1.5500*%
%ADD61R,1.5500X1.5500*%
%ADD62C,1.8400*%
%ADD63R,1.8400X1.8400*%
%ADD72C,2.5650*%
%ADD73C,2.0000*%
%ADD74C,0.4000*%
%ADD75C,2.4000*%
%ADD76C,1.5000*%
%ADD77R,1.5000X1.5000*%
%ADD78R,2.0000X2.0000*%
%ADD79R,1.5000X1.5000*%
D17*
X842750Y430500D02*
D03*
X849250D02*
D03*
X855750D02*
D03*
X862250D02*
D03*
Y469500D02*
D03*
X855750D02*
D03*
X849250D02*
D03*
X842750D02*
D03*
D18*
X872000Y440250D02*
D03*
Y446750D02*
D03*
Y453250D02*
D03*
Y459750D02*
D03*
X833000D02*
D03*
Y453250D02*
D03*
Y446750D02*
D03*
Y440250D02*
D03*
D19*
X852500Y450000D02*
D03*
D20*
X192078Y570099D02*
D03*
X167078D02*
D03*
X142078D02*
D03*
X107078Y595099D02*
D03*
X74078Y605099D02*
D03*
Y585099D02*
D03*
D21*
X558450Y694400D02*
D03*
X533050D02*
D03*
X507650D02*
D03*
X482250D02*
D03*
X456850D02*
D03*
X431450D02*
D03*
X406050D02*
D03*
X380650D02*
D03*
X355250D02*
D03*
X329850D02*
D03*
X304450D02*
D03*
X279050D02*
D03*
X253650D02*
D03*
X228250D02*
D03*
X202850D02*
D03*
X177450D02*
D03*
X152050D02*
D03*
X126650D02*
D03*
X101250D02*
D03*
X75850D02*
D03*
Y495600D02*
D03*
X101250D02*
D03*
X152050D02*
D03*
X177450D02*
D03*
X202850D02*
D03*
X228250D02*
D03*
X253650D02*
D03*
X279050D02*
D03*
X304450D02*
D03*
X329850D02*
D03*
X355250D02*
D03*
X380650D02*
D03*
X406050D02*
D03*
X431450D02*
D03*
X456850D02*
D03*
X482250D02*
D03*
X507650D02*
D03*
X533050D02*
D03*
X558450D02*
D03*
D22*
X126650Y498100D02*
D03*
D23*
X566650Y569600D02*
D03*
Y595000D02*
D03*
Y620400D02*
D03*
D24*
X1001251Y437500D02*
D03*
Y447500D02*
D03*
Y462500D02*
D03*
Y472500D02*
D03*
Y467500D02*
D03*
Y457500D02*
D03*
Y452500D02*
D03*
Y442500D02*
D03*
D25*
Y487000D02*
D03*
Y479000D02*
D03*
Y431000D02*
D03*
Y423000D02*
D03*
D26*
X960000Y357500D02*
D03*
X945000D02*
D03*
D27*
X935750Y382500D02*
D03*
X959250D02*
D03*
D28*
X918250Y420000D02*
D03*
X931750D02*
D03*
X918250Y485000D02*
D03*
X931750D02*
D03*
D29*
X783000Y440000D02*
D03*
X762000D02*
D03*
X783000Y477500D02*
D03*
X762000D02*
D03*
X654500Y300000D02*
D03*
X675500D02*
D03*
X309000Y212500D02*
D03*
X288000D02*
D03*
X129000D02*
D03*
X108000D02*
D03*
X486499D02*
D03*
X465499D02*
D03*
X313000Y7500D02*
D03*
X292000D02*
D03*
X128000D02*
D03*
X107000D02*
D03*
X488000D02*
D03*
X467000D02*
D03*
D30*
X708750Y440000D02*
D03*
X721250D02*
D03*
X711250Y477500D02*
D03*
X723750D02*
D03*
D31*
X866500Y502500D02*
D03*
X878500D02*
D03*
X841000Y495000D02*
D03*
X829000D02*
D03*
D32*
X932509Y462500D02*
D03*
X917491D02*
D03*
X932500Y440000D02*
D03*
X917483D02*
D03*
D33*
X960000Y471250D02*
D03*
Y483750D02*
D03*
X960000Y418750D02*
D03*
Y431250D02*
D03*
D34*
X77500Y735000D02*
D03*
X62500D02*
D03*
X165000Y765000D02*
D03*
X150000D02*
D03*
X105000D02*
D03*
X120000D02*
D03*
D54*
X882500Y327500D02*
D03*
D55*
Y352500D02*
D03*
D59*
X667500Y259500D02*
D03*
Y145500D02*
D03*
D60*
X742500Y202500D02*
D03*
Y227500D02*
D03*
X597500D02*
D03*
Y177500D02*
D03*
D61*
X742500D02*
D03*
D62*
X790000Y546300D02*
D03*
Y571700D02*
D03*
Y597100D02*
D03*
Y622500D02*
D03*
Y647900D02*
D03*
Y673300D02*
D03*
Y698700D02*
D03*
D63*
Y724100D02*
D03*
D72*
X1052001Y501100D02*
D03*
Y408900D02*
D03*
D73*
X1007001Y501100D02*
D03*
Y408900D02*
D03*
X144900Y365799D02*
D03*
X502399D02*
D03*
X324900D02*
D03*
X502399Y165799D02*
D03*
X324900D02*
D03*
X144900D02*
D03*
D74*
X1012601Y488000D02*
D03*
Y422000D02*
D03*
D75*
X877500Y215000D02*
D03*
Y164200D02*
D03*
D76*
X352500Y780000D02*
D03*
Y735000D02*
D03*
X287500D02*
D03*
X655000Y592100D02*
D03*
Y617500D02*
D03*
Y642900D02*
D03*
D77*
X287500Y780000D02*
D03*
D78*
X81400Y340399D02*
D03*
X438899D02*
D03*
X261400D02*
D03*
X438899Y140399D02*
D03*
X261400D02*
D03*
X81400D02*
D03*
D79*
X655000Y566700D02*
D03*
M02*
