G04*
G04 #@! TF.GenerationSoftware,Altium Limited,Altium Designer,23.1.1 (15)*
G04*
G04 Layer_Color=32896*
%FSLAX44Y44*%
%MOMM*%
G71*
G04*
G04 #@! TF.SameCoordinates,71942028-349F-4B58-9001-873325432457*
G04*
G04*
G04 #@! TF.FilePolarity,Positive*
G04*
G01*
G75*
%ADD12C,0.2000*%
%ADD14C,0.1500*%
D12*
X882500Y375000D02*
G03*
X882500Y305000I0J-35000D01*
G01*
D02*
G03*
X882500Y375000I0J35000D01*
G01*
D14*
X939000Y350000D02*
X966000D01*
X939000D02*
Y365000D01*
X966000D01*
Y350000D02*
Y365000D01*
X755500Y432250D02*
X789500D01*
X755500D02*
Y447750D01*
X789500D01*
Y432250D02*
Y447750D01*
X860500Y508500D02*
X884500D01*
Y496500D02*
Y508500D01*
X860500Y496500D02*
X884500D01*
X860500D02*
Y508500D01*
X823000Y489000D02*
X847000D01*
X823000D02*
Y501000D01*
X847000D01*
Y489000D02*
Y501000D01*
X910209Y455189D02*
X939791D01*
X910209D02*
Y469811D01*
X939791D01*
Y455189D02*
Y469811D01*
X910200Y432689D02*
X939782D01*
X910200D02*
Y447311D01*
X939782D01*
Y432689D02*
Y447311D01*
X755500Y469750D02*
X789500D01*
X755500D02*
Y485250D01*
X789500D01*
Y469750D02*
Y485250D01*
X588750Y132500D02*
X751250D01*
Y272500D01*
X588750D02*
X751250D01*
X588750Y132500D02*
Y272500D01*
X682000Y292250D02*
Y307750D01*
X648000D02*
X682000D01*
X648000Y292250D02*
Y307750D01*
Y292250D02*
X682000D01*
X758450Y531350D02*
X821950D01*
Y739050D01*
X758450D02*
X821950D01*
X758450Y531350D02*
Y739050D01*
X281500Y204750D02*
Y220250D01*
Y204750D02*
X315500D01*
Y220250D01*
X281500D02*
X315500D01*
X101500Y204750D02*
Y220250D01*
Y204750D02*
X135500D01*
Y220250D01*
X101500D02*
X135500D01*
X458999Y204750D02*
Y220250D01*
Y204750D02*
X492999D01*
Y220250D01*
X458999D02*
X492999D01*
X285500Y-250D02*
Y15250D01*
Y-250D02*
X319500D01*
Y15250D01*
X285500D02*
X319500D01*
X100500Y-250D02*
Y15250D01*
Y-250D02*
X134500D01*
Y15250D01*
X100500D02*
X134500D01*
X460500Y-250D02*
Y15250D01*
Y-250D02*
X494500D01*
Y15250D01*
X460500D02*
X494500D01*
M02*
