G04*
G04 #@! TF.GenerationSoftware,Altium Limited,Altium Designer,23.1.1 (15)*
G04*
G04 Layer_Color=16711935*
%FSLAX44Y44*%
%MOMM*%
G71*
G04*
G04 #@! TF.SameCoordinates,71942028-349F-4B58-9001-873325432457*
G04*
G04*
G04 #@! TF.FilePolarity,Positive*
G04*
G01*
G75*
%ADD13C,0.1000*%
%ADD14C,0.1500*%
D13*
X1078501Y407645D02*
G03*
X1077252Y409613I-2175J0D01*
G01*
D14*
X832500Y430000D02*
Y470000D01*
X872500D01*
Y430000D02*
Y470000D01*
X832500Y430000D02*
X872500D01*
X832500Y436500D02*
X839000Y430000D01*
X47818Y640720D02*
Y700099D01*
Y490100D02*
Y549280D01*
Y490100D02*
X572077D01*
X47818Y700099D02*
X572077D01*
Y490100D02*
Y700099D01*
X40600Y549280D02*
X47818D01*
X40600Y640720D02*
X47818D01*
X40600Y549280D02*
Y564520D01*
Y640720D01*
X1076001Y409620D02*
Y500380D01*
X1071001Y409620D02*
X1077251D01*
X1081001Y407650D02*
Y409620D01*
X1078501Y407650D02*
X1081001D01*
X1078501D02*
Y502350D01*
X1081001D01*
Y407650D02*
Y502350D01*
X1001001Y407650D02*
X1071001D01*
Y502350D01*
X1001001D02*
X1071001D01*
X1001001Y407650D02*
Y502350D01*
X824000Y138800D02*
X926500D01*
X824000D02*
Y240400D01*
X926500D01*
Y138800D02*
Y240400D01*
X936500Y389500D02*
X958500D01*
X936500Y375500D02*
X958500D01*
X936500D02*
Y389500D01*
X958500Y375500D02*
Y389500D01*
X916500Y415500D02*
Y424500D01*
X933500Y415500D02*
Y424500D01*
X916500D02*
X933500D01*
X916500Y415500D02*
X933500D01*
X706750Y444750D02*
X723250D01*
X706750Y435250D02*
X723250D01*
X706750D02*
Y444750D01*
X723250Y435250D02*
Y444750D01*
X916500Y480500D02*
Y489500D01*
X933500Y480500D02*
Y489500D01*
X916500D02*
X933500D01*
X916500Y480500D02*
X933500D01*
X955250Y469250D02*
Y485750D01*
X964750Y469250D02*
Y485750D01*
X955250Y469250D02*
X964750D01*
X955250Y485750D02*
X964750D01*
X955250Y416750D02*
Y433250D01*
X964750Y416750D02*
Y433250D01*
X955250Y416750D02*
X964750D01*
X955250Y433250D02*
X964750D01*
X709250Y482250D02*
X725750D01*
X709250Y472750D02*
X725750D01*
X709250D02*
Y482250D01*
X725750Y472750D02*
Y482250D01*
X290050Y727550D02*
Y787450D01*
X349950D01*
Y727550D02*
Y787450D01*
X290050Y727550D02*
X349950D01*
X41500Y392999D02*
X197500D01*
Y236999D02*
Y392999D01*
X41500Y236999D02*
X197500D01*
X41500D02*
Y392999D01*
X78500Y730500D02*
Y739500D01*
X61500Y730500D02*
Y739500D01*
Y730500D02*
X78500D01*
X61500Y739500D02*
X78500D01*
X166000Y760500D02*
Y769500D01*
X149000Y760500D02*
Y769500D01*
Y760500D02*
X166000D01*
X149000Y769500D02*
X166000D01*
X104000Y760500D02*
Y769500D01*
X121000Y760500D02*
Y769500D01*
X104000D02*
X121000D01*
X104000Y760500D02*
X121000D01*
X398999Y236999D02*
Y392999D01*
Y236999D02*
X554999D01*
Y392999D01*
X398999D02*
X554999D01*
X221500Y236999D02*
Y392999D01*
Y236999D02*
X377500D01*
Y392999D01*
X221500D02*
X377500D01*
X623000Y655800D02*
X681000D01*
Y553800D02*
Y655800D01*
X623000Y553800D02*
X681000D01*
X623000D02*
Y655800D01*
X398999Y36999D02*
Y192999D01*
Y36999D02*
X554999D01*
Y192999D01*
X398999D02*
X554999D01*
X221500Y36999D02*
Y192999D01*
Y36999D02*
X377500D01*
Y192999D01*
X221500D02*
X377500D01*
X41500Y36999D02*
Y192999D01*
Y36999D02*
X197500D01*
Y192999D01*
X41500D02*
X197500D01*
M02*
