G04*
G04 #@! TF.GenerationSoftware,Altium Limited,Altium Designer,23.1.1 (15)*
G04*
G04 Layer_Color=8421504*
%FSLAX44Y44*%
%MOMM*%
G71*
G04*
G04 #@! TF.SameCoordinates,71942028-349F-4B58-9001-873325432457*
G04*
G04*
G04 #@! TF.FilePolarity,Positive*
G04*
G01*
G75*
%ADD17R,0.3500X0.8500*%
%ADD18R,0.8500X0.3500*%
%ADD19R,2.1500X2.1500*%
G04:AMPARAMS|DCode=20|XSize=1.5mm|YSize=1.5mm|CornerRadius=0.225mm|HoleSize=0mm|Usage=FLASHONLY|Rotation=90.000|XOffset=0mm|YOffset=0mm|HoleType=Round|Shape=RoundedRectangle|*
%AMROUNDEDRECTD20*
21,1,1.5000,1.0500,0,0,90.0*
21,1,1.0500,1.5000,0,0,90.0*
1,1,0.4500,0.5250,0.5250*
1,1,0.4500,0.5250,-0.5250*
1,1,0.4500,-0.5250,-0.5250*
1,1,0.4500,-0.5250,0.5250*
%
%ADD20ROUNDEDRECTD20*%
%ADD21R,1.0000X2.5000*%
G04:AMPARAMS|DCode=22|XSize=2.5mm|YSize=1mm|CornerRadius=0.125mm|HoleSize=0mm|Usage=FLASHONLY|Rotation=90.000|XOffset=0mm|YOffset=0mm|HoleType=Round|Shape=RoundedRectangle|*
%AMROUNDEDRECTD22*
21,1,2.5000,0.7500,0,0,90.0*
21,1,2.2500,1.0000,0,0,90.0*
1,1,0.2500,0.3750,1.1250*
1,1,0.2500,0.3750,-1.1250*
1,1,0.2500,-0.3750,-1.1250*
1,1,0.2500,-0.3750,1.1250*
%
%ADD22ROUNDEDRECTD22*%
%ADD23R,2.5000X1.0000*%
%ADD24R,1.2500X0.3000*%
%ADD25R,1.2500X0.6000*%
%ADD26R,0.8000X0.9000*%
%ADD27R,1.1500X1.0000*%
%ADD28R,0.8500X0.9500*%
%ADD29R,1.1000X1.2000*%
%ADD30R,0.8000X0.9500*%
%ADD31R,0.7500X0.9000*%
%ADD32R,0.9565X0.9621*%
%ADD33R,0.9500X0.8000*%
%ADD34R,0.8000X1.0000*%
G36*
X566290Y683920D02*
X566290D01*
Y682867D01*
X565745Y680832D01*
X564692Y679008D01*
X563202Y677518D01*
X561378Y676465D01*
X559343Y675920D01*
X557237D01*
X555202Y676465D01*
X553378Y677518D01*
X551888Y679008D01*
X550835Y680832D01*
X550290Y682867D01*
Y683920D01*
Y707920D01*
X566290D01*
Y683920D01*
D02*
G37*
G36*
X540890D02*
X540890D01*
Y682867D01*
X540345Y680832D01*
X539291Y679008D01*
X537802Y677518D01*
X535978Y676465D01*
X533943Y675920D01*
X531837D01*
X529802Y676465D01*
X527978Y677518D01*
X526488Y679008D01*
X525435Y680832D01*
X524890Y682867D01*
Y683920D01*
Y707920D01*
X540890D01*
Y683920D01*
D02*
G37*
G36*
X515490D02*
X515490D01*
Y682867D01*
X514945Y680832D01*
X513891Y679008D01*
X512402Y677518D01*
X510578Y676465D01*
X508543Y675920D01*
X506437D01*
X504402Y676465D01*
X502578Y677518D01*
X501088Y679008D01*
X500035Y680832D01*
X499490Y682867D01*
Y683920D01*
Y707920D01*
X515490D01*
Y683920D01*
D02*
G37*
G36*
X490090D02*
X490090D01*
Y682867D01*
X489545Y680832D01*
X488492Y679008D01*
X487002Y677518D01*
X485178Y676465D01*
X483143Y675920D01*
X481037D01*
X479002Y676465D01*
X477178Y677518D01*
X475688Y679008D01*
X474635Y680832D01*
X474090Y682867D01*
Y683920D01*
Y707920D01*
X490090D01*
Y683920D01*
D02*
G37*
G36*
X464690D02*
X464690D01*
Y682867D01*
X464145Y680832D01*
X463092Y679008D01*
X461602Y677518D01*
X459778Y676465D01*
X457743Y675920D01*
X455637D01*
X453602Y676465D01*
X451778Y677518D01*
X450288Y679008D01*
X449235Y680832D01*
X448690Y682867D01*
Y683920D01*
Y707920D01*
X464690D01*
Y683920D01*
D02*
G37*
G36*
X439290D02*
X439290D01*
Y682867D01*
X438745Y680832D01*
X437691Y679008D01*
X436202Y677518D01*
X434378Y676465D01*
X432343Y675920D01*
X430237D01*
X428202Y676465D01*
X426378Y677518D01*
X424888Y679008D01*
X423835Y680832D01*
X423290Y682867D01*
Y683920D01*
Y707920D01*
X439290D01*
Y683920D01*
D02*
G37*
G36*
X413890D02*
X413890D01*
Y682867D01*
X413345Y680832D01*
X412291Y679008D01*
X410802Y677518D01*
X408978Y676465D01*
X406943Y675920D01*
X404837D01*
X402802Y676465D01*
X400978Y677518D01*
X399488Y679008D01*
X398435Y680832D01*
X397890Y682867D01*
Y683920D01*
Y707920D01*
X413890D01*
Y683920D01*
D02*
G37*
G36*
X388490D02*
X388490D01*
Y682867D01*
X387945Y680832D01*
X386892Y679008D01*
X385402Y677518D01*
X383578Y676465D01*
X381543Y675920D01*
X379437D01*
X377402Y676465D01*
X375578Y677518D01*
X374088Y679008D01*
X373035Y680832D01*
X372490Y682867D01*
Y683920D01*
Y707920D01*
X388490D01*
Y683920D01*
D02*
G37*
G36*
X363090D02*
X363090D01*
Y682867D01*
X362545Y680832D01*
X361492Y679008D01*
X360002Y677518D01*
X358178Y676465D01*
X356143Y675920D01*
X354037D01*
X352002Y676465D01*
X350178Y677518D01*
X348688Y679008D01*
X347635Y680832D01*
X347090Y682867D01*
Y683920D01*
Y707920D01*
X363090D01*
Y683920D01*
D02*
G37*
G36*
X337690D02*
X337690D01*
Y682867D01*
X337145Y680832D01*
X336091Y679008D01*
X334602Y677518D01*
X332778Y676465D01*
X330743Y675920D01*
X328637D01*
X326602Y676465D01*
X324778Y677518D01*
X323288Y679008D01*
X322235Y680832D01*
X321690Y682867D01*
Y683920D01*
Y707920D01*
X337690D01*
Y683920D01*
D02*
G37*
G36*
X312290D02*
X312290D01*
Y682867D01*
X311745Y680832D01*
X310692Y679008D01*
X309202Y677518D01*
X307378Y676465D01*
X305343Y675920D01*
X303237D01*
X301202Y676465D01*
X299378Y677518D01*
X297888Y679008D01*
X296835Y680832D01*
X296290Y682867D01*
Y683920D01*
Y707920D01*
X312290D01*
Y683920D01*
D02*
G37*
G36*
X286890D02*
X286890D01*
Y682867D01*
X286345Y680832D01*
X285292Y679008D01*
X283802Y677518D01*
X281978Y676465D01*
X279943Y675920D01*
X277837D01*
X275802Y676465D01*
X273978Y677518D01*
X272488Y679008D01*
X271435Y680832D01*
X270890Y682867D01*
Y683920D01*
Y707920D01*
X286890D01*
Y683920D01*
D02*
G37*
G36*
X261490D02*
X261490D01*
Y682867D01*
X260945Y680832D01*
X259891Y679008D01*
X258402Y677518D01*
X256578Y676465D01*
X254543Y675920D01*
X252437D01*
X250402Y676465D01*
X248578Y677518D01*
X247088Y679008D01*
X246035Y680832D01*
X245490Y682867D01*
Y683920D01*
Y707920D01*
X261490D01*
Y683920D01*
D02*
G37*
G36*
X236090D02*
X236090D01*
Y682867D01*
X235545Y680832D01*
X234492Y679008D01*
X233002Y677518D01*
X231178Y676465D01*
X229143Y675920D01*
X227037D01*
X225002Y676465D01*
X223178Y677518D01*
X221688Y679008D01*
X220635Y680832D01*
X220090Y682867D01*
Y683920D01*
Y707920D01*
X236090D01*
Y683920D01*
D02*
G37*
G36*
X210690D02*
X210690D01*
Y682867D01*
X210145Y680832D01*
X209091Y679008D01*
X207602Y677518D01*
X205778Y676465D01*
X203743Y675920D01*
X201637D01*
X199602Y676465D01*
X197778Y677518D01*
X196288Y679008D01*
X195235Y680832D01*
X194690Y682867D01*
Y683920D01*
Y707920D01*
X210690D01*
Y683920D01*
D02*
G37*
G36*
X185290D02*
X185290D01*
Y682867D01*
X184745Y680832D01*
X183692Y679008D01*
X182202Y677518D01*
X180378Y676465D01*
X178343Y675920D01*
X176237D01*
X174202Y676465D01*
X172378Y677518D01*
X170888Y679008D01*
X169835Y680832D01*
X169290Y682867D01*
Y683920D01*
Y707920D01*
X185290D01*
Y683920D01*
D02*
G37*
G36*
X159890D02*
X159890D01*
Y682867D01*
X159345Y680832D01*
X158292Y679008D01*
X156802Y677518D01*
X154978Y676465D01*
X152943Y675920D01*
X150837D01*
X148802Y676465D01*
X146978Y677518D01*
X145488Y679008D01*
X144435Y680832D01*
X143890Y682867D01*
Y683920D01*
Y707920D01*
X159890D01*
Y683920D01*
D02*
G37*
G36*
X134490D02*
X134490D01*
Y682867D01*
X133945Y680832D01*
X132892Y679008D01*
X131402Y677518D01*
X129578Y676465D01*
X127543Y675920D01*
X125437D01*
X123402Y676465D01*
X121578Y677518D01*
X120088Y679008D01*
X119035Y680832D01*
X118490Y682867D01*
Y683920D01*
Y707920D01*
X134490D01*
Y683920D01*
D02*
G37*
G36*
X109090D02*
X109090D01*
Y682867D01*
X108545Y680832D01*
X107492Y679008D01*
X106002Y677518D01*
X104178Y676465D01*
X102143Y675920D01*
X100037D01*
X98002Y676465D01*
X96178Y677518D01*
X94688Y679008D01*
X93635Y680832D01*
X93090Y682867D01*
Y683920D01*
Y707920D01*
X109090D01*
Y683920D01*
D02*
G37*
G36*
X83690D02*
X83690D01*
Y682867D01*
X83145Y680832D01*
X82092Y679008D01*
X80602Y677518D01*
X78778Y676465D01*
X76743Y675920D01*
X74637D01*
X72602Y676465D01*
X70778Y677518D01*
X69288Y679008D01*
X68235Y680832D01*
X67690Y682867D01*
Y683920D01*
Y707920D01*
X83690D01*
Y683920D01*
D02*
G37*
G36*
X579990Y612400D02*
X554937D01*
X552902Y612945D01*
X551078Y613998D01*
X549588Y615488D01*
X548535Y617312D01*
X547990Y619347D01*
Y621453D01*
X548535Y623488D01*
X549588Y625312D01*
X551078Y626802D01*
X552902Y627855D01*
X554937Y628400D01*
X555990D01*
Y628400D01*
X579990D01*
Y612400D01*
D02*
G37*
G36*
Y587000D02*
X554937D01*
X552902Y587545D01*
X551078Y588598D01*
X549588Y590088D01*
X548535Y591912D01*
X547990Y593947D01*
Y596053D01*
X548535Y598088D01*
X549588Y599912D01*
X551078Y601402D01*
X552902Y602455D01*
X554937Y603000D01*
X555990D01*
Y603000D01*
X579990D01*
Y587000D01*
D02*
G37*
G36*
Y561600D02*
X554937D01*
X552902Y562145D01*
X551078Y563198D01*
X549588Y564688D01*
X548535Y566512D01*
X547990Y568547D01*
Y570653D01*
X548535Y572688D01*
X549588Y574512D01*
X551078Y576002D01*
X552902Y577055D01*
X554937Y577600D01*
X555990D01*
Y577600D01*
X579990D01*
Y561600D01*
D02*
G37*
G36*
X561378Y513535D02*
X563202Y512482D01*
X564692Y510992D01*
X565745Y509168D01*
X566290Y507133D01*
Y506080D01*
X566290D01*
Y482080D01*
X550290D01*
Y506080D01*
Y507133D01*
X550835Y509168D01*
X551888Y510992D01*
X553378Y512482D01*
X555202Y513535D01*
X557237Y514080D01*
X559343D01*
X561378Y513535D01*
D02*
G37*
G36*
X535978D02*
X537802Y512482D01*
X539291Y510992D01*
X540345Y509168D01*
X540890Y507133D01*
Y506080D01*
X540890D01*
Y482080D01*
X524890D01*
Y506080D01*
Y507133D01*
X525435Y509168D01*
X526488Y510992D01*
X527978Y512482D01*
X529802Y513535D01*
X531837Y514080D01*
X533943D01*
X535978Y513535D01*
D02*
G37*
G36*
X510578D02*
X512402Y512482D01*
X513891Y510992D01*
X514945Y509168D01*
X515490Y507133D01*
Y506080D01*
X515490D01*
Y482080D01*
X499490D01*
Y506080D01*
Y507133D01*
X500035Y509168D01*
X501088Y510992D01*
X502578Y512482D01*
X504402Y513535D01*
X506437Y514080D01*
X508543D01*
X510578Y513535D01*
D02*
G37*
G36*
X485178D02*
X487002Y512482D01*
X488492Y510992D01*
X489545Y509168D01*
X490090Y507133D01*
Y506080D01*
X490090D01*
Y482080D01*
X474090D01*
Y506080D01*
Y507133D01*
X474635Y509168D01*
X475688Y510992D01*
X477178Y512482D01*
X479002Y513535D01*
X481037Y514080D01*
X483143D01*
X485178Y513535D01*
D02*
G37*
G36*
X459778D02*
X461602Y512482D01*
X463092Y510992D01*
X464145Y509168D01*
X464690Y507133D01*
Y506080D01*
X464690D01*
Y482080D01*
X448690D01*
Y506080D01*
Y507133D01*
X449235Y509168D01*
X450288Y510992D01*
X451778Y512482D01*
X453602Y513535D01*
X455637Y514080D01*
X457743D01*
X459778Y513535D01*
D02*
G37*
G36*
X434378D02*
X436202Y512482D01*
X437691Y510992D01*
X438745Y509168D01*
X439290Y507133D01*
Y506080D01*
X439290D01*
Y482080D01*
X423290D01*
Y506080D01*
Y507133D01*
X423835Y509168D01*
X424888Y510992D01*
X426378Y512482D01*
X428202Y513535D01*
X430237Y514080D01*
X432343D01*
X434378Y513535D01*
D02*
G37*
G36*
X408978D02*
X410802Y512482D01*
X412291Y510992D01*
X413345Y509168D01*
X413890Y507133D01*
Y506080D01*
X413890D01*
Y482080D01*
X397890D01*
Y506080D01*
Y507133D01*
X398435Y509168D01*
X399488Y510992D01*
X400978Y512482D01*
X402802Y513535D01*
X404837Y514080D01*
X406943D01*
X408978Y513535D01*
D02*
G37*
G36*
X383578D02*
X385402Y512482D01*
X386892Y510992D01*
X387945Y509168D01*
X388490Y507133D01*
Y506080D01*
X388490D01*
Y482080D01*
X372490D01*
Y506080D01*
Y507133D01*
X373035Y509168D01*
X374088Y510992D01*
X375578Y512482D01*
X377402Y513535D01*
X379437Y514080D01*
X381543D01*
X383578Y513535D01*
D02*
G37*
G36*
X358178D02*
X360002Y512482D01*
X361492Y510992D01*
X362545Y509168D01*
X363090Y507133D01*
Y506080D01*
X363090D01*
Y482080D01*
X347090D01*
Y506080D01*
Y507133D01*
X347635Y509168D01*
X348688Y510992D01*
X350178Y512482D01*
X352002Y513535D01*
X354037Y514080D01*
X356143D01*
X358178Y513535D01*
D02*
G37*
G36*
X332778D02*
X334602Y512482D01*
X336091Y510992D01*
X337145Y509168D01*
X337690Y507133D01*
Y506080D01*
X337690D01*
Y482080D01*
X321690D01*
Y506080D01*
Y507133D01*
X322235Y509168D01*
X323288Y510992D01*
X324778Y512482D01*
X326602Y513535D01*
X328637Y514080D01*
X330743D01*
X332778Y513535D01*
D02*
G37*
G36*
X307378D02*
X309202Y512482D01*
X310692Y510992D01*
X311745Y509168D01*
X312290Y507133D01*
Y506080D01*
X312290D01*
Y482080D01*
X296290D01*
Y506080D01*
Y507133D01*
X296835Y509168D01*
X297888Y510992D01*
X299378Y512482D01*
X301202Y513535D01*
X303237Y514080D01*
X305343D01*
X307378Y513535D01*
D02*
G37*
G36*
X281978D02*
X283802Y512482D01*
X285292Y510992D01*
X286345Y509168D01*
X286890Y507133D01*
Y506080D01*
X286890D01*
Y482080D01*
X270890D01*
Y506080D01*
Y507133D01*
X271435Y509168D01*
X272488Y510992D01*
X273978Y512482D01*
X275802Y513535D01*
X277837Y514080D01*
X279943D01*
X281978Y513535D01*
D02*
G37*
G36*
X256578D02*
X258402Y512482D01*
X259891Y510992D01*
X260945Y509168D01*
X261490Y507133D01*
Y506080D01*
X261490D01*
Y482080D01*
X245490D01*
Y506080D01*
Y507133D01*
X246035Y509168D01*
X247088Y510992D01*
X248578Y512482D01*
X250402Y513535D01*
X252437Y514080D01*
X254543D01*
X256578Y513535D01*
D02*
G37*
G36*
X231178D02*
X233002Y512482D01*
X234492Y510992D01*
X235545Y509168D01*
X236090Y507133D01*
Y506080D01*
X236090D01*
Y482080D01*
X220090D01*
Y506080D01*
Y507133D01*
X220635Y509168D01*
X221688Y510992D01*
X223178Y512482D01*
X225002Y513535D01*
X227037Y514080D01*
X229143D01*
X231178Y513535D01*
D02*
G37*
G36*
X205778D02*
X207602Y512482D01*
X209091Y510992D01*
X210145Y509168D01*
X210690Y507133D01*
Y506080D01*
X210690D01*
Y482080D01*
X194690D01*
Y506080D01*
Y507133D01*
X195235Y509168D01*
X196288Y510992D01*
X197778Y512482D01*
X199602Y513535D01*
X201637Y514080D01*
X203743D01*
X205778Y513535D01*
D02*
G37*
G36*
X180378D02*
X182202Y512482D01*
X183692Y510992D01*
X184745Y509168D01*
X185290Y507133D01*
Y506080D01*
X185290D01*
Y482080D01*
X169290D01*
Y506080D01*
Y507133D01*
X169835Y509168D01*
X170888Y510992D01*
X172378Y512482D01*
X174202Y513535D01*
X176237Y514080D01*
X178343D01*
X180378Y513535D01*
D02*
G37*
G36*
X154978D02*
X156802Y512482D01*
X158292Y510992D01*
X159345Y509168D01*
X159890Y507133D01*
Y506080D01*
X159890D01*
Y482080D01*
X143890D01*
Y506080D01*
Y507133D01*
X144435Y509168D01*
X145488Y510992D01*
X146978Y512482D01*
X148802Y513535D01*
X150837Y514080D01*
X152943D01*
X154978Y513535D01*
D02*
G37*
G36*
X129578D02*
X131402Y512482D01*
X132892Y510992D01*
X133945Y509168D01*
X134490Y507133D01*
Y506080D01*
X134490D01*
Y482080D01*
X118490D01*
Y506080D01*
Y507133D01*
X119035Y509168D01*
X120088Y510992D01*
X121578Y512482D01*
X123402Y513535D01*
X125437Y514080D01*
X127543D01*
X129578Y513535D01*
D02*
G37*
G36*
X104178D02*
X106002Y512482D01*
X107492Y510992D01*
X108545Y509168D01*
X109090Y507133D01*
Y506080D01*
X109090D01*
Y482080D01*
X93090D01*
Y506080D01*
Y507133D01*
X93635Y509168D01*
X94688Y510992D01*
X96178Y512482D01*
X98002Y513535D01*
X100037Y514080D01*
X102143D01*
X104178Y513535D01*
D02*
G37*
G36*
X78778D02*
X80602Y512482D01*
X82092Y510992D01*
X83145Y509168D01*
X83690Y507133D01*
Y506080D01*
X83690D01*
Y482080D01*
X67690D01*
Y506080D01*
Y507133D01*
X68235Y509168D01*
X69288Y510992D01*
X70778Y512482D01*
X72602Y513535D01*
X74637Y514080D01*
X76743D01*
X78778Y513535D01*
D02*
G37*
D17*
X842750Y430500D02*
D03*
X849250D02*
D03*
X855750D02*
D03*
X862250D02*
D03*
Y469500D02*
D03*
X855750D02*
D03*
X849250D02*
D03*
X842750D02*
D03*
D18*
X872000Y440250D02*
D03*
Y446750D02*
D03*
Y453250D02*
D03*
Y459750D02*
D03*
X833000D02*
D03*
Y453250D02*
D03*
Y446750D02*
D03*
Y440250D02*
D03*
D19*
X852500Y450000D02*
D03*
D20*
X192078Y570099D02*
D03*
X167078D02*
D03*
X142078D02*
D03*
X107078Y595099D02*
D03*
X74078Y605099D02*
D03*
Y585099D02*
D03*
D21*
X558450Y694400D02*
D03*
X533050D02*
D03*
X507650D02*
D03*
X482250D02*
D03*
X456850D02*
D03*
X431450D02*
D03*
X406050D02*
D03*
X380650D02*
D03*
X355250D02*
D03*
X329850D02*
D03*
X304450D02*
D03*
X279050D02*
D03*
X253650D02*
D03*
X228250D02*
D03*
X202850D02*
D03*
X177450D02*
D03*
X152050D02*
D03*
X126650D02*
D03*
X101250D02*
D03*
X75850D02*
D03*
Y495600D02*
D03*
X101250D02*
D03*
X152050D02*
D03*
X177450D02*
D03*
X202850D02*
D03*
X228250D02*
D03*
X253650D02*
D03*
X279050D02*
D03*
X304450D02*
D03*
X329850D02*
D03*
X355250D02*
D03*
X380650D02*
D03*
X406050D02*
D03*
X431450D02*
D03*
X456850D02*
D03*
X482250D02*
D03*
X507650D02*
D03*
X533050D02*
D03*
X558450D02*
D03*
D22*
X126650Y498100D02*
D03*
D23*
X566650Y569600D02*
D03*
Y595000D02*
D03*
Y620400D02*
D03*
D24*
X1001251Y437500D02*
D03*
Y447500D02*
D03*
Y462500D02*
D03*
Y472500D02*
D03*
Y467500D02*
D03*
Y457500D02*
D03*
Y452500D02*
D03*
Y442500D02*
D03*
D25*
Y487000D02*
D03*
Y479000D02*
D03*
Y431000D02*
D03*
Y423000D02*
D03*
D26*
X960000Y357500D02*
D03*
X945000D02*
D03*
D27*
X935750Y382500D02*
D03*
X959250D02*
D03*
D28*
X918250Y420000D02*
D03*
X931750D02*
D03*
X918250Y485000D02*
D03*
X931750D02*
D03*
D29*
X783000Y440000D02*
D03*
X762000D02*
D03*
X783000Y477500D02*
D03*
X762000D02*
D03*
X654500Y300000D02*
D03*
X675500D02*
D03*
X309000Y212500D02*
D03*
X288000D02*
D03*
X129000D02*
D03*
X108000D02*
D03*
X486499D02*
D03*
X465499D02*
D03*
X313000Y7500D02*
D03*
X292000D02*
D03*
X128000D02*
D03*
X107000D02*
D03*
X488000D02*
D03*
X467000D02*
D03*
D30*
X708750Y440000D02*
D03*
X721250D02*
D03*
X711250Y477500D02*
D03*
X723750D02*
D03*
D31*
X866500Y502500D02*
D03*
X878500D02*
D03*
X841000Y495000D02*
D03*
X829000D02*
D03*
D32*
X932509Y462500D02*
D03*
X917491D02*
D03*
X932500Y440000D02*
D03*
X917483D02*
D03*
D33*
X960000Y471250D02*
D03*
Y483750D02*
D03*
X960000Y418750D02*
D03*
Y431250D02*
D03*
D34*
X77500Y735000D02*
D03*
X62500D02*
D03*
X165000Y765000D02*
D03*
X150000D02*
D03*
X105000D02*
D03*
X120000D02*
D03*
M02*
