G04*
G04 #@! TF.GenerationSoftware,Altium Limited,Altium Designer,23.1.1 (15)*
G04*
G04 Layer_Color=8388736*
%FSLAX44Y44*%
%MOMM*%
G71*
G04*
G04 #@! TF.SameCoordinates,71942028-349F-4B58-9001-873325432457*
G04*
G04*
G04 #@! TF.FilePolarity,Negative*
G04*
G01*
G75*
%ADD26R,0.8000X0.9000*%
%ADD29R,1.1000X1.2000*%
%ADD31R,0.7500X0.9000*%
%ADD32R,0.9565X0.9621*%
%ADD35R,0.5000X1.0000*%
%ADD36R,1.0000X0.5000*%
%ADD37R,2.3000X2.3000*%
G04:AMPARAMS|DCode=38|XSize=1.65mm|YSize=1.65mm|CornerRadius=0.3mm|HoleSize=0mm|Usage=FLASHONLY|Rotation=90.000|XOffset=0mm|YOffset=0mm|HoleType=Round|Shape=RoundedRectangle|*
%AMROUNDEDRECTD38*
21,1,1.6500,1.0500,0,0,90.0*
21,1,1.0500,1.6500,0,0,90.0*
1,1,0.6000,0.5250,0.5250*
1,1,0.6000,0.5250,-0.5250*
1,1,0.6000,-0.5250,-0.5250*
1,1,0.6000,-0.5250,0.5250*
%
%ADD38ROUNDEDRECTD38*%
%ADD39R,1.1500X2.6500*%
%ADD40R,1.2032X2.7032*%
G04:AMPARAMS|DCode=41|XSize=2.7032mm|YSize=1.2032mm|CornerRadius=0.2266mm|HoleSize=0mm|Usage=FLASHONLY|Rotation=90.000|XOffset=0mm|YOffset=0mm|HoleType=Round|Shape=RoundedRectangle|*
%AMROUNDEDRECTD41*
21,1,2.7032,0.7500,0,0,90.0*
21,1,2.2500,1.2032,0,0,90.0*
1,1,0.4532,0.3750,1.1250*
1,1,0.4532,0.3750,-1.1250*
1,1,0.4532,-0.3750,-1.1250*
1,1,0.4532,-0.3750,1.1250*
%
%ADD41ROUNDEDRECTD41*%
%ADD42R,2.6500X1.1500*%
%ADD43R,1.4000X0.4500*%
%ADD44R,1.4000X0.7500*%
%ADD45R,1.3000X1.1500*%
%ADD46R,1.0000X1.1000*%
%ADD47R,0.9500X1.1000*%
%ADD48R,1.1000X0.9500*%
%ADD49R,0.9500X1.1500*%
%ADD50C,2.7150*%
%ADD51C,2.1500*%
%ADD52C,0.5500*%
%ADD53C,2.5500*%
%ADD54R,1.2000X1.2000*%
%ADD55C,1.2000*%
%ADD56C,1.6500*%
%ADD57R,1.6500X1.6500*%
%ADD58R,2.1500X2.1500*%
G04:AMPARAMS|DCode=59|XSize=2.4mm|YSize=5mm|CornerRadius=1.2mm|HoleSize=0mm|Usage=FLASHONLY|Rotation=90.000|XOffset=0mm|YOffset=0mm|HoleType=Round|Shape=RoundedRectangle|*
%AMROUNDEDRECTD59*
21,1,2.4000,2.6000,0,0,90.0*
21,1,0.0000,5.0000,0,0,90.0*
1,1,2.4000,1.3000,0.0000*
1,1,2.4000,1.3000,0.0000*
1,1,2.4000,-1.3000,0.0000*
1,1,2.4000,-1.3000,0.0000*
%
%ADD59ROUNDEDRECTD59*%
%ADD60C,1.5500*%
%ADD61R,1.5500X1.5500*%
%ADD62C,1.8400*%
%ADD63R,1.8400X1.8400*%
%ADD64R,1.6500X1.6500*%
%ADD65C,0.8032*%
%ADD66C,5.1500*%
G36*
X566408Y708663D02*
X566522Y708636D01*
X566632Y708590D01*
X566732Y708529D01*
X566822Y708452D01*
X566899Y708362D01*
X566960Y708262D01*
X567006Y708153D01*
X567033Y708038D01*
X567042Y707920D01*
Y683920D01*
X567042Y683920D01*
Y682867D01*
X567039Y682827D01*
X567038Y682788D01*
X567035Y682769D01*
X567033Y682749D01*
X567024Y682711D01*
X567017Y682672D01*
X566471Y680637D01*
X566458Y680600D01*
X566447Y680563D01*
X566439Y680545D01*
X566432Y680526D01*
X566413Y680492D01*
X566396Y680456D01*
X565343Y678632D01*
X565321Y678599D01*
X565300Y678566D01*
X565287Y678551D01*
X565276Y678534D01*
X565249Y678506D01*
X565224Y678476D01*
X563734Y676986D01*
X563704Y676961D01*
X563675Y676934D01*
X563659Y676923D01*
X563644Y676910D01*
X563611Y676889D01*
X563578Y676867D01*
X561754Y675814D01*
X561718Y675797D01*
X561684Y675778D01*
X561665Y675771D01*
X561647Y675763D01*
X561610Y675752D01*
X561573Y675739D01*
X559538Y675193D01*
X559499Y675186D01*
X559461Y675177D01*
X559441Y675175D01*
X559422Y675172D01*
X559383Y675171D01*
X559343Y675168D01*
X557237D01*
X557197Y675171D01*
X557158Y675172D01*
X557139Y675175D01*
X557119Y675177D01*
X557081Y675186D01*
X557042Y675193D01*
X555007Y675739D01*
X554970Y675752D01*
X554933Y675763D01*
X554915Y675771D01*
X554896Y675778D01*
X554861Y675797D01*
X554826Y675814D01*
X553002Y676867D01*
X552969Y676889D01*
X552936Y676910D01*
X552921Y676923D01*
X552904Y676934D01*
X552876Y676961D01*
X552846Y676986D01*
X551356Y678476D01*
X551331Y678506D01*
X551304Y678534D01*
X551293Y678551D01*
X551280Y678566D01*
X551259Y678599D01*
X551237Y678632D01*
X550184Y680456D01*
X550167Y680492D01*
X550148Y680526D01*
X550141Y680545D01*
X550133Y680563D01*
X550122Y680600D01*
X550108Y680637D01*
X549563Y682672D01*
X549556Y682711D01*
X549547Y682749D01*
X549545Y682769D01*
X549542Y682788D01*
X549541Y682827D01*
X549538Y682867D01*
Y683920D01*
Y707920D01*
X549547Y708038D01*
X549575Y708153D01*
X549620Y708262D01*
X549681Y708362D01*
X549758Y708452D01*
X549848Y708529D01*
X549948Y708590D01*
X550057Y708636D01*
X550172Y708663D01*
X550290Y708672D01*
X566290D01*
X566408Y708663D01*
D02*
G37*
G36*
X541008D02*
X541123Y708636D01*
X541231Y708590D01*
X541332Y708529D01*
X541422Y708452D01*
X541499Y708362D01*
X541560Y708262D01*
X541605Y708153D01*
X541633Y708038D01*
X541642Y707920D01*
Y683920D01*
X541642Y683920D01*
Y682867D01*
X541639Y682827D01*
X541638Y682788D01*
X541635Y682769D01*
X541633Y682749D01*
X541624Y682711D01*
X541617Y682672D01*
X541071Y680637D01*
X541058Y680600D01*
X541047Y680563D01*
X541039Y680545D01*
X541032Y680526D01*
X541013Y680492D01*
X540996Y680456D01*
X539943Y678632D01*
X539921Y678599D01*
X539900Y678566D01*
X539887Y678551D01*
X539876Y678534D01*
X539849Y678506D01*
X539823Y678476D01*
X538334Y676986D01*
X538304Y676961D01*
X538275Y676934D01*
X538259Y676923D01*
X538244Y676910D01*
X538211Y676889D01*
X538178Y676867D01*
X536354Y675814D01*
X536318Y675797D01*
X536284Y675778D01*
X536265Y675771D01*
X536247Y675763D01*
X536210Y675752D01*
X536173Y675739D01*
X534138Y675193D01*
X534099Y675186D01*
X534061Y675177D01*
X534041Y675175D01*
X534022Y675172D01*
X533983Y675171D01*
X533943Y675168D01*
X531837D01*
X531797Y675171D01*
X531758Y675172D01*
X531739Y675175D01*
X531719Y675177D01*
X531681Y675186D01*
X531642Y675193D01*
X529607Y675739D01*
X529570Y675752D01*
X529533Y675763D01*
X529515Y675771D01*
X529496Y675778D01*
X529462Y675797D01*
X529426Y675814D01*
X527602Y676867D01*
X527569Y676889D01*
X527536Y676910D01*
X527521Y676923D01*
X527504Y676934D01*
X527476Y676961D01*
X527446Y676986D01*
X525956Y678476D01*
X525931Y678506D01*
X525904Y678534D01*
X525893Y678551D01*
X525880Y678566D01*
X525859Y678599D01*
X525837Y678632D01*
X524784Y680456D01*
X524767Y680492D01*
X524748Y680526D01*
X524741Y680545D01*
X524733Y680563D01*
X524722Y680600D01*
X524709Y680637D01*
X524163Y682672D01*
X524156Y682711D01*
X524147Y682749D01*
X524145Y682769D01*
X524142Y682788D01*
X524141Y682827D01*
X524138Y682867D01*
Y683920D01*
Y707920D01*
X524147Y708038D01*
X524174Y708153D01*
X524220Y708262D01*
X524281Y708362D01*
X524358Y708452D01*
X524448Y708529D01*
X524548Y708590D01*
X524658Y708636D01*
X524772Y708663D01*
X524890Y708672D01*
X540890D01*
X541008Y708663D01*
D02*
G37*
G36*
X515608D02*
X515723Y708636D01*
X515831Y708590D01*
X515932Y708529D01*
X516022Y708452D01*
X516099Y708362D01*
X516160Y708262D01*
X516205Y708153D01*
X516233Y708038D01*
X516242Y707920D01*
Y683920D01*
X516242Y683920D01*
Y682867D01*
X516239Y682827D01*
X516238Y682788D01*
X516235Y682769D01*
X516233Y682749D01*
X516224Y682711D01*
X516217Y682672D01*
X515671Y680637D01*
X515658Y680600D01*
X515647Y680563D01*
X515639Y680545D01*
X515632Y680526D01*
X515613Y680492D01*
X515596Y680456D01*
X514543Y678632D01*
X514521Y678599D01*
X514500Y678566D01*
X514487Y678551D01*
X514476Y678534D01*
X514449Y678506D01*
X514423Y678476D01*
X512934Y676986D01*
X512904Y676961D01*
X512876Y676934D01*
X512859Y676923D01*
X512844Y676910D01*
X512811Y676889D01*
X512778Y676867D01*
X510954Y675814D01*
X510918Y675797D01*
X510884Y675778D01*
X510865Y675771D01*
X510848Y675763D01*
X510810Y675752D01*
X510773Y675739D01*
X508738Y675193D01*
X508699Y675186D01*
X508661Y675177D01*
X508641Y675175D01*
X508622Y675172D01*
X508583Y675171D01*
X508543Y675168D01*
X506437D01*
X506397Y675171D01*
X506358Y675172D01*
X506339Y675175D01*
X506319Y675177D01*
X506281Y675186D01*
X506242Y675193D01*
X504207Y675739D01*
X504170Y675752D01*
X504132Y675763D01*
X504115Y675771D01*
X504096Y675778D01*
X504062Y675797D01*
X504026Y675814D01*
X502202Y676867D01*
X502169Y676889D01*
X502136Y676910D01*
X502121Y676923D01*
X502104Y676934D01*
X502076Y676961D01*
X502046Y676986D01*
X500556Y678476D01*
X500531Y678506D01*
X500504Y678534D01*
X500493Y678551D01*
X500480Y678566D01*
X500459Y678599D01*
X500437Y678632D01*
X499384Y680456D01*
X499367Y680492D01*
X499348Y680526D01*
X499341Y680545D01*
X499333Y680563D01*
X499322Y680600D01*
X499309Y680637D01*
X498763Y682672D01*
X498756Y682711D01*
X498747Y682749D01*
X498745Y682769D01*
X498742Y682788D01*
X498741Y682827D01*
X498738Y682867D01*
Y683920D01*
Y707920D01*
X498747Y708038D01*
X498774Y708153D01*
X498820Y708262D01*
X498881Y708362D01*
X498958Y708452D01*
X499048Y708529D01*
X499148Y708590D01*
X499258Y708636D01*
X499372Y708663D01*
X499490Y708672D01*
X515490D01*
X515608Y708663D01*
D02*
G37*
G36*
X490208D02*
X490322Y708636D01*
X490432Y708590D01*
X490532Y708529D01*
X490622Y708452D01*
X490699Y708362D01*
X490760Y708262D01*
X490806Y708153D01*
X490833Y708038D01*
X490842Y707920D01*
Y683920D01*
X490842Y683920D01*
Y682867D01*
X490839Y682827D01*
X490838Y682788D01*
X490835Y682769D01*
X490833Y682749D01*
X490824Y682711D01*
X490817Y682672D01*
X490271Y680637D01*
X490258Y680600D01*
X490247Y680563D01*
X490239Y680545D01*
X490232Y680526D01*
X490213Y680492D01*
X490196Y680456D01*
X489143Y678632D01*
X489121Y678599D01*
X489100Y678566D01*
X489087Y678551D01*
X489076Y678534D01*
X489049Y678506D01*
X489024Y678476D01*
X487534Y676986D01*
X487504Y676961D01*
X487476Y676934D01*
X487459Y676923D01*
X487444Y676910D01*
X487411Y676889D01*
X487378Y676867D01*
X485554Y675814D01*
X485518Y675797D01*
X485484Y675778D01*
X485465Y675771D01*
X485448Y675763D01*
X485410Y675752D01*
X485373Y675739D01*
X483338Y675193D01*
X483299Y675186D01*
X483261Y675177D01*
X483241Y675175D01*
X483222Y675172D01*
X483183Y675171D01*
X483143Y675168D01*
X481037D01*
X480997Y675171D01*
X480958Y675172D01*
X480939Y675175D01*
X480919Y675177D01*
X480881Y675186D01*
X480842Y675193D01*
X478807Y675739D01*
X478770Y675752D01*
X478732Y675763D01*
X478715Y675771D01*
X478696Y675778D01*
X478661Y675797D01*
X478626Y675814D01*
X476802Y676867D01*
X476769Y676889D01*
X476736Y676910D01*
X476721Y676923D01*
X476704Y676934D01*
X476676Y676961D01*
X476646Y676986D01*
X475156Y678476D01*
X475131Y678506D01*
X475104Y678534D01*
X475093Y678551D01*
X475080Y678566D01*
X475059Y678599D01*
X475037Y678632D01*
X473984Y680456D01*
X473967Y680492D01*
X473948Y680526D01*
X473941Y680545D01*
X473933Y680563D01*
X473922Y680600D01*
X473909Y680637D01*
X473363Y682672D01*
X473356Y682711D01*
X473347Y682749D01*
X473345Y682769D01*
X473342Y682788D01*
X473341Y682827D01*
X473338Y682867D01*
Y683920D01*
Y707920D01*
X473347Y708038D01*
X473374Y708153D01*
X473420Y708262D01*
X473481Y708362D01*
X473558Y708452D01*
X473648Y708529D01*
X473748Y708590D01*
X473857Y708636D01*
X473972Y708663D01*
X474090Y708672D01*
X490090D01*
X490208Y708663D01*
D02*
G37*
G36*
X464808D02*
X464922Y708636D01*
X465032Y708590D01*
X465132Y708529D01*
X465222Y708452D01*
X465299Y708362D01*
X465360Y708262D01*
X465406Y708153D01*
X465433Y708038D01*
X465442Y707920D01*
Y683920D01*
X465442Y683920D01*
Y682867D01*
X465439Y682827D01*
X465438Y682788D01*
X465435Y682769D01*
X465433Y682749D01*
X465424Y682711D01*
X465417Y682672D01*
X464871Y680637D01*
X464858Y680600D01*
X464847Y680563D01*
X464839Y680545D01*
X464832Y680526D01*
X464813Y680492D01*
X464796Y680456D01*
X463743Y678632D01*
X463721Y678599D01*
X463700Y678566D01*
X463687Y678551D01*
X463676Y678534D01*
X463649Y678506D01*
X463624Y678476D01*
X462134Y676986D01*
X462104Y676961D01*
X462076Y676934D01*
X462059Y676923D01*
X462044Y676910D01*
X462011Y676889D01*
X461978Y676867D01*
X460154Y675814D01*
X460118Y675797D01*
X460084Y675778D01*
X460065Y675771D01*
X460047Y675763D01*
X460010Y675752D01*
X459973Y675739D01*
X457938Y675193D01*
X457899Y675186D01*
X457861Y675177D01*
X457841Y675175D01*
X457822Y675172D01*
X457783Y675171D01*
X457743Y675168D01*
X455637D01*
X455597Y675171D01*
X455558Y675172D01*
X455539Y675175D01*
X455519Y675177D01*
X455481Y675186D01*
X455442Y675193D01*
X453407Y675739D01*
X453370Y675752D01*
X453332Y675763D01*
X453315Y675771D01*
X453296Y675778D01*
X453261Y675797D01*
X453226Y675814D01*
X451402Y676867D01*
X451369Y676889D01*
X451336Y676910D01*
X451321Y676923D01*
X451304Y676934D01*
X451276Y676961D01*
X451246Y676986D01*
X449756Y678476D01*
X449731Y678506D01*
X449704Y678534D01*
X449693Y678551D01*
X449680Y678566D01*
X449659Y678599D01*
X449637Y678632D01*
X448584Y680456D01*
X448567Y680492D01*
X448548Y680526D01*
X448541Y680545D01*
X448533Y680563D01*
X448522Y680600D01*
X448508Y680637D01*
X447963Y682672D01*
X447956Y682711D01*
X447947Y682749D01*
X447945Y682769D01*
X447942Y682788D01*
X447941Y682827D01*
X447938Y682867D01*
Y683920D01*
Y707920D01*
X447947Y708038D01*
X447975Y708153D01*
X448020Y708262D01*
X448081Y708362D01*
X448158Y708452D01*
X448248Y708529D01*
X448348Y708590D01*
X448457Y708636D01*
X448572Y708663D01*
X448690Y708672D01*
X464690D01*
X464808Y708663D01*
D02*
G37*
G36*
X439408D02*
X439523Y708636D01*
X439632Y708590D01*
X439732Y708529D01*
X439822Y708452D01*
X439899Y708362D01*
X439960Y708262D01*
X440005Y708153D01*
X440033Y708038D01*
X440042Y707920D01*
Y683920D01*
X440042Y683920D01*
Y682867D01*
X440039Y682827D01*
X440038Y682788D01*
X440035Y682769D01*
X440033Y682749D01*
X440024Y682711D01*
X440017Y682672D01*
X439471Y680637D01*
X439458Y680600D01*
X439447Y680563D01*
X439439Y680545D01*
X439432Y680526D01*
X439413Y680492D01*
X439396Y680456D01*
X438343Y678632D01*
X438321Y678599D01*
X438300Y678566D01*
X438287Y678551D01*
X438276Y678534D01*
X438249Y678506D01*
X438223Y678476D01*
X436734Y676986D01*
X436704Y676961D01*
X436675Y676934D01*
X436659Y676923D01*
X436644Y676910D01*
X436611Y676889D01*
X436578Y676867D01*
X434754Y675814D01*
X434718Y675797D01*
X434684Y675778D01*
X434665Y675771D01*
X434647Y675763D01*
X434610Y675752D01*
X434573Y675739D01*
X432538Y675193D01*
X432499Y675186D01*
X432461Y675177D01*
X432441Y675175D01*
X432422Y675172D01*
X432383Y675171D01*
X432343Y675168D01*
X430237D01*
X430197Y675171D01*
X430158Y675172D01*
X430139Y675175D01*
X430119Y675177D01*
X430081Y675186D01*
X430042Y675193D01*
X428007Y675739D01*
X427970Y675752D01*
X427933Y675763D01*
X427915Y675771D01*
X427896Y675778D01*
X427862Y675797D01*
X427826Y675814D01*
X426002Y676867D01*
X425969Y676889D01*
X425936Y676910D01*
X425921Y676923D01*
X425904Y676934D01*
X425876Y676961D01*
X425846Y676986D01*
X424356Y678476D01*
X424331Y678506D01*
X424304Y678534D01*
X424293Y678551D01*
X424280Y678566D01*
X424259Y678599D01*
X424237Y678632D01*
X423184Y680456D01*
X423167Y680492D01*
X423148Y680526D01*
X423141Y680545D01*
X423133Y680563D01*
X423122Y680600D01*
X423108Y680637D01*
X422563Y682672D01*
X422556Y682711D01*
X422547Y682749D01*
X422545Y682769D01*
X422542Y682788D01*
X422541Y682827D01*
X422538Y682867D01*
Y683920D01*
Y707920D01*
X422547Y708038D01*
X422575Y708153D01*
X422620Y708262D01*
X422681Y708362D01*
X422758Y708452D01*
X422848Y708529D01*
X422948Y708590D01*
X423058Y708636D01*
X423172Y708663D01*
X423290Y708672D01*
X439290D01*
X439408Y708663D01*
D02*
G37*
G36*
X414008D02*
X414123Y708636D01*
X414231Y708590D01*
X414332Y708529D01*
X414422Y708452D01*
X414499Y708362D01*
X414560Y708262D01*
X414605Y708153D01*
X414633Y708038D01*
X414642Y707920D01*
Y683920D01*
X414642Y683920D01*
Y682867D01*
X414639Y682827D01*
X414638Y682788D01*
X414635Y682769D01*
X414633Y682749D01*
X414624Y682711D01*
X414617Y682672D01*
X414071Y680637D01*
X414058Y680600D01*
X414047Y680563D01*
X414039Y680545D01*
X414032Y680526D01*
X414013Y680492D01*
X413996Y680456D01*
X412943Y678632D01*
X412921Y678599D01*
X412900Y678566D01*
X412887Y678551D01*
X412876Y678534D01*
X412849Y678506D01*
X412823Y678476D01*
X411334Y676986D01*
X411304Y676961D01*
X411275Y676934D01*
X411259Y676923D01*
X411244Y676910D01*
X411211Y676889D01*
X411178Y676867D01*
X409354Y675814D01*
X409318Y675797D01*
X409284Y675778D01*
X409265Y675771D01*
X409248Y675763D01*
X409210Y675752D01*
X409173Y675739D01*
X407138Y675193D01*
X407099Y675186D01*
X407061Y675177D01*
X407041Y675175D01*
X407022Y675172D01*
X406983Y675171D01*
X406943Y675168D01*
X404837D01*
X404797Y675171D01*
X404758Y675172D01*
X404739Y675175D01*
X404719Y675177D01*
X404681Y675186D01*
X404642Y675193D01*
X402607Y675739D01*
X402570Y675752D01*
X402533Y675763D01*
X402515Y675771D01*
X402496Y675778D01*
X402462Y675797D01*
X402426Y675814D01*
X400602Y676867D01*
X400569Y676889D01*
X400536Y676910D01*
X400521Y676923D01*
X400504Y676934D01*
X400476Y676961D01*
X400446Y676986D01*
X398956Y678476D01*
X398931Y678506D01*
X398904Y678534D01*
X398893Y678551D01*
X398880Y678566D01*
X398859Y678599D01*
X398837Y678632D01*
X397784Y680456D01*
X397767Y680492D01*
X397748Y680526D01*
X397741Y680545D01*
X397733Y680563D01*
X397722Y680600D01*
X397709Y680637D01*
X397163Y682672D01*
X397156Y682711D01*
X397147Y682749D01*
X397145Y682769D01*
X397142Y682788D01*
X397141Y682827D01*
X397138Y682867D01*
Y683920D01*
Y707920D01*
X397147Y708038D01*
X397174Y708153D01*
X397220Y708262D01*
X397281Y708362D01*
X397358Y708452D01*
X397448Y708529D01*
X397548Y708590D01*
X397658Y708636D01*
X397772Y708663D01*
X397890Y708672D01*
X413890D01*
X414008Y708663D01*
D02*
G37*
G36*
X388608D02*
X388722Y708636D01*
X388831Y708590D01*
X388932Y708529D01*
X389022Y708452D01*
X389099Y708362D01*
X389160Y708262D01*
X389206Y708153D01*
X389233Y708038D01*
X389242Y707920D01*
Y683920D01*
X389242Y683920D01*
Y682867D01*
X389239Y682827D01*
X389238Y682788D01*
X389235Y682769D01*
X389233Y682749D01*
X389224Y682711D01*
X389217Y682672D01*
X388671Y680637D01*
X388658Y680600D01*
X388647Y680563D01*
X388639Y680545D01*
X388632Y680526D01*
X388613Y680492D01*
X388596Y680456D01*
X387543Y678632D01*
X387521Y678599D01*
X387500Y678566D01*
X387487Y678551D01*
X387476Y678534D01*
X387449Y678506D01*
X387424Y678476D01*
X385934Y676986D01*
X385904Y676961D01*
X385876Y676934D01*
X385859Y676923D01*
X385844Y676910D01*
X385811Y676889D01*
X385778Y676867D01*
X383954Y675814D01*
X383918Y675797D01*
X383884Y675778D01*
X383865Y675771D01*
X383848Y675763D01*
X383810Y675752D01*
X383773Y675739D01*
X381738Y675193D01*
X381699Y675186D01*
X381661Y675177D01*
X381641Y675175D01*
X381622Y675172D01*
X381583Y675171D01*
X381543Y675168D01*
X379437D01*
X379397Y675171D01*
X379358Y675172D01*
X379339Y675175D01*
X379319Y675177D01*
X379281Y675186D01*
X379242Y675193D01*
X377207Y675739D01*
X377170Y675752D01*
X377132Y675763D01*
X377115Y675771D01*
X377096Y675778D01*
X377062Y675797D01*
X377026Y675814D01*
X375202Y676867D01*
X375169Y676889D01*
X375136Y676910D01*
X375121Y676923D01*
X375104Y676934D01*
X375076Y676961D01*
X375046Y676986D01*
X373556Y678476D01*
X373531Y678506D01*
X373504Y678534D01*
X373493Y678551D01*
X373480Y678566D01*
X373459Y678599D01*
X373437Y678632D01*
X372384Y680456D01*
X372367Y680492D01*
X372348Y680526D01*
X372341Y680545D01*
X372333Y680563D01*
X372322Y680600D01*
X372309Y680637D01*
X371763Y682672D01*
X371756Y682711D01*
X371747Y682749D01*
X371745Y682769D01*
X371742Y682788D01*
X371741Y682827D01*
X371738Y682867D01*
Y683920D01*
Y707920D01*
X371747Y708038D01*
X371774Y708153D01*
X371820Y708262D01*
X371881Y708362D01*
X371958Y708452D01*
X372048Y708529D01*
X372148Y708590D01*
X372257Y708636D01*
X372372Y708663D01*
X372490Y708672D01*
X388490D01*
X388608Y708663D01*
D02*
G37*
G36*
X363208D02*
X363322Y708636D01*
X363432Y708590D01*
X363532Y708529D01*
X363622Y708452D01*
X363699Y708362D01*
X363760Y708262D01*
X363806Y708153D01*
X363833Y708038D01*
X363842Y707920D01*
Y683920D01*
X363842Y683920D01*
Y682867D01*
X363839Y682827D01*
X363838Y682788D01*
X363835Y682769D01*
X363833Y682749D01*
X363824Y682711D01*
X363817Y682672D01*
X363271Y680637D01*
X363258Y680600D01*
X363247Y680563D01*
X363239Y680545D01*
X363232Y680526D01*
X363213Y680492D01*
X363196Y680456D01*
X362143Y678632D01*
X362121Y678599D01*
X362100Y678566D01*
X362087Y678551D01*
X362076Y678534D01*
X362049Y678506D01*
X362024Y678476D01*
X360534Y676986D01*
X360504Y676961D01*
X360476Y676934D01*
X360459Y676923D01*
X360444Y676910D01*
X360411Y676889D01*
X360378Y676867D01*
X358554Y675814D01*
X358518Y675797D01*
X358484Y675778D01*
X358465Y675771D01*
X358447Y675763D01*
X358410Y675752D01*
X358373Y675739D01*
X356338Y675193D01*
X356299Y675186D01*
X356261Y675177D01*
X356241Y675175D01*
X356222Y675172D01*
X356183Y675171D01*
X356143Y675168D01*
X354037D01*
X353997Y675171D01*
X353958Y675172D01*
X353939Y675175D01*
X353919Y675177D01*
X353881Y675186D01*
X353842Y675193D01*
X351807Y675739D01*
X351770Y675752D01*
X351732Y675763D01*
X351715Y675771D01*
X351696Y675778D01*
X351661Y675797D01*
X351626Y675814D01*
X349802Y676867D01*
X349769Y676889D01*
X349736Y676910D01*
X349721Y676923D01*
X349704Y676934D01*
X349676Y676961D01*
X349646Y676986D01*
X348156Y678476D01*
X348131Y678506D01*
X348104Y678534D01*
X348093Y678551D01*
X348080Y678566D01*
X348059Y678599D01*
X348037Y678632D01*
X346984Y680456D01*
X346967Y680492D01*
X346948Y680526D01*
X346941Y680545D01*
X346933Y680563D01*
X346922Y680600D01*
X346908Y680637D01*
X346363Y682672D01*
X346356Y682711D01*
X346347Y682749D01*
X346345Y682769D01*
X346342Y682788D01*
X346341Y682827D01*
X346338Y682867D01*
Y683920D01*
Y707920D01*
X346347Y708038D01*
X346375Y708153D01*
X346420Y708262D01*
X346481Y708362D01*
X346558Y708452D01*
X346648Y708529D01*
X346748Y708590D01*
X346857Y708636D01*
X346972Y708663D01*
X347090Y708672D01*
X363090D01*
X363208Y708663D01*
D02*
G37*
G36*
X337808D02*
X337923Y708636D01*
X338032Y708590D01*
X338132Y708529D01*
X338222Y708452D01*
X338299Y708362D01*
X338360Y708262D01*
X338405Y708153D01*
X338433Y708038D01*
X338442Y707920D01*
Y683920D01*
X338442Y683920D01*
Y682867D01*
X338439Y682827D01*
X338438Y682788D01*
X338435Y682769D01*
X338433Y682749D01*
X338424Y682711D01*
X338417Y682672D01*
X337871Y680637D01*
X337858Y680600D01*
X337847Y680563D01*
X337839Y680545D01*
X337832Y680526D01*
X337813Y680492D01*
X337796Y680456D01*
X336743Y678632D01*
X336721Y678599D01*
X336700Y678566D01*
X336687Y678551D01*
X336676Y678534D01*
X336649Y678506D01*
X336623Y678476D01*
X335134Y676986D01*
X335104Y676961D01*
X335075Y676934D01*
X335059Y676923D01*
X335044Y676910D01*
X335011Y676889D01*
X334978Y676867D01*
X333154Y675814D01*
X333118Y675797D01*
X333084Y675778D01*
X333065Y675771D01*
X333047Y675763D01*
X333010Y675752D01*
X332973Y675739D01*
X330938Y675193D01*
X330899Y675186D01*
X330861Y675177D01*
X330841Y675175D01*
X330822Y675172D01*
X330783Y675171D01*
X330743Y675168D01*
X328637D01*
X328597Y675171D01*
X328558Y675172D01*
X328539Y675175D01*
X328519Y675177D01*
X328481Y675186D01*
X328442Y675193D01*
X326407Y675739D01*
X326370Y675752D01*
X326333Y675763D01*
X326315Y675771D01*
X326296Y675778D01*
X326261Y675797D01*
X326226Y675814D01*
X324402Y676867D01*
X324369Y676889D01*
X324336Y676910D01*
X324321Y676923D01*
X324304Y676934D01*
X324276Y676961D01*
X324246Y676986D01*
X322756Y678476D01*
X322731Y678506D01*
X322704Y678534D01*
X322693Y678551D01*
X322680Y678566D01*
X322659Y678599D01*
X322637Y678632D01*
X321584Y680456D01*
X321567Y680492D01*
X321548Y680526D01*
X321541Y680545D01*
X321533Y680563D01*
X321522Y680600D01*
X321508Y680637D01*
X320963Y682672D01*
X320956Y682711D01*
X320947Y682749D01*
X320945Y682769D01*
X320942Y682788D01*
X320941Y682827D01*
X320938Y682867D01*
Y683920D01*
Y707920D01*
X320947Y708038D01*
X320975Y708153D01*
X321020Y708262D01*
X321081Y708362D01*
X321158Y708452D01*
X321248Y708529D01*
X321348Y708590D01*
X321457Y708636D01*
X321572Y708663D01*
X321690Y708672D01*
X337690D01*
X337808Y708663D01*
D02*
G37*
G36*
X312408D02*
X312523Y708636D01*
X312631Y708590D01*
X312732Y708529D01*
X312822Y708452D01*
X312899Y708362D01*
X312960Y708262D01*
X313006Y708153D01*
X313033Y708038D01*
X313042Y707920D01*
Y683920D01*
X313042Y683920D01*
Y682867D01*
X313039Y682827D01*
X313038Y682788D01*
X313035Y682769D01*
X313033Y682749D01*
X313024Y682711D01*
X313017Y682672D01*
X312471Y680637D01*
X312458Y680600D01*
X312447Y680563D01*
X312439Y680545D01*
X312432Y680526D01*
X312413Y680492D01*
X312396Y680456D01*
X311343Y678632D01*
X311321Y678599D01*
X311300Y678566D01*
X311287Y678551D01*
X311276Y678534D01*
X311249Y678506D01*
X311224Y678476D01*
X309734Y676986D01*
X309704Y676961D01*
X309676Y676934D01*
X309659Y676923D01*
X309644Y676910D01*
X309611Y676889D01*
X309578Y676867D01*
X307754Y675814D01*
X307718Y675797D01*
X307684Y675778D01*
X307665Y675771D01*
X307647Y675763D01*
X307610Y675752D01*
X307573Y675739D01*
X305538Y675193D01*
X305499Y675186D01*
X305461Y675177D01*
X305441Y675175D01*
X305422Y675172D01*
X305383Y675171D01*
X305343Y675168D01*
X303237D01*
X303197Y675171D01*
X303158Y675172D01*
X303139Y675175D01*
X303119Y675177D01*
X303081Y675186D01*
X303042Y675193D01*
X301007Y675739D01*
X300970Y675752D01*
X300933Y675763D01*
X300915Y675771D01*
X300896Y675778D01*
X300861Y675797D01*
X300826Y675814D01*
X299002Y676867D01*
X298969Y676889D01*
X298936Y676910D01*
X298921Y676923D01*
X298904Y676934D01*
X298876Y676961D01*
X298846Y676986D01*
X297356Y678476D01*
X297331Y678506D01*
X297304Y678534D01*
X297293Y678551D01*
X297280Y678566D01*
X297259Y678599D01*
X297237Y678632D01*
X296184Y680456D01*
X296167Y680492D01*
X296148Y680526D01*
X296141Y680545D01*
X296133Y680563D01*
X296122Y680600D01*
X296108Y680637D01*
X295563Y682672D01*
X295556Y682711D01*
X295547Y682749D01*
X295545Y682769D01*
X295542Y682788D01*
X295541Y682827D01*
X295538Y682867D01*
Y683920D01*
Y707920D01*
X295547Y708038D01*
X295574Y708153D01*
X295620Y708262D01*
X295681Y708362D01*
X295758Y708452D01*
X295848Y708529D01*
X295948Y708590D01*
X296057Y708636D01*
X296172Y708663D01*
X296290Y708672D01*
X312290D01*
X312408Y708663D01*
D02*
G37*
G36*
X287008D02*
X287122Y708636D01*
X287232Y708590D01*
X287332Y708529D01*
X287422Y708452D01*
X287499Y708362D01*
X287560Y708262D01*
X287605Y708153D01*
X287633Y708038D01*
X287642Y707920D01*
Y683920D01*
X287642Y683920D01*
Y682867D01*
X287639Y682827D01*
X287638Y682788D01*
X287635Y682769D01*
X287633Y682749D01*
X287624Y682711D01*
X287617Y682672D01*
X287071Y680637D01*
X287058Y680600D01*
X287047Y680563D01*
X287039Y680545D01*
X287032Y680526D01*
X287013Y680492D01*
X286996Y680456D01*
X285943Y678632D01*
X285921Y678599D01*
X285900Y678566D01*
X285887Y678551D01*
X285876Y678534D01*
X285849Y678506D01*
X285823Y678476D01*
X284334Y676986D01*
X284304Y676961D01*
X284275Y676934D01*
X284259Y676923D01*
X284244Y676910D01*
X284211Y676889D01*
X284178Y676867D01*
X282354Y675814D01*
X282318Y675797D01*
X282284Y675778D01*
X282265Y675771D01*
X282248Y675763D01*
X282210Y675752D01*
X282173Y675739D01*
X280138Y675193D01*
X280099Y675186D01*
X280061Y675177D01*
X280041Y675175D01*
X280022Y675172D01*
X279983Y675171D01*
X279943Y675168D01*
X277837D01*
X277797Y675171D01*
X277758Y675172D01*
X277739Y675175D01*
X277719Y675177D01*
X277681Y675186D01*
X277642Y675193D01*
X275607Y675739D01*
X275570Y675752D01*
X275532Y675763D01*
X275515Y675771D01*
X275496Y675778D01*
X275462Y675797D01*
X275426Y675814D01*
X273602Y676867D01*
X273569Y676889D01*
X273536Y676910D01*
X273521Y676923D01*
X273504Y676934D01*
X273476Y676961D01*
X273446Y676986D01*
X271956Y678476D01*
X271931Y678506D01*
X271904Y678534D01*
X271893Y678551D01*
X271880Y678566D01*
X271859Y678599D01*
X271837Y678632D01*
X270784Y680456D01*
X270767Y680492D01*
X270748Y680526D01*
X270741Y680545D01*
X270733Y680563D01*
X270722Y680600D01*
X270709Y680637D01*
X270163Y682672D01*
X270156Y682711D01*
X270147Y682749D01*
X270145Y682769D01*
X270142Y682788D01*
X270141Y682827D01*
X270138Y682867D01*
Y683920D01*
Y707920D01*
X270147Y708038D01*
X270175Y708153D01*
X270220Y708262D01*
X270281Y708362D01*
X270358Y708452D01*
X270448Y708529D01*
X270548Y708590D01*
X270658Y708636D01*
X270772Y708663D01*
X270890Y708672D01*
X286890D01*
X287008Y708663D01*
D02*
G37*
G36*
X261608D02*
X261723Y708636D01*
X261831Y708590D01*
X261932Y708529D01*
X262022Y708452D01*
X262099Y708362D01*
X262160Y708262D01*
X262206Y708153D01*
X262233Y708038D01*
X262242Y707920D01*
Y683920D01*
X262242Y683920D01*
Y682867D01*
X262239Y682827D01*
X262238Y682788D01*
X262235Y682769D01*
X262233Y682749D01*
X262224Y682711D01*
X262217Y682672D01*
X261671Y680637D01*
X261658Y680600D01*
X261647Y680563D01*
X261639Y680545D01*
X261632Y680526D01*
X261613Y680492D01*
X261596Y680456D01*
X260543Y678632D01*
X260521Y678599D01*
X260500Y678566D01*
X260487Y678551D01*
X260476Y678534D01*
X260449Y678506D01*
X260424Y678476D01*
X258934Y676986D01*
X258904Y676961D01*
X258876Y676934D01*
X258859Y676923D01*
X258844Y676910D01*
X258811Y676889D01*
X258778Y676867D01*
X256954Y675814D01*
X256918Y675797D01*
X256884Y675778D01*
X256865Y675771D01*
X256847Y675763D01*
X256810Y675752D01*
X256773Y675739D01*
X254738Y675193D01*
X254699Y675186D01*
X254661Y675177D01*
X254641Y675175D01*
X254622Y675172D01*
X254583Y675171D01*
X254543Y675168D01*
X252437D01*
X252397Y675171D01*
X252358Y675172D01*
X252339Y675175D01*
X252319Y675177D01*
X252281Y675186D01*
X252242Y675193D01*
X250207Y675739D01*
X250170Y675752D01*
X250133Y675763D01*
X250115Y675771D01*
X250096Y675778D01*
X250061Y675797D01*
X250026Y675814D01*
X248202Y676867D01*
X248169Y676889D01*
X248136Y676910D01*
X248121Y676923D01*
X248104Y676934D01*
X248076Y676961D01*
X248046Y676986D01*
X246556Y678476D01*
X246531Y678506D01*
X246504Y678534D01*
X246493Y678551D01*
X246480Y678566D01*
X246459Y678599D01*
X246437Y678632D01*
X245384Y680456D01*
X245367Y680492D01*
X245348Y680526D01*
X245341Y680545D01*
X245333Y680563D01*
X245322Y680600D01*
X245308Y680637D01*
X244763Y682672D01*
X244756Y682711D01*
X244747Y682749D01*
X244745Y682769D01*
X244742Y682788D01*
X244741Y682827D01*
X244738Y682867D01*
Y683920D01*
Y707920D01*
X244747Y708038D01*
X244774Y708153D01*
X244820Y708262D01*
X244881Y708362D01*
X244958Y708452D01*
X245048Y708529D01*
X245148Y708590D01*
X245257Y708636D01*
X245372Y708663D01*
X245490Y708672D01*
X261490D01*
X261608Y708663D01*
D02*
G37*
G36*
X236208D02*
X236322Y708636D01*
X236432Y708590D01*
X236532Y708529D01*
X236622Y708452D01*
X236699Y708362D01*
X236760Y708262D01*
X236805Y708153D01*
X236833Y708038D01*
X236842Y707920D01*
Y683920D01*
X236842Y683920D01*
Y682867D01*
X236839Y682827D01*
X236838Y682788D01*
X236835Y682769D01*
X236833Y682749D01*
X236824Y682711D01*
X236817Y682672D01*
X236271Y680637D01*
X236258Y680600D01*
X236247Y680563D01*
X236239Y680545D01*
X236232Y680526D01*
X236213Y680492D01*
X236196Y680456D01*
X235143Y678632D01*
X235121Y678599D01*
X235100Y678566D01*
X235087Y678551D01*
X235076Y678534D01*
X235049Y678506D01*
X235023Y678476D01*
X233534Y676986D01*
X233504Y676961D01*
X233475Y676934D01*
X233459Y676923D01*
X233444Y676910D01*
X233411Y676889D01*
X233378Y676867D01*
X231554Y675814D01*
X231518Y675797D01*
X231484Y675778D01*
X231465Y675771D01*
X231448Y675763D01*
X231410Y675752D01*
X231373Y675739D01*
X229338Y675193D01*
X229299Y675186D01*
X229261Y675177D01*
X229241Y675175D01*
X229222Y675172D01*
X229183Y675171D01*
X229143Y675168D01*
X227037D01*
X226997Y675171D01*
X226958Y675172D01*
X226939Y675175D01*
X226919Y675177D01*
X226881Y675186D01*
X226842Y675193D01*
X224807Y675739D01*
X224770Y675752D01*
X224732Y675763D01*
X224715Y675771D01*
X224696Y675778D01*
X224662Y675797D01*
X224626Y675814D01*
X222802Y676867D01*
X222769Y676889D01*
X222736Y676910D01*
X222721Y676923D01*
X222704Y676934D01*
X222676Y676961D01*
X222646Y676986D01*
X221156Y678476D01*
X221131Y678506D01*
X221104Y678534D01*
X221093Y678551D01*
X221080Y678566D01*
X221059Y678599D01*
X221037Y678632D01*
X219984Y680456D01*
X219967Y680492D01*
X219948Y680526D01*
X219941Y680545D01*
X219933Y680563D01*
X219922Y680600D01*
X219909Y680637D01*
X219363Y682672D01*
X219356Y682711D01*
X219347Y682749D01*
X219345Y682769D01*
X219342Y682788D01*
X219341Y682827D01*
X219338Y682867D01*
Y683920D01*
Y707920D01*
X219347Y708038D01*
X219375Y708153D01*
X219420Y708262D01*
X219481Y708362D01*
X219558Y708452D01*
X219648Y708529D01*
X219748Y708590D01*
X219858Y708636D01*
X219972Y708663D01*
X220090Y708672D01*
X236090D01*
X236208Y708663D01*
D02*
G37*
G36*
X210808D02*
X210923Y708636D01*
X211031Y708590D01*
X211132Y708529D01*
X211222Y708452D01*
X211299Y708362D01*
X211360Y708262D01*
X211406Y708153D01*
X211433Y708038D01*
X211442Y707920D01*
Y683920D01*
X211442Y683920D01*
Y682867D01*
X211439Y682827D01*
X211438Y682788D01*
X211435Y682769D01*
X211433Y682749D01*
X211424Y682711D01*
X211417Y682672D01*
X210871Y680637D01*
X210858Y680600D01*
X210847Y680563D01*
X210839Y680545D01*
X210832Y680526D01*
X210813Y680492D01*
X210796Y680456D01*
X209743Y678632D01*
X209721Y678599D01*
X209700Y678566D01*
X209687Y678551D01*
X209676Y678534D01*
X209649Y678506D01*
X209624Y678476D01*
X208134Y676986D01*
X208104Y676961D01*
X208076Y676934D01*
X208059Y676923D01*
X208044Y676910D01*
X208011Y676889D01*
X207978Y676867D01*
X206154Y675814D01*
X206118Y675797D01*
X206084Y675778D01*
X206065Y675771D01*
X206047Y675763D01*
X206010Y675752D01*
X205973Y675739D01*
X203938Y675193D01*
X203899Y675186D01*
X203861Y675177D01*
X203841Y675175D01*
X203822Y675172D01*
X203783Y675171D01*
X203743Y675168D01*
X201637D01*
X201597Y675171D01*
X201558Y675172D01*
X201539Y675175D01*
X201519Y675177D01*
X201481Y675186D01*
X201442Y675193D01*
X199407Y675739D01*
X199370Y675752D01*
X199333Y675763D01*
X199315Y675771D01*
X199296Y675778D01*
X199261Y675797D01*
X199226Y675814D01*
X197402Y676867D01*
X197369Y676889D01*
X197336Y676910D01*
X197321Y676923D01*
X197304Y676934D01*
X197276Y676961D01*
X197246Y676986D01*
X195756Y678476D01*
X195731Y678506D01*
X195704Y678534D01*
X195693Y678551D01*
X195680Y678566D01*
X195659Y678599D01*
X195637Y678632D01*
X194584Y680456D01*
X194567Y680492D01*
X194548Y680526D01*
X194541Y680545D01*
X194533Y680563D01*
X194522Y680600D01*
X194508Y680637D01*
X193963Y682672D01*
X193956Y682711D01*
X193947Y682749D01*
X193945Y682769D01*
X193942Y682788D01*
X193941Y682827D01*
X193938Y682867D01*
Y683920D01*
Y707920D01*
X193947Y708038D01*
X193974Y708153D01*
X194020Y708262D01*
X194081Y708362D01*
X194158Y708452D01*
X194248Y708529D01*
X194348Y708590D01*
X194457Y708636D01*
X194572Y708663D01*
X194690Y708672D01*
X210690D01*
X210808Y708663D01*
D02*
G37*
G36*
X185408D02*
X185522Y708636D01*
X185632Y708590D01*
X185732Y708529D01*
X185822Y708452D01*
X185899Y708362D01*
X185960Y708262D01*
X186005Y708153D01*
X186033Y708038D01*
X186042Y707920D01*
Y683920D01*
X186042Y683920D01*
Y682867D01*
X186039Y682827D01*
X186038Y682788D01*
X186035Y682769D01*
X186033Y682749D01*
X186024Y682711D01*
X186017Y682672D01*
X185471Y680637D01*
X185458Y680600D01*
X185447Y680563D01*
X185439Y680545D01*
X185432Y680526D01*
X185413Y680492D01*
X185396Y680456D01*
X184343Y678632D01*
X184321Y678599D01*
X184300Y678566D01*
X184287Y678551D01*
X184276Y678534D01*
X184249Y678506D01*
X184223Y678476D01*
X182734Y676986D01*
X182704Y676961D01*
X182675Y676934D01*
X182659Y676923D01*
X182644Y676910D01*
X182611Y676889D01*
X182578Y676867D01*
X180754Y675814D01*
X180718Y675797D01*
X180684Y675778D01*
X180665Y675771D01*
X180648Y675763D01*
X180610Y675752D01*
X180573Y675739D01*
X178538Y675193D01*
X178499Y675186D01*
X178461Y675177D01*
X178441Y675175D01*
X178422Y675172D01*
X178383Y675171D01*
X178343Y675168D01*
X176237D01*
X176197Y675171D01*
X176158Y675172D01*
X176139Y675175D01*
X176119Y675177D01*
X176081Y675186D01*
X176042Y675193D01*
X174007Y675739D01*
X173970Y675752D01*
X173932Y675763D01*
X173915Y675771D01*
X173896Y675778D01*
X173862Y675797D01*
X173826Y675814D01*
X172002Y676867D01*
X171969Y676889D01*
X171936Y676910D01*
X171921Y676923D01*
X171904Y676934D01*
X171876Y676961D01*
X171846Y676986D01*
X170356Y678476D01*
X170331Y678506D01*
X170304Y678534D01*
X170293Y678551D01*
X170280Y678566D01*
X170259Y678599D01*
X170237Y678632D01*
X169184Y680456D01*
X169167Y680492D01*
X169148Y680526D01*
X169141Y680545D01*
X169133Y680563D01*
X169122Y680600D01*
X169109Y680637D01*
X168563Y682672D01*
X168556Y682711D01*
X168547Y682749D01*
X168545Y682769D01*
X168542Y682788D01*
X168541Y682827D01*
X168538Y682867D01*
Y683920D01*
Y707920D01*
X168547Y708038D01*
X168575Y708153D01*
X168620Y708262D01*
X168681Y708362D01*
X168758Y708452D01*
X168848Y708529D01*
X168948Y708590D01*
X169058Y708636D01*
X169172Y708663D01*
X169290Y708672D01*
X185290D01*
X185408Y708663D01*
D02*
G37*
G36*
X160008D02*
X160123Y708636D01*
X160231Y708590D01*
X160332Y708529D01*
X160422Y708452D01*
X160499Y708362D01*
X160560Y708262D01*
X160606Y708153D01*
X160633Y708038D01*
X160642Y707920D01*
Y683920D01*
X160642Y683920D01*
Y682867D01*
X160639Y682827D01*
X160638Y682788D01*
X160635Y682769D01*
X160633Y682749D01*
X160624Y682711D01*
X160617Y682672D01*
X160071Y680637D01*
X160058Y680600D01*
X160047Y680563D01*
X160039Y680545D01*
X160032Y680526D01*
X160013Y680492D01*
X159996Y680456D01*
X158943Y678632D01*
X158921Y678599D01*
X158900Y678566D01*
X158887Y678551D01*
X158876Y678534D01*
X158849Y678506D01*
X158823Y678476D01*
X157334Y676986D01*
X157304Y676961D01*
X157275Y676934D01*
X157259Y676923D01*
X157244Y676910D01*
X157211Y676889D01*
X157178Y676867D01*
X155354Y675814D01*
X155318Y675797D01*
X155284Y675778D01*
X155265Y675771D01*
X155247Y675763D01*
X155210Y675752D01*
X155173Y675739D01*
X153138Y675193D01*
X153099Y675186D01*
X153061Y675177D01*
X153041Y675175D01*
X153022Y675172D01*
X152983Y675171D01*
X152943Y675168D01*
X150837D01*
X150797Y675171D01*
X150758Y675172D01*
X150739Y675175D01*
X150719Y675177D01*
X150681Y675186D01*
X150642Y675193D01*
X148607Y675739D01*
X148570Y675752D01*
X148532Y675763D01*
X148515Y675771D01*
X148496Y675778D01*
X148462Y675797D01*
X148426Y675814D01*
X146602Y676867D01*
X146569Y676889D01*
X146536Y676910D01*
X146521Y676923D01*
X146504Y676934D01*
X146476Y676961D01*
X146446Y676986D01*
X144956Y678476D01*
X144931Y678506D01*
X144904Y678534D01*
X144893Y678551D01*
X144880Y678566D01*
X144859Y678599D01*
X144837Y678632D01*
X143784Y680456D01*
X143767Y680492D01*
X143748Y680526D01*
X143741Y680545D01*
X143733Y680563D01*
X143722Y680600D01*
X143708Y680637D01*
X143163Y682672D01*
X143156Y682711D01*
X143147Y682749D01*
X143145Y682769D01*
X143142Y682788D01*
X143141Y682827D01*
X143138Y682867D01*
Y683920D01*
Y707920D01*
X143147Y708038D01*
X143174Y708153D01*
X143220Y708262D01*
X143281Y708362D01*
X143358Y708452D01*
X143448Y708529D01*
X143548Y708590D01*
X143658Y708636D01*
X143772Y708663D01*
X143890Y708672D01*
X159890D01*
X160008Y708663D01*
D02*
G37*
G36*
X134608D02*
X134722Y708636D01*
X134831Y708590D01*
X134932Y708529D01*
X135022Y708452D01*
X135099Y708362D01*
X135160Y708262D01*
X135205Y708153D01*
X135233Y708038D01*
X135242Y707920D01*
Y683920D01*
X135242Y683920D01*
Y682867D01*
X135239Y682827D01*
X135238Y682788D01*
X135235Y682769D01*
X135233Y682749D01*
X135224Y682711D01*
X135217Y682672D01*
X134671Y680637D01*
X134658Y680600D01*
X134647Y680563D01*
X134639Y680545D01*
X134632Y680526D01*
X134613Y680492D01*
X134596Y680456D01*
X133543Y678632D01*
X133521Y678599D01*
X133500Y678566D01*
X133487Y678551D01*
X133476Y678534D01*
X133449Y678506D01*
X133424Y678476D01*
X131934Y676986D01*
X131904Y676961D01*
X131875Y676934D01*
X131859Y676923D01*
X131844Y676910D01*
X131811Y676889D01*
X131778Y676867D01*
X129954Y675814D01*
X129918Y675797D01*
X129884Y675778D01*
X129865Y675771D01*
X129847Y675763D01*
X129810Y675752D01*
X129773Y675739D01*
X127738Y675193D01*
X127699Y675186D01*
X127661Y675177D01*
X127641Y675175D01*
X127622Y675172D01*
X127583Y675171D01*
X127543Y675168D01*
X125437D01*
X125397Y675171D01*
X125358Y675172D01*
X125339Y675175D01*
X125319Y675177D01*
X125281Y675186D01*
X125242Y675193D01*
X123207Y675739D01*
X123170Y675752D01*
X123132Y675763D01*
X123115Y675771D01*
X123096Y675778D01*
X123062Y675797D01*
X123026Y675814D01*
X121202Y676867D01*
X121169Y676889D01*
X121136Y676910D01*
X121121Y676923D01*
X121104Y676934D01*
X121076Y676961D01*
X121046Y676986D01*
X119556Y678476D01*
X119531Y678506D01*
X119504Y678534D01*
X119493Y678551D01*
X119480Y678566D01*
X119459Y678599D01*
X119437Y678632D01*
X118384Y680456D01*
X118367Y680492D01*
X118348Y680526D01*
X118341Y680545D01*
X118333Y680563D01*
X118322Y680600D01*
X118308Y680637D01*
X117763Y682672D01*
X117756Y682711D01*
X117747Y682749D01*
X117745Y682769D01*
X117742Y682788D01*
X117741Y682827D01*
X117738Y682867D01*
Y683920D01*
Y707920D01*
X117747Y708038D01*
X117774Y708153D01*
X117820Y708262D01*
X117881Y708362D01*
X117958Y708452D01*
X118048Y708529D01*
X118148Y708590D01*
X118258Y708636D01*
X118372Y708663D01*
X118490Y708672D01*
X134490D01*
X134608Y708663D01*
D02*
G37*
G36*
X109208D02*
X109323Y708636D01*
X109431Y708590D01*
X109532Y708529D01*
X109622Y708452D01*
X109699Y708362D01*
X109760Y708262D01*
X109805Y708153D01*
X109833Y708038D01*
X109842Y707920D01*
Y683920D01*
X109842Y683920D01*
Y682867D01*
X109839Y682827D01*
X109838Y682788D01*
X109835Y682769D01*
X109833Y682749D01*
X109824Y682711D01*
X109817Y682672D01*
X109271Y680637D01*
X109258Y680600D01*
X109247Y680563D01*
X109239Y680545D01*
X109232Y680526D01*
X109213Y680492D01*
X109196Y680456D01*
X108143Y678632D01*
X108121Y678599D01*
X108100Y678566D01*
X108087Y678551D01*
X108076Y678534D01*
X108049Y678506D01*
X108024Y678476D01*
X106534Y676986D01*
X106504Y676961D01*
X106475Y676934D01*
X106459Y676923D01*
X106444Y676910D01*
X106411Y676889D01*
X106378Y676867D01*
X104554Y675814D01*
X104518Y675797D01*
X104484Y675778D01*
X104465Y675771D01*
X104447Y675763D01*
X104410Y675752D01*
X104373Y675739D01*
X102338Y675193D01*
X102299Y675186D01*
X102261Y675177D01*
X102241Y675175D01*
X102222Y675172D01*
X102183Y675171D01*
X102143Y675168D01*
X100037D01*
X99997Y675171D01*
X99958Y675172D01*
X99939Y675175D01*
X99919Y675177D01*
X99881Y675186D01*
X99842Y675193D01*
X97807Y675739D01*
X97770Y675752D01*
X97732Y675763D01*
X97715Y675771D01*
X97696Y675778D01*
X97662Y675797D01*
X97626Y675814D01*
X95802Y676867D01*
X95769Y676889D01*
X95736Y676910D01*
X95721Y676923D01*
X95704Y676934D01*
X95676Y676961D01*
X95646Y676986D01*
X94156Y678476D01*
X94131Y678506D01*
X94104Y678534D01*
X94093Y678551D01*
X94080Y678566D01*
X94059Y678599D01*
X94037Y678632D01*
X92984Y680456D01*
X92967Y680492D01*
X92948Y680526D01*
X92941Y680545D01*
X92933Y680563D01*
X92922Y680600D01*
X92908Y680637D01*
X92363Y682672D01*
X92356Y682711D01*
X92347Y682749D01*
X92345Y682769D01*
X92342Y682788D01*
X92341Y682827D01*
X92338Y682867D01*
Y683920D01*
Y707920D01*
X92347Y708038D01*
X92374Y708153D01*
X92420Y708262D01*
X92481Y708362D01*
X92558Y708452D01*
X92648Y708529D01*
X92748Y708590D01*
X92858Y708636D01*
X92972Y708663D01*
X93090Y708672D01*
X109090D01*
X109208Y708663D01*
D02*
G37*
G36*
X83808D02*
X83923Y708636D01*
X84031Y708590D01*
X84132Y708529D01*
X84222Y708452D01*
X84299Y708362D01*
X84360Y708262D01*
X84405Y708153D01*
X84433Y708038D01*
X84442Y707920D01*
Y683920D01*
X84442Y683920D01*
Y682867D01*
X84439Y682827D01*
X84438Y682788D01*
X84435Y682769D01*
X84433Y682749D01*
X84424Y682711D01*
X84417Y682672D01*
X83871Y680637D01*
X83858Y680600D01*
X83847Y680563D01*
X83839Y680545D01*
X83832Y680526D01*
X83813Y680492D01*
X83796Y680456D01*
X82743Y678632D01*
X82721Y678599D01*
X82700Y678566D01*
X82687Y678551D01*
X82676Y678534D01*
X82649Y678506D01*
X82624Y678476D01*
X81134Y676986D01*
X81104Y676961D01*
X81075Y676934D01*
X81059Y676923D01*
X81044Y676910D01*
X81011Y676889D01*
X80978Y676867D01*
X79154Y675814D01*
X79118Y675797D01*
X79084Y675778D01*
X79065Y675771D01*
X79047Y675763D01*
X79010Y675752D01*
X78973Y675739D01*
X76938Y675193D01*
X76899Y675186D01*
X76861Y675177D01*
X76841Y675175D01*
X76822Y675172D01*
X76783Y675171D01*
X76743Y675168D01*
X74637D01*
X74597Y675171D01*
X74558Y675172D01*
X74539Y675175D01*
X74519Y675177D01*
X74481Y675186D01*
X74442Y675193D01*
X72407Y675739D01*
X72370Y675752D01*
X72333Y675763D01*
X72315Y675771D01*
X72296Y675778D01*
X72262Y675797D01*
X72226Y675814D01*
X70402Y676867D01*
X70369Y676889D01*
X70336Y676910D01*
X70321Y676923D01*
X70304Y676934D01*
X70276Y676961D01*
X70246Y676986D01*
X68756Y678476D01*
X68731Y678506D01*
X68704Y678534D01*
X68693Y678551D01*
X68680Y678566D01*
X68659Y678599D01*
X68637Y678632D01*
X67584Y680456D01*
X67567Y680492D01*
X67548Y680526D01*
X67541Y680545D01*
X67533Y680563D01*
X67522Y680600D01*
X67509Y680637D01*
X66963Y682672D01*
X66956Y682711D01*
X66947Y682749D01*
X66945Y682769D01*
X66942Y682788D01*
X66941Y682827D01*
X66938Y682867D01*
Y683920D01*
Y707920D01*
X66947Y708038D01*
X66975Y708153D01*
X67020Y708262D01*
X67081Y708362D01*
X67158Y708452D01*
X67248Y708529D01*
X67348Y708590D01*
X67457Y708636D01*
X67572Y708663D01*
X67690Y708672D01*
X83690D01*
X83808Y708663D01*
D02*
G37*
G36*
X580108Y629143D02*
X580223Y629115D01*
X580331Y629070D01*
X580432Y629009D01*
X580522Y628932D01*
X580599Y628842D01*
X580660Y628742D01*
X580705Y628633D01*
X580733Y628518D01*
X580742Y628400D01*
Y612400D01*
X580733Y612282D01*
X580705Y612168D01*
X580660Y612058D01*
X580599Y611958D01*
X580522Y611868D01*
X580432Y611791D01*
X580331Y611730D01*
X580223Y611684D01*
X580108Y611657D01*
X579990Y611648D01*
X554937D01*
X554897Y611651D01*
X554858Y611652D01*
X554839Y611655D01*
X554819Y611657D01*
X554781Y611666D01*
X554742Y611673D01*
X552707Y612219D01*
X552670Y612232D01*
X552632Y612243D01*
X552615Y612251D01*
X552596Y612258D01*
X552562Y612277D01*
X552526Y612294D01*
X550702Y613347D01*
X550669Y613369D01*
X550636Y613390D01*
X550621Y613403D01*
X550604Y613414D01*
X550576Y613441D01*
X550546Y613466D01*
X549056Y614956D01*
X549031Y614986D01*
X549004Y615014D01*
X548993Y615031D01*
X548980Y615046D01*
X548959Y615079D01*
X548937Y615112D01*
X547884Y616936D01*
X547867Y616972D01*
X547848Y617006D01*
X547841Y617025D01*
X547833Y617043D01*
X547822Y617080D01*
X547808Y617117D01*
X547263Y619152D01*
X547256Y619191D01*
X547247Y619229D01*
X547245Y619249D01*
X547242Y619268D01*
X547241Y619307D01*
X547238Y619347D01*
Y621453D01*
X547241Y621493D01*
X547242Y621532D01*
X547245Y621551D01*
X547247Y621571D01*
X547256Y621609D01*
X547263Y621648D01*
X547808Y623683D01*
X547822Y623720D01*
X547833Y623758D01*
X547841Y623775D01*
X547848Y623794D01*
X547867Y623828D01*
X547884Y623864D01*
X548937Y625688D01*
X548959Y625721D01*
X548980Y625754D01*
X548993Y625769D01*
X549004Y625785D01*
X549031Y625814D01*
X549056Y625844D01*
X550546Y627333D01*
X550576Y627359D01*
X550604Y627386D01*
X550621Y627397D01*
X550636Y627410D01*
X550669Y627431D01*
X550702Y627453D01*
X552526Y628506D01*
X552561Y628523D01*
X552596Y628542D01*
X552615Y628549D01*
X552632Y628557D01*
X552670Y628568D01*
X552707Y628582D01*
X554742Y629127D01*
X554781Y629134D01*
X554819Y629143D01*
X554839Y629145D01*
X554858Y629148D01*
X554897Y629149D01*
X554937Y629152D01*
X555990D01*
X555990Y629152D01*
X579990D01*
X580108Y629143D01*
D02*
G37*
G36*
Y603743D02*
X580223Y603716D01*
X580331Y603670D01*
X580432Y603609D01*
X580522Y603532D01*
X580599Y603442D01*
X580660Y603342D01*
X580705Y603232D01*
X580733Y603118D01*
X580742Y603000D01*
Y587000D01*
X580733Y586882D01*
X580705Y586768D01*
X580660Y586659D01*
X580599Y586558D01*
X580522Y586468D01*
X580432Y586391D01*
X580331Y586330D01*
X580223Y586284D01*
X580108Y586257D01*
X579990Y586248D01*
X554937D01*
X554897Y586251D01*
X554858Y586252D01*
X554839Y586255D01*
X554819Y586257D01*
X554781Y586266D01*
X554742Y586273D01*
X552707Y586819D01*
X552670Y586832D01*
X552632Y586843D01*
X552615Y586851D01*
X552596Y586858D01*
X552562Y586877D01*
X552526Y586894D01*
X550702Y587947D01*
X550669Y587969D01*
X550636Y587990D01*
X550621Y588003D01*
X550604Y588014D01*
X550576Y588041D01*
X550546Y588066D01*
X549056Y589556D01*
X549031Y589586D01*
X549004Y589614D01*
X548993Y589631D01*
X548980Y589646D01*
X548959Y589679D01*
X548937Y589712D01*
X547884Y591536D01*
X547867Y591572D01*
X547848Y591606D01*
X547841Y591625D01*
X547833Y591642D01*
X547822Y591680D01*
X547808Y591717D01*
X547263Y593752D01*
X547256Y593791D01*
X547247Y593829D01*
X547245Y593849D01*
X547242Y593868D01*
X547241Y593907D01*
X547238Y593947D01*
Y596053D01*
X547241Y596093D01*
X547242Y596132D01*
X547245Y596151D01*
X547247Y596171D01*
X547256Y596209D01*
X547263Y596248D01*
X547808Y598283D01*
X547822Y598320D01*
X547833Y598358D01*
X547841Y598375D01*
X547848Y598394D01*
X547867Y598428D01*
X547884Y598464D01*
X548937Y600288D01*
X548959Y600321D01*
X548980Y600354D01*
X548993Y600369D01*
X549004Y600386D01*
X549031Y600414D01*
X549056Y600444D01*
X550546Y601934D01*
X550576Y601959D01*
X550604Y601986D01*
X550621Y601997D01*
X550636Y602010D01*
X550669Y602031D01*
X550702Y602053D01*
X552526Y603106D01*
X552561Y603123D01*
X552596Y603142D01*
X552615Y603149D01*
X552632Y603157D01*
X552670Y603168D01*
X552707Y603181D01*
X554742Y603727D01*
X554781Y603734D01*
X554819Y603743D01*
X554839Y603745D01*
X554858Y603748D01*
X554897Y603749D01*
X554937Y603752D01*
X555990D01*
X555990Y603752D01*
X579990D01*
X580108Y603743D01*
D02*
G37*
G36*
Y578343D02*
X580223Y578316D01*
X580331Y578270D01*
X580432Y578209D01*
X580522Y578132D01*
X580599Y578042D01*
X580660Y577942D01*
X580705Y577832D01*
X580733Y577718D01*
X580742Y577600D01*
Y561600D01*
X580733Y561482D01*
X580705Y561367D01*
X580660Y561259D01*
X580599Y561158D01*
X580522Y561068D01*
X580432Y560991D01*
X580331Y560930D01*
X580223Y560885D01*
X580108Y560857D01*
X579990Y560848D01*
X554937D01*
X554897Y560851D01*
X554858Y560852D01*
X554839Y560855D01*
X554819Y560857D01*
X554781Y560866D01*
X554742Y560873D01*
X552707Y561418D01*
X552670Y561432D01*
X552632Y561443D01*
X552615Y561451D01*
X552596Y561458D01*
X552562Y561477D01*
X552526Y561494D01*
X550702Y562547D01*
X550669Y562569D01*
X550636Y562590D01*
X550621Y562603D01*
X550604Y562614D01*
X550576Y562641D01*
X550546Y562666D01*
X549056Y564156D01*
X549031Y564186D01*
X549004Y564215D01*
X548993Y564231D01*
X548980Y564246D01*
X548959Y564279D01*
X548937Y564312D01*
X547884Y566136D01*
X547867Y566171D01*
X547848Y566206D01*
X547841Y566225D01*
X547833Y566242D01*
X547822Y566280D01*
X547808Y566317D01*
X547263Y568352D01*
X547256Y568391D01*
X547247Y568429D01*
X547245Y568449D01*
X547242Y568468D01*
X547241Y568507D01*
X547238Y568547D01*
Y570653D01*
X547241Y570693D01*
X547242Y570732D01*
X547245Y570751D01*
X547247Y570771D01*
X547256Y570809D01*
X547263Y570848D01*
X547808Y572883D01*
X547822Y572920D01*
X547833Y572957D01*
X547841Y572975D01*
X547848Y572994D01*
X547867Y573028D01*
X547884Y573064D01*
X548937Y574888D01*
X548959Y574921D01*
X548980Y574954D01*
X548993Y574969D01*
X549004Y574986D01*
X549031Y575014D01*
X549056Y575044D01*
X550546Y576534D01*
X550576Y576559D01*
X550604Y576586D01*
X550621Y576597D01*
X550636Y576610D01*
X550669Y576631D01*
X550702Y576653D01*
X552526Y577706D01*
X552561Y577723D01*
X552596Y577742D01*
X552615Y577749D01*
X552632Y577757D01*
X552670Y577768D01*
X552707Y577781D01*
X554742Y578327D01*
X554781Y578334D01*
X554819Y578343D01*
X554839Y578345D01*
X554858Y578348D01*
X554897Y578349D01*
X554937Y578352D01*
X555990D01*
X555990Y578352D01*
X579990D01*
X580108Y578343D01*
D02*
G37*
G36*
X559383Y514829D02*
X559422Y514828D01*
X559441Y514825D01*
X559461Y514823D01*
X559499Y514814D01*
X559538Y514807D01*
X561573Y514262D01*
X561610Y514248D01*
X561647Y514237D01*
X561665Y514229D01*
X561684Y514222D01*
X561718Y514203D01*
X561754Y514186D01*
X563578Y513133D01*
X563611Y513111D01*
X563644Y513090D01*
X563659Y513077D01*
X563675Y513066D01*
X563704Y513039D01*
X563734Y513014D01*
X565224Y511524D01*
X565249Y511494D01*
X565276Y511466D01*
X565287Y511449D01*
X565300Y511434D01*
X565321Y511401D01*
X565343Y511368D01*
X566396Y509544D01*
X566413Y509509D01*
X566432Y509474D01*
X566439Y509455D01*
X566447Y509437D01*
X566458Y509400D01*
X566471Y509363D01*
X567017Y507328D01*
X567024Y507289D01*
X567033Y507251D01*
X567035Y507231D01*
X567038Y507212D01*
X567039Y507173D01*
X567042Y507133D01*
Y506080D01*
X567042Y506080D01*
Y482080D01*
X567033Y481962D01*
X567006Y481848D01*
X566960Y481739D01*
X566899Y481638D01*
X566822Y481548D01*
X566732Y481471D01*
X566632Y481410D01*
X566522Y481365D01*
X566408Y481337D01*
X566290Y481328D01*
X550290D01*
X550172Y481337D01*
X550057Y481365D01*
X549948Y481410D01*
X549848Y481471D01*
X549758Y481548D01*
X549681Y481638D01*
X549620Y481739D01*
X549575Y481848D01*
X549547Y481962D01*
X549538Y482080D01*
Y506080D01*
Y507133D01*
X549541Y507173D01*
X549542Y507212D01*
X549545Y507231D01*
X549547Y507251D01*
X549556Y507289D01*
X549563Y507328D01*
X550108Y509363D01*
X550122Y509400D01*
X550133Y509437D01*
X550141Y509455D01*
X550148Y509474D01*
X550167Y509508D01*
X550184Y509544D01*
X551237Y511368D01*
X551259Y511401D01*
X551280Y511434D01*
X551293Y511449D01*
X551304Y511466D01*
X551331Y511494D01*
X551356Y511524D01*
X552846Y513014D01*
X552876Y513039D01*
X552904Y513066D01*
X552921Y513077D01*
X552936Y513090D01*
X552969Y513111D01*
X553002Y513133D01*
X554826Y514186D01*
X554861Y514203D01*
X554896Y514222D01*
X554915Y514229D01*
X554933Y514237D01*
X554970Y514248D01*
X555007Y514262D01*
X557042Y514807D01*
X557081Y514814D01*
X557119Y514823D01*
X557139Y514825D01*
X557158Y514828D01*
X557197Y514829D01*
X557237Y514832D01*
X559343D01*
X559383Y514829D01*
D02*
G37*
G36*
X533983D02*
X534022Y514828D01*
X534041Y514825D01*
X534061Y514823D01*
X534099Y514814D01*
X534138Y514807D01*
X536173Y514262D01*
X536210Y514248D01*
X536247Y514237D01*
X536265Y514229D01*
X536284Y514222D01*
X536318Y514203D01*
X536354Y514186D01*
X538178Y513133D01*
X538211Y513111D01*
X538244Y513090D01*
X538259Y513077D01*
X538275Y513066D01*
X538304Y513039D01*
X538334Y513014D01*
X539823Y511524D01*
X539849Y511494D01*
X539876Y511466D01*
X539887Y511449D01*
X539900Y511434D01*
X539921Y511401D01*
X539943Y511368D01*
X540996Y509544D01*
X541013Y509509D01*
X541032Y509474D01*
X541039Y509455D01*
X541047Y509437D01*
X541058Y509400D01*
X541071Y509363D01*
X541617Y507328D01*
X541624Y507289D01*
X541633Y507251D01*
X541635Y507231D01*
X541638Y507212D01*
X541639Y507173D01*
X541642Y507133D01*
Y506080D01*
X541642Y506080D01*
Y482080D01*
X541633Y481962D01*
X541605Y481848D01*
X541560Y481739D01*
X541499Y481638D01*
X541422Y481548D01*
X541332Y481471D01*
X541231Y481410D01*
X541123Y481365D01*
X541008Y481337D01*
X540890Y481328D01*
X524890D01*
X524772Y481337D01*
X524658Y481365D01*
X524548Y481410D01*
X524448Y481471D01*
X524358Y481548D01*
X524281Y481638D01*
X524220Y481739D01*
X524174Y481848D01*
X524147Y481962D01*
X524138Y482080D01*
Y506080D01*
Y507133D01*
X524141Y507173D01*
X524142Y507212D01*
X524145Y507231D01*
X524147Y507251D01*
X524156Y507289D01*
X524163Y507328D01*
X524709Y509363D01*
X524722Y509400D01*
X524733Y509437D01*
X524741Y509455D01*
X524748Y509474D01*
X524767Y509508D01*
X524784Y509544D01*
X525837Y511368D01*
X525859Y511401D01*
X525880Y511434D01*
X525893Y511449D01*
X525904Y511466D01*
X525931Y511494D01*
X525956Y511524D01*
X527446Y513014D01*
X527476Y513039D01*
X527504Y513066D01*
X527521Y513077D01*
X527536Y513090D01*
X527569Y513111D01*
X527602Y513133D01*
X529426Y514186D01*
X529462Y514203D01*
X529496Y514222D01*
X529515Y514229D01*
X529533Y514237D01*
X529570Y514248D01*
X529607Y514262D01*
X531642Y514807D01*
X531681Y514814D01*
X531719Y514823D01*
X531739Y514825D01*
X531758Y514828D01*
X531797Y514829D01*
X531837Y514832D01*
X533943D01*
X533983Y514829D01*
D02*
G37*
G36*
X508583D02*
X508622Y514828D01*
X508641Y514825D01*
X508661Y514823D01*
X508699Y514814D01*
X508738Y514807D01*
X510773Y514262D01*
X510810Y514248D01*
X510848Y514237D01*
X510865Y514229D01*
X510884Y514222D01*
X510918Y514203D01*
X510954Y514186D01*
X512778Y513133D01*
X512811Y513111D01*
X512844Y513090D01*
X512859Y513077D01*
X512876Y513066D01*
X512904Y513039D01*
X512934Y513014D01*
X514423Y511524D01*
X514449Y511494D01*
X514476Y511466D01*
X514487Y511449D01*
X514500Y511434D01*
X514521Y511401D01*
X514543Y511368D01*
X515596Y509544D01*
X515613Y509509D01*
X515632Y509474D01*
X515639Y509455D01*
X515647Y509437D01*
X515658Y509400D01*
X515671Y509363D01*
X516217Y507328D01*
X516224Y507289D01*
X516233Y507251D01*
X516235Y507231D01*
X516238Y507212D01*
X516239Y507173D01*
X516242Y507133D01*
Y506080D01*
X516242Y506080D01*
Y482080D01*
X516233Y481962D01*
X516205Y481848D01*
X516160Y481739D01*
X516099Y481638D01*
X516022Y481548D01*
X515932Y481471D01*
X515831Y481410D01*
X515723Y481365D01*
X515608Y481337D01*
X515490Y481328D01*
X499490D01*
X499372Y481337D01*
X499258Y481365D01*
X499148Y481410D01*
X499048Y481471D01*
X498958Y481548D01*
X498881Y481638D01*
X498820Y481739D01*
X498774Y481848D01*
X498747Y481962D01*
X498738Y482080D01*
Y506080D01*
Y507133D01*
X498741Y507173D01*
X498742Y507212D01*
X498745Y507231D01*
X498747Y507251D01*
X498756Y507289D01*
X498763Y507328D01*
X499309Y509363D01*
X499322Y509400D01*
X499333Y509437D01*
X499341Y509455D01*
X499348Y509474D01*
X499367Y509508D01*
X499384Y509544D01*
X500437Y511368D01*
X500459Y511401D01*
X500480Y511434D01*
X500493Y511449D01*
X500504Y511466D01*
X500531Y511494D01*
X500556Y511524D01*
X502046Y513014D01*
X502076Y513039D01*
X502104Y513066D01*
X502121Y513077D01*
X502136Y513090D01*
X502169Y513111D01*
X502202Y513133D01*
X504026Y514186D01*
X504062Y514203D01*
X504096Y514222D01*
X504115Y514229D01*
X504132Y514237D01*
X504170Y514248D01*
X504207Y514262D01*
X506242Y514807D01*
X506281Y514814D01*
X506319Y514823D01*
X506339Y514825D01*
X506358Y514828D01*
X506397Y514829D01*
X506437Y514832D01*
X508543D01*
X508583Y514829D01*
D02*
G37*
G36*
X483183D02*
X483222Y514828D01*
X483241Y514825D01*
X483261Y514823D01*
X483299Y514814D01*
X483338Y514807D01*
X485373Y514262D01*
X485410Y514248D01*
X485448Y514237D01*
X485465Y514229D01*
X485484Y514222D01*
X485518Y514203D01*
X485554Y514186D01*
X487378Y513133D01*
X487411Y513111D01*
X487444Y513090D01*
X487459Y513077D01*
X487476Y513066D01*
X487504Y513039D01*
X487534Y513014D01*
X489024Y511524D01*
X489049Y511494D01*
X489076Y511466D01*
X489087Y511449D01*
X489100Y511434D01*
X489121Y511401D01*
X489143Y511368D01*
X490196Y509544D01*
X490213Y509509D01*
X490232Y509474D01*
X490239Y509455D01*
X490247Y509437D01*
X490258Y509400D01*
X490271Y509363D01*
X490817Y507328D01*
X490824Y507289D01*
X490833Y507251D01*
X490835Y507231D01*
X490838Y507212D01*
X490839Y507173D01*
X490842Y507133D01*
Y506080D01*
X490842Y506080D01*
Y482080D01*
X490833Y481962D01*
X490806Y481848D01*
X490760Y481739D01*
X490699Y481638D01*
X490622Y481548D01*
X490532Y481471D01*
X490432Y481410D01*
X490322Y481365D01*
X490208Y481337D01*
X490090Y481328D01*
X474090D01*
X473972Y481337D01*
X473857Y481365D01*
X473748Y481410D01*
X473648Y481471D01*
X473558Y481548D01*
X473481Y481638D01*
X473420Y481739D01*
X473374Y481848D01*
X473347Y481962D01*
X473338Y482080D01*
Y506080D01*
Y507133D01*
X473341Y507173D01*
X473342Y507212D01*
X473345Y507231D01*
X473347Y507251D01*
X473356Y507289D01*
X473363Y507328D01*
X473909Y509363D01*
X473922Y509400D01*
X473933Y509437D01*
X473941Y509455D01*
X473948Y509474D01*
X473967Y509508D01*
X473984Y509544D01*
X475037Y511368D01*
X475059Y511401D01*
X475080Y511434D01*
X475093Y511449D01*
X475104Y511466D01*
X475131Y511494D01*
X475156Y511524D01*
X476646Y513014D01*
X476676Y513039D01*
X476704Y513066D01*
X476721Y513077D01*
X476736Y513090D01*
X476769Y513111D01*
X476802Y513133D01*
X478626Y514186D01*
X478661Y514203D01*
X478696Y514222D01*
X478715Y514229D01*
X478732Y514237D01*
X478770Y514248D01*
X478807Y514262D01*
X480842Y514807D01*
X480881Y514814D01*
X480919Y514823D01*
X480939Y514825D01*
X480958Y514828D01*
X480997Y514829D01*
X481037Y514832D01*
X483143D01*
X483183Y514829D01*
D02*
G37*
G36*
X457783D02*
X457822Y514828D01*
X457841Y514825D01*
X457861Y514823D01*
X457899Y514814D01*
X457938Y514807D01*
X459973Y514262D01*
X460010Y514248D01*
X460047Y514237D01*
X460065Y514229D01*
X460084Y514222D01*
X460118Y514203D01*
X460154Y514186D01*
X461978Y513133D01*
X462011Y513111D01*
X462044Y513090D01*
X462059Y513077D01*
X462076Y513066D01*
X462104Y513039D01*
X462134Y513014D01*
X463624Y511524D01*
X463649Y511494D01*
X463676Y511466D01*
X463687Y511449D01*
X463700Y511434D01*
X463721Y511401D01*
X463743Y511368D01*
X464796Y509544D01*
X464813Y509509D01*
X464832Y509474D01*
X464839Y509455D01*
X464847Y509437D01*
X464858Y509400D01*
X464871Y509363D01*
X465417Y507328D01*
X465424Y507289D01*
X465433Y507251D01*
X465435Y507231D01*
X465438Y507212D01*
X465439Y507173D01*
X465442Y507133D01*
Y506080D01*
X465442Y506080D01*
Y482080D01*
X465433Y481962D01*
X465406Y481848D01*
X465360Y481739D01*
X465299Y481638D01*
X465222Y481548D01*
X465132Y481471D01*
X465032Y481410D01*
X464922Y481365D01*
X464808Y481337D01*
X464690Y481328D01*
X448690D01*
X448572Y481337D01*
X448457Y481365D01*
X448348Y481410D01*
X448248Y481471D01*
X448158Y481548D01*
X448081Y481638D01*
X448020Y481739D01*
X447975Y481848D01*
X447947Y481962D01*
X447938Y482080D01*
Y506080D01*
Y507133D01*
X447941Y507173D01*
X447942Y507212D01*
X447945Y507231D01*
X447947Y507251D01*
X447956Y507289D01*
X447963Y507328D01*
X448508Y509363D01*
X448522Y509400D01*
X448533Y509437D01*
X448541Y509455D01*
X448548Y509474D01*
X448567Y509508D01*
X448584Y509544D01*
X449637Y511368D01*
X449659Y511401D01*
X449680Y511434D01*
X449693Y511449D01*
X449704Y511466D01*
X449731Y511494D01*
X449756Y511524D01*
X451246Y513014D01*
X451276Y513039D01*
X451304Y513066D01*
X451321Y513077D01*
X451336Y513090D01*
X451369Y513111D01*
X451402Y513133D01*
X453226Y514186D01*
X453261Y514203D01*
X453296Y514222D01*
X453315Y514229D01*
X453332Y514237D01*
X453370Y514248D01*
X453407Y514262D01*
X455442Y514807D01*
X455481Y514814D01*
X455519Y514823D01*
X455539Y514825D01*
X455558Y514828D01*
X455597Y514829D01*
X455637Y514832D01*
X457743D01*
X457783Y514829D01*
D02*
G37*
G36*
X432383D02*
X432422Y514828D01*
X432441Y514825D01*
X432461Y514823D01*
X432499Y514814D01*
X432538Y514807D01*
X434573Y514262D01*
X434610Y514248D01*
X434647Y514237D01*
X434665Y514229D01*
X434684Y514222D01*
X434718Y514203D01*
X434754Y514186D01*
X436578Y513133D01*
X436611Y513111D01*
X436644Y513090D01*
X436659Y513077D01*
X436675Y513066D01*
X436704Y513039D01*
X436734Y513014D01*
X438223Y511524D01*
X438249Y511494D01*
X438276Y511466D01*
X438287Y511449D01*
X438300Y511434D01*
X438321Y511401D01*
X438343Y511368D01*
X439396Y509544D01*
X439413Y509509D01*
X439432Y509474D01*
X439439Y509455D01*
X439447Y509437D01*
X439458Y509400D01*
X439471Y509363D01*
X440017Y507328D01*
X440024Y507289D01*
X440033Y507251D01*
X440035Y507231D01*
X440038Y507212D01*
X440039Y507173D01*
X440042Y507133D01*
Y506080D01*
X440042Y506080D01*
Y482080D01*
X440033Y481962D01*
X440005Y481848D01*
X439960Y481739D01*
X439899Y481638D01*
X439822Y481548D01*
X439732Y481471D01*
X439632Y481410D01*
X439523Y481365D01*
X439408Y481337D01*
X439290Y481328D01*
X423290D01*
X423172Y481337D01*
X423058Y481365D01*
X422948Y481410D01*
X422848Y481471D01*
X422758Y481548D01*
X422681Y481638D01*
X422620Y481739D01*
X422575Y481848D01*
X422547Y481962D01*
X422538Y482080D01*
Y506080D01*
Y507133D01*
X422541Y507173D01*
X422542Y507212D01*
X422545Y507231D01*
X422547Y507251D01*
X422556Y507289D01*
X422563Y507328D01*
X423108Y509363D01*
X423122Y509400D01*
X423133Y509437D01*
X423141Y509455D01*
X423148Y509474D01*
X423167Y509508D01*
X423184Y509544D01*
X424237Y511368D01*
X424259Y511401D01*
X424280Y511434D01*
X424293Y511449D01*
X424304Y511466D01*
X424331Y511494D01*
X424356Y511524D01*
X425846Y513014D01*
X425876Y513039D01*
X425904Y513066D01*
X425921Y513077D01*
X425936Y513090D01*
X425969Y513111D01*
X426002Y513133D01*
X427826Y514186D01*
X427862Y514203D01*
X427896Y514222D01*
X427915Y514229D01*
X427933Y514237D01*
X427970Y514248D01*
X428007Y514262D01*
X430042Y514807D01*
X430081Y514814D01*
X430119Y514823D01*
X430139Y514825D01*
X430158Y514828D01*
X430197Y514829D01*
X430237Y514832D01*
X432343D01*
X432383Y514829D01*
D02*
G37*
G36*
X406983D02*
X407022Y514828D01*
X407041Y514825D01*
X407061Y514823D01*
X407099Y514814D01*
X407138Y514807D01*
X409173Y514262D01*
X409210Y514248D01*
X409248Y514237D01*
X409265Y514229D01*
X409284Y514222D01*
X409318Y514203D01*
X409354Y514186D01*
X411178Y513133D01*
X411211Y513111D01*
X411244Y513090D01*
X411259Y513077D01*
X411275Y513066D01*
X411304Y513039D01*
X411334Y513014D01*
X412823Y511524D01*
X412849Y511494D01*
X412876Y511466D01*
X412887Y511449D01*
X412900Y511434D01*
X412921Y511401D01*
X412943Y511368D01*
X413996Y509544D01*
X414013Y509509D01*
X414032Y509474D01*
X414039Y509455D01*
X414047Y509437D01*
X414058Y509400D01*
X414071Y509363D01*
X414617Y507328D01*
X414624Y507289D01*
X414633Y507251D01*
X414635Y507231D01*
X414638Y507212D01*
X414639Y507173D01*
X414642Y507133D01*
Y506080D01*
X414642Y506080D01*
Y482080D01*
X414633Y481962D01*
X414605Y481848D01*
X414560Y481739D01*
X414499Y481638D01*
X414422Y481548D01*
X414332Y481471D01*
X414231Y481410D01*
X414123Y481365D01*
X414008Y481337D01*
X413890Y481328D01*
X397890D01*
X397772Y481337D01*
X397658Y481365D01*
X397548Y481410D01*
X397448Y481471D01*
X397358Y481548D01*
X397281Y481638D01*
X397220Y481739D01*
X397174Y481848D01*
X397147Y481962D01*
X397138Y482080D01*
Y506080D01*
Y507133D01*
X397141Y507173D01*
X397142Y507212D01*
X397145Y507231D01*
X397147Y507251D01*
X397156Y507289D01*
X397163Y507328D01*
X397709Y509363D01*
X397722Y509400D01*
X397733Y509437D01*
X397741Y509455D01*
X397748Y509474D01*
X397767Y509508D01*
X397784Y509544D01*
X398837Y511368D01*
X398859Y511401D01*
X398880Y511434D01*
X398893Y511449D01*
X398904Y511466D01*
X398931Y511494D01*
X398956Y511524D01*
X400446Y513014D01*
X400476Y513039D01*
X400504Y513066D01*
X400521Y513077D01*
X400536Y513090D01*
X400569Y513111D01*
X400602Y513133D01*
X402426Y514186D01*
X402462Y514203D01*
X402496Y514222D01*
X402515Y514229D01*
X402533Y514237D01*
X402570Y514248D01*
X402607Y514262D01*
X404642Y514807D01*
X404681Y514814D01*
X404719Y514823D01*
X404739Y514825D01*
X404758Y514828D01*
X404797Y514829D01*
X404837Y514832D01*
X406943D01*
X406983Y514829D01*
D02*
G37*
G36*
X381583D02*
X381622Y514828D01*
X381641Y514825D01*
X381661Y514823D01*
X381699Y514814D01*
X381738Y514807D01*
X383773Y514262D01*
X383810Y514248D01*
X383848Y514237D01*
X383865Y514229D01*
X383884Y514222D01*
X383918Y514203D01*
X383954Y514186D01*
X385778Y513133D01*
X385811Y513111D01*
X385844Y513090D01*
X385859Y513077D01*
X385876Y513066D01*
X385904Y513039D01*
X385934Y513014D01*
X387424Y511524D01*
X387449Y511494D01*
X387476Y511466D01*
X387487Y511449D01*
X387500Y511434D01*
X387521Y511401D01*
X387543Y511368D01*
X388596Y509544D01*
X388613Y509509D01*
X388632Y509474D01*
X388639Y509455D01*
X388647Y509437D01*
X388658Y509400D01*
X388671Y509363D01*
X389217Y507328D01*
X389224Y507289D01*
X389233Y507251D01*
X389235Y507231D01*
X389238Y507212D01*
X389239Y507173D01*
X389242Y507133D01*
Y506080D01*
X389242Y506080D01*
Y482080D01*
X389233Y481962D01*
X389206Y481848D01*
X389160Y481739D01*
X389099Y481638D01*
X389022Y481548D01*
X388932Y481471D01*
X388831Y481410D01*
X388722Y481365D01*
X388608Y481337D01*
X388490Y481328D01*
X372490D01*
X372372Y481337D01*
X372257Y481365D01*
X372148Y481410D01*
X372048Y481471D01*
X371958Y481548D01*
X371881Y481638D01*
X371820Y481739D01*
X371774Y481848D01*
X371747Y481962D01*
X371738Y482080D01*
Y506080D01*
Y507133D01*
X371741Y507173D01*
X371742Y507212D01*
X371745Y507231D01*
X371747Y507251D01*
X371756Y507289D01*
X371763Y507328D01*
X372309Y509363D01*
X372322Y509400D01*
X372333Y509437D01*
X372341Y509455D01*
X372348Y509474D01*
X372367Y509508D01*
X372384Y509544D01*
X373437Y511368D01*
X373459Y511401D01*
X373480Y511434D01*
X373493Y511449D01*
X373504Y511466D01*
X373531Y511494D01*
X373556Y511524D01*
X375046Y513014D01*
X375076Y513039D01*
X375104Y513066D01*
X375121Y513077D01*
X375136Y513090D01*
X375169Y513111D01*
X375202Y513133D01*
X377026Y514186D01*
X377062Y514203D01*
X377096Y514222D01*
X377115Y514229D01*
X377132Y514237D01*
X377170Y514248D01*
X377207Y514262D01*
X379242Y514807D01*
X379281Y514814D01*
X379319Y514823D01*
X379339Y514825D01*
X379358Y514828D01*
X379397Y514829D01*
X379437Y514832D01*
X381543D01*
X381583Y514829D01*
D02*
G37*
G36*
X356183D02*
X356222Y514828D01*
X356241Y514825D01*
X356261Y514823D01*
X356299Y514814D01*
X356338Y514807D01*
X358373Y514262D01*
X358410Y514248D01*
X358447Y514237D01*
X358465Y514229D01*
X358484Y514222D01*
X358518Y514203D01*
X358554Y514186D01*
X360378Y513133D01*
X360411Y513111D01*
X360444Y513090D01*
X360459Y513077D01*
X360476Y513066D01*
X360504Y513039D01*
X360534Y513014D01*
X362024Y511524D01*
X362049Y511494D01*
X362076Y511466D01*
X362087Y511449D01*
X362100Y511434D01*
X362121Y511401D01*
X362143Y511368D01*
X363196Y509544D01*
X363213Y509509D01*
X363232Y509474D01*
X363239Y509455D01*
X363247Y509437D01*
X363258Y509400D01*
X363271Y509363D01*
X363817Y507328D01*
X363824Y507289D01*
X363833Y507251D01*
X363835Y507231D01*
X363838Y507212D01*
X363839Y507173D01*
X363842Y507133D01*
Y506080D01*
X363842Y506080D01*
Y482080D01*
X363833Y481962D01*
X363806Y481848D01*
X363760Y481739D01*
X363699Y481638D01*
X363622Y481548D01*
X363532Y481471D01*
X363432Y481410D01*
X363322Y481365D01*
X363208Y481337D01*
X363090Y481328D01*
X347090D01*
X346972Y481337D01*
X346857Y481365D01*
X346748Y481410D01*
X346648Y481471D01*
X346558Y481548D01*
X346481Y481638D01*
X346420Y481739D01*
X346375Y481848D01*
X346347Y481962D01*
X346338Y482080D01*
Y506080D01*
Y507133D01*
X346341Y507173D01*
X346342Y507212D01*
X346345Y507231D01*
X346347Y507251D01*
X346356Y507289D01*
X346363Y507328D01*
X346908Y509363D01*
X346922Y509400D01*
X346933Y509437D01*
X346941Y509455D01*
X346948Y509474D01*
X346967Y509508D01*
X346984Y509544D01*
X348037Y511368D01*
X348059Y511401D01*
X348080Y511434D01*
X348093Y511449D01*
X348104Y511466D01*
X348131Y511494D01*
X348156Y511524D01*
X349646Y513014D01*
X349676Y513039D01*
X349704Y513066D01*
X349721Y513077D01*
X349736Y513090D01*
X349769Y513111D01*
X349802Y513133D01*
X351626Y514186D01*
X351661Y514203D01*
X351696Y514222D01*
X351715Y514229D01*
X351732Y514237D01*
X351770Y514248D01*
X351807Y514262D01*
X353842Y514807D01*
X353881Y514814D01*
X353919Y514823D01*
X353939Y514825D01*
X353958Y514828D01*
X353997Y514829D01*
X354037Y514832D01*
X356143D01*
X356183Y514829D01*
D02*
G37*
G36*
X330783D02*
X330822Y514828D01*
X330841Y514825D01*
X330861Y514823D01*
X330899Y514814D01*
X330938Y514807D01*
X332973Y514262D01*
X333010Y514248D01*
X333047Y514237D01*
X333065Y514229D01*
X333084Y514222D01*
X333118Y514203D01*
X333154Y514186D01*
X334978Y513133D01*
X335011Y513111D01*
X335044Y513090D01*
X335059Y513077D01*
X335075Y513066D01*
X335104Y513039D01*
X335134Y513014D01*
X336623Y511524D01*
X336649Y511494D01*
X336676Y511466D01*
X336687Y511449D01*
X336700Y511434D01*
X336721Y511401D01*
X336743Y511368D01*
X337796Y509544D01*
X337813Y509509D01*
X337832Y509474D01*
X337839Y509455D01*
X337847Y509437D01*
X337858Y509400D01*
X337871Y509363D01*
X338417Y507328D01*
X338424Y507289D01*
X338433Y507251D01*
X338435Y507231D01*
X338438Y507212D01*
X338439Y507173D01*
X338442Y507133D01*
Y506080D01*
X338442Y506080D01*
Y482080D01*
X338433Y481962D01*
X338405Y481848D01*
X338360Y481739D01*
X338299Y481638D01*
X338222Y481548D01*
X338132Y481471D01*
X338032Y481410D01*
X337923Y481365D01*
X337808Y481337D01*
X337690Y481328D01*
X321690D01*
X321572Y481337D01*
X321457Y481365D01*
X321348Y481410D01*
X321248Y481471D01*
X321158Y481548D01*
X321081Y481638D01*
X321020Y481739D01*
X320975Y481848D01*
X320947Y481962D01*
X320938Y482080D01*
Y506080D01*
Y507133D01*
X320941Y507173D01*
X320942Y507212D01*
X320945Y507231D01*
X320947Y507251D01*
X320956Y507289D01*
X320963Y507328D01*
X321508Y509363D01*
X321522Y509400D01*
X321533Y509437D01*
X321541Y509455D01*
X321548Y509474D01*
X321567Y509508D01*
X321584Y509544D01*
X322637Y511368D01*
X322659Y511401D01*
X322680Y511434D01*
X322693Y511449D01*
X322704Y511466D01*
X322731Y511494D01*
X322756Y511524D01*
X324246Y513014D01*
X324276Y513039D01*
X324304Y513066D01*
X324321Y513077D01*
X324336Y513090D01*
X324369Y513111D01*
X324402Y513133D01*
X326226Y514186D01*
X326261Y514203D01*
X326296Y514222D01*
X326315Y514229D01*
X326333Y514237D01*
X326370Y514248D01*
X326407Y514262D01*
X328442Y514807D01*
X328481Y514814D01*
X328519Y514823D01*
X328539Y514825D01*
X328558Y514828D01*
X328597Y514829D01*
X328637Y514832D01*
X330743D01*
X330783Y514829D01*
D02*
G37*
G36*
X305383D02*
X305422Y514828D01*
X305441Y514825D01*
X305461Y514823D01*
X305499Y514814D01*
X305538Y514807D01*
X307573Y514262D01*
X307610Y514248D01*
X307647Y514237D01*
X307665Y514229D01*
X307684Y514222D01*
X307718Y514203D01*
X307754Y514186D01*
X309578Y513133D01*
X309611Y513111D01*
X309644Y513090D01*
X309659Y513077D01*
X309676Y513066D01*
X309704Y513039D01*
X309734Y513014D01*
X311224Y511524D01*
X311249Y511494D01*
X311276Y511466D01*
X311287Y511449D01*
X311300Y511434D01*
X311321Y511401D01*
X311343Y511368D01*
X312396Y509544D01*
X312413Y509509D01*
X312432Y509474D01*
X312439Y509455D01*
X312447Y509437D01*
X312458Y509400D01*
X312471Y509363D01*
X313017Y507328D01*
X313024Y507289D01*
X313033Y507251D01*
X313035Y507231D01*
X313038Y507212D01*
X313039Y507173D01*
X313042Y507133D01*
Y506080D01*
X313042Y506080D01*
Y482080D01*
X313033Y481962D01*
X313006Y481848D01*
X312960Y481739D01*
X312899Y481638D01*
X312822Y481548D01*
X312732Y481471D01*
X312631Y481410D01*
X312523Y481365D01*
X312408Y481337D01*
X312290Y481328D01*
X296290D01*
X296172Y481337D01*
X296057Y481365D01*
X295948Y481410D01*
X295848Y481471D01*
X295758Y481548D01*
X295681Y481638D01*
X295620Y481739D01*
X295574Y481848D01*
X295547Y481962D01*
X295538Y482080D01*
Y506080D01*
Y507133D01*
X295541Y507173D01*
X295542Y507212D01*
X295545Y507231D01*
X295547Y507251D01*
X295556Y507289D01*
X295563Y507328D01*
X296108Y509363D01*
X296122Y509400D01*
X296133Y509437D01*
X296141Y509455D01*
X296148Y509474D01*
X296167Y509508D01*
X296184Y509544D01*
X297237Y511368D01*
X297259Y511401D01*
X297280Y511434D01*
X297293Y511449D01*
X297304Y511466D01*
X297331Y511494D01*
X297356Y511524D01*
X298846Y513014D01*
X298876Y513039D01*
X298904Y513066D01*
X298921Y513077D01*
X298936Y513090D01*
X298969Y513111D01*
X299002Y513133D01*
X300826Y514186D01*
X300861Y514203D01*
X300896Y514222D01*
X300915Y514229D01*
X300933Y514237D01*
X300970Y514248D01*
X301007Y514262D01*
X303042Y514807D01*
X303081Y514814D01*
X303119Y514823D01*
X303139Y514825D01*
X303158Y514828D01*
X303197Y514829D01*
X303237Y514832D01*
X305343D01*
X305383Y514829D01*
D02*
G37*
G36*
X279983D02*
X280022Y514828D01*
X280041Y514825D01*
X280061Y514823D01*
X280099Y514814D01*
X280138Y514807D01*
X282173Y514262D01*
X282210Y514248D01*
X282248Y514237D01*
X282265Y514229D01*
X282284Y514222D01*
X282318Y514203D01*
X282354Y514186D01*
X284178Y513133D01*
X284211Y513111D01*
X284244Y513090D01*
X284259Y513077D01*
X284275Y513066D01*
X284304Y513039D01*
X284334Y513014D01*
X285823Y511524D01*
X285849Y511494D01*
X285876Y511466D01*
X285887Y511449D01*
X285900Y511434D01*
X285921Y511401D01*
X285943Y511368D01*
X286996Y509544D01*
X287013Y509509D01*
X287032Y509474D01*
X287039Y509455D01*
X287047Y509437D01*
X287058Y509400D01*
X287071Y509363D01*
X287617Y507328D01*
X287624Y507289D01*
X287633Y507251D01*
X287635Y507231D01*
X287638Y507212D01*
X287639Y507173D01*
X287642Y507133D01*
Y506080D01*
X287642Y506080D01*
Y482080D01*
X287633Y481962D01*
X287605Y481848D01*
X287560Y481739D01*
X287499Y481638D01*
X287422Y481548D01*
X287332Y481471D01*
X287232Y481410D01*
X287122Y481365D01*
X287008Y481337D01*
X286890Y481328D01*
X270890D01*
X270772Y481337D01*
X270658Y481365D01*
X270548Y481410D01*
X270448Y481471D01*
X270358Y481548D01*
X270281Y481638D01*
X270220Y481739D01*
X270175Y481848D01*
X270147Y481962D01*
X270138Y482080D01*
Y506080D01*
Y507133D01*
X270141Y507173D01*
X270142Y507212D01*
X270145Y507231D01*
X270147Y507251D01*
X270156Y507289D01*
X270163Y507328D01*
X270709Y509363D01*
X270722Y509400D01*
X270733Y509437D01*
X270741Y509455D01*
X270748Y509474D01*
X270767Y509508D01*
X270784Y509544D01*
X271837Y511368D01*
X271859Y511401D01*
X271880Y511434D01*
X271893Y511449D01*
X271904Y511466D01*
X271931Y511494D01*
X271956Y511524D01*
X273446Y513014D01*
X273476Y513039D01*
X273504Y513066D01*
X273521Y513077D01*
X273536Y513090D01*
X273569Y513111D01*
X273602Y513133D01*
X275426Y514186D01*
X275462Y514203D01*
X275496Y514222D01*
X275515Y514229D01*
X275532Y514237D01*
X275570Y514248D01*
X275607Y514262D01*
X277642Y514807D01*
X277681Y514814D01*
X277719Y514823D01*
X277739Y514825D01*
X277758Y514828D01*
X277797Y514829D01*
X277837Y514832D01*
X279943D01*
X279983Y514829D01*
D02*
G37*
G36*
X254583D02*
X254622Y514828D01*
X254641Y514825D01*
X254661Y514823D01*
X254699Y514814D01*
X254738Y514807D01*
X256773Y514262D01*
X256810Y514248D01*
X256847Y514237D01*
X256865Y514229D01*
X256884Y514222D01*
X256918Y514203D01*
X256954Y514186D01*
X258778Y513133D01*
X258811Y513111D01*
X258844Y513090D01*
X258859Y513077D01*
X258876Y513066D01*
X258904Y513039D01*
X258934Y513014D01*
X260424Y511524D01*
X260449Y511494D01*
X260476Y511466D01*
X260487Y511449D01*
X260500Y511434D01*
X260521Y511401D01*
X260543Y511368D01*
X261596Y509544D01*
X261613Y509509D01*
X261632Y509474D01*
X261639Y509455D01*
X261647Y509437D01*
X261658Y509400D01*
X261671Y509363D01*
X262217Y507328D01*
X262224Y507289D01*
X262233Y507251D01*
X262235Y507231D01*
X262238Y507212D01*
X262239Y507173D01*
X262242Y507133D01*
Y506080D01*
X262242Y506080D01*
Y482080D01*
X262233Y481962D01*
X262206Y481848D01*
X262160Y481739D01*
X262099Y481638D01*
X262022Y481548D01*
X261932Y481471D01*
X261831Y481410D01*
X261723Y481365D01*
X261608Y481337D01*
X261490Y481328D01*
X245490D01*
X245372Y481337D01*
X245257Y481365D01*
X245148Y481410D01*
X245048Y481471D01*
X244958Y481548D01*
X244881Y481638D01*
X244820Y481739D01*
X244774Y481848D01*
X244747Y481962D01*
X244738Y482080D01*
Y506080D01*
Y507133D01*
X244741Y507173D01*
X244742Y507212D01*
X244745Y507231D01*
X244747Y507251D01*
X244756Y507289D01*
X244763Y507328D01*
X245308Y509363D01*
X245322Y509400D01*
X245333Y509437D01*
X245341Y509455D01*
X245348Y509474D01*
X245367Y509508D01*
X245384Y509544D01*
X246437Y511368D01*
X246459Y511401D01*
X246480Y511434D01*
X246493Y511449D01*
X246504Y511466D01*
X246531Y511494D01*
X246556Y511524D01*
X248046Y513014D01*
X248076Y513039D01*
X248104Y513066D01*
X248121Y513077D01*
X248136Y513090D01*
X248169Y513111D01*
X248202Y513133D01*
X250026Y514186D01*
X250061Y514203D01*
X250096Y514222D01*
X250115Y514229D01*
X250133Y514237D01*
X250170Y514248D01*
X250207Y514262D01*
X252242Y514807D01*
X252281Y514814D01*
X252319Y514823D01*
X252339Y514825D01*
X252358Y514828D01*
X252397Y514829D01*
X252437Y514832D01*
X254543D01*
X254583Y514829D01*
D02*
G37*
G36*
X229183D02*
X229222Y514828D01*
X229241Y514825D01*
X229261Y514823D01*
X229299Y514814D01*
X229338Y514807D01*
X231373Y514262D01*
X231410Y514248D01*
X231448Y514237D01*
X231465Y514229D01*
X231484Y514222D01*
X231518Y514203D01*
X231554Y514186D01*
X233378Y513133D01*
X233411Y513111D01*
X233444Y513090D01*
X233459Y513077D01*
X233475Y513066D01*
X233504Y513039D01*
X233534Y513014D01*
X235023Y511524D01*
X235049Y511494D01*
X235076Y511466D01*
X235087Y511449D01*
X235100Y511434D01*
X235121Y511401D01*
X235143Y511368D01*
X236196Y509544D01*
X236213Y509509D01*
X236232Y509474D01*
X236239Y509455D01*
X236247Y509437D01*
X236258Y509400D01*
X236271Y509363D01*
X236817Y507328D01*
X236824Y507289D01*
X236833Y507251D01*
X236835Y507231D01*
X236838Y507212D01*
X236839Y507173D01*
X236842Y507133D01*
Y506080D01*
X236842Y506080D01*
Y482080D01*
X236833Y481962D01*
X236805Y481848D01*
X236760Y481739D01*
X236699Y481638D01*
X236622Y481548D01*
X236532Y481471D01*
X236432Y481410D01*
X236322Y481365D01*
X236208Y481337D01*
X236090Y481328D01*
X220090D01*
X219972Y481337D01*
X219858Y481365D01*
X219748Y481410D01*
X219648Y481471D01*
X219558Y481548D01*
X219481Y481638D01*
X219420Y481739D01*
X219375Y481848D01*
X219347Y481962D01*
X219338Y482080D01*
Y506080D01*
Y507133D01*
X219341Y507173D01*
X219342Y507212D01*
X219345Y507231D01*
X219347Y507251D01*
X219356Y507289D01*
X219363Y507328D01*
X219909Y509363D01*
X219922Y509400D01*
X219933Y509437D01*
X219941Y509455D01*
X219948Y509474D01*
X219967Y509508D01*
X219984Y509544D01*
X221037Y511368D01*
X221059Y511401D01*
X221080Y511434D01*
X221093Y511449D01*
X221104Y511466D01*
X221131Y511494D01*
X221156Y511524D01*
X222646Y513014D01*
X222676Y513039D01*
X222704Y513066D01*
X222721Y513077D01*
X222736Y513090D01*
X222769Y513111D01*
X222802Y513133D01*
X224626Y514186D01*
X224662Y514203D01*
X224696Y514222D01*
X224715Y514229D01*
X224732Y514237D01*
X224770Y514248D01*
X224807Y514262D01*
X226842Y514807D01*
X226881Y514814D01*
X226919Y514823D01*
X226939Y514825D01*
X226958Y514828D01*
X226997Y514829D01*
X227037Y514832D01*
X229143D01*
X229183Y514829D01*
D02*
G37*
G36*
X203783D02*
X203822Y514828D01*
X203841Y514825D01*
X203861Y514823D01*
X203899Y514814D01*
X203938Y514807D01*
X205973Y514262D01*
X206010Y514248D01*
X206047Y514237D01*
X206065Y514229D01*
X206084Y514222D01*
X206118Y514203D01*
X206154Y514186D01*
X207978Y513133D01*
X208011Y513111D01*
X208044Y513090D01*
X208059Y513077D01*
X208076Y513066D01*
X208104Y513039D01*
X208134Y513014D01*
X209624Y511524D01*
X209649Y511494D01*
X209676Y511466D01*
X209687Y511449D01*
X209700Y511434D01*
X209721Y511401D01*
X209743Y511368D01*
X210796Y509544D01*
X210813Y509509D01*
X210832Y509474D01*
X210839Y509455D01*
X210847Y509437D01*
X210858Y509400D01*
X210871Y509363D01*
X211417Y507328D01*
X211424Y507289D01*
X211433Y507251D01*
X211435Y507231D01*
X211438Y507212D01*
X211439Y507173D01*
X211442Y507133D01*
Y506080D01*
X211442Y506080D01*
Y482080D01*
X211433Y481962D01*
X211406Y481848D01*
X211360Y481739D01*
X211299Y481638D01*
X211222Y481548D01*
X211132Y481471D01*
X211031Y481410D01*
X210923Y481365D01*
X210808Y481337D01*
X210690Y481328D01*
X194690D01*
X194572Y481337D01*
X194457Y481365D01*
X194348Y481410D01*
X194248Y481471D01*
X194158Y481548D01*
X194081Y481638D01*
X194020Y481739D01*
X193974Y481848D01*
X193947Y481962D01*
X193938Y482080D01*
Y506080D01*
Y507133D01*
X193941Y507173D01*
X193942Y507212D01*
X193945Y507231D01*
X193947Y507251D01*
X193956Y507289D01*
X193963Y507328D01*
X194508Y509363D01*
X194522Y509400D01*
X194533Y509437D01*
X194541Y509455D01*
X194548Y509474D01*
X194567Y509508D01*
X194584Y509544D01*
X195637Y511368D01*
X195659Y511401D01*
X195680Y511434D01*
X195693Y511449D01*
X195704Y511466D01*
X195731Y511494D01*
X195756Y511524D01*
X197246Y513014D01*
X197276Y513039D01*
X197304Y513066D01*
X197321Y513077D01*
X197336Y513090D01*
X197369Y513111D01*
X197402Y513133D01*
X199226Y514186D01*
X199261Y514203D01*
X199296Y514222D01*
X199315Y514229D01*
X199333Y514237D01*
X199370Y514248D01*
X199407Y514262D01*
X201442Y514807D01*
X201481Y514814D01*
X201519Y514823D01*
X201539Y514825D01*
X201558Y514828D01*
X201597Y514829D01*
X201637Y514832D01*
X203743D01*
X203783Y514829D01*
D02*
G37*
G36*
X178383D02*
X178422Y514828D01*
X178441Y514825D01*
X178461Y514823D01*
X178499Y514814D01*
X178538Y514807D01*
X180573Y514262D01*
X180610Y514248D01*
X180648Y514237D01*
X180665Y514229D01*
X180684Y514222D01*
X180718Y514203D01*
X180754Y514186D01*
X182578Y513133D01*
X182611Y513111D01*
X182644Y513090D01*
X182659Y513077D01*
X182675Y513066D01*
X182704Y513039D01*
X182734Y513014D01*
X184223Y511524D01*
X184249Y511494D01*
X184276Y511466D01*
X184287Y511449D01*
X184300Y511434D01*
X184321Y511401D01*
X184343Y511368D01*
X185396Y509544D01*
X185413Y509509D01*
X185432Y509474D01*
X185439Y509455D01*
X185447Y509437D01*
X185458Y509400D01*
X185471Y509363D01*
X186017Y507328D01*
X186024Y507289D01*
X186033Y507251D01*
X186035Y507231D01*
X186038Y507212D01*
X186039Y507173D01*
X186042Y507133D01*
Y506080D01*
X186042Y506080D01*
Y482080D01*
X186033Y481962D01*
X186005Y481848D01*
X185960Y481739D01*
X185899Y481638D01*
X185822Y481548D01*
X185732Y481471D01*
X185632Y481410D01*
X185522Y481365D01*
X185408Y481337D01*
X185290Y481328D01*
X169290D01*
X169172Y481337D01*
X169058Y481365D01*
X168948Y481410D01*
X168848Y481471D01*
X168758Y481548D01*
X168681Y481638D01*
X168620Y481739D01*
X168575Y481848D01*
X168547Y481962D01*
X168538Y482080D01*
Y506080D01*
Y507133D01*
X168541Y507173D01*
X168542Y507212D01*
X168545Y507231D01*
X168547Y507251D01*
X168556Y507289D01*
X168563Y507328D01*
X169109Y509363D01*
X169122Y509400D01*
X169133Y509437D01*
X169141Y509455D01*
X169148Y509474D01*
X169167Y509508D01*
X169184Y509544D01*
X170237Y511368D01*
X170259Y511401D01*
X170280Y511434D01*
X170293Y511449D01*
X170304Y511466D01*
X170331Y511494D01*
X170356Y511524D01*
X171846Y513014D01*
X171876Y513039D01*
X171904Y513066D01*
X171921Y513077D01*
X171936Y513090D01*
X171969Y513111D01*
X172002Y513133D01*
X173826Y514186D01*
X173862Y514203D01*
X173896Y514222D01*
X173915Y514229D01*
X173932Y514237D01*
X173970Y514248D01*
X174007Y514262D01*
X176042Y514807D01*
X176081Y514814D01*
X176119Y514823D01*
X176139Y514825D01*
X176158Y514828D01*
X176197Y514829D01*
X176237Y514832D01*
X178343D01*
X178383Y514829D01*
D02*
G37*
G36*
X152983D02*
X153022Y514828D01*
X153041Y514825D01*
X153061Y514823D01*
X153099Y514814D01*
X153138Y514807D01*
X155173Y514262D01*
X155210Y514248D01*
X155247Y514237D01*
X155265Y514229D01*
X155284Y514222D01*
X155318Y514203D01*
X155354Y514186D01*
X157178Y513133D01*
X157211Y513111D01*
X157244Y513090D01*
X157259Y513077D01*
X157275Y513066D01*
X157304Y513039D01*
X157334Y513014D01*
X158823Y511524D01*
X158849Y511494D01*
X158876Y511466D01*
X158887Y511449D01*
X158900Y511434D01*
X158921Y511401D01*
X158943Y511368D01*
X159996Y509544D01*
X160013Y509509D01*
X160032Y509474D01*
X160039Y509455D01*
X160047Y509437D01*
X160058Y509400D01*
X160071Y509363D01*
X160617Y507328D01*
X160624Y507289D01*
X160633Y507251D01*
X160635Y507231D01*
X160638Y507212D01*
X160639Y507173D01*
X160642Y507133D01*
Y506080D01*
X160642Y506080D01*
Y482080D01*
X160633Y481962D01*
X160606Y481848D01*
X160560Y481739D01*
X160499Y481638D01*
X160422Y481548D01*
X160332Y481471D01*
X160231Y481410D01*
X160123Y481365D01*
X160008Y481337D01*
X159890Y481328D01*
X143890D01*
X143772Y481337D01*
X143658Y481365D01*
X143548Y481410D01*
X143448Y481471D01*
X143358Y481548D01*
X143281Y481638D01*
X143220Y481739D01*
X143174Y481848D01*
X143147Y481962D01*
X143138Y482080D01*
Y506080D01*
Y507133D01*
X143141Y507173D01*
X143142Y507212D01*
X143145Y507231D01*
X143147Y507251D01*
X143156Y507289D01*
X143163Y507328D01*
X143708Y509363D01*
X143722Y509400D01*
X143733Y509437D01*
X143741Y509455D01*
X143748Y509474D01*
X143767Y509508D01*
X143784Y509544D01*
X144837Y511368D01*
X144859Y511401D01*
X144880Y511434D01*
X144893Y511449D01*
X144904Y511466D01*
X144931Y511494D01*
X144956Y511524D01*
X146446Y513014D01*
X146476Y513039D01*
X146504Y513066D01*
X146521Y513077D01*
X146536Y513090D01*
X146569Y513111D01*
X146602Y513133D01*
X148426Y514186D01*
X148462Y514203D01*
X148496Y514222D01*
X148515Y514229D01*
X148532Y514237D01*
X148570Y514248D01*
X148607Y514262D01*
X150642Y514807D01*
X150681Y514814D01*
X150719Y514823D01*
X150739Y514825D01*
X150758Y514828D01*
X150797Y514829D01*
X150837Y514832D01*
X152943D01*
X152983Y514829D01*
D02*
G37*
G36*
X127583D02*
X127622Y514828D01*
X127641Y514825D01*
X127661Y514823D01*
X127699Y514814D01*
X127738Y514807D01*
X129773Y514262D01*
X129810Y514248D01*
X129847Y514237D01*
X129865Y514229D01*
X129884Y514222D01*
X129918Y514203D01*
X129954Y514186D01*
X131778Y513133D01*
X131811Y513111D01*
X131844Y513090D01*
X131859Y513077D01*
X131875Y513066D01*
X131904Y513039D01*
X131934Y513014D01*
X133424Y511524D01*
X133449Y511494D01*
X133476Y511466D01*
X133487Y511449D01*
X133500Y511434D01*
X133521Y511401D01*
X133543Y511368D01*
X134596Y509544D01*
X134613Y509509D01*
X134632Y509474D01*
X134639Y509455D01*
X134647Y509437D01*
X134658Y509400D01*
X134671Y509363D01*
X135217Y507328D01*
X135224Y507289D01*
X135233Y507251D01*
X135235Y507231D01*
X135238Y507212D01*
X135239Y507173D01*
X135242Y507133D01*
Y506080D01*
X135242Y506080D01*
Y482080D01*
X135233Y481962D01*
X135205Y481848D01*
X135160Y481739D01*
X135099Y481638D01*
X135022Y481548D01*
X134932Y481471D01*
X134831Y481410D01*
X134722Y481365D01*
X134608Y481337D01*
X134490Y481328D01*
X118490D01*
X118372Y481337D01*
X118258Y481365D01*
X118148Y481410D01*
X118048Y481471D01*
X117958Y481548D01*
X117881Y481638D01*
X117820Y481739D01*
X117774Y481848D01*
X117747Y481962D01*
X117738Y482080D01*
Y506080D01*
Y507133D01*
X117741Y507173D01*
X117742Y507212D01*
X117745Y507231D01*
X117747Y507251D01*
X117756Y507289D01*
X117763Y507328D01*
X118308Y509363D01*
X118322Y509400D01*
X118333Y509437D01*
X118341Y509455D01*
X118348Y509474D01*
X118367Y509508D01*
X118384Y509544D01*
X119437Y511368D01*
X119459Y511401D01*
X119480Y511434D01*
X119493Y511449D01*
X119504Y511466D01*
X119531Y511494D01*
X119556Y511524D01*
X121046Y513014D01*
X121076Y513039D01*
X121104Y513066D01*
X121121Y513077D01*
X121136Y513090D01*
X121169Y513111D01*
X121202Y513133D01*
X123026Y514186D01*
X123062Y514203D01*
X123096Y514222D01*
X123115Y514229D01*
X123132Y514237D01*
X123170Y514248D01*
X123207Y514262D01*
X125242Y514807D01*
X125281Y514814D01*
X125319Y514823D01*
X125339Y514825D01*
X125358Y514828D01*
X125397Y514829D01*
X125437Y514832D01*
X127543D01*
X127583Y514829D01*
D02*
G37*
G36*
X102183D02*
X102222Y514828D01*
X102241Y514825D01*
X102261Y514823D01*
X102299Y514814D01*
X102338Y514807D01*
X104373Y514262D01*
X104410Y514248D01*
X104447Y514237D01*
X104465Y514229D01*
X104484Y514222D01*
X104518Y514203D01*
X104554Y514186D01*
X106378Y513133D01*
X106411Y513111D01*
X106444Y513090D01*
X106459Y513077D01*
X106475Y513066D01*
X106504Y513039D01*
X106534Y513014D01*
X108024Y511524D01*
X108049Y511494D01*
X108076Y511466D01*
X108087Y511449D01*
X108100Y511434D01*
X108121Y511401D01*
X108143Y511368D01*
X109196Y509544D01*
X109213Y509509D01*
X109232Y509474D01*
X109239Y509455D01*
X109247Y509437D01*
X109258Y509400D01*
X109271Y509363D01*
X109817Y507328D01*
X109824Y507289D01*
X109833Y507251D01*
X109835Y507231D01*
X109838Y507212D01*
X109839Y507173D01*
X109842Y507133D01*
Y506080D01*
X109842Y506080D01*
Y482080D01*
X109833Y481962D01*
X109805Y481848D01*
X109760Y481739D01*
X109699Y481638D01*
X109622Y481548D01*
X109532Y481471D01*
X109431Y481410D01*
X109323Y481365D01*
X109208Y481337D01*
X109090Y481328D01*
X93090D01*
X92972Y481337D01*
X92858Y481365D01*
X92748Y481410D01*
X92648Y481471D01*
X92558Y481548D01*
X92481Y481638D01*
X92420Y481739D01*
X92374Y481848D01*
X92347Y481962D01*
X92338Y482080D01*
Y506080D01*
Y507133D01*
X92341Y507173D01*
X92342Y507212D01*
X92345Y507231D01*
X92347Y507251D01*
X92356Y507289D01*
X92363Y507328D01*
X92908Y509363D01*
X92922Y509400D01*
X92933Y509437D01*
X92941Y509455D01*
X92948Y509474D01*
X92967Y509508D01*
X92984Y509544D01*
X94037Y511368D01*
X94059Y511401D01*
X94080Y511434D01*
X94093Y511449D01*
X94104Y511466D01*
X94131Y511494D01*
X94156Y511524D01*
X95646Y513014D01*
X95676Y513039D01*
X95704Y513066D01*
X95721Y513077D01*
X95736Y513090D01*
X95769Y513111D01*
X95802Y513133D01*
X97626Y514186D01*
X97662Y514203D01*
X97696Y514222D01*
X97715Y514229D01*
X97732Y514237D01*
X97770Y514248D01*
X97807Y514262D01*
X99842Y514807D01*
X99881Y514814D01*
X99919Y514823D01*
X99939Y514825D01*
X99958Y514828D01*
X99997Y514829D01*
X100037Y514832D01*
X102143D01*
X102183Y514829D01*
D02*
G37*
G36*
X76783D02*
X76822Y514828D01*
X76841Y514825D01*
X76861Y514823D01*
X76899Y514814D01*
X76938Y514807D01*
X78973Y514262D01*
X79010Y514248D01*
X79047Y514237D01*
X79065Y514229D01*
X79084Y514222D01*
X79118Y514203D01*
X79154Y514186D01*
X80978Y513133D01*
X81011Y513111D01*
X81044Y513090D01*
X81059Y513077D01*
X81075Y513066D01*
X81104Y513039D01*
X81134Y513014D01*
X82624Y511524D01*
X82649Y511494D01*
X82676Y511466D01*
X82687Y511449D01*
X82700Y511434D01*
X82721Y511401D01*
X82743Y511368D01*
X83796Y509544D01*
X83813Y509509D01*
X83832Y509474D01*
X83839Y509455D01*
X83847Y509437D01*
X83858Y509400D01*
X83871Y509363D01*
X84417Y507328D01*
X84424Y507289D01*
X84433Y507251D01*
X84435Y507231D01*
X84438Y507212D01*
X84439Y507173D01*
X84442Y507133D01*
Y506080D01*
X84442Y506080D01*
Y482080D01*
X84433Y481962D01*
X84405Y481848D01*
X84360Y481739D01*
X84299Y481638D01*
X84222Y481548D01*
X84132Y481471D01*
X84031Y481410D01*
X83923Y481365D01*
X83808Y481337D01*
X83690Y481328D01*
X67690D01*
X67572Y481337D01*
X67457Y481365D01*
X67348Y481410D01*
X67248Y481471D01*
X67158Y481548D01*
X67081Y481638D01*
X67020Y481739D01*
X66975Y481848D01*
X66947Y481962D01*
X66938Y482080D01*
Y506080D01*
Y507133D01*
X66941Y507173D01*
X66942Y507212D01*
X66945Y507231D01*
X66947Y507251D01*
X66956Y507289D01*
X66963Y507328D01*
X67509Y509363D01*
X67522Y509400D01*
X67533Y509437D01*
X67541Y509455D01*
X67548Y509474D01*
X67567Y509508D01*
X67584Y509544D01*
X68637Y511368D01*
X68659Y511401D01*
X68680Y511434D01*
X68693Y511449D01*
X68704Y511466D01*
X68731Y511494D01*
X68756Y511524D01*
X70246Y513014D01*
X70276Y513039D01*
X70304Y513066D01*
X70321Y513077D01*
X70336Y513090D01*
X70369Y513111D01*
X70402Y513133D01*
X72226Y514186D01*
X72262Y514203D01*
X72296Y514222D01*
X72315Y514229D01*
X72333Y514237D01*
X72370Y514248D01*
X72407Y514262D01*
X74442Y514807D01*
X74481Y514814D01*
X74519Y514823D01*
X74539Y514825D01*
X74558Y514828D01*
X74597Y514829D01*
X74637Y514832D01*
X76743D01*
X76783Y514829D01*
D02*
G37*
D26*
X960000Y357500D02*
D03*
X945000D02*
D03*
D29*
X783000Y440000D02*
D03*
X762000D02*
D03*
X783000Y477500D02*
D03*
X762000D02*
D03*
X654500Y300000D02*
D03*
X675500D02*
D03*
X309000Y212500D02*
D03*
X288000D02*
D03*
X129000D02*
D03*
X108000D02*
D03*
X486499D02*
D03*
X465499D02*
D03*
X313000Y7500D02*
D03*
X292000D02*
D03*
X128000D02*
D03*
X107000D02*
D03*
X488000D02*
D03*
X467000D02*
D03*
D31*
X866500Y502500D02*
D03*
X878500D02*
D03*
X841000Y495000D02*
D03*
X829000D02*
D03*
D32*
X932509Y462500D02*
D03*
X917491D02*
D03*
X932500Y440000D02*
D03*
X917483D02*
D03*
D35*
X842750Y430500D02*
D03*
X849250D02*
D03*
X855750D02*
D03*
X862250D02*
D03*
Y469500D02*
D03*
X855750D02*
D03*
X849250D02*
D03*
X842750D02*
D03*
D36*
X872000Y440250D02*
D03*
Y446750D02*
D03*
Y453250D02*
D03*
Y459750D02*
D03*
X833000D02*
D03*
Y453250D02*
D03*
Y446750D02*
D03*
Y440250D02*
D03*
D37*
X852500Y450000D02*
D03*
D38*
X192078Y570099D02*
D03*
X167078D02*
D03*
X142078D02*
D03*
X107078Y595099D02*
D03*
X74078Y605099D02*
D03*
Y585099D02*
D03*
D39*
X558450Y694400D02*
D03*
X533050D02*
D03*
X507650D02*
D03*
X482250D02*
D03*
X456850D02*
D03*
X431450D02*
D03*
X406050D02*
D03*
X380650D02*
D03*
X355250D02*
D03*
X329850D02*
D03*
X304450D02*
D03*
X279050D02*
D03*
X253650D02*
D03*
X228250D02*
D03*
X202850D02*
D03*
X177450D02*
D03*
X152050D02*
D03*
X126650D02*
D03*
X101250D02*
D03*
X75850D02*
D03*
D40*
Y495600D02*
D03*
X101250D02*
D03*
X152050D02*
D03*
X177450D02*
D03*
X202850D02*
D03*
X228250D02*
D03*
X253650D02*
D03*
X279050D02*
D03*
X304450D02*
D03*
X329850D02*
D03*
X355250D02*
D03*
X380650D02*
D03*
X406050D02*
D03*
X431450D02*
D03*
X456850D02*
D03*
X482250D02*
D03*
X507650D02*
D03*
X533050D02*
D03*
X558450D02*
D03*
D41*
X126650Y498100D02*
D03*
D42*
X566650Y569600D02*
D03*
Y595000D02*
D03*
Y620400D02*
D03*
D43*
X1001251Y437500D02*
D03*
Y447500D02*
D03*
Y462500D02*
D03*
Y472500D02*
D03*
Y467500D02*
D03*
Y457500D02*
D03*
Y452500D02*
D03*
Y442500D02*
D03*
D44*
Y487000D02*
D03*
Y479000D02*
D03*
Y431000D02*
D03*
Y423000D02*
D03*
D45*
X935750Y382500D02*
D03*
X959250D02*
D03*
D46*
X918250Y420000D02*
D03*
X931750D02*
D03*
X918250Y485000D02*
D03*
X931750D02*
D03*
D47*
X708750Y440000D02*
D03*
X721250D02*
D03*
X711250Y477500D02*
D03*
X723750D02*
D03*
D48*
X960000Y471250D02*
D03*
Y483750D02*
D03*
X960000Y418750D02*
D03*
Y431250D02*
D03*
D49*
X77500Y735000D02*
D03*
X62500D02*
D03*
X165000Y765000D02*
D03*
X150000D02*
D03*
X105000D02*
D03*
X120000D02*
D03*
D50*
X1052001Y501100D02*
D03*
Y408900D02*
D03*
D51*
X1007001Y501100D02*
D03*
Y408900D02*
D03*
X144900Y365799D02*
D03*
X502399D02*
D03*
X324900D02*
D03*
X502399Y165799D02*
D03*
X324900D02*
D03*
X144900D02*
D03*
D52*
X1012601Y488000D02*
D03*
Y422000D02*
D03*
D53*
X877500Y215000D02*
D03*
Y164200D02*
D03*
D54*
X882500Y327500D02*
D03*
D55*
Y352500D02*
D03*
D56*
X352500Y780000D02*
D03*
Y735000D02*
D03*
X287500D02*
D03*
X655000Y592100D02*
D03*
Y617500D02*
D03*
Y642900D02*
D03*
D57*
X287500Y780000D02*
D03*
D58*
X81400Y340399D02*
D03*
X438899D02*
D03*
X261400D02*
D03*
X438899Y140399D02*
D03*
X261400D02*
D03*
X81400D02*
D03*
D59*
X667500Y259500D02*
D03*
Y145500D02*
D03*
D60*
X742500Y202500D02*
D03*
Y227500D02*
D03*
X597500D02*
D03*
Y177500D02*
D03*
D61*
X742500D02*
D03*
D62*
X790000Y546300D02*
D03*
Y571700D02*
D03*
Y597100D02*
D03*
Y622500D02*
D03*
Y647900D02*
D03*
Y673300D02*
D03*
Y698700D02*
D03*
D63*
Y724100D02*
D03*
D64*
X655000Y566700D02*
D03*
D65*
X22500Y535000D02*
D03*
X7500Y552500D02*
D03*
Y585000D02*
D03*
X807500Y452500D02*
D03*
X818146Y472500D02*
D03*
X872500Y425000D02*
D03*
X862250Y412750D02*
D03*
X885000Y485000D02*
D03*
X857500Y482500D02*
D03*
X821210Y453714D02*
D03*
X977500Y462500D02*
D03*
Y450000D02*
D03*
X647500Y320000D02*
D03*
X454500Y-5000D02*
D03*
X20571Y570000D02*
D03*
X7500Y622500D02*
D03*
X20000Y605099D02*
D03*
D66*
X0Y775000D02*
D03*
Y0D02*
D03*
X1030000D02*
D03*
Y775000D02*
D03*
M02*
