M48
;Layer_Color=9474304
;FILE_FORMAT=4:4
METRIC,LZ
;TYPE=PLATED
T1F00S00C0.3000
T2F00S00C0.4000
T3F00S00C0.7000
T4F00S00C0.9900
T5F00S00C1.0000
T6F00S00C1.1900
T7F00S00C1.4986
T8F00S00C1.6000
T9F00S00C1.7100
T11F00S00C3.4000
;TYPE=NON_PLATED
T12F00S00C0.8000
T13F00S00C1.7018
T14F00S00C3.9878
%
T01
X008525Y0031
X008825Y003825
X008725Y00425
X00890599Y00444422
X008975Y004625
X008725Y0047
X008575Y004825
X00855Y005025
X00885Y00485
X009425Y005025
X009775Y004625
Y0045
X009475Y00415
X0096Y00395
X00925Y003575
X008275Y00425
X008075Y004525
X00818146Y004725
X00755Y005475
Y005575
X007525Y005675
X0071Y0049
X0074Y0042
X00735Y004025
X00665Y00405
X006675Y0039
X005925Y0049
X005075Y004675
X00525Y005575
X00505Y006125
X004825Y0065
X004575Y006525
X0043
X00405
X00397186Y007275
X0038Y00525
X005925Y006
X005475Y006525
X001425Y00665
X00115Y006425
X0011Y005725
X00135Y005225
X002525Y00525
X001775Y0075
T02
X004545Y-00005
X006475Y0032
X0082121Y00453714
X0086225Y0041275
X000225Y00535
X000075Y005525
X00020571Y0057
X000075Y00585
X0002Y00605099
X000075Y006225
T03
X008825Y003275
Y003525
T04
X002875Y00735
X003525
Y0078
X002875
T05
X005975Y001775
Y002275
X007425
Y002025
Y001775
X00655Y005667
Y005921
Y006175
Y006429
T06
X0079Y005463
Y005717
Y005971
Y006225
Y006479
Y006733
Y006987
Y007241
T07
X000814Y00140399
X001449Y00165799
X002614Y00140399
X003249Y00165799
X002614Y00340399
X000814
X00438899
X00438899Y00140399
X00502399Y00165799
X00502399Y00365799
X003249
X001449
T08
X008775Y001642
Y00215
T09
X01007001Y004089
X01052001
Y005011
X01007001
T11
X0Y0
X0103
X0Y00775
X0103
T12
X01012601Y00422
Y00488
T13
X000687Y00114999
X001703
X002487
X003503
X003503Y00314999
X002487
X001703
X000687
X00426199
X00527799
X00527799Y00114999
X00426199
T14
X001195Y00114999
X002995
X002995Y00314999
X001195
X00476999
X00476999Y00114999
M30
