G04*
G04 #@! TF.GenerationSoftware,Altium Limited,Altium Designer,23.1.1 (15)*
G04*
G04 Layer_Color=32768*
%FSLAX44Y44*%
%MOMM*%
G71*
G04*
G04 #@! TF.SameCoordinates,71942028-349F-4B58-9001-873325432457*
G04*
G04*
G04 #@! TF.FilePolarity,Positive*
G04*
G01*
G75*
%ADD14C,0.1500*%
D14*
X916500Y340000D02*
G03*
X916500Y340000I-34000J0D01*
G01*
X944000Y353000D02*
X961000D01*
X944000D02*
Y362000D01*
X961000D01*
Y353000D02*
Y362000D01*
X762000Y433250D02*
X783000D01*
X762000D02*
Y446750D01*
X783000D01*
Y433250D02*
Y446750D01*
X863750Y507250D02*
X881250D01*
Y497750D02*
Y507250D01*
X863750Y497750D02*
X881250D01*
X863750D02*
Y507250D01*
X826250Y490250D02*
X843750D01*
X826250D02*
Y499750D01*
X843750D01*
Y490250D02*
Y499750D01*
X917000Y458500D02*
X933000D01*
X917000D02*
Y466500D01*
X933000D01*
Y458500D02*
Y466500D01*
X916991Y436000D02*
X932991D01*
X916991D02*
Y444000D01*
X932991D01*
Y436000D02*
Y444000D01*
X762000Y470750D02*
X783000D01*
X762000D02*
Y484250D01*
X783000D01*
Y470750D02*
Y484250D01*
X600500Y140000D02*
X734500D01*
Y265000D01*
X600500D02*
X734500D01*
X600500Y140000D02*
Y265000D01*
X675500Y293250D02*
Y306750D01*
X654500D02*
X675500D01*
X654500Y293250D02*
Y306750D01*
Y293250D02*
X675500D01*
X759450Y532350D02*
X820950D01*
Y738050D01*
X759450D02*
X820950D01*
X759450Y532350D02*
Y738050D01*
X288000Y205750D02*
Y219250D01*
Y205750D02*
X309000D01*
Y219250D01*
X288000D02*
X309000D01*
X108000Y205750D02*
Y219250D01*
Y205750D02*
X129000D01*
Y219250D01*
X108000D02*
X129000D01*
X465499Y205750D02*
Y219250D01*
Y205750D02*
X486499D01*
Y219250D01*
X465499D02*
X486499D01*
X292000Y750D02*
Y14250D01*
Y750D02*
X313000D01*
Y14250D01*
X292000D02*
X313000D01*
X107000Y750D02*
Y14250D01*
Y750D02*
X128000D01*
Y14250D01*
X107000D02*
X128000D01*
X467000Y750D02*
Y14250D01*
Y750D02*
X488000D01*
Y14250D01*
X467000D02*
X488000D01*
M02*
