G04*
G04 #@! TF.GenerationSoftware,Altium Limited,Altium Designer,23.1.1 (15)*
G04*
G04 Layer_Color=2752767*
%FSLAX44Y44*%
%MOMM*%
G71*
G04*
G04 #@! TF.SameCoordinates,71942028-349F-4B58-9001-873325432457*
G04*
G04*
G04 #@! TF.FilePolarity,Positive*
G04*
G01*
G75*
%ADD71C,0.1270*%
%ADD82C,0.1693*%
%ADD83C,0.1016*%
D71*
X1052001Y496020D02*
X1046921Y506180D01*
X1057081D01*
X1052001Y496020D01*
Y498052D02*
X1048953Y504148D01*
X1055049D01*
X1052001Y498052D01*
Y403820D02*
X1046921Y413980D01*
X1057081D01*
X1052001Y403820D01*
Y405852D02*
X1048953Y411948D01*
X1055049D01*
X1052001Y405852D01*
X1007001Y496020D02*
X1001921Y506180D01*
X1012081D01*
X1007001Y496020D01*
Y498052D02*
X1003953Y504148D01*
X1010049D01*
X1007001Y498052D01*
Y403820D02*
X1001921Y413980D01*
X1012081D01*
X1007001Y403820D01*
Y405852D02*
X1003953Y411948D01*
X1010049D01*
X1007001Y405852D01*
X872420Y215000D02*
X877500Y220080D01*
X882580Y215000D01*
X877500Y209920D01*
X872420Y215000D01*
Y164200D02*
X877500Y169280D01*
X882580Y164200D01*
X877500Y159120D01*
X872420Y164200D01*
X877420Y322420D02*
Y332580D01*
X887580D01*
Y322420D01*
X877420D01*
X879452Y324452D02*
Y330548D01*
X885548D01*
Y324452D01*
X879452D01*
X877420Y347420D02*
Y357580D01*
X887580D01*
Y347420D01*
X877420D01*
X879452Y349452D02*
Y355548D01*
X885548D01*
Y349452D01*
X879452D01*
X347420Y774920D02*
Y785080D01*
X357580D01*
Y774920D01*
X347420D01*
Y729920D02*
Y740080D01*
X357580D01*
Y729920D01*
X347420D01*
X282420D02*
Y740080D01*
X292580D01*
Y729920D01*
X282420D01*
Y774920D02*
Y785080D01*
X292580D01*
Y774920D01*
X282420D01*
X165220Y309919D02*
X167760D01*
X170300Y312459D01*
X172840Y309919D01*
X175380D01*
Y312459D01*
X172840Y314999D01*
X175380Y317539D01*
Y320079D01*
X172840D01*
X170300Y317539D01*
X167760Y320079D01*
X165220D01*
Y317539D01*
X167760Y314999D01*
X165220Y312459D01*
Y309919D01*
X63620D02*
X66160D01*
X68700Y312459D01*
X71240Y309919D01*
X73780D01*
Y312459D01*
X71240Y314999D01*
X73780Y317539D01*
Y320079D01*
X71240D01*
X68700Y317539D01*
X66160Y320079D01*
X63620D01*
Y317539D01*
X66160Y314999D01*
X63620Y312459D01*
Y309919D01*
X116960Y312459D02*
Y309919D01*
X122040D01*
Y312459D01*
X124580D01*
Y317539D01*
X122040D01*
Y320079D01*
X116960D01*
Y317539D01*
X114420D01*
Y312459D01*
X116960D01*
X139820Y360719D02*
X142360Y365799D01*
X139820Y370879D01*
X144900Y368339D01*
X149980Y370879D01*
X147440Y365799D01*
X149980Y360719D01*
X144900Y363259D01*
X139820Y360719D01*
X76320Y335319D02*
X78860Y340399D01*
X76320Y345479D01*
X81400Y342939D01*
X86480Y345479D01*
X83940Y340399D01*
X86480Y335319D01*
X81400Y337859D01*
X76320Y335319D01*
X742500Y197420D02*
X737420Y207580D01*
X747580D01*
X742500Y197420D01*
Y222420D02*
X737420Y232580D01*
X747580D01*
X742500Y222420D01*
Y172420D02*
X737420Y182580D01*
X747580D01*
X742500Y172420D01*
X597500Y222420D02*
X592420Y232580D01*
X602580D01*
X597500Y222420D01*
Y172420D02*
X592420Y182580D01*
X602580D01*
X597500Y172420D01*
X790000Y541220D02*
X792540Y543760D01*
X795080D01*
X792540Y546300D01*
X795080Y548840D01*
X792540D01*
X790000Y551380D01*
X787460Y548840D01*
X784920D01*
X787460Y546300D01*
X784920Y543760D01*
X787460D01*
X790000Y541220D01*
Y566620D02*
X792540Y569160D01*
X795080D01*
X792540Y571700D01*
X795080Y574240D01*
X792540D01*
X790000Y576780D01*
X787460Y574240D01*
X784920D01*
X787460Y571700D01*
X784920Y569160D01*
X787460D01*
X790000Y566620D01*
Y592020D02*
X792540Y594560D01*
X795080D01*
X792540Y597100D01*
X795080Y599640D01*
X792540D01*
X790000Y602180D01*
X787460Y599640D01*
X784920D01*
X787460Y597100D01*
X784920Y594560D01*
X787460D01*
X790000Y592020D01*
Y617420D02*
X792540Y619960D01*
X795080D01*
X792540Y622500D01*
X795080Y625040D01*
X792540D01*
X790000Y627580D01*
X787460Y625040D01*
X784920D01*
X787460Y622500D01*
X784920Y619960D01*
X787460D01*
X790000Y617420D01*
Y642820D02*
X792540Y645360D01*
X795080D01*
X792540Y647900D01*
X795080Y650440D01*
X792540D01*
X790000Y652980D01*
X787460Y650440D01*
X784920D01*
X787460Y647900D01*
X784920Y645360D01*
X787460D01*
X790000Y642820D01*
Y668220D02*
X792540Y670760D01*
X795080D01*
X792540Y673300D01*
X795080Y675840D01*
X792540D01*
X790000Y678380D01*
X787460Y675840D01*
X784920D01*
X787460Y673300D01*
X784920Y670760D01*
X787460D01*
X790000Y668220D01*
Y693620D02*
X792540Y696160D01*
X795080D01*
X792540Y698700D01*
X795080Y701240D01*
X792540D01*
X790000Y703780D01*
X787460Y701240D01*
X784920D01*
X787460Y698700D01*
X784920Y696160D01*
X787460D01*
X790000Y693620D01*
Y719020D02*
X792540Y721560D01*
X795080D01*
X792540Y724100D01*
X795080Y726640D01*
X792540D01*
X790000Y729180D01*
X787460Y726640D01*
X784920D01*
X787460Y724100D01*
X784920Y721560D01*
X787460D01*
X790000Y719020D01*
X433819Y335319D02*
X436359Y340399D01*
X433819Y345479D01*
X438899Y342939D01*
X443979Y345479D01*
X441439Y340399D01*
X443979Y335319D01*
X438899Y337859D01*
X433819Y335319D01*
X497319Y360719D02*
X499859Y365799D01*
X497319Y370879D01*
X502399Y368339D01*
X507479Y370879D01*
X504939Y365799D01*
X507479Y360719D01*
X502399Y363259D01*
X497319Y360719D01*
X474459Y312459D02*
Y309919D01*
X479539D01*
Y312459D01*
X482079D01*
Y317539D01*
X479539D01*
Y320079D01*
X474459D01*
Y317539D01*
X471919D01*
Y312459D01*
X474459D01*
X421119Y309919D02*
X423659D01*
X426199Y312459D01*
X428739Y309919D01*
X431279D01*
Y312459D01*
X428739Y314999D01*
X431279Y317539D01*
Y320079D01*
X428739D01*
X426199Y317539D01*
X423659Y320079D01*
X421119D01*
Y317539D01*
X423659Y314999D01*
X421119Y312459D01*
Y309919D01*
X522719D02*
X525259D01*
X527799Y312459D01*
X530339Y309919D01*
X532879D01*
Y312459D01*
X530339Y314999D01*
X532879Y317539D01*
Y320079D01*
X530339D01*
X527799Y317539D01*
X525259Y320079D01*
X522719D01*
Y317539D01*
X525259Y314999D01*
X522719Y312459D01*
Y309919D01*
X256320Y335319D02*
X258860Y340399D01*
X256320Y345479D01*
X261400Y342939D01*
X266480Y345479D01*
X263940Y340399D01*
X266480Y335319D01*
X261400Y337859D01*
X256320Y335319D01*
X319820Y360719D02*
X322360Y365799D01*
X319820Y370879D01*
X324900Y368339D01*
X329980Y370879D01*
X327440Y365799D01*
X329980Y360719D01*
X324900Y363259D01*
X319820Y360719D01*
X296960Y312459D02*
Y309919D01*
X302040D01*
Y312459D01*
X304580D01*
Y317539D01*
X302040D01*
Y320079D01*
X296960D01*
Y317539D01*
X294420D01*
Y312459D01*
X296960D01*
X243620Y309919D02*
X246160D01*
X248700Y312459D01*
X251240Y309919D01*
X253780D01*
Y312459D01*
X251240Y314999D01*
X253780Y317539D01*
Y320079D01*
X251240D01*
X248700Y317539D01*
X246160Y320079D01*
X243620D01*
Y317539D01*
X246160Y314999D01*
X243620Y312459D01*
Y309919D01*
X345220D02*
X347760D01*
X350300Y312459D01*
X352840Y309919D01*
X355380D01*
Y312459D01*
X352840Y314999D01*
X355380Y317539D01*
Y320079D01*
X352840D01*
X350300Y317539D01*
X347760Y320079D01*
X345220D01*
Y317539D01*
X347760Y314999D01*
X345220Y312459D01*
Y309919D01*
X655000Y587020D02*
X649920Y597180D01*
X660080D01*
X655000Y587020D01*
Y561620D02*
X649920Y571780D01*
X660080D01*
X655000Y561620D01*
Y612420D02*
X649920Y622580D01*
X660080D01*
X655000Y612420D01*
Y637820D02*
X649920Y647980D01*
X660080D01*
X655000Y637820D01*
X433819Y135319D02*
X436359Y140399D01*
X433819Y145479D01*
X438899Y142939D01*
X443979Y145479D01*
X441439Y140399D01*
X443979Y135319D01*
X438899Y137859D01*
X433819Y135319D01*
X497319Y160719D02*
X499859Y165799D01*
X497319Y170879D01*
X502399Y168339D01*
X507479Y170879D01*
X504939Y165799D01*
X507479Y160719D01*
X502399Y163259D01*
X497319Y160719D01*
X474459Y112459D02*
Y109919D01*
X479539D01*
Y112459D01*
X482079D01*
Y117539D01*
X479539D01*
Y120079D01*
X474459D01*
Y117539D01*
X471919D01*
Y112459D01*
X474459D01*
X421119Y109919D02*
X423659D01*
X426199Y112459D01*
X428739Y109919D01*
X431279D01*
Y112459D01*
X428739Y114999D01*
X431279Y117539D01*
Y120079D01*
X428739D01*
X426199Y117539D01*
X423659Y120079D01*
X421119D01*
Y117539D01*
X423659Y114999D01*
X421119Y112459D01*
Y109919D01*
X522719D02*
X525259D01*
X527799Y112459D01*
X530339Y109919D01*
X532879D01*
Y112459D01*
X530339Y114999D01*
X532879Y117539D01*
Y120079D01*
X530339D01*
X527799Y117539D01*
X525259Y120079D01*
X522719D01*
Y117539D01*
X525259Y114999D01*
X522719Y112459D01*
Y109919D01*
X256320Y135319D02*
X258860Y140399D01*
X256320Y145479D01*
X261400Y142939D01*
X266480Y145479D01*
X263940Y140399D01*
X266480Y135319D01*
X261400Y137859D01*
X256320Y135319D01*
X319820Y160719D02*
X322360Y165799D01*
X319820Y170879D01*
X324900Y168339D01*
X329980Y170879D01*
X327440Y165799D01*
X329980Y160719D01*
X324900Y163259D01*
X319820Y160719D01*
X296960Y112459D02*
Y109919D01*
X302040D01*
Y112459D01*
X304580D01*
Y117539D01*
X302040D01*
Y120079D01*
X296960D01*
Y117539D01*
X294420D01*
Y112459D01*
X296960D01*
X243620Y109919D02*
X246160D01*
X248700Y112459D01*
X251240Y109919D01*
X253780D01*
Y112459D01*
X251240Y114999D01*
X253780Y117539D01*
Y120079D01*
X251240D01*
X248700Y117539D01*
X246160Y120079D01*
X243620D01*
Y117539D01*
X246160Y114999D01*
X243620Y112459D01*
Y109919D01*
X345220D02*
X347760D01*
X350300Y112459D01*
X352840Y109919D01*
X355380D01*
Y112459D01*
X352840Y114999D01*
X355380Y117539D01*
Y120079D01*
X352840D01*
X350300Y117539D01*
X347760Y120079D01*
X345220D01*
Y117539D01*
X347760Y114999D01*
X345220Y112459D01*
Y109919D01*
X76320Y135319D02*
X78860Y140399D01*
X76320Y145479D01*
X81400Y142939D01*
X86480Y145479D01*
X83940Y140399D01*
X86480Y135319D01*
X81400Y137859D01*
X76320Y135319D01*
X139820Y160719D02*
X142360Y165799D01*
X139820Y170879D01*
X144900Y168339D01*
X149980Y170879D01*
X147440Y165799D01*
X149980Y160719D01*
X144900Y163259D01*
X139820Y160719D01*
X116960Y112459D02*
Y109919D01*
X122040D01*
Y112459D01*
X124580D01*
Y117539D01*
X122040D01*
Y120079D01*
X116960D01*
Y117539D01*
X114420D01*
Y112459D01*
X116960D01*
X63620Y109919D02*
X66160D01*
X68700Y112459D01*
X71240Y109919D01*
X73780D01*
Y112459D01*
X71240Y114999D01*
X73780Y117539D01*
Y120079D01*
X71240D01*
X68700Y117539D01*
X66160Y120079D01*
X63620D01*
Y117539D01*
X66160Y114999D01*
X63620Y112459D01*
Y109919D01*
X165220D02*
X167760D01*
X170300Y112459D01*
X172840Y109919D01*
X175380D01*
Y112459D01*
X172840Y114999D01*
X175380Y117539D01*
Y120079D01*
X172840D01*
X170300Y117539D01*
X167760Y120079D01*
X165220D01*
Y117539D01*
X167760Y114999D01*
X165220Y112459D01*
Y109919D01*
X890599Y439342D02*
X893139Y441881D01*
X895678D01*
X893139Y444422D01*
X895678Y446962D01*
X893139D01*
X890599Y449501D01*
X888058Y446962D01*
X885518D01*
X888058Y444422D01*
X885518Y441881D01*
X888058D01*
X890599Y439342D01*
Y441373D02*
X892122Y442897D01*
X893646D01*
X892122Y444422D01*
X893646Y445946D01*
X892122D01*
X890599Y447469D01*
X889074Y445946D01*
X887551D01*
X889074Y444422D01*
X887551Y442897D01*
X889074D01*
X890599Y441373D01*
X17420Y529920D02*
X19960Y535000D01*
X17420Y540080D01*
X22500Y537540D01*
X27580Y540080D01*
X25040Y535000D01*
X27580Y529920D01*
X22500Y532460D01*
X17420Y529920D01*
X19452Y531952D02*
X20976Y535000D01*
X19452Y538048D01*
X22500Y536524D01*
X25548Y538048D01*
X24024Y535000D01*
X25548Y531952D01*
X22500Y533476D01*
X19452Y531952D01*
X2420Y547420D02*
X4960Y552500D01*
X2420Y557580D01*
X7500Y555040D01*
X12580Y557580D01*
X10040Y552500D01*
X12580Y547420D01*
X7500Y549960D01*
X2420Y547420D01*
X4452Y549452D02*
X5976Y552500D01*
X4452Y555548D01*
X7500Y554024D01*
X10548Y555548D01*
X9024Y552500D01*
X10548Y549452D01*
X7500Y550976D01*
X4452Y549452D01*
X2420Y579920D02*
X4960Y585000D01*
X2420Y590080D01*
X7500Y587540D01*
X12580Y590080D01*
X10040Y585000D01*
X12580Y579920D01*
X7500Y582460D01*
X2420Y579920D01*
X4452Y581952D02*
X5976Y585000D01*
X4452Y588048D01*
X7500Y586524D01*
X10548Y588048D01*
X9024Y585000D01*
X10548Y581952D01*
X7500Y583476D01*
X4452Y581952D01*
X947500Y409920D02*
X950040Y412460D01*
X952580D01*
X950040Y415000D01*
X952580Y417540D01*
X950040D01*
X947500Y420080D01*
X944960Y417540D01*
X942420D01*
X944960Y415000D01*
X942420Y412460D01*
X944960D01*
X947500Y409920D01*
Y411952D02*
X949024Y413476D01*
X950548D01*
X949024Y415000D01*
X950548Y416524D01*
X949024D01*
X947500Y418048D01*
X945976Y416524D01*
X944452D01*
X945976Y415000D01*
X944452Y413476D01*
X945976D01*
X947500Y411952D01*
X807500Y447420D02*
X810040Y449960D01*
X812580D01*
X810040Y452500D01*
X812580Y455040D01*
X810040D01*
X807500Y457580D01*
X804960Y455040D01*
X802420D01*
X804960Y452500D01*
X802420Y449960D01*
X804960D01*
X807500Y447420D01*
Y449452D02*
X809024Y450976D01*
X810548D01*
X809024Y452500D01*
X810548Y454024D01*
X809024D01*
X807500Y455548D01*
X805976Y454024D01*
X804452D01*
X805976Y452500D01*
X804452Y450976D01*
X805976D01*
X807500Y449452D01*
X818146Y467420D02*
X820686Y469960D01*
X823226D01*
X820686Y472500D01*
X823226Y475040D01*
X820686D01*
X818146Y477580D01*
X815606Y475040D01*
X813066D01*
X815606Y472500D01*
X813066Y469960D01*
X815606D01*
X818146Y467420D01*
Y469452D02*
X819670Y470976D01*
X821194D01*
X819670Y472500D01*
X821194Y474024D01*
X819670D01*
X818146Y475548D01*
X816622Y474024D01*
X815098D01*
X816622Y472500D01*
X815098Y470976D01*
X816622D01*
X818146Y469452D01*
X252500Y519920D02*
X255040Y522460D01*
X257580D01*
X255040Y525000D01*
X257580Y527540D01*
X255040D01*
X252500Y530080D01*
X249960Y527540D01*
X247420D01*
X249960Y525000D01*
X247420Y522460D01*
X249960D01*
X252500Y519920D01*
Y521952D02*
X254024Y523476D01*
X255548D01*
X254024Y525000D01*
X255548Y526524D01*
X254024D01*
X252500Y528048D01*
X250976Y526524D01*
X249452D01*
X250976Y525000D01*
X249452Y523476D01*
X250976D01*
X252500Y521952D01*
X592500Y594920D02*
X595040Y597460D01*
X597580D01*
X595040Y600000D01*
X597580Y602540D01*
X595040D01*
X592500Y605080D01*
X589960Y602540D01*
X587420D01*
X589960Y600000D01*
X587420Y597460D01*
X589960D01*
X592500Y594920D01*
Y596952D02*
X594024Y598476D01*
X595548D01*
X594024Y600000D01*
X595548Y601524D01*
X594024D01*
X592500Y603048D01*
X590976Y601524D01*
X589452D01*
X590976Y600000D01*
X589452Y598476D01*
X590976D01*
X592500Y596952D01*
X507500Y462420D02*
X510040Y464960D01*
X512580D01*
X510040Y467500D01*
X512580Y470040D01*
X510040D01*
X507500Y472580D01*
X504960Y470040D01*
X502420D01*
X504960Y467500D01*
X502420Y464960D01*
X504960D01*
X507500Y462420D01*
Y464452D02*
X509024Y465976D01*
X510548D01*
X509024Y467500D01*
X510548Y469024D01*
X509024D01*
X507500Y470548D01*
X505976Y469024D01*
X504452D01*
X505976Y467500D01*
X504452Y465976D01*
X505976D01*
X507500Y464452D01*
X380000Y519920D02*
X382540Y522460D01*
X385080D01*
X382540Y525000D01*
X385080Y527540D01*
X382540D01*
X380000Y530080D01*
X377460Y527540D01*
X374920D01*
X377460Y525000D01*
X374920Y522460D01*
X377460D01*
X380000Y519920D01*
Y521952D02*
X381524Y523476D01*
X383048D01*
X381524Y525000D01*
X383048Y526524D01*
X381524D01*
X380000Y528048D01*
X378476Y526524D01*
X376952D01*
X378476Y525000D01*
X376952Y523476D01*
X378476D01*
X380000Y521952D01*
X135000Y517420D02*
X137540Y519960D01*
X140080D01*
X137540Y522500D01*
X140080Y525040D01*
X137540D01*
X135000Y527580D01*
X132460Y525040D01*
X129920D01*
X132460Y522500D01*
X129920Y519960D01*
X132460D01*
X135000Y517420D01*
Y519452D02*
X136524Y520976D01*
X138048D01*
X136524Y522500D01*
X138048Y524024D01*
X136524D01*
X135000Y525548D01*
X133476Y524024D01*
X131952D01*
X133476Y522500D01*
X131952Y520976D01*
X133476D01*
X135000Y519452D01*
X110000Y567420D02*
X112540Y569960D01*
X115080D01*
X112540Y572500D01*
X115080Y575040D01*
X112540D01*
X110000Y577580D01*
X107460Y575040D01*
X104920D01*
X107460Y572500D01*
X104920Y569960D01*
X107460D01*
X110000Y567420D01*
Y569452D02*
X111524Y570976D01*
X113048D01*
X111524Y572500D01*
X113048Y574024D01*
X111524D01*
X110000Y575548D01*
X108476Y574024D01*
X106952D01*
X108476Y572500D01*
X106952Y570976D01*
X108476D01*
X110000Y569452D01*
X142500Y659920D02*
X145040Y662460D01*
X147580D01*
X145040Y665000D01*
X147580Y667540D01*
X145040D01*
X142500Y670080D01*
X139960Y667540D01*
X137420D01*
X139960Y665000D01*
X137420Y662460D01*
X139960D01*
X142500Y659920D01*
Y661952D02*
X144024Y663476D01*
X145548D01*
X144024Y665000D01*
X145548Y666524D01*
X144024D01*
X142500Y668048D01*
X140976Y666524D01*
X139452D01*
X140976Y665000D01*
X139452Y663476D01*
X140976D01*
X142500Y661952D01*
X115000Y637420D02*
X117540Y639960D01*
X120080D01*
X117540Y642500D01*
X120080Y645040D01*
X117540D01*
X115000Y647580D01*
X112460Y645040D01*
X109920D01*
X112460Y642500D01*
X109920Y639960D01*
X112460D01*
X115000Y637420D01*
Y639452D02*
X116524Y640976D01*
X118048D01*
X116524Y642500D01*
X118048Y644024D01*
X116524D01*
X115000Y645548D01*
X113476Y644024D01*
X111952D01*
X113476Y642500D01*
X111952Y640976D01*
X113476D01*
X115000Y639452D01*
X-2540Y772460D02*
Y769920D01*
X2540D01*
Y772460D01*
X5080D01*
Y777540D01*
X2540D01*
Y780080D01*
X-2540D01*
Y777540D01*
X-5080D01*
Y772460D01*
X-2540D01*
X-1524Y773476D02*
Y771952D01*
X1524D01*
Y773476D01*
X3048D01*
Y776524D01*
X1524D01*
Y778048D01*
X-1524D01*
Y776524D01*
X-3048D01*
Y773476D01*
X-1524D01*
X-2540Y-2540D02*
Y-5080D01*
X2540D01*
Y-2540D01*
X5080D01*
Y2540D01*
X2540D01*
Y5080D01*
X-2540D01*
Y2540D01*
X-5080D01*
Y-2540D01*
X-2540D01*
X-1524Y-1524D02*
Y-3048D01*
X1524D01*
Y-1524D01*
X3048D01*
Y1524D01*
X1524D01*
Y3048D01*
X-1524D01*
Y1524D01*
X-3048D01*
Y-1524D01*
X-1524D01*
X1027460Y-2540D02*
Y-5080D01*
X1032540D01*
Y-2540D01*
X1035080D01*
Y2540D01*
X1032540D01*
Y5080D01*
X1027460D01*
Y2540D01*
X1024920D01*
Y-2540D01*
X1027460D01*
X1028476Y-1524D02*
Y-3048D01*
X1031524D01*
Y-1524D01*
X1033048D01*
Y1524D01*
X1031524D01*
Y3048D01*
X1028476D01*
Y1524D01*
X1026952D01*
Y-1524D01*
X1028476D01*
X1027460Y772460D02*
Y769920D01*
X1032540D01*
Y772460D01*
X1035080D01*
Y777540D01*
X1032540D01*
Y780080D01*
X1027460D01*
Y777540D01*
X1024920D01*
Y772460D01*
X1027460D01*
X1028476Y773476D02*
Y771952D01*
X1031524D01*
Y773476D01*
X1033048D01*
Y776524D01*
X1031524D01*
Y778048D01*
X1028476D01*
Y776524D01*
X1026952D01*
Y773476D01*
X1028476D01*
X177500Y744920D02*
X180040Y747460D01*
X182580D01*
X180040Y750000D01*
X182580Y752540D01*
X180040D01*
X177500Y755080D01*
X174960Y752540D01*
X172420D01*
X174960Y750000D01*
X172420Y747460D01*
X174960D01*
X177500Y744920D01*
Y746952D02*
X179024Y748476D01*
X180548D01*
X179024Y750000D01*
X180548Y751524D01*
X179024D01*
X177500Y753048D01*
X175976Y751524D01*
X174452D01*
X175976Y750000D01*
X174452Y748476D01*
X175976D01*
X177500Y746952D01*
X397186Y722420D02*
X399726Y724960D01*
X402266D01*
X399726Y727500D01*
X402266Y730040D01*
X399726D01*
X397186Y732580D01*
X394646Y730040D01*
X392106D01*
X394646Y727500D01*
X392106Y724960D01*
X394646D01*
X397186Y722420D01*
Y724452D02*
X398710Y725976D01*
X400234D01*
X398710Y727500D01*
X400234Y729024D01*
X398710D01*
X397186Y730548D01*
X395662Y729024D01*
X394138D01*
X395662Y727500D01*
X394138Y725976D01*
X395662D01*
X397186Y724452D01*
X710000Y484920D02*
X712540Y487460D01*
X715080D01*
X712540Y490000D01*
X715080Y492540D01*
X712540D01*
X710000Y495080D01*
X707460Y492540D01*
X704920D01*
X707460Y490000D01*
X704920Y487460D01*
X707460D01*
X710000Y484920D01*
Y486952D02*
X711524Y488476D01*
X713048D01*
X711524Y490000D01*
X713048Y491524D01*
X711524D01*
X710000Y493048D01*
X708476Y491524D01*
X706952D01*
X708476Y490000D01*
X706952Y488476D01*
X708476D01*
X710000Y486952D01*
X525000Y552420D02*
X527540Y554960D01*
X530080D01*
X527540Y557500D01*
X530080Y560040D01*
X527540D01*
X525000Y562580D01*
X522460Y560040D01*
X519920D01*
X522460Y557500D01*
X519920Y554960D01*
X522460D01*
X525000Y552420D01*
Y554452D02*
X526524Y555976D01*
X528048D01*
X526524Y557500D01*
X528048Y559024D01*
X526524D01*
X525000Y560548D01*
X523476Y559024D01*
X521952D01*
X523476Y557500D01*
X521952Y555976D01*
X523476D01*
X525000Y554452D01*
X592500Y484920D02*
X595040Y487460D01*
X597580D01*
X595040Y490000D01*
X597580Y492540D01*
X595040D01*
X592500Y495080D01*
X589960Y492540D01*
X587420D01*
X589960Y490000D01*
X587420Y487460D01*
X589960D01*
X592500Y484920D01*
Y486952D02*
X594024Y488476D01*
X595548D01*
X594024Y490000D01*
X595548Y491524D01*
X594024D01*
X592500Y493048D01*
X590976Y491524D01*
X589452D01*
X590976Y490000D01*
X589452Y488476D01*
X590976D01*
X592500Y486952D01*
X740000Y414920D02*
X742540Y417460D01*
X745080D01*
X742540Y420000D01*
X745080Y422540D01*
X742540D01*
X740000Y425080D01*
X737460Y422540D01*
X734920D01*
X737460Y420000D01*
X734920Y417460D01*
X737460D01*
X740000Y414920D01*
Y416952D02*
X741524Y418476D01*
X743048D01*
X741524Y420000D01*
X743048Y421524D01*
X741524D01*
X740000Y423048D01*
X738476Y421524D01*
X736952D01*
X738476Y420000D01*
X736952Y418476D01*
X738476D01*
X740000Y416952D01*
X665000Y399920D02*
X667540Y402460D01*
X670080D01*
X667540Y405000D01*
X670080Y407540D01*
X667540D01*
X665000Y410080D01*
X662460Y407540D01*
X659920D01*
X662460Y405000D01*
X659920Y402460D01*
X662460D01*
X665000Y399920D01*
Y401952D02*
X666524Y403476D01*
X668048D01*
X666524Y405000D01*
X668048Y406524D01*
X666524D01*
X665000Y408048D01*
X663476Y406524D01*
X661952D01*
X663476Y405000D01*
X661952Y403476D01*
X663476D01*
X665000Y401952D01*
X735000Y397420D02*
X737540Y399960D01*
X740080D01*
X737540Y402500D01*
X740080Y405040D01*
X737540D01*
X735000Y407580D01*
X732460Y405040D01*
X729920D01*
X732460Y402500D01*
X729920Y399960D01*
X732460D01*
X735000Y397420D01*
Y399452D02*
X736524Y400976D01*
X738048D01*
X736524Y402500D01*
X738048Y404024D01*
X736524D01*
X735000Y405548D01*
X733476Y404024D01*
X731952D01*
X733476Y402500D01*
X731952Y400976D01*
X733476D01*
X735000Y399452D01*
X872500Y419920D02*
X875040Y422460D01*
X877580D01*
X875040Y425000D01*
X877580Y427540D01*
X875040D01*
X872500Y430080D01*
X869960Y427540D01*
X867420D01*
X869960Y425000D01*
X867420Y422460D01*
X869960D01*
X872500Y419920D01*
Y421952D02*
X874024Y423476D01*
X875548D01*
X874024Y425000D01*
X875548Y426524D01*
X874024D01*
X872500Y428048D01*
X870976Y426524D01*
X869452D01*
X870976Y425000D01*
X869452Y423476D01*
X870976D01*
X872500Y421952D01*
X752500Y562420D02*
X755040Y564960D01*
X757580D01*
X755040Y567500D01*
X757580Y570040D01*
X755040D01*
X752500Y572580D01*
X749960Y570040D01*
X747420D01*
X749960Y567500D01*
X747420Y564960D01*
X749960D01*
X752500Y562420D01*
Y564452D02*
X754024Y565976D01*
X755548D01*
X754024Y567500D01*
X755548Y569024D01*
X754024D01*
X752500Y570548D01*
X750976Y569024D01*
X749452D01*
X750976Y567500D01*
X749452Y565976D01*
X750976D01*
X752500Y564452D01*
X755000Y552420D02*
X757540Y554960D01*
X760080D01*
X757540Y557500D01*
X760080Y560040D01*
X757540D01*
X755000Y562580D01*
X752460Y560040D01*
X749920D01*
X752460Y557500D01*
X749920Y554960D01*
X752460D01*
X755000Y552420D01*
Y554452D02*
X756524Y555976D01*
X758048D01*
X756524Y557500D01*
X758048Y559024D01*
X756524D01*
X755000Y560548D01*
X753476Y559024D01*
X751952D01*
X753476Y557500D01*
X751952Y555976D01*
X753476D01*
X755000Y554452D01*
Y542420D02*
X757540Y544960D01*
X760080D01*
X757540Y547500D01*
X760080Y550040D01*
X757540D01*
X755000Y552580D01*
X752460Y550040D01*
X749920D01*
X752460Y547500D01*
X749920Y544960D01*
X752460D01*
X755000Y542420D01*
Y544452D02*
X756524Y545976D01*
X758048D01*
X756524Y547500D01*
X758048Y549024D01*
X756524D01*
X755000Y550548D01*
X753476Y549024D01*
X751952D01*
X753476Y547500D01*
X751952Y545976D01*
X753476D01*
X755000Y544452D01*
X667500Y384920D02*
X670040Y387460D01*
X672580D01*
X670040Y390000D01*
X672580Y392540D01*
X670040D01*
X667500Y395080D01*
X664960Y392540D01*
X662420D01*
X664960Y390000D01*
X662420Y387460D01*
X664960D01*
X667500Y384920D01*
Y386952D02*
X669024Y388476D01*
X670548D01*
X669024Y390000D01*
X670548Y391524D01*
X669024D01*
X667500Y393048D01*
X665976Y391524D01*
X664452D01*
X665976Y390000D01*
X664452Y388476D01*
X665976D01*
X667500Y386952D01*
X925000Y352420D02*
X927540Y354960D01*
X930080D01*
X927540Y357500D01*
X930080Y360040D01*
X927540D01*
X925000Y362580D01*
X922460Y360040D01*
X919920D01*
X922460Y357500D01*
X919920Y354960D01*
X922460D01*
X925000Y352420D01*
Y354452D02*
X926524Y355976D01*
X928048D01*
X926524Y357500D01*
X928048Y359024D01*
X926524D01*
X925000Y360548D01*
X923476Y359024D01*
X921952D01*
X923476Y357500D01*
X921952Y355976D01*
X923476D01*
X925000Y354452D01*
X857170Y407670D02*
X859710Y412750D01*
X857170Y417830D01*
X862250Y415290D01*
X867330Y417830D01*
X864790Y412750D01*
X867330Y407670D01*
X862250Y410210D01*
X857170Y407670D01*
X859202Y409702D02*
X860726Y412750D01*
X859202Y415798D01*
X862250Y414274D01*
X865298Y415798D01*
X863774Y412750D01*
X865298Y409702D01*
X862250Y411226D01*
X859202Y409702D01*
X872500Y464920D02*
X875040Y467460D01*
X877580D01*
X875040Y470000D01*
X877580Y472540D01*
X875040D01*
X872500Y475080D01*
X869960Y472540D01*
X867420D01*
X869960Y470000D01*
X867420Y467460D01*
X869960D01*
X872500Y464920D01*
Y466952D02*
X874024Y468476D01*
X875548D01*
X874024Y470000D01*
X875548Y471524D01*
X874024D01*
X872500Y473048D01*
X870976Y471524D01*
X869452D01*
X870976Y470000D01*
X869452Y468476D01*
X870976D01*
X872500Y466952D01*
X827500Y419920D02*
X830040Y422460D01*
X832580D01*
X830040Y425000D01*
X832580Y427540D01*
X830040D01*
X827500Y430080D01*
X824960Y427540D01*
X822420D01*
X824960Y425000D01*
X822420Y422460D01*
X824960D01*
X827500Y419920D01*
Y421952D02*
X829024Y423476D01*
X830548D01*
X829024Y425000D01*
X830548Y426524D01*
X829024D01*
X827500Y428048D01*
X825976Y426524D01*
X824452D01*
X825976Y425000D01*
X824452Y423476D01*
X825976D01*
X827500Y421952D01*
X897500Y457420D02*
X900040Y459960D01*
X902580D01*
X900040Y462500D01*
X902580Y465040D01*
X900040D01*
X897500Y467580D01*
X894960Y465040D01*
X892420D01*
X894960Y462500D01*
X892420Y459960D01*
X894960D01*
X897500Y457420D01*
Y459452D02*
X899024Y460976D01*
X900548D01*
X899024Y462500D01*
X900548Y464024D01*
X899024D01*
X897500Y465548D01*
X895976Y464024D01*
X894452D01*
X895976Y462500D01*
X894452Y460976D01*
X895976D01*
X897500Y459452D01*
X885000Y479920D02*
X887540Y482460D01*
X890080D01*
X887540Y485000D01*
X890080Y487540D01*
X887540D01*
X885000Y490080D01*
X882460Y487540D01*
X879920D01*
X882460Y485000D01*
X879920Y482460D01*
X882460D01*
X885000Y479920D01*
Y481952D02*
X886524Y483476D01*
X888048D01*
X886524Y485000D01*
X888048Y486524D01*
X886524D01*
X885000Y488048D01*
X883476Y486524D01*
X881952D01*
X883476Y485000D01*
X881952Y483476D01*
X883476D01*
X885000Y481952D01*
X855000Y497420D02*
X857540Y499960D01*
X860080D01*
X857540Y502500D01*
X860080Y505040D01*
X857540D01*
X855000Y507580D01*
X852460Y505040D01*
X849920D01*
X852460Y502500D01*
X849920Y499960D01*
X852460D01*
X855000Y497420D01*
Y499452D02*
X856524Y500976D01*
X858048D01*
X856524Y502500D01*
X858048Y504024D01*
X856524D01*
X855000Y505548D01*
X853476Y504024D01*
X851952D01*
X853476Y502500D01*
X851952Y500976D01*
X853476D01*
X855000Y499452D01*
X857500Y477420D02*
X860040Y479960D01*
X862580D01*
X860040Y482500D01*
X862580Y485040D01*
X860040D01*
X857500Y487580D01*
X854960Y485040D01*
X852420D01*
X854960Y482500D01*
X852420Y479960D01*
X854960D01*
X857500Y477420D01*
Y479452D02*
X859024Y480976D01*
X860548D01*
X859024Y482500D01*
X860548Y484024D01*
X859024D01*
X857500Y485548D01*
X855976Y484024D01*
X854452D01*
X855976Y482500D01*
X854452Y480976D01*
X855976D01*
X857500Y479452D01*
X960000Y389920D02*
X962540Y392460D01*
X965080D01*
X962540Y395000D01*
X965080Y397540D01*
X962540D01*
X960000Y400080D01*
X957460Y397540D01*
X954920D01*
X957460Y395000D01*
X954920Y392460D01*
X957460D01*
X960000Y389920D01*
Y391952D02*
X961524Y393476D01*
X963048D01*
X961524Y395000D01*
X963048Y396524D01*
X961524D01*
X960000Y398048D01*
X958476Y396524D01*
X956952D01*
X958476Y395000D01*
X956952Y393476D01*
X958476D01*
X960000Y391952D01*
X816130Y448634D02*
X818670Y453714D01*
X816130Y458794D01*
X821210Y456254D01*
X826290Y458794D01*
X823750Y453714D01*
X826290Y448634D01*
X821210Y451174D01*
X816130Y448634D01*
X818162Y450666D02*
X819686Y453714D01*
X818162Y456762D01*
X821210Y455238D01*
X824258Y456762D01*
X822734Y453714D01*
X824258Y450666D01*
X821210Y452190D01*
X818162Y450666D01*
X852500Y304920D02*
X855040Y307460D01*
X857580D01*
X855040Y310000D01*
X857580Y312540D01*
X855040D01*
X852500Y315080D01*
X849960Y312540D01*
X847420D01*
X849960Y310000D01*
X847420Y307460D01*
X849960D01*
X852500Y304920D01*
Y306952D02*
X854024Y308476D01*
X855548D01*
X854024Y310000D01*
X855548Y311524D01*
X854024D01*
X852500Y313048D01*
X850976Y311524D01*
X849452D01*
X850976Y310000D01*
X849452Y308476D01*
X850976D01*
X852500Y306952D01*
X882500Y377420D02*
X885040Y379960D01*
X887580D01*
X885040Y382500D01*
X887580Y385040D01*
X885040D01*
X882500Y387580D01*
X879960Y385040D01*
X877420D01*
X879960Y382500D01*
X877420Y379960D01*
X879960D01*
X882500Y377420D01*
Y379452D02*
X884024Y380976D01*
X885548D01*
X884024Y382500D01*
X885548Y384024D01*
X884024D01*
X882500Y385548D01*
X880976Y384024D01*
X879452D01*
X880976Y382500D01*
X879452Y380976D01*
X880976D01*
X882500Y379452D01*
X942500Y497420D02*
X945040Y499960D01*
X947580D01*
X945040Y502500D01*
X947580Y505040D01*
X945040D01*
X942500Y507580D01*
X939960Y505040D01*
X937420D01*
X939960Y502500D01*
X937420Y499960D01*
X939960D01*
X942500Y497420D01*
Y499452D02*
X944024Y500976D01*
X945548D01*
X944024Y502500D01*
X945548Y504024D01*
X944024D01*
X942500Y505548D01*
X940976Y504024D01*
X939452D01*
X940976Y502500D01*
X939452Y500976D01*
X940976D01*
X942500Y499452D01*
X977500Y457420D02*
X980040Y459960D01*
X982580D01*
X980040Y462500D01*
X982580Y465040D01*
X980040D01*
X977500Y467580D01*
X974960Y465040D01*
X972420D01*
X974960Y462500D01*
X972420Y459960D01*
X974960D01*
X977500Y457420D01*
Y459452D02*
X979024Y460976D01*
X980548D01*
X979024Y462500D01*
X980548Y464024D01*
X979024D01*
X977500Y465548D01*
X975976Y464024D01*
X974452D01*
X975976Y462500D01*
X974452Y460976D01*
X975976D01*
X977500Y459452D01*
Y444920D02*
X980040Y447460D01*
X982580D01*
X980040Y450000D01*
X982580Y452540D01*
X980040D01*
X977500Y455080D01*
X974960Y452540D01*
X972420D01*
X974960Y450000D01*
X972420Y447460D01*
X974960D01*
X977500Y444920D01*
Y446952D02*
X979024Y448476D01*
X980548D01*
X979024Y450000D01*
X980548Y451524D01*
X979024D01*
X977500Y453048D01*
X975976Y451524D01*
X974452D01*
X975976Y450000D01*
X974452Y448476D01*
X975976D01*
X977500Y446952D01*
X505000Y607420D02*
X507540Y609960D01*
X510080D01*
X507540Y612500D01*
X510080Y615040D01*
X507540D01*
X505000Y617580D01*
X502460Y615040D01*
X499920D01*
X502460Y612500D01*
X499920Y609960D01*
X502460D01*
X505000Y607420D01*
Y609452D02*
X506524Y610976D01*
X508048D01*
X506524Y612500D01*
X508048Y614024D01*
X506524D01*
X505000Y615548D01*
X503476Y614024D01*
X501952D01*
X503476Y612500D01*
X501952Y610976D01*
X503476D01*
X505000Y609452D01*
X547500Y647420D02*
X550040Y649960D01*
X552580D01*
X550040Y652500D01*
X552580Y655040D01*
X550040D01*
X547500Y657580D01*
X544960Y655040D01*
X542420D01*
X544960Y652500D01*
X542420Y649960D01*
X544960D01*
X547500Y647420D01*
Y649452D02*
X549024Y650976D01*
X550548D01*
X549024Y652500D01*
X550548Y654024D01*
X549024D01*
X547500Y655548D01*
X545976Y654024D01*
X544452D01*
X545976Y652500D01*
X544452Y650976D01*
X545976D01*
X547500Y649452D01*
X642420Y314920D02*
X644960Y320000D01*
X642420Y325080D01*
X647500Y322540D01*
X652580Y325080D01*
X650040Y320000D01*
X652580Y314920D01*
X647500Y317460D01*
X642420Y314920D01*
X644452Y316952D02*
X645976Y320000D01*
X644452Y323048D01*
X647500Y321524D01*
X650548Y323048D01*
X649024Y320000D01*
X650548Y316952D01*
X647500Y318476D01*
X644452Y316952D01*
X449420Y-10080D02*
X451960Y-5000D01*
X449420Y80D01*
X454500Y-2460D01*
X459580Y80D01*
X457040Y-5000D01*
X459580Y-10080D01*
X454500Y-7540D01*
X449420Y-10080D01*
X451452Y-8048D02*
X452976Y-5000D01*
X451452Y-1952D01*
X454500Y-3476D01*
X457548Y-1952D01*
X456024Y-5000D01*
X457548Y-8048D01*
X454500Y-6524D01*
X451452Y-8048D01*
X430000Y647420D02*
X432540Y649960D01*
X435080D01*
X432540Y652500D01*
X435080Y655040D01*
X432540D01*
X430000Y657580D01*
X427460Y655040D01*
X424920D01*
X427460Y652500D01*
X424920Y649960D01*
X427460D01*
X430000Y647420D01*
Y649452D02*
X431524Y650976D01*
X433048D01*
X431524Y652500D01*
X433048Y654024D01*
X431524D01*
X430000Y655548D01*
X428476Y654024D01*
X426952D01*
X428476Y652500D01*
X426952Y650976D01*
X428476D01*
X430000Y649452D01*
X405000Y647420D02*
X407540Y649960D01*
X410080D01*
X407540Y652500D01*
X410080Y655040D01*
X407540D01*
X405000Y657580D01*
X402460Y655040D01*
X399920D01*
X402460Y652500D01*
X399920Y649960D01*
X402460D01*
X405000Y647420D01*
Y649452D02*
X406524Y650976D01*
X408048D01*
X406524Y652500D01*
X408048Y654024D01*
X406524D01*
X405000Y655548D01*
X403476Y654024D01*
X401952D01*
X403476Y652500D01*
X401952Y650976D01*
X403476D01*
X405000Y649452D01*
X457500Y647420D02*
X460040Y649960D01*
X462580D01*
X460040Y652500D01*
X462580Y655040D01*
X460040D01*
X457500Y657580D01*
X454960Y655040D01*
X452420D01*
X454960Y652500D01*
X452420Y649960D01*
X454960D01*
X457500Y647420D01*
Y649452D02*
X459024Y650976D01*
X460548D01*
X459024Y652500D01*
X460548Y654024D01*
X459024D01*
X457500Y655548D01*
X455976Y654024D01*
X454452D01*
X455976Y652500D01*
X454452Y650976D01*
X455976D01*
X457500Y649452D01*
X482500Y644920D02*
X485040Y647460D01*
X487580D01*
X485040Y650000D01*
X487580Y652540D01*
X485040D01*
X482500Y655080D01*
X479960Y652540D01*
X477420D01*
X479960Y650000D01*
X477420Y647460D01*
X479960D01*
X482500Y644920D01*
Y646952D02*
X484024Y648476D01*
X485548D01*
X484024Y650000D01*
X485548Y651524D01*
X484024D01*
X482500Y653048D01*
X480976Y651524D01*
X479452D01*
X480976Y650000D01*
X479452Y648476D01*
X480976D01*
X482500Y646952D01*
X15491Y564920D02*
X18031Y570000D01*
X15491Y575080D01*
X20571Y572540D01*
X25651Y575080D01*
X23111Y570000D01*
X25651Y564920D01*
X20571Y567460D01*
X15491Y564920D01*
X17523Y566952D02*
X19047Y570000D01*
X17523Y573048D01*
X20571Y571524D01*
X23619Y573048D01*
X22095Y570000D01*
X23619Y566952D01*
X20571Y568476D01*
X17523Y566952D01*
X2420Y617420D02*
X4960Y622500D01*
X2420Y627580D01*
X7500Y625040D01*
X12580Y627580D01*
X10040Y622500D01*
X12580Y617420D01*
X7500Y619960D01*
X2420Y617420D01*
X4452Y619452D02*
X5976Y622500D01*
X4452Y625548D01*
X7500Y624024D01*
X10548Y625548D01*
X9024Y622500D01*
X10548Y619452D01*
X7500Y620976D01*
X4452Y619452D01*
X14920Y600019D02*
X17460Y605099D01*
X14920Y610179D01*
X20000Y607639D01*
X25080Y610179D01*
X22540Y605099D01*
X25080Y600019D01*
X20000Y602559D01*
X14920Y600019D01*
X16952Y602051D02*
X18476Y605099D01*
X16952Y608147D01*
X20000Y606623D01*
X23048Y608147D01*
X21524Y605099D01*
X23048Y602051D01*
X20000Y603575D01*
X16952Y602051D01*
D82*
X1017681Y488000D02*
G03*
X1017681Y488000I-5080J0D01*
G01*
Y422000D02*
G03*
X1017681Y422000I-5080J0D01*
G01*
X672580Y259500D02*
G03*
X672580Y259500I-5080J0D01*
G01*
Y145500D02*
G03*
X672580Y145500I-5080J0D01*
G01*
D83*
X1015649Y488000D02*
G03*
X1015649Y488000I-3048J0D01*
G01*
Y422000D02*
G03*
X1015649Y422000I-3048J0D01*
G01*
M02*
