G04*
G04 #@! TF.GenerationSoftware,Altium Limited,Altium Designer,23.1.1 (15)*
G04*
G04 Layer_Color=16711935*
%FSLAX44Y44*%
%MOMM*%
G71*
G04*
G04 #@! TF.SameCoordinates,71942028-349F-4B58-9001-873325432457*
G04*
G04*
G04 #@! TF.FilePolarity,Positive*
G04*
G01*
G75*
%ADD14C,0.1500*%
%ADD16C,0.1800*%
D14*
X939000Y350000D02*
X966000D01*
X939000D02*
Y365000D01*
X966000D01*
Y350000D02*
Y365000D01*
X755500Y432250D02*
X789500D01*
X755500D02*
Y447750D01*
X789500D01*
Y432250D02*
Y447750D01*
X860500Y508500D02*
X884500D01*
Y496500D02*
Y508500D01*
X860500Y496500D02*
X884500D01*
X860500D02*
Y508500D01*
X823000Y489000D02*
X847000D01*
X823000D02*
Y501000D01*
X847000D01*
Y489000D02*
Y501000D01*
X910209Y455189D02*
X939791D01*
X910209D02*
Y469811D01*
X939791D01*
Y455189D02*
Y469811D01*
X910200Y432689D02*
X939782D01*
X910200D02*
Y447311D01*
X939782D01*
Y432689D02*
Y447311D01*
X755500Y469750D02*
X789500D01*
X755500D02*
Y485250D01*
X789500D01*
Y469750D02*
Y485250D01*
X588750Y132500D02*
X751250D01*
Y272500D01*
X588750D02*
X751250D01*
X588750Y132500D02*
Y272500D01*
X682000Y292250D02*
Y307750D01*
X648000D02*
X682000D01*
X648000Y292250D02*
Y307750D01*
Y292250D02*
X682000D01*
X758450Y531350D02*
X821950D01*
Y739050D01*
X758450D02*
X821950D01*
X758450Y531350D02*
Y739050D01*
X281500Y204750D02*
Y220250D01*
Y204750D02*
X315500D01*
Y220250D01*
X281500D02*
X315500D01*
X101500Y204750D02*
Y220250D01*
Y204750D02*
X135500D01*
Y220250D01*
X101500D02*
X135500D01*
X458999Y204750D02*
Y220250D01*
Y204750D02*
X492999D01*
Y220250D01*
X458999D02*
X492999D01*
X285500Y-250D02*
Y15250D01*
Y-250D02*
X319500D01*
Y15250D01*
X285500D02*
X319500D01*
X100500Y-250D02*
Y15250D01*
Y-250D02*
X134500D01*
Y15250D01*
X100500D02*
X134500D01*
X460500Y-250D02*
Y15250D01*
Y-250D02*
X494500D01*
Y15250D01*
X460500D02*
X494500D01*
D16*
X874869Y346465D02*
X873702Y345299D01*
Y342966D01*
X874869Y341800D01*
X879534D01*
X880700Y342966D01*
Y345299D01*
X879534Y346465D01*
X880700Y348798D02*
Y351130D01*
Y349964D01*
X873702D01*
X874869Y348798D01*
X946035Y349869D02*
X947201Y348702D01*
X949534D01*
X950700Y349869D01*
Y354534D01*
X949534Y355700D01*
X947201D01*
X946035Y354534D01*
X939037Y348702D02*
X943702D01*
Y352201D01*
X941370Y351035D01*
X940203D01*
X939037Y352201D01*
Y354534D01*
X940203Y355700D01*
X942536D01*
X943702Y354534D01*
X770700Y433085D02*
X766035D01*
X768367D01*
Y440082D01*
X763702Y433085D02*
X759037Y440082D01*
Y433085D02*
X763702Y440082D01*
X878965Y510131D02*
X877799Y511298D01*
X875466D01*
X874300Y510131D01*
Y505466D01*
X875466Y504300D01*
X877799D01*
X878965Y505466D01*
X881298Y510131D02*
X882464Y511298D01*
X884797D01*
X885963Y510131D01*
Y508965D01*
X884797Y507799D01*
X883630D01*
X884797D01*
X885963Y506632D01*
Y505466D01*
X884797Y504300D01*
X882464D01*
X881298Y505466D01*
X828535Y487369D02*
X829701Y486202D01*
X832034D01*
X833200Y487369D01*
Y492034D01*
X832034Y493200D01*
X829701D01*
X828535Y492034D01*
X821537Y493200D02*
X826202D01*
X821537Y488535D01*
Y487369D01*
X822703Y486202D01*
X825036D01*
X826202Y487369D01*
X923200Y460700D02*
Y453702D01*
X919701D01*
X918535Y454869D01*
Y457201D01*
X919701Y458368D01*
X923200D01*
X920867D02*
X918535Y460700D01*
X916202D02*
X913870D01*
X915036D01*
Y453702D01*
X916202Y454869D01*
X923192Y438200D02*
Y431202D01*
X919693D01*
X918526Y432369D01*
Y434701D01*
X919693Y435868D01*
X923192D01*
X920859D02*
X918526Y438200D01*
X912695D02*
Y431202D01*
X916194Y434701D01*
X911529D01*
X770700Y477582D02*
Y470585D01*
X767201D01*
X766035Y471751D01*
Y474084D01*
X767201Y475250D01*
X770700D01*
X768367D02*
X766035Y477582D01*
X763702Y470585D02*
X759037Y477582D01*
Y470585D02*
X763702Y477582D01*
X661202Y208965D02*
Y204300D01*
X668200D01*
Y208965D01*
X664701Y204300D02*
Y206632D01*
X668200Y211298D02*
X661202D01*
X668200Y215963D01*
X661202D01*
X662369Y222961D02*
X661202Y221794D01*
Y219462D01*
X662369Y218295D01*
X667034D01*
X668200Y219462D01*
Y221794D01*
X667034Y222961D01*
X668200Y225293D02*
Y227626D01*
Y226459D01*
X661202D01*
X662369Y225293D01*
X663200Y293085D02*
Y300082D01*
X659701D01*
X658535Y298916D01*
Y294251D01*
X659701Y293085D01*
X663200D01*
X656202Y300082D02*
X653870D01*
X655036D01*
Y293085D01*
X656202Y294251D01*
X781402Y641665D02*
Y639333D01*
Y640499D01*
X787234D01*
X788400Y639333D01*
Y638166D01*
X787234Y637000D01*
X788400Y643998D02*
Y646330D01*
Y645164D01*
X781402D01*
X782569Y643998D01*
X300300Y219415D02*
Y212418D01*
X303799D01*
X304965Y213584D01*
Y218249D01*
X303799Y219415D01*
X300300D01*
X307297Y218249D02*
X308464Y219415D01*
X310796D01*
X311963Y218249D01*
Y217083D01*
X310796Y215917D01*
X309630D01*
X310796D01*
X311963Y214750D01*
Y213584D01*
X310796Y212418D01*
X308464D01*
X307297Y213584D01*
X120300Y219415D02*
Y212418D01*
X123799D01*
X124965Y213584D01*
Y218249D01*
X123799Y219415D01*
X120300D01*
X131963Y212418D02*
X127298D01*
X131963Y217083D01*
Y218249D01*
X130797Y219415D01*
X128464D01*
X127298Y218249D01*
X477799Y219415D02*
Y212418D01*
X481298D01*
X482464Y213584D01*
Y218249D01*
X481298Y219415D01*
X477799D01*
X488296Y212418D02*
Y219415D01*
X484797Y215917D01*
X489462D01*
X304300Y14415D02*
Y7418D01*
X307799D01*
X308965Y8584D01*
Y13249D01*
X307799Y14415D01*
X304300D01*
X315963D02*
X313630Y13249D01*
X311298Y10917D01*
Y8584D01*
X312464Y7418D01*
X314797D01*
X315963Y8584D01*
Y9750D01*
X314797Y10917D01*
X311298D01*
X119300Y14415D02*
Y7418D01*
X122799D01*
X123965Y8584D01*
Y13249D01*
X122799Y14415D01*
X119300D01*
X130963D02*
X126298D01*
Y10917D01*
X128630Y12083D01*
X129797D01*
X130963Y10917D01*
Y8584D01*
X129797Y7418D01*
X127464D01*
X126298Y8584D01*
X479300Y14415D02*
Y7418D01*
X482799D01*
X483965Y8584D01*
Y13249D01*
X482799Y14415D01*
X479300D01*
X486298D02*
X490963D01*
Y13249D01*
X486298Y8584D01*
Y7418D01*
M02*
