G04*
G04 #@! TF.GenerationSoftware,Altium Limited,Altium Designer,23.1.1 (15)*
G04*
G04 Layer_Physical_Order=1*
G04 Layer_Color=255*
%FSLAX44Y44*%
%MOMM*%
G71*
G04*
G04 #@! TF.SameCoordinates,71942028-349F-4B58-9001-873325432457*
G04*
G04*
G04 #@! TF.FilePolarity,Positive*
G04*
G01*
G75*
%ADD14C,0.1500*%
%ADD15C,0.2500*%
%ADD17R,0.3500X0.8500*%
%ADD18R,0.8500X0.3500*%
%ADD19R,2.1500X2.1500*%
G04:AMPARAMS|DCode=20|XSize=1.5mm|YSize=1.5mm|CornerRadius=0.225mm|HoleSize=0mm|Usage=FLASHONLY|Rotation=90.000|XOffset=0mm|YOffset=0mm|HoleType=Round|Shape=RoundedRectangle|*
%AMROUNDEDRECTD20*
21,1,1.5000,1.0500,0,0,90.0*
21,1,1.0500,1.5000,0,0,90.0*
1,1,0.4500,0.5250,0.5250*
1,1,0.4500,0.5250,-0.5250*
1,1,0.4500,-0.5250,-0.5250*
1,1,0.4500,-0.5250,0.5250*
%
%ADD20ROUNDEDRECTD20*%
%ADD21R,1.0000X2.5000*%
G04:AMPARAMS|DCode=22|XSize=2.5mm|YSize=1mm|CornerRadius=0.125mm|HoleSize=0mm|Usage=FLASHONLY|Rotation=90.000|XOffset=0mm|YOffset=0mm|HoleType=Round|Shape=RoundedRectangle|*
%AMROUNDEDRECTD22*
21,1,2.5000,0.7500,0,0,90.0*
21,1,2.2500,1.0000,0,0,90.0*
1,1,0.2500,0.3750,1.1250*
1,1,0.2500,0.3750,-1.1250*
1,1,0.2500,-0.3750,-1.1250*
1,1,0.2500,-0.3750,1.1250*
%
%ADD22ROUNDEDRECTD22*%
%ADD23R,2.5000X1.0000*%
%ADD24R,1.2500X0.3000*%
%ADD25R,1.2500X0.6000*%
%ADD26R,0.8000X0.9000*%
%ADD27R,1.1500X1.0000*%
%ADD28R,0.8500X0.9500*%
%ADD29R,1.1000X1.2000*%
%ADD30R,0.8000X0.9500*%
%ADD31R,0.7500X0.9000*%
%ADD32R,0.9565X0.9621*%
%ADD33R,0.9500X0.8000*%
%ADD34R,0.8000X1.0000*%
%ADD54R,1.2000X1.2000*%
%ADD55C,1.2000*%
G04:AMPARAMS|DCode=59|XSize=2.4mm|YSize=5mm|CornerRadius=1.2mm|HoleSize=0mm|Usage=FLASHONLY|Rotation=90.000|XOffset=0mm|YOffset=0mm|HoleType=Round|Shape=RoundedRectangle|*
%AMROUNDEDRECTD59*
21,1,2.4000,2.6000,0,0,90.0*
21,1,0.0000,5.0000,0,0,90.0*
1,1,2.4000,1.3000,0.0000*
1,1,2.4000,1.3000,0.0000*
1,1,2.4000,-1.3000,0.0000*
1,1,2.4000,-1.3000,0.0000*
%
%ADD59ROUNDEDRECTD59*%
%ADD60C,1.5500*%
%ADD61R,1.5500X1.5500*%
%ADD62C,1.8400*%
%ADD63R,1.8400X1.8400*%
%ADD67C,0.4000*%
%ADD68C,0.3500*%
%ADD69C,0.5000*%
%ADD70C,0.3000*%
%ADD71C,0.1270*%
%ADD72C,2.5650*%
%ADD73C,2.0000*%
%ADD74C,0.4000*%
%ADD75C,2.4000*%
%ADD76C,1.5000*%
%ADD77R,1.5000X1.5000*%
%ADD78R,2.0000X2.0000*%
%ADD79R,1.5000X1.5000*%
%ADD80C,0.6000*%
%ADD81C,5.0000*%
G36*
X1074800Y822961D02*
X1075850D01*
X1077910Y822551D01*
X1079850Y821748D01*
X1081596Y820581D01*
X1083081Y819096D01*
X1084248Y817350D01*
X1085051Y815410D01*
X1085461Y813350D01*
X1085461Y812300D01*
X1085461Y596470D01*
X1068558Y579567D01*
X1068558Y579567D01*
X1068116Y578905D01*
X1067961Y578125D01*
X1067961Y578125D01*
X1067961Y184375D01*
X1068116Y183595D01*
X1068558Y182933D01*
X1085461Y166030D01*
X1085461Y-37300D01*
Y-38350D01*
X1085051Y-40410D01*
X1084248Y-42350D01*
X1083081Y-44096D01*
X1081596Y-45581D01*
X1079850Y-46748D01*
X1077910Y-47551D01*
X1075850Y-47961D01*
X1074800D01*
X-27300Y-47961D01*
X-28350D01*
X-30410Y-47551D01*
X-32350Y-46748D01*
X-34096Y-45581D01*
X-35581Y-44096D01*
X-36748Y-42350D01*
X-37551Y-40410D01*
X-37961Y-38350D01*
X-37961Y-37300D01*
X-37961Y812300D01*
X-37961Y813350D01*
X-37551Y815410D01*
X-36748Y817350D01*
X-35581Y819096D01*
X-34096Y820581D01*
X-32350Y821748D01*
X-30410Y822551D01*
X-28350Y822961D01*
X-27300Y822961D01*
X1074800Y822961D01*
D02*
G37*
%LPC*%
G36*
X716600Y800324D02*
X716600Y800324D01*
X151757D01*
X151757Y800324D01*
X150677Y800109D01*
X149760Y799497D01*
X149760Y799497D01*
X148003Y797740D01*
X147391Y796824D01*
X147176Y795743D01*
X147176Y795742D01*
Y771270D01*
X144730D01*
Y767824D01*
X125270D01*
Y771270D01*
X114730D01*
Y758730D01*
X125270D01*
Y762176D01*
X144730D01*
Y758730D01*
X155270D01*
Y771270D01*
X152824D01*
Y794573D01*
X152927Y794676D01*
X715430D01*
X779530Y730576D01*
Y713630D01*
X800470D01*
Y734570D01*
X783524D01*
X718597Y799497D01*
X717681Y800109D01*
X716600Y800324D01*
D02*
G37*
G36*
X352500Y788846D02*
X350211Y788544D01*
X348077Y787661D01*
X346245Y786255D01*
X344839Y784423D01*
X343956Y782289D01*
X343654Y780000D01*
X343956Y777711D01*
X344839Y775577D01*
X346245Y773745D01*
X348077Y772339D01*
X350211Y771456D01*
X352500Y771154D01*
X354789Y771456D01*
X356923Y772339D01*
X358755Y773745D01*
X360161Y775577D01*
X361044Y777711D01*
X361346Y780000D01*
X361044Y782289D01*
X360161Y784423D01*
X358755Y786255D01*
X356923Y787661D01*
X354789Y788544D01*
X352500Y788846D01*
D02*
G37*
G36*
X110270Y771270D02*
X99730D01*
Y768594D01*
X83750D01*
X83750Y768594D01*
X82279Y768301D01*
X81032Y767468D01*
X81032Y767468D01*
X74782Y761218D01*
X73949Y759971D01*
X73656Y758500D01*
X73656Y758500D01*
Y741270D01*
X72230D01*
Y728730D01*
X82770D01*
Y741270D01*
X81344D01*
Y756908D01*
X85342Y760906D01*
X96868D01*
X97406Y760250D01*
X97406Y760250D01*
Y709295D01*
X93090D01*
X92118Y708892D01*
X91715Y707920D01*
Y682867D01*
X91786Y682695D01*
X91762Y682511D01*
X92307Y680476D01*
X92420Y680329D01*
X92445Y680145D01*
X93498Y678321D01*
X93645Y678208D01*
X93716Y678036D01*
X95206Y676546D01*
X95377Y676475D01*
X95491Y676328D01*
X97315Y675275D01*
X97499Y675250D01*
X97646Y675137D01*
X99681Y674592D01*
X99865Y674616D01*
X100037Y674545D01*
X102143D01*
X102315Y674616D01*
X102499Y674592D01*
X104449Y675115D01*
X224782Y554782D01*
X226029Y553949D01*
X227500Y553656D01*
X227500Y553656D01*
X523067D01*
X523334Y553478D01*
X525000Y553146D01*
X526666Y553478D01*
X528078Y554422D01*
X529022Y555834D01*
X529354Y557500D01*
X529022Y559166D01*
X528078Y560578D01*
X526666Y561522D01*
X525000Y561854D01*
X523334Y561522D01*
X523067Y561344D01*
X229092D01*
X109891Y680545D01*
X110418Y682511D01*
X110393Y682695D01*
X110465Y682867D01*
Y683920D01*
X110465Y683920D01*
Y707920D01*
X110062Y708892D01*
X109090Y709295D01*
X105094D01*
Y758658D01*
X105166Y758730D01*
X110270D01*
Y771270D01*
D02*
G37*
G36*
X1030000Y801351D02*
X1025878Y801027D01*
X1021857Y800061D01*
X1018037Y798479D01*
X1014511Y796319D01*
X1011367Y793633D01*
X1008681Y790489D01*
X1006521Y786963D01*
X1004939Y783143D01*
X1003973Y779122D01*
X1003649Y775000D01*
X1003973Y770878D01*
X1004939Y766857D01*
X1006521Y763037D01*
X1008681Y759511D01*
X1011367Y756367D01*
X1014511Y753681D01*
X1018037Y751521D01*
X1021857Y749939D01*
X1025878Y748973D01*
X1030000Y748649D01*
X1034122Y748973D01*
X1038143Y749939D01*
X1041963Y751521D01*
X1045489Y753681D01*
X1048633Y756367D01*
X1051319Y759511D01*
X1053479Y763037D01*
X1055061Y766857D01*
X1056027Y770878D01*
X1056351Y775000D01*
X1056027Y779122D01*
X1055061Y783143D01*
X1053479Y786963D01*
X1051319Y790489D01*
X1048633Y793633D01*
X1045489Y796319D01*
X1041963Y798479D01*
X1038143Y800061D01*
X1034122Y801027D01*
X1030000Y801351D01*
D02*
G37*
G36*
X0D02*
X-4122Y801027D01*
X-8143Y800061D01*
X-11963Y798479D01*
X-15489Y796319D01*
X-18633Y793633D01*
X-21319Y790489D01*
X-23479Y786963D01*
X-25062Y783143D01*
X-26027Y779122D01*
X-26351Y775000D01*
X-26027Y770878D01*
X-25062Y766857D01*
X-23479Y763037D01*
X-21319Y759511D01*
X-18633Y756367D01*
X-15489Y753681D01*
X-11963Y751521D01*
X-8143Y749939D01*
X-4122Y748973D01*
X0Y748649D01*
X4122Y748973D01*
X8143Y749939D01*
X11963Y751521D01*
X15489Y753681D01*
X18633Y756367D01*
X21319Y759511D01*
X23479Y763037D01*
X25062Y766857D01*
X26027Y770878D01*
X26351Y775000D01*
X26027Y779122D01*
X25062Y783143D01*
X23479Y786963D01*
X21319Y790489D01*
X18633Y793633D01*
X15489Y796319D01*
X11963Y798479D01*
X8143Y800061D01*
X4122Y801027D01*
X0Y801351D01*
D02*
G37*
G36*
X288135Y743762D02*
Y735635D01*
X296262D01*
X296044Y737289D01*
X295161Y739423D01*
X293755Y741255D01*
X291923Y742661D01*
X289789Y743544D01*
X288135Y743762D01*
D02*
G37*
G36*
X296262Y734365D02*
X288135D01*
Y726238D01*
X289789Y726456D01*
X291923Y727339D01*
X293755Y728745D01*
X295161Y730577D01*
X296044Y732711D01*
X296262Y734365D01*
D02*
G37*
G36*
X286865Y743762D02*
X285211Y743544D01*
X283077Y742661D01*
X281245Y741255D01*
X279839Y739423D01*
X279072Y737569D01*
X262500D01*
X261517Y737374D01*
X260683Y736817D01*
X251833Y727967D01*
X251276Y727133D01*
X251081Y726150D01*
Y709295D01*
X245490D01*
X244518Y708892D01*
X244115Y707920D01*
Y682867D01*
X244186Y682695D01*
X244162Y682511D01*
X244707Y680476D01*
X244820Y680329D01*
X244845Y680145D01*
X245898Y678321D01*
X246045Y678208D01*
X246116Y678036D01*
X247606Y676546D01*
X247777Y676475D01*
X247890Y676328D01*
X249715Y675275D01*
X249899Y675250D01*
X250046Y675137D01*
X252081Y674592D01*
X252265Y674616D01*
X252437Y674545D01*
X254543D01*
X254715Y674616D01*
X254899Y674592D01*
X256934Y675137D01*
X257081Y675250D01*
X257265Y675275D01*
X259089Y676328D01*
X259202Y676475D01*
X259374Y676546D01*
X260864Y678036D01*
X260935Y678207D01*
X261082Y678321D01*
X262135Y680145D01*
X262159Y680329D01*
X262273Y680476D01*
X262818Y682511D01*
X262794Y682695D01*
X262865Y682867D01*
Y683920D01*
X262865Y683920D01*
Y707920D01*
X262462Y708892D01*
X261490Y709295D01*
X256219D01*
Y725086D01*
X263564Y732431D01*
X279072D01*
X279839Y730577D01*
X281245Y728745D01*
X283077Y727339D01*
X285211Y726456D01*
X286865Y726238D01*
Y735000D01*
Y743762D01*
D02*
G37*
G36*
X352500Y743846D02*
X350211Y743544D01*
X348077Y742661D01*
X346245Y741255D01*
X344839Y739423D01*
X343956Y737289D01*
X343654Y735000D01*
X343956Y732711D01*
X344839Y730577D01*
X346245Y728745D01*
X348077Y727339D01*
X350211Y726456D01*
X352500Y726154D01*
X354789Y726456D01*
X356923Y727339D01*
X358755Y728745D01*
X360161Y730577D01*
X361044Y732711D01*
X361346Y735000D01*
X361044Y737289D01*
X360161Y739423D01*
X358755Y741255D01*
X356923Y742661D01*
X354789Y743544D01*
X352500Y743846D01*
D02*
G37*
G36*
X790635Y709177D02*
Y699335D01*
X800477D01*
X800201Y701433D01*
X799146Y703980D01*
X797467Y706167D01*
X795280Y707846D01*
X792733Y708901D01*
X790635Y709177D01*
D02*
G37*
G36*
X789365Y709177D02*
X787267Y708901D01*
X784720Y707846D01*
X782533Y706167D01*
X780854Y703980D01*
X779799Y701433D01*
X779523Y699335D01*
X789365D01*
Y709177D01*
D02*
G37*
G36*
Y698065D02*
X779523D01*
X779799Y695967D01*
X780854Y693420D01*
X782533Y691233D01*
X784720Y689555D01*
X787267Y688500D01*
X789365Y688223D01*
Y698065D01*
D02*
G37*
G36*
X800477D02*
X790635D01*
Y688223D01*
X792733Y688500D01*
X795280Y689555D01*
X797467Y691233D01*
X799146Y693420D01*
X800201Y695967D01*
X800477Y698065D01*
D02*
G37*
G36*
X515490Y709295D02*
X499490D01*
X498518Y708892D01*
X498115Y707920D01*
Y682867D01*
X498186Y682695D01*
X498162Y682511D01*
X498707Y680476D01*
X498820Y680329D01*
X498845Y680145D01*
X499898Y678321D01*
X500045Y678208D01*
X500116Y678036D01*
X501606Y676546D01*
X501777Y676475D01*
X501890Y676328D01*
X503715Y675275D01*
X503899Y675250D01*
X504046Y675137D01*
X506081Y674592D01*
X506265Y674616D01*
X506437Y674545D01*
X508543D01*
X508715Y674616D01*
X508899Y674592D01*
X510934Y675137D01*
X511081Y675250D01*
X511265Y675275D01*
X513089Y676328D01*
X513202Y676475D01*
X513374Y676546D01*
X514864Y678036D01*
X514935Y678207D01*
X515082Y678321D01*
X516135Y680145D01*
X516159Y680329D01*
X516273Y680476D01*
X516818Y682511D01*
X516794Y682695D01*
X516865Y682867D01*
Y683920D01*
X516865Y683920D01*
Y707920D01*
X516462Y708892D01*
X515490Y709295D01*
D02*
G37*
G36*
X388490D02*
X372490D01*
X371518Y708892D01*
X371115Y707920D01*
Y682867D01*
X371186Y682695D01*
X371162Y682511D01*
X371707Y680476D01*
X371820Y680329D01*
X371845Y680145D01*
X372898Y678321D01*
X373045Y678208D01*
X373116Y678036D01*
X374606Y676546D01*
X374777Y676475D01*
X374891Y676328D01*
X376715Y675275D01*
X376899Y675250D01*
X377046Y675137D01*
X379081Y674592D01*
X379265Y674616D01*
X379437Y674545D01*
X381543D01*
X381715Y674616D01*
X381899Y674592D01*
X383934Y675137D01*
X384081Y675250D01*
X384265Y675275D01*
X386089Y676328D01*
X386202Y676475D01*
X386374Y676546D01*
X387864Y678036D01*
X387935Y678207D01*
X388082Y678321D01*
X389135Y680145D01*
X389159Y680329D01*
X389273Y680476D01*
X389818Y682511D01*
X389794Y682695D01*
X389865Y682867D01*
Y683920D01*
X389865Y683920D01*
Y707920D01*
X389462Y708892D01*
X388490Y709295D01*
D02*
G37*
G36*
X363090D02*
X347090D01*
X346118Y708892D01*
X345715Y707920D01*
Y682867D01*
X345786Y682695D01*
X345762Y682511D01*
X346307Y680476D01*
X346420Y680329D01*
X346445Y680145D01*
X347498Y678321D01*
X347645Y678208D01*
X347716Y678036D01*
X349206Y676546D01*
X349377Y676475D01*
X349491Y676328D01*
X351315Y675275D01*
X351499Y675250D01*
X351646Y675137D01*
X353681Y674592D01*
X353865Y674616D01*
X354037Y674545D01*
X356143D01*
X356315Y674616D01*
X356499Y674592D01*
X358534Y675137D01*
X358681Y675250D01*
X358865Y675275D01*
X360689Y676328D01*
X360802Y676475D01*
X360974Y676546D01*
X362464Y678036D01*
X362535Y678207D01*
X362682Y678321D01*
X363735Y680145D01*
X363759Y680329D01*
X363873Y680476D01*
X364418Y682511D01*
X364394Y682695D01*
X364465Y682867D01*
Y683920D01*
X364465Y683920D01*
Y707920D01*
X364062Y708892D01*
X363090Y709295D01*
D02*
G37*
G36*
X296270Y788770D02*
X278730D01*
Y771230D01*
X295136D01*
X327281Y739086D01*
Y709295D01*
X321690D01*
X320718Y708892D01*
X320315Y707920D01*
Y682867D01*
X320386Y682695D01*
X320362Y682511D01*
X320907Y680476D01*
X321020Y680329D01*
X321045Y680145D01*
X322098Y678321D01*
X322245Y678208D01*
X322316Y678036D01*
X323806Y676546D01*
X323977Y676475D01*
X324090Y676328D01*
X325915Y675275D01*
X326099Y675250D01*
X326246Y675137D01*
X328281Y674592D01*
X328465Y674616D01*
X328637Y674545D01*
X330743D01*
X330915Y674616D01*
X331099Y674592D01*
X333134Y675137D01*
X333281Y675250D01*
X333465Y675275D01*
X335289Y676328D01*
X335402Y676475D01*
X335574Y676546D01*
X337064Y678036D01*
X337135Y678207D01*
X337282Y678321D01*
X338335Y680145D01*
X338359Y680329D01*
X338473Y680476D01*
X339018Y682511D01*
X338993Y682695D01*
X339065Y682867D01*
Y683920D01*
X339065Y683920D01*
Y707920D01*
X338662Y708892D01*
X337690Y709295D01*
X332419D01*
Y740150D01*
X332224Y741133D01*
X331667Y741967D01*
X296270Y777364D01*
Y788770D01*
D02*
G37*
G36*
X312290Y709295D02*
X296290D01*
X295318Y708892D01*
X294915Y707920D01*
Y682867D01*
X294986Y682695D01*
X294962Y682511D01*
X295507Y680476D01*
X295620Y680329D01*
X295645Y680145D01*
X296698Y678321D01*
X296845Y678208D01*
X296916Y678036D01*
X298406Y676546D01*
X298577Y676475D01*
X298690Y676328D01*
X300515Y675275D01*
X300699Y675250D01*
X300846Y675137D01*
X302881Y674592D01*
X303065Y674616D01*
X303237Y674545D01*
X305343D01*
X305515Y674616D01*
X305699Y674592D01*
X307734Y675137D01*
X307881Y675250D01*
X308065Y675275D01*
X309889Y676328D01*
X310002Y676475D01*
X310174Y676546D01*
X311664Y678036D01*
X311735Y678207D01*
X311882Y678321D01*
X312935Y680145D01*
X312959Y680329D01*
X313073Y680476D01*
X313618Y682511D01*
X313594Y682695D01*
X313665Y682867D01*
Y683920D01*
X313665Y683920D01*
Y707920D01*
X313262Y708892D01*
X312290Y709295D01*
D02*
G37*
G36*
X286890D02*
X270890D01*
X269918Y708892D01*
X269515Y707920D01*
Y682867D01*
X269586Y682695D01*
X269562Y682511D01*
X270107Y680476D01*
X270220Y680329D01*
X270245Y680145D01*
X271298Y678321D01*
X271445Y678208D01*
X271516Y678036D01*
X273006Y676546D01*
X273177Y676475D01*
X273291Y676328D01*
X275115Y675275D01*
X275299Y675250D01*
X275446Y675137D01*
X277481Y674592D01*
X277665Y674616D01*
X277837Y674545D01*
X279943D01*
X280115Y674616D01*
X280299Y674592D01*
X282334Y675137D01*
X282481Y675250D01*
X282665Y675275D01*
X284489Y676328D01*
X284602Y676475D01*
X284774Y676546D01*
X286264Y678036D01*
X286335Y678207D01*
X286482Y678321D01*
X287535Y680145D01*
X287559Y680329D01*
X287673Y680476D01*
X288218Y682511D01*
X288193Y682695D01*
X288265Y682867D01*
Y683920D01*
X288265Y683920D01*
Y707920D01*
X287862Y708892D01*
X286890Y709295D01*
D02*
G37*
G36*
X236090D02*
X220090D01*
X219118Y708892D01*
X218715Y707920D01*
Y682867D01*
X218786Y682695D01*
X218762Y682511D01*
X219307Y680476D01*
X219420Y680329D01*
X219445Y680145D01*
X220498Y678321D01*
X220645Y678208D01*
X220716Y678036D01*
X222206Y676546D01*
X222377Y676475D01*
X222491Y676328D01*
X224315Y675275D01*
X224499Y675250D01*
X224646Y675137D01*
X226681Y674592D01*
X226865Y674616D01*
X227037Y674545D01*
X229143D01*
X229315Y674616D01*
X229499Y674592D01*
X231534Y675137D01*
X231681Y675250D01*
X231865Y675275D01*
X233689Y676328D01*
X233802Y676475D01*
X233974Y676546D01*
X235464Y678036D01*
X235535Y678207D01*
X235682Y678321D01*
X236735Y680145D01*
X236759Y680329D01*
X236873Y680476D01*
X237418Y682511D01*
X237393Y682695D01*
X237465Y682867D01*
Y683920D01*
X237465Y683920D01*
Y707920D01*
X237062Y708892D01*
X236090Y709295D01*
D02*
G37*
G36*
X210690D02*
X194690D01*
X193718Y708892D01*
X193315Y707920D01*
Y682867D01*
X193386Y682695D01*
X193362Y682511D01*
X193907Y680476D01*
X194020Y680329D01*
X194045Y680145D01*
X195098Y678321D01*
X195245Y678208D01*
X195316Y678036D01*
X196806Y676546D01*
X196977Y676475D01*
X197090Y676328D01*
X198915Y675275D01*
X199099Y675250D01*
X199246Y675137D01*
X201281Y674592D01*
X201465Y674616D01*
X201637Y674545D01*
X203743D01*
X203915Y674616D01*
X204099Y674592D01*
X206134Y675137D01*
X206281Y675250D01*
X206465Y675275D01*
X208289Y676328D01*
X208402Y676475D01*
X208574Y676546D01*
X210064Y678036D01*
X210135Y678207D01*
X210282Y678321D01*
X211335Y680145D01*
X211359Y680329D01*
X211473Y680476D01*
X212018Y682511D01*
X211994Y682695D01*
X212065Y682867D01*
Y683920D01*
X212065Y683920D01*
Y707920D01*
X211662Y708892D01*
X210690Y709295D01*
D02*
G37*
G36*
X170270Y771270D02*
X159730D01*
Y758730D01*
X165555D01*
X173335Y750950D01*
X173146Y750000D01*
X173478Y748334D01*
X174166Y747304D01*
Y709295D01*
X169290D01*
X168318Y708892D01*
X167915Y707920D01*
Y682867D01*
X167986Y682695D01*
X167962Y682511D01*
X168507Y680476D01*
X168620Y680329D01*
X168645Y680145D01*
X169698Y678321D01*
X169845Y678208D01*
X169916Y678036D01*
X171406Y676546D01*
X171577Y676475D01*
X171691Y676328D01*
X173515Y675275D01*
X173699Y675250D01*
X173846Y675137D01*
X175881Y674592D01*
X176065Y674616D01*
X176237Y674545D01*
X178343D01*
X178515Y674616D01*
X178699Y674592D01*
X180734Y675137D01*
X180881Y675250D01*
X181065Y675275D01*
X182889Y676328D01*
X183002Y676475D01*
X183174Y676546D01*
X184664Y678036D01*
X184735Y678207D01*
X184882Y678321D01*
X185935Y680145D01*
X185959Y680329D01*
X186073Y680476D01*
X186618Y682511D01*
X186593Y682695D01*
X186665Y682867D01*
Y683920D01*
X186665Y683920D01*
Y707920D01*
X186262Y708892D01*
X185290Y709295D01*
X180834D01*
Y747304D01*
X181522Y748334D01*
X181854Y750000D01*
X181522Y751666D01*
X180578Y753079D01*
X180186Y753341D01*
X179807Y753908D01*
X170270Y763445D01*
Y771270D01*
D02*
G37*
G36*
X159890Y709295D02*
X143890D01*
X142918Y708892D01*
X142515Y707920D01*
Y682867D01*
X142586Y682695D01*
X142562Y682511D01*
X143107Y680476D01*
X143220Y680329D01*
X143245Y680145D01*
X144298Y678321D01*
X144445Y678208D01*
X144516Y678036D01*
X146006Y676546D01*
X146177Y676475D01*
X146291Y676328D01*
X148115Y675275D01*
X148299Y675250D01*
X148446Y675137D01*
X150481Y674592D01*
X150665Y674616D01*
X150837Y674545D01*
X152943D01*
X153115Y674616D01*
X153299Y674592D01*
X155334Y675137D01*
X155481Y675250D01*
X155665Y675275D01*
X157489Y676328D01*
X157602Y676475D01*
X157774Y676546D01*
X159264Y678036D01*
X159335Y678207D01*
X159482Y678321D01*
X160535Y680145D01*
X160559Y680329D01*
X160673Y680476D01*
X161218Y682511D01*
X161194Y682695D01*
X161265Y682867D01*
Y683920D01*
X161265Y683920D01*
Y707920D01*
X160862Y708892D01*
X159890Y709295D01*
D02*
G37*
G36*
X134490D02*
X118490D01*
X117518Y708892D01*
X117115Y707920D01*
Y682867D01*
X117186Y682695D01*
X117162Y682511D01*
X117707Y680476D01*
X117820Y680329D01*
X117845Y680145D01*
X118898Y678321D01*
X119045Y678208D01*
X119116Y678036D01*
X120606Y676546D01*
X120777Y676475D01*
X120891Y676328D01*
X122715Y675275D01*
X122899Y675250D01*
X123046Y675137D01*
X125081Y674592D01*
X125265Y674616D01*
X125437Y674545D01*
X127543D01*
X127715Y674616D01*
X127899Y674592D01*
X129934Y675137D01*
X130081Y675250D01*
X130265Y675275D01*
X132089Y676328D01*
X132202Y676475D01*
X132374Y676546D01*
X133864Y678036D01*
X133935Y678207D01*
X134082Y678321D01*
X135135Y680145D01*
X135159Y680329D01*
X135273Y680476D01*
X135818Y682511D01*
X135794Y682695D01*
X135865Y682867D01*
Y683920D01*
X135865Y683920D01*
Y707920D01*
X135462Y708892D01*
X134490Y709295D01*
D02*
G37*
G36*
X67770Y741270D02*
X57230D01*
Y728730D01*
X59421D01*
Y715250D01*
X59655Y714072D01*
X60323Y713073D01*
X66315Y707080D01*
Y682867D01*
X66386Y682695D01*
X66362Y682511D01*
X66907Y680476D01*
X67020Y680329D01*
X67045Y680145D01*
X68098Y678321D01*
X68245Y678208D01*
X68316Y678036D01*
X69806Y676546D01*
X69977Y676475D01*
X70090Y676328D01*
X71915Y675275D01*
X72099Y675250D01*
X72246Y675137D01*
X74281Y674592D01*
X74465Y674616D01*
X74637Y674545D01*
X76743D01*
X76915Y674616D01*
X77099Y674592D01*
X79134Y675137D01*
X79281Y675250D01*
X79465Y675275D01*
X81289Y676328D01*
X81402Y676475D01*
X81574Y676546D01*
X83064Y678036D01*
X83135Y678207D01*
X83282Y678321D01*
X84335Y680145D01*
X84359Y680329D01*
X84473Y680476D01*
X85018Y682511D01*
X84993Y682695D01*
X85065Y682867D01*
Y683920D01*
X85065Y683920D01*
Y707920D01*
X84662Y708892D01*
X83690Y709295D01*
X72810D01*
X65579Y716525D01*
Y728730D01*
X67770D01*
Y741270D01*
D02*
G37*
G36*
X790000Y683860D02*
X787267Y683501D01*
X784720Y682446D01*
X782533Y680767D01*
X780854Y678580D01*
X779799Y676033D01*
X779440Y673300D01*
X779799Y670567D01*
X780854Y668020D01*
X782533Y665833D01*
X784720Y664155D01*
X787267Y663100D01*
X790000Y662740D01*
X792733Y663100D01*
X795280Y664155D01*
X797467Y665833D01*
X799146Y668020D01*
X800201Y670567D01*
X800560Y673300D01*
X800201Y676033D01*
X799146Y678580D01*
X797467Y680767D01*
X795280Y682446D01*
X792733Y683501D01*
X790000Y683860D01*
D02*
G37*
G36*
X566290Y709295D02*
X550290D01*
X549318Y708892D01*
X548915Y707920D01*
Y682867D01*
X548986Y682695D01*
X548962Y682511D01*
X549507Y680476D01*
X549620Y680329D01*
X549645Y680145D01*
X550698Y678321D01*
X550845Y678208D01*
X550916Y678036D01*
X552406Y676546D01*
X552577Y676475D01*
X552691Y676328D01*
X554515Y675275D01*
X554699Y675250D01*
X554846Y675137D01*
X555881Y674860D01*
Y665461D01*
X547216Y656797D01*
X545834Y656522D01*
X544422Y655579D01*
X543478Y654166D01*
X543146Y652500D01*
X543478Y650834D01*
X544422Y649421D01*
X545834Y648478D01*
X547500Y648146D01*
X549166Y648478D01*
X550578Y649421D01*
X551522Y650834D01*
X551854Y652500D01*
X551577Y653891D01*
X560267Y662580D01*
X560824Y663414D01*
X561019Y664397D01*
Y674946D01*
X561734Y675137D01*
X561881Y675250D01*
X562065Y675275D01*
X563889Y676328D01*
X564002Y676475D01*
X564174Y676546D01*
X565664Y678036D01*
X565735Y678207D01*
X565882Y678321D01*
X566935Y680145D01*
X566959Y680329D01*
X567073Y680476D01*
X567618Y682511D01*
X567593Y682695D01*
X567665Y682867D01*
Y683920D01*
X567665Y683920D01*
Y707920D01*
X567262Y708892D01*
X566290Y709295D01*
D02*
G37*
G36*
X464690D02*
X448690D01*
X447718Y708892D01*
X447315Y707920D01*
Y682867D01*
X447386Y682695D01*
X447362Y682511D01*
X447907Y680476D01*
X448020Y680329D01*
X448045Y680145D01*
X449098Y678321D01*
X449245Y678208D01*
X449316Y678036D01*
X450806Y676546D01*
X450977Y676475D01*
X451091Y676328D01*
X452915Y675275D01*
X453099Y675250D01*
X453246Y675137D01*
X454931Y674686D01*
Y655919D01*
X454422Y655579D01*
X453478Y654166D01*
X453146Y652500D01*
X453478Y650834D01*
X454422Y649421D01*
X455834Y648478D01*
X457500Y648146D01*
X459166Y648478D01*
X460578Y649421D01*
X461522Y650834D01*
X461854Y652500D01*
X461522Y654166D01*
X460578Y655579D01*
X460069Y655919D01*
Y675120D01*
X460134Y675137D01*
X460281Y675250D01*
X460465Y675275D01*
X462289Y676328D01*
X462402Y676475D01*
X462574Y676546D01*
X464064Y678036D01*
X464135Y678207D01*
X464282Y678321D01*
X465335Y680145D01*
X465359Y680329D01*
X465473Y680476D01*
X466018Y682511D01*
X465993Y682695D01*
X466065Y682867D01*
Y683920D01*
X466065Y683920D01*
Y707920D01*
X465662Y708892D01*
X464690Y709295D01*
D02*
G37*
G36*
X439290D02*
X423290D01*
X422318Y708892D01*
X421915Y707920D01*
Y682867D01*
X421986Y682695D01*
X421962Y682511D01*
X422507Y680476D01*
X422620Y680329D01*
X422645Y680145D01*
X423698Y678321D01*
X423845Y678208D01*
X423916Y678036D01*
X425406Y676546D01*
X425577Y676475D01*
X425690Y676328D01*
X427515Y675275D01*
X427699Y675250D01*
X427846Y675137D01*
X428881Y674860D01*
Y656631D01*
X428334Y656522D01*
X426922Y655579D01*
X425978Y654166D01*
X425646Y652500D01*
X425978Y650834D01*
X426922Y649421D01*
X428334Y648478D01*
X430000Y648146D01*
X431666Y648478D01*
X433078Y649421D01*
X434022Y650834D01*
X434354Y652500D01*
X434022Y654166D01*
X433908Y654337D01*
X434019Y654897D01*
Y674946D01*
X434734Y675137D01*
X434881Y675250D01*
X435065Y675275D01*
X436889Y676328D01*
X437002Y676475D01*
X437174Y676546D01*
X438664Y678036D01*
X438735Y678207D01*
X438882Y678321D01*
X439935Y680145D01*
X439959Y680329D01*
X440073Y680476D01*
X440618Y682511D01*
X440593Y682695D01*
X440665Y682867D01*
Y683920D01*
X440665Y683920D01*
Y707920D01*
X440262Y708892D01*
X439290Y709295D01*
D02*
G37*
G36*
X413890D02*
X397890D01*
X396918Y708892D01*
X396515Y707920D01*
Y682867D01*
X396586Y682695D01*
X396562Y682511D01*
X397107Y680476D01*
X397220Y680329D01*
X397245Y680145D01*
X398298Y678321D01*
X398445Y678208D01*
X398516Y678036D01*
X400006Y676546D01*
X400177Y676475D01*
X400290Y676328D01*
X402115Y675275D01*
X402299Y675250D01*
X402431Y675150D01*
Y655919D01*
X401922Y655579D01*
X400978Y654166D01*
X400646Y652500D01*
X400978Y650834D01*
X401922Y649421D01*
X403334Y648478D01*
X405000Y648146D01*
X406666Y648478D01*
X408078Y649421D01*
X409022Y650834D01*
X409354Y652500D01*
X409022Y654166D01*
X408078Y655579D01*
X407569Y655919D01*
Y674665D01*
X409334Y675137D01*
X409481Y675250D01*
X409665Y675275D01*
X411489Y676328D01*
X411602Y676475D01*
X411774Y676546D01*
X413264Y678036D01*
X413335Y678207D01*
X413482Y678321D01*
X414535Y680145D01*
X414559Y680329D01*
X414673Y680476D01*
X415218Y682511D01*
X415193Y682695D01*
X415265Y682867D01*
Y683920D01*
X415265Y683920D01*
Y707920D01*
X414862Y708892D01*
X413890Y709295D01*
D02*
G37*
G36*
X490090D02*
X474090D01*
X473118Y708892D01*
X472715Y707920D01*
Y682867D01*
X472786Y682695D01*
X472762Y682511D01*
X473307Y680476D01*
X473420Y680329D01*
X473445Y680145D01*
X474498Y678321D01*
X474645Y678208D01*
X474716Y678036D01*
X476206Y676546D01*
X476377Y676475D01*
X476491Y676328D01*
X478315Y675275D01*
X478499Y675250D01*
X478646Y675137D01*
X479931Y674793D01*
Y653419D01*
X479422Y653079D01*
X478478Y651666D01*
X478146Y650000D01*
X478478Y648334D01*
X479422Y646921D01*
X480834Y645978D01*
X482500Y645646D01*
X484166Y645978D01*
X485578Y646921D01*
X486522Y648334D01*
X486854Y650000D01*
X486522Y651666D01*
X485578Y653079D01*
X485069Y653419D01*
Y675013D01*
X485534Y675137D01*
X485681Y675250D01*
X485865Y675275D01*
X487689Y676328D01*
X487802Y676475D01*
X487974Y676546D01*
X489464Y678036D01*
X489535Y678207D01*
X489682Y678321D01*
X490735Y680145D01*
X490759Y680329D01*
X490873Y680476D01*
X491418Y682511D01*
X491394Y682695D01*
X491465Y682867D01*
Y683920D01*
X491465Y683920D01*
Y707920D01*
X491062Y708892D01*
X490090Y709295D01*
D02*
G37*
G36*
X790000Y658460D02*
X787267Y658101D01*
X784720Y657046D01*
X782533Y655367D01*
X780854Y653180D01*
X779799Y650633D01*
X779440Y647900D01*
X779799Y645167D01*
X780854Y642620D01*
X782533Y640433D01*
X784720Y638755D01*
X787267Y637700D01*
X790000Y637340D01*
X792733Y637700D01*
X795280Y638755D01*
X797467Y640433D01*
X799146Y642620D01*
X800201Y645167D01*
X800560Y647900D01*
X800201Y650633D01*
X799146Y653180D01*
X797467Y655367D01*
X795280Y657046D01*
X792733Y658101D01*
X790000Y658460D01*
D02*
G37*
G36*
X655000Y651746D02*
X652711Y651444D01*
X650577Y650561D01*
X648745Y649155D01*
X647339Y647323D01*
X646572Y645469D01*
X589187D01*
X588203Y645274D01*
X587370Y644717D01*
X573754Y631101D01*
X573197Y630267D01*
X573099Y629775D01*
X555990D01*
X555990Y629775D01*
X554937D01*
X554765Y629703D01*
X554581Y629728D01*
X552546Y629183D01*
X552399Y629070D01*
X552215Y629045D01*
X550391Y627992D01*
X550277Y627845D01*
X550106Y627774D01*
X548616Y626284D01*
X548545Y626113D01*
X548398Y625999D01*
X547345Y624175D01*
X547320Y623991D01*
X547207Y623844D01*
X546662Y621809D01*
X546686Y621625D01*
X546615Y621453D01*
Y619347D01*
X546686Y619175D01*
X546662Y618991D01*
X547207Y616956D01*
X547320Y616809D01*
X547345Y616625D01*
X548398Y614801D01*
X548545Y614688D01*
X548616Y614516D01*
X550106Y613026D01*
X550277Y612955D01*
X550391Y612808D01*
X552215Y611755D01*
X552399Y611730D01*
X552546Y611617D01*
X554581Y611072D01*
X554765Y611096D01*
X554937Y611025D01*
X579990D01*
X580962Y611428D01*
X581365Y612400D01*
Y628400D01*
X580962Y629372D01*
X580753Y630833D01*
X590251Y640331D01*
X646572D01*
X647339Y638477D01*
X648745Y636645D01*
X650577Y635239D01*
X652711Y634356D01*
X655000Y634054D01*
X657289Y634356D01*
X659423Y635239D01*
X661255Y636645D01*
X662661Y638477D01*
X663544Y640611D01*
X663846Y642900D01*
X663544Y645189D01*
X662661Y647323D01*
X661255Y649155D01*
X659423Y650561D01*
X657289Y651444D01*
X655000Y651746D01*
D02*
G37*
G36*
X790000Y633060D02*
X787267Y632701D01*
X784720Y631646D01*
X782533Y629967D01*
X780854Y627780D01*
X779799Y625233D01*
X779440Y622500D01*
X779799Y619767D01*
X780854Y617220D01*
X782533Y615033D01*
X784720Y613354D01*
X787267Y612299D01*
X790000Y611940D01*
X792733Y612299D01*
X795280Y613354D01*
X797467Y615033D01*
X799146Y617220D01*
X800201Y619767D01*
X800560Y622500D01*
X800201Y625233D01*
X799146Y627780D01*
X797467Y629967D01*
X795280Y631646D01*
X792733Y632701D01*
X790000Y633060D01*
D02*
G37*
G36*
X655000Y626346D02*
X652711Y626044D01*
X650577Y625161D01*
X648745Y623755D01*
X647339Y621923D01*
X646572Y620069D01*
X630000D01*
X629017Y619874D01*
X628183Y619317D01*
X582538Y573672D01*
X581365Y574158D01*
Y577600D01*
X580962Y578572D01*
X579990Y578975D01*
X555990D01*
X555990Y578975D01*
X554937D01*
X554765Y578904D01*
X554581Y578928D01*
X552546Y578383D01*
X552399Y578270D01*
X552215Y578245D01*
X550391Y577192D01*
X550277Y577045D01*
X550106Y576974D01*
X548616Y575484D01*
X548545Y575312D01*
X548398Y575199D01*
X547345Y573375D01*
X547320Y573191D01*
X547207Y573044D01*
X546662Y571009D01*
X546686Y570825D01*
X546615Y570653D01*
Y568547D01*
X546686Y568375D01*
X546662Y568191D01*
X547207Y566156D01*
X547320Y566009D01*
X547345Y565825D01*
X548398Y564001D01*
X548545Y563887D01*
X548616Y563716D01*
X550106Y562226D01*
X550277Y562155D01*
X550391Y562008D01*
X552215Y560955D01*
X552399Y560930D01*
X552546Y560817D01*
X554581Y560272D01*
X554765Y560296D01*
X554937Y560225D01*
X579990D01*
X580962Y560628D01*
X581365Y561600D01*
Y567031D01*
X582100D01*
X583083Y567226D01*
X583917Y567783D01*
X631064Y614931D01*
X646572D01*
X647339Y613077D01*
X648745Y611245D01*
X650577Y609839D01*
X652711Y608956D01*
X655000Y608654D01*
X657289Y608956D01*
X659423Y609839D01*
X661255Y611245D01*
X662661Y613077D01*
X663544Y615211D01*
X663846Y617500D01*
X663544Y619789D01*
X662661Y621923D01*
X661255Y623755D01*
X659423Y625161D01*
X657289Y626044D01*
X655000Y626346D01*
D02*
G37*
G36*
X540890Y709295D02*
X524890D01*
X523918Y708892D01*
X523515Y707920D01*
Y682867D01*
X523586Y682695D01*
X523562Y682511D01*
X524107Y680476D01*
X524220Y680329D01*
X524245Y680145D01*
X525298Y678321D01*
X525445Y678208D01*
X525516Y678036D01*
X527006Y676546D01*
X527177Y676475D01*
X527290Y676328D01*
X529115Y675275D01*
X529299Y675250D01*
X529446Y675137D01*
X530481Y674860D01*
Y666614D01*
X503183Y639317D01*
X502626Y638483D01*
X502431Y637500D01*
Y615919D01*
X501922Y615578D01*
X500978Y614166D01*
X500646Y612500D01*
X500978Y610834D01*
X501922Y609422D01*
X503334Y608478D01*
X505000Y608146D01*
X506666Y608478D01*
X508078Y609422D01*
X509022Y610834D01*
X509354Y612500D01*
X509022Y614166D01*
X508078Y615578D01*
X507569Y615919D01*
Y636436D01*
X534867Y663733D01*
X535424Y664567D01*
X535619Y665550D01*
Y674946D01*
X536334Y675137D01*
X536481Y675250D01*
X536665Y675275D01*
X538489Y676328D01*
X538602Y676475D01*
X538774Y676546D01*
X540264Y678036D01*
X540335Y678207D01*
X540482Y678321D01*
X541535Y680145D01*
X541559Y680329D01*
X541673Y680476D01*
X542218Y682511D01*
X542193Y682695D01*
X542265Y682867D01*
Y683920D01*
X542265Y683920D01*
Y707920D01*
X541862Y708892D01*
X540890Y709295D01*
D02*
G37*
G36*
X79328Y613938D02*
X68828D01*
X67454Y613665D01*
X66290Y612887D01*
X65512Y611723D01*
X65239Y610349D01*
Y607669D01*
X23695D01*
X23244Y608344D01*
X21756Y609338D01*
X20000Y609687D01*
X18244Y609338D01*
X16756Y608344D01*
X15761Y606855D01*
X15412Y605099D01*
X15761Y603343D01*
X16756Y601855D01*
X18244Y600860D01*
X20000Y600511D01*
X21756Y600860D01*
X23244Y601855D01*
X23695Y602530D01*
X65239D01*
Y599849D01*
X65512Y598476D01*
X66290Y597312D01*
X67454Y596534D01*
X68828Y596260D01*
X79328D01*
X80701Y596534D01*
X81866Y597312D01*
X82643Y598476D01*
X82917Y599849D01*
Y610349D01*
X82643Y611723D01*
X81866Y612887D01*
X80701Y613665D01*
X79328Y613938D01*
D02*
G37*
G36*
X579990Y604375D02*
X555990D01*
X555990Y604375D01*
X554937D01*
X554765Y604304D01*
X554581Y604328D01*
X552546Y603783D01*
X552399Y603670D01*
X552215Y603645D01*
X550391Y602592D01*
X550277Y602445D01*
X550106Y602374D01*
X548616Y600884D01*
X548545Y600713D01*
X548398Y600599D01*
X547345Y598775D01*
X547320Y598591D01*
X547207Y598444D01*
X546662Y596409D01*
X546686Y596225D01*
X546615Y596053D01*
Y593947D01*
X546686Y593775D01*
X546662Y593591D01*
X547207Y591556D01*
X547320Y591409D01*
X547345Y591225D01*
X548398Y589401D01*
X548545Y589287D01*
X548616Y589116D01*
X550106Y587626D01*
X550277Y587555D01*
X550391Y587408D01*
X552215Y586355D01*
X552399Y586330D01*
X552546Y586217D01*
X554581Y585672D01*
X554765Y585696D01*
X554937Y585625D01*
X579990D01*
X580962Y586028D01*
X581365Y587000D01*
Y592431D01*
X587500D01*
X588483Y592626D01*
X589317Y593183D01*
X594317Y598183D01*
X594874Y599017D01*
X595069Y600000D01*
X594874Y600983D01*
X594317Y601817D01*
X593483Y602374D01*
X592500Y602569D01*
X591517Y602374D01*
X590683Y601817D01*
X586436Y597569D01*
X581365D01*
Y603000D01*
X580962Y603972D01*
X579990Y604375D01*
D02*
G37*
G36*
X112328Y603938D02*
X107713D01*
Y595734D01*
X115917D01*
Y600349D01*
X115643Y601723D01*
X114866Y602887D01*
X113701Y603665D01*
X112328Y603938D01*
D02*
G37*
G36*
X106443D02*
X101828D01*
X100454Y603665D01*
X99290Y602887D01*
X98512Y601723D01*
X98239Y600349D01*
Y595734D01*
X106443D01*
Y603938D01*
D02*
G37*
G36*
X655635Y600862D02*
Y592735D01*
X663762D01*
X663544Y594389D01*
X662661Y596523D01*
X661255Y598355D01*
X659423Y599761D01*
X657289Y600644D01*
X655635Y600862D01*
D02*
G37*
G36*
X654365D02*
X652711Y600644D01*
X650577Y599761D01*
X648745Y598355D01*
X647339Y596523D01*
X646456Y594389D01*
X646238Y592735D01*
X654365D01*
Y600862D01*
D02*
G37*
G36*
X79328Y593938D02*
X68828D01*
X67454Y593665D01*
X66290Y592887D01*
X65512Y591723D01*
X65239Y590349D01*
Y587569D01*
X11195D01*
X10744Y588244D01*
X9256Y589239D01*
X7500Y589588D01*
X5744Y589239D01*
X4256Y588244D01*
X3261Y586756D01*
X2912Y585000D01*
X3261Y583244D01*
X4256Y581756D01*
X5744Y580761D01*
X7500Y580412D01*
X9256Y580761D01*
X10744Y581756D01*
X11195Y582431D01*
X65239D01*
Y579849D01*
X65512Y578476D01*
X66290Y577312D01*
X67454Y576534D01*
X68828Y576260D01*
X79328D01*
X80701Y576534D01*
X81866Y577312D01*
X82643Y578476D01*
X82917Y579849D01*
Y590349D01*
X82643Y591723D01*
X81866Y592887D01*
X80701Y593665D01*
X79328Y593938D01*
D02*
G37*
G36*
X790000Y607660D02*
X787267Y607300D01*
X784720Y606245D01*
X782533Y604567D01*
X780854Y602380D01*
X779799Y599833D01*
X779778Y599669D01*
X770802D01*
X769819Y599474D01*
X768986Y598917D01*
X717638Y547569D01*
X350000D01*
X349017Y547374D01*
X348183Y546817D01*
X328033Y526667D01*
X327476Y525833D01*
X327281Y524850D01*
Y515140D01*
X326246Y514863D01*
X326099Y514749D01*
X325915Y514725D01*
X324090Y513672D01*
X323978Y513525D01*
X323806Y513454D01*
X322316Y511964D01*
X322245Y511793D01*
X322098Y511679D01*
X321045Y509855D01*
X321020Y509671D01*
X320907Y509524D01*
X320362Y507489D01*
X320386Y507305D01*
X320315Y507133D01*
Y482080D01*
X320718Y481108D01*
X321690Y480705D01*
X337690D01*
X338662Y481108D01*
X339065Y482080D01*
Y506080D01*
X339065Y506080D01*
Y507133D01*
X338993Y507305D01*
X339018Y507489D01*
X338473Y509524D01*
X338359Y509671D01*
X338335Y509855D01*
X337282Y511679D01*
X337135Y511792D01*
X337064Y511964D01*
X335574Y513454D01*
X335402Y513525D01*
X335289Y513672D01*
X333465Y514725D01*
X333281Y514749D01*
X333134Y514863D01*
X332419Y515054D01*
Y523786D01*
X351064Y542431D01*
X367501D01*
X368027Y541161D01*
X353433Y526567D01*
X352876Y525733D01*
X352681Y524750D01*
Y515140D01*
X351646Y514863D01*
X351499Y514749D01*
X351315Y514725D01*
X349491Y513672D01*
X349378Y513525D01*
X349206Y513454D01*
X347716Y511964D01*
X347645Y511793D01*
X347498Y511679D01*
X346445Y509855D01*
X346420Y509671D01*
X346307Y509524D01*
X345762Y507489D01*
X345786Y507305D01*
X345715Y507133D01*
Y482080D01*
X346118Y481108D01*
X347090Y480705D01*
X363090D01*
X364062Y481108D01*
X364465Y482080D01*
Y506080D01*
X364465Y506080D01*
Y507133D01*
X364394Y507305D01*
X364418Y507489D01*
X363873Y509524D01*
X363759Y509671D01*
X363735Y509855D01*
X362682Y511679D01*
X362535Y511792D01*
X362464Y511964D01*
X360974Y513454D01*
X360802Y513525D01*
X360689Y513672D01*
X358865Y514725D01*
X358681Y514749D01*
X358534Y514863D01*
X357819Y515054D01*
Y523686D01*
X371564Y537431D01*
X417001D01*
X417527Y536161D01*
X404233Y522867D01*
X403676Y522033D01*
X403481Y521050D01*
Y515140D01*
X402446Y514863D01*
X402299Y514749D01*
X402115Y514725D01*
X400290Y513672D01*
X400177Y513525D01*
X400006Y513454D01*
X398516Y511964D01*
X398445Y511793D01*
X398298Y511679D01*
X397245Y509855D01*
X397220Y509671D01*
X397107Y509524D01*
X396562Y507489D01*
X396586Y507305D01*
X396515Y507133D01*
Y482080D01*
X396918Y481108D01*
X397890Y480705D01*
X413890D01*
X414862Y481108D01*
X415265Y482080D01*
Y506080D01*
X415265Y506080D01*
Y507133D01*
X415193Y507305D01*
X415218Y507489D01*
X414673Y509524D01*
X414560Y509671D01*
X414535Y509855D01*
X413482Y511679D01*
X413335Y511792D01*
X413264Y511964D01*
X411774Y513454D01*
X411603Y513525D01*
X411489Y513672D01*
X409665Y514725D01*
X409481Y514749D01*
X409334Y514863D01*
X408619Y515054D01*
Y519986D01*
X421064Y532431D01*
X437001D01*
X437527Y531161D01*
X428183Y521817D01*
X427626Y520983D01*
X427431Y520000D01*
Y514677D01*
X425690Y513672D01*
X425578Y513525D01*
X425406Y513454D01*
X423916Y511964D01*
X423845Y511793D01*
X423698Y511679D01*
X422645Y509855D01*
X422620Y509671D01*
X422507Y509524D01*
X421962Y507489D01*
X421986Y507305D01*
X421915Y507133D01*
Y482080D01*
X422318Y481108D01*
X423290Y480705D01*
X439290D01*
X440262Y481108D01*
X440665Y482080D01*
Y506080D01*
X440665Y506080D01*
Y507133D01*
X440593Y507305D01*
X440618Y507489D01*
X440073Y509524D01*
X439959Y509671D01*
X439935Y509855D01*
X438882Y511679D01*
X438735Y511792D01*
X438664Y511964D01*
X437174Y513454D01*
X437002Y513525D01*
X436889Y513672D01*
X435065Y514725D01*
X434881Y514749D01*
X434734Y514863D01*
X432699Y515408D01*
X432569Y515522D01*
Y518936D01*
X441064Y527431D01*
X459501D01*
X460027Y526161D01*
X455033Y521167D01*
X454476Y520333D01*
X454281Y519350D01*
Y515140D01*
X453246Y514863D01*
X453099Y514749D01*
X452915Y514725D01*
X451091Y513672D01*
X450978Y513525D01*
X450806Y513454D01*
X449316Y511964D01*
X449245Y511793D01*
X449098Y511679D01*
X448045Y509855D01*
X448020Y509671D01*
X447907Y509524D01*
X447362Y507489D01*
X447386Y507305D01*
X447315Y507133D01*
Y482080D01*
X447718Y481108D01*
X448690Y480705D01*
X464690D01*
X465662Y481108D01*
X466065Y482080D01*
Y506080D01*
X466065Y506080D01*
Y507133D01*
X465993Y507305D01*
X466018Y507489D01*
X465473Y509524D01*
X465359Y509671D01*
X465335Y509855D01*
X464282Y511679D01*
X464135Y511792D01*
X464064Y511964D01*
X462574Y513454D01*
X462402Y513525D01*
X462289Y513672D01*
X460465Y514725D01*
X460281Y514749D01*
X460134Y514863D01*
X459419Y515054D01*
Y518286D01*
X463564Y522431D01*
X480965D01*
X481491Y521161D01*
X480433Y520102D01*
X479876Y519269D01*
X479681Y518286D01*
Y515140D01*
X478646Y514863D01*
X478499Y514749D01*
X478315Y514725D01*
X476491Y513672D01*
X476377Y513525D01*
X476206Y513454D01*
X474716Y511964D01*
X474645Y511793D01*
X474498Y511679D01*
X473445Y509855D01*
X473420Y509671D01*
X473307Y509524D01*
X472762Y507489D01*
X472786Y507305D01*
X472715Y507133D01*
Y482080D01*
X473118Y481108D01*
X474090Y480705D01*
X490090D01*
X491062Y481108D01*
X491465Y482080D01*
Y506080D01*
X491465Y506080D01*
Y507133D01*
X491394Y507305D01*
X491418Y507489D01*
X490873Y509524D01*
X490760Y509671D01*
X490735Y509855D01*
X489682Y511679D01*
X489535Y511792D01*
X489464Y511964D01*
X487974Y513454D01*
X487803Y513525D01*
X487689Y513672D01*
X485865Y514725D01*
X485681Y514749D01*
X485534Y514863D01*
X484819Y515054D01*
Y517181D01*
X763450D01*
X764433Y517376D01*
X765267Y517933D01*
X784589Y537255D01*
X784720Y537155D01*
X787267Y536100D01*
X790000Y535740D01*
X792733Y536100D01*
X795280Y537155D01*
X797467Y538833D01*
X799146Y541020D01*
X800201Y543567D01*
X800560Y546300D01*
X800201Y549033D01*
X799146Y551580D01*
X797467Y553767D01*
X795280Y555446D01*
X792733Y556501D01*
X790000Y556860D01*
X787267Y556501D01*
X784720Y555446D01*
X782533Y553767D01*
X780854Y551580D01*
X779799Y549033D01*
X779440Y546300D01*
X779799Y543567D01*
X780854Y541020D01*
X780955Y540889D01*
X762386Y522319D01*
X746049D01*
X745523Y523589D01*
X784589Y562655D01*
X784720Y562555D01*
X787267Y561499D01*
X790000Y561140D01*
X792733Y561499D01*
X795280Y562555D01*
X797467Y564233D01*
X799146Y566420D01*
X800201Y568967D01*
X800560Y571700D01*
X800201Y574433D01*
X799146Y576980D01*
X797467Y579167D01*
X795280Y580845D01*
X792733Y581900D01*
X790000Y582260D01*
X787267Y581900D01*
X784720Y580845D01*
X782533Y579167D01*
X780854Y576980D01*
X779799Y574433D01*
X779440Y571700D01*
X779799Y568967D01*
X780854Y566420D01*
X780955Y566289D01*
X760272Y545605D01*
X759101Y546231D01*
X759354Y547500D01*
X759022Y549166D01*
X758079Y550578D01*
X756666Y551522D01*
X755916Y551671D01*
X755896Y551682D01*
X755313Y553086D01*
X755407Y553227D01*
X756666Y553478D01*
X758079Y554422D01*
X759022Y555834D01*
X759354Y557500D01*
X759022Y559166D01*
X758079Y560578D01*
X756666Y561522D01*
X755000Y561854D01*
X753334Y561522D01*
X751921Y560578D01*
X750978Y559166D01*
X750646Y557500D01*
X750766Y556899D01*
X731436Y537569D01*
X727999D01*
X727473Y538839D01*
X751899Y563266D01*
X752500Y563146D01*
X754166Y563478D01*
X755579Y564422D01*
X756522Y565834D01*
X756854Y567500D01*
X756522Y569166D01*
X755579Y570578D01*
X754166Y571522D01*
X752500Y571854D01*
X750834Y571522D01*
X750293Y571161D01*
X749483Y572147D01*
X771867Y594531D01*
X779778D01*
X779799Y594367D01*
X780854Y591820D01*
X782533Y589633D01*
X784720Y587954D01*
X787267Y586899D01*
X790000Y586540D01*
X792733Y586899D01*
X795280Y587954D01*
X797467Y589633D01*
X799146Y591820D01*
X800201Y594367D01*
X800560Y597100D01*
X800201Y599833D01*
X799146Y602380D01*
X797467Y604567D01*
X795280Y606245D01*
X792733Y607300D01*
X790000Y607660D01*
D02*
G37*
G36*
X115917Y594464D02*
X107713D01*
Y586260D01*
X112328D01*
X113701Y586534D01*
X114866Y587312D01*
X115643Y588476D01*
X115917Y589849D01*
Y594464D01*
D02*
G37*
G36*
X654365Y591465D02*
X646238D01*
X646456Y589811D01*
X647339Y587677D01*
X648745Y585845D01*
X650577Y584439D01*
X652711Y583556D01*
X654365Y583338D01*
Y591465D01*
D02*
G37*
G36*
X663762D02*
X655635D01*
Y583338D01*
X657289Y583556D01*
X659423Y584439D01*
X661255Y585845D01*
X662661Y587677D01*
X663544Y589811D01*
X663762Y591465D01*
D02*
G37*
G36*
X106443Y594464D02*
X98239D01*
Y589894D01*
X80914Y572569D01*
X20571D01*
X19588Y572374D01*
X18754Y571817D01*
X18197Y570983D01*
X18001Y570000D01*
X18197Y569017D01*
X18754Y568183D01*
X19588Y567626D01*
X20571Y567431D01*
X81979D01*
X82962Y567626D01*
X83795Y568183D01*
X101872Y586260D01*
X106443D01*
Y594464D01*
D02*
G37*
G36*
X7500Y627088D02*
X5744Y626739D01*
X4256Y625744D01*
X3261Y624256D01*
X2912Y622500D01*
X3261Y620744D01*
X4256Y619256D01*
X5744Y618261D01*
X7500Y617912D01*
X9256Y618261D01*
X10744Y619256D01*
X11195Y619931D01*
X136436D01*
X182451Y573915D01*
X183239Y573389D01*
Y564849D01*
X183512Y563476D01*
X184290Y562312D01*
X185454Y561534D01*
X186828Y561260D01*
X197328D01*
X198701Y561534D01*
X199865Y562312D01*
X200643Y563476D01*
X200917Y564849D01*
Y575349D01*
X200643Y576723D01*
X199865Y577887D01*
X198701Y578665D01*
X197328Y578938D01*
X186828D01*
X185454Y578665D01*
X185163Y578470D01*
X139317Y624317D01*
X138483Y624874D01*
X137500Y625069D01*
X11195D01*
X10744Y625744D01*
X9256Y626739D01*
X7500Y627088D01*
D02*
G37*
G36*
X397186Y731854D02*
X395520Y731522D01*
X394108Y730579D01*
X393164Y729166D01*
X392832Y727500D01*
X393164Y725834D01*
X394108Y724421D01*
X395520Y723478D01*
X397186Y723146D01*
X398852Y723478D01*
X400265Y724421D01*
X400605Y724931D01*
X674931D01*
Y590264D01*
X660136Y575470D01*
X646230D01*
Y557930D01*
X663770D01*
Y571836D01*
X679317Y587383D01*
X679874Y588217D01*
X680069Y589200D01*
Y726036D01*
X679874Y727019D01*
X679317Y727852D01*
X677852Y729317D01*
X677019Y729874D01*
X676036Y730069D01*
X400605D01*
X400265Y730579D01*
X398852Y731522D01*
X397186Y731854D01*
D02*
G37*
G36*
X147328Y578938D02*
X136828D01*
X135454Y578665D01*
X134290Y577887D01*
X133512Y576723D01*
X133239Y575349D01*
Y564894D01*
X123414Y555069D01*
X11195D01*
X10744Y555744D01*
X9256Y556739D01*
X7500Y557088D01*
X5744Y556739D01*
X4256Y555744D01*
X3261Y554256D01*
X2912Y552500D01*
X3261Y550744D01*
X4256Y549256D01*
X5744Y548261D01*
X7500Y547912D01*
X9256Y548261D01*
X10744Y549256D01*
X11195Y549931D01*
X124478D01*
X125462Y550126D01*
X126295Y550683D01*
X136872Y561260D01*
X147328D01*
X148701Y561534D01*
X149866Y562312D01*
X150643Y563476D01*
X150917Y564849D01*
Y575349D01*
X150643Y576723D01*
X149866Y577887D01*
X148701Y578665D01*
X147328Y578938D01*
D02*
G37*
G36*
X172328D02*
X161828D01*
X160454Y578665D01*
X159290Y577887D01*
X158512Y576723D01*
X158239Y575349D01*
Y564894D01*
X130914Y537569D01*
X26195D01*
X25744Y538244D01*
X24256Y539239D01*
X22500Y539588D01*
X20744Y539239D01*
X19256Y538244D01*
X18261Y536756D01*
X17912Y535000D01*
X18261Y533244D01*
X19256Y531756D01*
X20744Y530761D01*
X22500Y530412D01*
X24256Y530761D01*
X25744Y531756D01*
X26195Y532431D01*
X131979D01*
X132962Y532626D01*
X133795Y533183D01*
X161872Y561260D01*
X172328D01*
X173701Y561534D01*
X174865Y562312D01*
X175643Y563476D01*
X175917Y564849D01*
Y575349D01*
X175643Y576723D01*
X174865Y577887D01*
X173701Y578665D01*
X172328Y578938D01*
D02*
G37*
G36*
X559343Y515455D02*
X557237D01*
X557065Y515384D01*
X556881Y515408D01*
X554846Y514863D01*
X554699Y514749D01*
X554515Y514725D01*
X552691Y513672D01*
X552578Y513525D01*
X552406Y513454D01*
X550916Y511964D01*
X550845Y511793D01*
X550698Y511679D01*
X549645Y509855D01*
X549620Y509671D01*
X549507Y509524D01*
X548962Y507489D01*
X548986Y507305D01*
X548915Y507133D01*
Y482080D01*
X549318Y481108D01*
X550290Y480705D01*
X566290D01*
X567262Y481108D01*
X567526Y481745D01*
X568838Y482228D01*
X572883Y478183D01*
X573717Y477626D01*
X574700Y477431D01*
X633936D01*
X739931Y371436D01*
Y236199D01*
X737951Y235379D01*
X736067Y233933D01*
X734621Y232049D01*
X733712Y229855D01*
X733402Y227500D01*
X733712Y225145D01*
X734621Y222951D01*
X736067Y221067D01*
X737951Y219621D01*
X740145Y218712D01*
X742500Y218402D01*
X744855Y218712D01*
X747049Y219621D01*
X748933Y221067D01*
X750379Y222951D01*
X751288Y225145D01*
X751598Y227500D01*
X751288Y229855D01*
X750379Y232049D01*
X748933Y233933D01*
X747049Y235379D01*
X745069Y236199D01*
Y372500D01*
X744874Y373483D01*
X744317Y374317D01*
X740228Y378406D01*
X740754Y379676D01*
X879252D01*
X879421Y379422D01*
X879931Y379081D01*
Y359305D01*
X878834Y358850D01*
X877315Y357685D01*
X876150Y356166D01*
X875417Y354398D01*
X875167Y352500D01*
X875417Y350602D01*
X876150Y348834D01*
X877315Y347315D01*
X878834Y346150D01*
X880602Y345417D01*
X882500Y345167D01*
X884398Y345417D01*
X886166Y346150D01*
X887685Y347315D01*
X888850Y348834D01*
X889583Y350602D01*
X889833Y352500D01*
X889583Y354398D01*
X888850Y356166D01*
X887685Y357685D01*
X886166Y358850D01*
X885069Y359305D01*
Y379081D01*
X885579Y379422D01*
X885748Y379676D01*
X912940D01*
Y253353D01*
X885316Y225729D01*
X884192Y226591D01*
X880964Y227928D01*
X877500Y228384D01*
X874036Y227928D01*
X870808Y226591D01*
X868036Y224464D01*
X865909Y221692D01*
X864572Y218464D01*
X864116Y215000D01*
X864572Y211536D01*
X865909Y208308D01*
X868036Y205536D01*
X870808Y203409D01*
X874036Y202072D01*
X877500Y201616D01*
X880964Y202072D01*
X884192Y203409D01*
X886964Y205536D01*
X889091Y208308D01*
X890428Y211536D01*
X890884Y215000D01*
X890428Y218464D01*
X889091Y221692D01*
X888229Y222816D01*
X916456Y251044D01*
X916903Y251712D01*
X917060Y252500D01*
Y379931D01*
X928730D01*
Y376230D01*
X942770D01*
Y388770D01*
X928730D01*
Y385069D01*
X916141D01*
X916081Y385109D01*
X915000Y385324D01*
X885748D01*
X885579Y385578D01*
X884166Y386522D01*
X882500Y386854D01*
X880834Y386522D01*
X879421Y385578D01*
X879252Y385324D01*
X740809D01*
X724317Y401817D01*
X634317Y491817D01*
X633483Y492374D01*
X632500Y492569D01*
X595919D01*
X595578Y493078D01*
X594166Y494022D01*
X592500Y494354D01*
X590834Y494022D01*
X589422Y493078D01*
X588478Y491666D01*
X588146Y490000D01*
X588478Y488334D01*
X589422Y486922D01*
X590834Y485978D01*
X592500Y485646D01*
X594166Y485978D01*
X595578Y486922D01*
X595919Y487431D01*
X631436D01*
X635046Y483820D01*
X634501Y482569D01*
X575764D01*
X567665Y490669D01*
Y506080D01*
X567665Y506080D01*
Y507133D01*
X567593Y507305D01*
X567618Y507489D01*
X567073Y509524D01*
X566959Y509671D01*
X566935Y509855D01*
X565882Y511679D01*
X565735Y511792D01*
X565664Y511964D01*
X564174Y513454D01*
X564002Y513525D01*
X563889Y513672D01*
X562065Y514725D01*
X561881Y514749D01*
X561734Y514863D01*
X559699Y515408D01*
X559515Y515384D01*
X559343Y515455D01*
D02*
G37*
G36*
X533943D02*
X531837D01*
X531665Y515384D01*
X531481Y515408D01*
X529446Y514863D01*
X529299Y514749D01*
X529115Y514725D01*
X527290Y513672D01*
X527178Y513525D01*
X527006Y513454D01*
X525516Y511964D01*
X525445Y511793D01*
X525298Y511679D01*
X524245Y509855D01*
X524220Y509671D01*
X524107Y509524D01*
X523562Y507489D01*
X523586Y507305D01*
X523515Y507133D01*
Y482080D01*
X523918Y481108D01*
X524890Y480705D01*
X531638D01*
X531812Y479831D01*
X532369Y478998D01*
X546694Y464672D01*
X547528Y464115D01*
X548511Y463920D01*
X624947D01*
X724931Y363936D01*
Y192500D01*
X725126Y191517D01*
X725683Y190683D01*
X733480Y182886D01*
Y168480D01*
X751520D01*
Y186520D01*
X737114D01*
X730069Y193564D01*
Y365000D01*
X729874Y365983D01*
X729317Y366817D01*
X627828Y468306D01*
X626994Y468863D01*
X626011Y469058D01*
X549575D01*
X539101Y479532D01*
X539588Y480705D01*
X540890D01*
X541862Y481108D01*
X542265Y482080D01*
Y506080D01*
X542265Y506080D01*
Y507133D01*
X542193Y507305D01*
X542218Y507489D01*
X541673Y509524D01*
X541559Y509671D01*
X541535Y509855D01*
X540482Y511679D01*
X540335Y511792D01*
X540264Y511964D01*
X538774Y513454D01*
X538602Y513525D01*
X538489Y513672D01*
X536665Y514725D01*
X536481Y514749D01*
X536334Y514863D01*
X534299Y515408D01*
X534115Y515384D01*
X533943Y515455D01*
D02*
G37*
G36*
X508543D02*
X506437D01*
X506265Y515384D01*
X506081Y515408D01*
X504046Y514863D01*
X503899Y514749D01*
X503715Y514725D01*
X501890Y513672D01*
X501777Y513525D01*
X501606Y513454D01*
X500116Y511964D01*
X500045Y511793D01*
X499898Y511679D01*
X498845Y509855D01*
X498820Y509671D01*
X498707Y509524D01*
X498162Y507489D01*
X498186Y507305D01*
X498115Y507133D01*
Y482080D01*
X498518Y481108D01*
X499490Y480705D01*
X504931D01*
Y467500D01*
X505126Y466517D01*
X505683Y465683D01*
X506517Y465126D01*
X507500Y464931D01*
X508483Y465126D01*
X509317Y465683D01*
X509874Y466517D01*
X510069Y467500D01*
Y480705D01*
X515490D01*
X516462Y481108D01*
X516865Y482080D01*
Y506080D01*
X516865Y506080D01*
Y507133D01*
X516794Y507305D01*
X516818Y507489D01*
X516273Y509524D01*
X516160Y509671D01*
X516135Y509855D01*
X515082Y511679D01*
X514935Y511792D01*
X514864Y511964D01*
X513374Y513454D01*
X513203Y513525D01*
X513089Y513672D01*
X511265Y514725D01*
X511081Y514749D01*
X510934Y514863D01*
X508899Y515408D01*
X508715Y515384D01*
X508543Y515455D01*
D02*
G37*
G36*
X305343D02*
X303237D01*
X303065Y515384D01*
X302881Y515408D01*
X300846Y514863D01*
X300699Y514749D01*
X300515Y514725D01*
X298690Y513672D01*
X298577Y513525D01*
X298406Y513454D01*
X296916Y511964D01*
X296845Y511793D01*
X296698Y511679D01*
X295645Y509855D01*
X295620Y509671D01*
X295507Y509524D01*
X294962Y507489D01*
X294986Y507305D01*
X294915Y507133D01*
Y482080D01*
X295318Y481108D01*
X296290Y480705D01*
X312290D01*
X313262Y481108D01*
X313665Y482080D01*
Y506080D01*
X313665Y506080D01*
Y507133D01*
X313594Y507305D01*
X313618Y507489D01*
X313073Y509524D01*
X312959Y509671D01*
X312935Y509855D01*
X311882Y511679D01*
X311735Y511792D01*
X311664Y511964D01*
X310174Y513454D01*
X310002Y513525D01*
X309889Y513672D01*
X308065Y514725D01*
X307881Y514749D01*
X307734Y514863D01*
X305699Y515408D01*
X305515Y515384D01*
X305343Y515455D01*
D02*
G37*
G36*
X279943D02*
X277837D01*
X277665Y515384D01*
X277481Y515408D01*
X275446Y514863D01*
X275299Y514749D01*
X275115Y514725D01*
X273291Y513672D01*
X273178Y513525D01*
X273006Y513454D01*
X271516Y511964D01*
X271445Y511793D01*
X271298Y511679D01*
X270245Y509855D01*
X270220Y509671D01*
X270107Y509524D01*
X269562Y507489D01*
X269586Y507305D01*
X269515Y507133D01*
Y482080D01*
X269918Y481108D01*
X270890Y480705D01*
X286890D01*
X287862Y481108D01*
X288265Y482080D01*
Y506080D01*
X288265Y506080D01*
Y507133D01*
X288193Y507305D01*
X288218Y507489D01*
X287673Y509524D01*
X287560Y509671D01*
X287535Y509855D01*
X286482Y511679D01*
X286335Y511792D01*
X286264Y511964D01*
X284774Y513454D01*
X284603Y513525D01*
X284489Y513672D01*
X282665Y514725D01*
X282481Y514749D01*
X282334Y514863D01*
X280299Y515408D01*
X280115Y515384D01*
X279943Y515455D01*
D02*
G37*
G36*
X229143D02*
X227037D01*
X226865Y515384D01*
X226681Y515408D01*
X224646Y514863D01*
X224499Y514749D01*
X224315Y514725D01*
X222491Y513672D01*
X222377Y513525D01*
X222206Y513454D01*
X220716Y511964D01*
X220645Y511793D01*
X220498Y511679D01*
X219445Y509855D01*
X219420Y509671D01*
X219307Y509524D01*
X218762Y507489D01*
X218786Y507305D01*
X218715Y507133D01*
Y482080D01*
X219118Y481108D01*
X220090Y480705D01*
X236090D01*
X237062Y481108D01*
X237465Y482080D01*
Y506080D01*
X237465Y506080D01*
Y507133D01*
X237393Y507305D01*
X237418Y507489D01*
X236873Y509524D01*
X236759Y509671D01*
X236735Y509855D01*
X235682Y511679D01*
X235535Y511792D01*
X235464Y511964D01*
X233974Y513454D01*
X233803Y513525D01*
X233689Y513672D01*
X231865Y514725D01*
X231681Y514749D01*
X231534Y514863D01*
X229499Y515408D01*
X229315Y515384D01*
X229143Y515455D01*
D02*
G37*
G36*
X203743D02*
X201637D01*
X201465Y515384D01*
X201281Y515408D01*
X199246Y514863D01*
X199099Y514749D01*
X198915Y514725D01*
X197090Y513672D01*
X196978Y513525D01*
X196806Y513454D01*
X195316Y511964D01*
X195245Y511793D01*
X195098Y511679D01*
X194045Y509855D01*
X194020Y509671D01*
X193907Y509524D01*
X193362Y507489D01*
X193386Y507305D01*
X193315Y507133D01*
Y482080D01*
X193718Y481108D01*
X194690Y480705D01*
X210690D01*
X211662Y481108D01*
X212065Y482080D01*
Y506080D01*
X212065Y506080D01*
Y507133D01*
X211994Y507305D01*
X212018Y507489D01*
X211473Y509524D01*
X211360Y509671D01*
X211335Y509855D01*
X210282Y511679D01*
X210135Y511792D01*
X210064Y511964D01*
X208574Y513454D01*
X208403Y513525D01*
X208289Y513672D01*
X206465Y514725D01*
X206281Y514749D01*
X206134Y514863D01*
X204099Y515408D01*
X203915Y515384D01*
X203743Y515455D01*
D02*
G37*
G36*
X178343D02*
X176237D01*
X176065Y515384D01*
X175881Y515408D01*
X173846Y514863D01*
X173699Y514749D01*
X173515Y514725D01*
X171691Y513672D01*
X171577Y513525D01*
X171406Y513454D01*
X169916Y511964D01*
X169845Y511793D01*
X169698Y511679D01*
X168645Y509855D01*
X168620Y509671D01*
X168507Y509524D01*
X167962Y507489D01*
X167986Y507305D01*
X167915Y507133D01*
Y482080D01*
X168318Y481108D01*
X169290Y480705D01*
X185290D01*
X186262Y481108D01*
X186665Y482080D01*
Y506080D01*
X186665Y506080D01*
Y507133D01*
X186593Y507305D01*
X186618Y507489D01*
X186073Y509524D01*
X185959Y509671D01*
X185935Y509855D01*
X184882Y511679D01*
X184735Y511792D01*
X184664Y511964D01*
X183174Y513454D01*
X183002Y513525D01*
X182889Y513672D01*
X181065Y514725D01*
X180881Y514749D01*
X180734Y514863D01*
X178699Y515408D01*
X178515Y515384D01*
X178343Y515455D01*
D02*
G37*
G36*
X152943D02*
X150837D01*
X150665Y515384D01*
X150481Y515408D01*
X148446Y514863D01*
X148299Y514749D01*
X148115Y514725D01*
X146291Y513672D01*
X146178Y513525D01*
X146006Y513454D01*
X144516Y511964D01*
X144445Y511793D01*
X144298Y511679D01*
X143245Y509855D01*
X143220Y509671D01*
X143107Y509524D01*
X142562Y507489D01*
X142586Y507305D01*
X142515Y507133D01*
Y482080D01*
X142918Y481108D01*
X143890Y480705D01*
X159890D01*
X160862Y481108D01*
X161265Y482080D01*
Y506080D01*
X161265Y506080D01*
Y507133D01*
X161194Y507305D01*
X161218Y507489D01*
X160673Y509524D01*
X160560Y509671D01*
X160535Y509855D01*
X159482Y511679D01*
X159335Y511792D01*
X159264Y511964D01*
X157774Y513454D01*
X157603Y513525D01*
X157489Y513672D01*
X155665Y514725D01*
X155481Y514749D01*
X155334Y514863D01*
X153299Y515408D01*
X153115Y515384D01*
X152943Y515455D01*
D02*
G37*
G36*
X102143D02*
X100037D01*
X99865Y515384D01*
X99681Y515408D01*
X97646Y514863D01*
X97499Y514749D01*
X97315Y514725D01*
X95491Y513672D01*
X95378Y513525D01*
X95206Y513454D01*
X93716Y511964D01*
X93645Y511793D01*
X93498Y511679D01*
X92445Y509855D01*
X92420Y509671D01*
X92307Y509524D01*
X91762Y507489D01*
X91786Y507305D01*
X91715Y507133D01*
Y482080D01*
X92118Y481108D01*
X93090Y480705D01*
X99190D01*
Y463750D01*
X99347Y462962D01*
X99794Y462294D01*
X128544Y433544D01*
X129212Y433097D01*
X130000Y432940D01*
X634147D01*
X660885Y406202D01*
X660646Y405000D01*
X660978Y403334D01*
X661921Y401922D01*
X663334Y400978D01*
X665000Y400646D01*
X666666Y400978D01*
X668079Y401922D01*
X669022Y403334D01*
X669354Y405000D01*
X669022Y406666D01*
X668079Y408078D01*
X666666Y409022D01*
X665000Y409354D01*
X663798Y409115D01*
X636456Y436456D01*
X635788Y436903D01*
X635000Y437060D01*
X130853D01*
X103309Y464603D01*
Y480705D01*
X109090D01*
X110062Y481108D01*
X110465Y482080D01*
Y506080D01*
X110465Y506080D01*
Y507133D01*
X110393Y507305D01*
X110418Y507489D01*
X109873Y509524D01*
X109760Y509671D01*
X109735Y509855D01*
X108682Y511679D01*
X108535Y511792D01*
X108464Y511964D01*
X106974Y513454D01*
X106803Y513525D01*
X106689Y513672D01*
X104865Y514725D01*
X104681Y514749D01*
X104534Y514863D01*
X102499Y515408D01*
X102315Y515384D01*
X102143Y515455D01*
D02*
G37*
G36*
X76743D02*
X74637D01*
X74465Y515384D01*
X74281Y515408D01*
X72246Y514863D01*
X72099Y514749D01*
X71915Y514725D01*
X70090Y513672D01*
X69977Y513525D01*
X69806Y513454D01*
X68316Y511964D01*
X68245Y511793D01*
X68098Y511679D01*
X67045Y509855D01*
X67020Y509671D01*
X66907Y509524D01*
X66362Y507489D01*
X66386Y507305D01*
X66315Y507133D01*
Y482080D01*
X66718Y481108D01*
X67690Y480705D01*
X73790D01*
Y461650D01*
X73947Y460862D01*
X74394Y460194D01*
X118544Y416044D01*
X119212Y415597D01*
X120000Y415440D01*
X639147D01*
X663385Y391202D01*
X663146Y390000D01*
X663478Y388334D01*
X664421Y386922D01*
X665834Y385978D01*
X667500Y385646D01*
X669166Y385978D01*
X670579Y386922D01*
X671522Y388334D01*
X671854Y390000D01*
X671522Y391666D01*
X670579Y393078D01*
X669166Y394022D01*
X667500Y394354D01*
X666298Y394115D01*
X641456Y418956D01*
X640788Y419403D01*
X640000Y419560D01*
X120853D01*
X77909Y462503D01*
Y480705D01*
X83690D01*
X84662Y481108D01*
X85065Y482080D01*
Y506080D01*
X85065Y506080D01*
Y507133D01*
X84993Y507305D01*
X85018Y507489D01*
X84473Y509524D01*
X84360Y509671D01*
X84335Y509855D01*
X83282Y511679D01*
X83135Y511792D01*
X83064Y511964D01*
X81574Y513454D01*
X81403Y513525D01*
X81289Y513672D01*
X79465Y514725D01*
X79281Y514749D01*
X79134Y514863D01*
X77099Y515408D01*
X76915Y515384D01*
X76743Y515455D01*
D02*
G37*
G36*
X1051366Y515233D02*
X1048321Y514832D01*
X1044892Y513412D01*
X1041948Y511153D01*
X1039689Y508208D01*
X1038269Y504780D01*
X1038055Y503160D01*
X1018097D01*
X1017981Y504042D01*
X1016845Y506784D01*
X1015039Y509138D01*
X1012684Y510944D01*
X1009943Y512080D01*
X1007636Y512384D01*
Y501100D01*
X1007001D01*
Y500465D01*
X995717D01*
X996021Y498158D01*
X997156Y495416D01*
X998963Y493062D01*
X999731Y492473D01*
X999323Y491270D01*
X996643D01*
X983956Y503956D01*
X983288Y504403D01*
X982500Y504560D01*
X919715D01*
X918926Y504403D01*
X918258Y503956D01*
X916794Y502492D01*
X916347Y501824D01*
X916190Y501035D01*
Y491020D01*
X912730D01*
Y485635D01*
X918250D01*
X923770D01*
Y491020D01*
X920310D01*
Y500182D01*
X920568Y500440D01*
X981647D01*
X993731Y488357D01*
Y487635D01*
X1001251D01*
Y486365D01*
X993731D01*
Y482334D01*
X979881D01*
X973608Y488607D01*
X972526Y489330D01*
X971250Y489584D01*
X962500D01*
X961224Y489330D01*
X960760Y489020D01*
X953980D01*
Y478480D01*
X966020D01*
Y482916D01*
X969869D01*
X976142Y476643D01*
X977224Y475920D01*
X977677Y475830D01*
X977552Y474560D01*
X966020D01*
Y476520D01*
X953980D01*
Y465980D01*
X966020D01*
Y470440D01*
X993731D01*
Y464560D01*
X990744D01*
X990743Y464560D01*
X981259D01*
X980579Y465578D01*
X979166Y466522D01*
X977500Y466854D01*
X975834Y466522D01*
X974421Y465578D01*
X973741Y464560D01*
X938561D01*
Y468581D01*
X934568D01*
Y478980D01*
X937270D01*
Y491020D01*
X926230D01*
Y478980D01*
X930449D01*
Y468581D01*
X926456D01*
Y456419D01*
X938561D01*
Y460440D01*
X973741D01*
X974421Y459422D01*
X975834Y458478D01*
X977500Y458146D01*
X979166Y458478D01*
X980579Y459422D01*
X980715Y459625D01*
X982321Y459766D01*
X991043Y451044D01*
X991364Y450830D01*
X990979Y449560D01*
X983058D01*
X981854Y450000D01*
X981522Y451666D01*
X980579Y453078D01*
X979166Y454022D01*
X977500Y454354D01*
X975834Y454022D01*
X974421Y453078D01*
X973741Y452060D01*
X942472D01*
X941684Y451903D01*
X941015Y451456D01*
X935640Y446081D01*
X926448D01*
Y433919D01*
X930440D01*
Y426020D01*
X926230D01*
Y413980D01*
X937270D01*
Y426020D01*
X934559D01*
Y433919D01*
X938552D01*
Y443168D01*
X943325Y447940D01*
X973741D01*
X974421Y446922D01*
X975834Y445978D01*
X976578Y445830D01*
X976453Y444560D01*
X972500D01*
X971712Y444403D01*
X971044Y443956D01*
X971044Y443956D01*
X963607Y436520D01*
X953980D01*
Y425980D01*
X966020D01*
Y433107D01*
X973353Y440440D01*
X993731D01*
Y434334D01*
X981000D01*
X979724Y434080D01*
X978643Y433358D01*
X967368Y422083D01*
X966020D01*
Y424020D01*
X953980D01*
Y422084D01*
X951250D01*
X949974Y421830D01*
X948893Y421107D01*
X947049Y419264D01*
X945834Y419022D01*
X944421Y418078D01*
X943478Y416666D01*
X943146Y415000D01*
X943478Y413334D01*
X944421Y411922D01*
X945834Y410978D01*
X947500Y410646D01*
X949166Y410978D01*
X950579Y411922D01*
X951522Y413334D01*
X951764Y414549D01*
X952631Y415416D01*
X953980D01*
Y413480D01*
X966020D01*
Y415415D01*
X968749D01*
X970025Y415668D01*
X971106Y416391D01*
X982381Y427666D01*
X993731D01*
Y423635D01*
X1001251D01*
Y422365D01*
X993731D01*
Y421643D01*
X979167Y407080D01*
X920548D01*
X920310Y407318D01*
Y413980D01*
X923770D01*
Y419365D01*
X918250D01*
X912730D01*
Y413980D01*
X916190D01*
Y406464D01*
X916347Y405676D01*
X916794Y405008D01*
X918238Y403564D01*
X918906Y403117D01*
X919695Y402960D01*
X980021D01*
X980809Y403117D01*
X981477Y403564D01*
X996643Y418730D01*
X999323D01*
X999731Y417528D01*
X998963Y416938D01*
X997156Y414584D01*
X996021Y411842D01*
X995717Y409535D01*
X1007001D01*
Y408900D01*
X1007636D01*
Y397616D01*
X1009943Y397920D01*
X1012684Y399056D01*
X1015039Y400862D01*
X1016845Y403216D01*
X1017981Y405958D01*
X1018097Y406841D01*
X1038055D01*
X1038269Y405221D01*
X1039689Y401792D01*
X1041948Y398847D01*
X1044892Y396588D01*
X1048321Y395168D01*
X1051366Y394767D01*
Y408900D01*
Y423033D01*
X1048321Y422632D01*
X1044892Y421212D01*
X1041948Y418953D01*
X1039689Y416008D01*
X1038269Y412580D01*
X1038055Y410960D01*
X1018097D01*
X1017981Y411842D01*
X1016845Y414584D01*
X1016347Y415233D01*
X1016655Y416918D01*
X1017236Y417364D01*
X1018278Y418722D01*
X1018933Y420303D01*
X1019157Y422000D01*
X1018933Y423697D01*
X1018278Y425278D01*
X1017421Y426396D01*
X1017799Y427666D01*
X1021000D01*
X1022276Y427920D01*
X1023358Y428643D01*
X1024857Y430142D01*
X1025580Y431224D01*
X1025834Y432500D01*
Y472500D01*
X1025580Y473776D01*
X1024857Y474857D01*
X1018357Y481358D01*
X1017476Y481947D01*
X1017251Y482892D01*
X1017236Y483364D01*
X1018278Y484722D01*
X1018933Y486303D01*
X1019157Y488000D01*
X1018933Y489697D01*
X1018278Y491278D01*
X1017236Y492636D01*
X1016655Y493082D01*
X1016347Y494767D01*
X1016845Y495416D01*
X1017981Y498158D01*
X1018097Y499040D01*
X1038055D01*
X1038269Y497421D01*
X1039689Y493992D01*
X1041948Y491047D01*
X1044892Y488788D01*
X1048321Y487368D01*
X1051366Y486967D01*
Y501100D01*
Y515233D01*
D02*
G37*
G36*
X871520Y508270D02*
X867135D01*
Y503135D01*
X871520D01*
Y508270D01*
D02*
G37*
G36*
X1006366Y512384D02*
X1004059Y512080D01*
X1001317Y510944D01*
X998963Y509138D01*
X997156Y506784D01*
X996021Y504042D01*
X995717Y501735D01*
X1006366D01*
Y512384D01*
D02*
G37*
G36*
X1052636Y515233D02*
Y501735D01*
X1066134D01*
X1065733Y504780D01*
X1064313Y508208D01*
X1062053Y511153D01*
X1059109Y513412D01*
X1055680Y514832D01*
X1052636Y515233D01*
D02*
G37*
G36*
X871520Y501865D02*
X867135D01*
Y496730D01*
X871520D01*
Y501865D01*
D02*
G37*
G36*
X883520Y508270D02*
X873480D01*
Y496730D01*
X880636D01*
X882381Y494986D01*
Y488385D01*
X881921Y488078D01*
X880978Y486666D01*
X880646Y485000D01*
X880978Y483334D01*
X881468Y482601D01*
X873101Y474234D01*
X872500Y474354D01*
X870834Y474022D01*
X869421Y473078D01*
X868747Y472069D01*
X865270D01*
Y475020D01*
X860040D01*
X859230Y475020D01*
X858574Y476018D01*
Y478360D01*
X859166Y478478D01*
X860579Y479422D01*
X861522Y480834D01*
X861854Y482500D01*
X861522Y484166D01*
X860579Y485578D01*
X859166Y486522D01*
X857500Y486854D01*
X857200Y486794D01*
X850747Y493247D01*
X849831Y493859D01*
X848750Y494074D01*
X848750Y494074D01*
X846020D01*
Y500770D01*
X838592D01*
X838106Y501943D01*
X839103Y502940D01*
X850932D01*
X852829Y501044D01*
X853497Y500597D01*
X854286Y500440D01*
X861480D01*
Y496730D01*
X865865D01*
Y502500D01*
Y508270D01*
X861480D01*
Y504560D01*
X855139D01*
X853242Y506456D01*
X852574Y506903D01*
X851786Y507060D01*
X838250D01*
X837462Y506903D01*
X836794Y506456D01*
X836794Y506456D01*
X831107Y500770D01*
X829635D01*
Y495635D01*
X834020D01*
Y497771D01*
X834819Y498420D01*
X835980Y497916D01*
Y489230D01*
X842037D01*
X842919Y488641D01*
X844000Y488426D01*
X844000Y488426D01*
X847580D01*
X853206Y482800D01*
X853146Y482500D01*
X853434Y481052D01*
X853141Y480613D01*
X852926Y479532D01*
X852926Y479532D01*
Y476673D01*
X851809Y475648D01*
X851539Y475703D01*
X851291Y475843D01*
X851153Y476538D01*
X850706Y477206D01*
X850706Y477206D01*
X846456Y481456D01*
X845788Y481903D01*
X845000Y482060D01*
X789770D01*
Y484770D01*
X776230D01*
Y470230D01*
X789770D01*
Y477940D01*
X817100D01*
X817225Y476670D01*
X816480Y476522D01*
X815068Y475578D01*
X814124Y474166D01*
X813793Y472500D01*
X814124Y470834D01*
X815068Y469422D01*
X816480Y468478D01*
X818146Y468146D01*
X819812Y468478D01*
X821225Y469422D01*
X821906Y470440D01*
X839730D01*
Y463980D01*
X844960D01*
X845770Y463980D01*
X847040Y463980D01*
X851460D01*
X852270Y463980D01*
X853540Y463980D01*
X857960D01*
X858770Y463980D01*
X860040Y463980D01*
X865270D01*
Y466931D01*
X869415D01*
X869421Y466922D01*
X869431Y466915D01*
Y462770D01*
X866480D01*
Y457540D01*
X866480Y456730D01*
X866480Y455460D01*
Y451040D01*
X866480Y450230D01*
X866480Y448960D01*
Y444540D01*
X866480Y443730D01*
X866480Y442460D01*
Y437230D01*
X870440D01*
Y428759D01*
X869421Y428078D01*
X868478Y426666D01*
X868146Y425000D01*
X868478Y423334D01*
X869421Y421922D01*
X870834Y420978D01*
X872500Y420646D01*
X874166Y420978D01*
X875579Y421922D01*
X876522Y423334D01*
X876854Y425000D01*
X876522Y426666D01*
X875579Y428078D01*
X874560Y428759D01*
Y437230D01*
X877520D01*
X877520Y443792D01*
X878418Y444690D01*
X885003D01*
X886245Y444422D01*
X886576Y442755D01*
X887520Y441343D01*
X888932Y440399D01*
X890599Y440068D01*
X892264Y440399D01*
X893677Y441343D01*
X894621Y442755D01*
X894952Y444422D01*
X894621Y446088D01*
X893677Y447500D01*
X892264Y448444D01*
X890599Y448775D01*
X888932Y448444D01*
X888536Y448179D01*
X888509Y448206D01*
X887840Y448653D01*
X887052Y448810D01*
X878418D01*
X877520Y449708D01*
Y450292D01*
X878418Y451190D01*
X893397D01*
X906044Y438544D01*
X906712Y438097D01*
X907500Y437940D01*
X911430D01*
Y433919D01*
X923535D01*
Y446081D01*
X911430D01*
Y442060D01*
X908353D01*
X895706Y454706D01*
X895038Y455153D01*
X894250Y455309D01*
X878418D01*
X877520Y456208D01*
X877520Y457540D01*
Y462770D01*
X874569D01*
Y466247D01*
X875579Y466922D01*
X876522Y468334D01*
X876854Y470000D01*
X876734Y470601D01*
X885956Y479822D01*
X886513Y480656D01*
X886573Y480959D01*
X886666Y480978D01*
X888079Y481922D01*
X889022Y483334D01*
X889354Y485000D01*
X889022Y486666D01*
X888079Y488078D01*
X887519Y488452D01*
Y496050D01*
X887324Y497033D01*
X886767Y497867D01*
X883520Y501114D01*
Y508270D01*
D02*
G37*
G36*
X828365Y500770D02*
X823980D01*
Y495635D01*
X828365D01*
Y500770D01*
D02*
G37*
G36*
X834020Y494365D02*
X829635D01*
Y489230D01*
X834020D01*
Y494365D01*
D02*
G37*
G36*
X828365D02*
X823980D01*
Y489230D01*
X828365D01*
Y494365D01*
D02*
G37*
G36*
X1066134Y500465D02*
X1052636D01*
Y486967D01*
X1055680Y487368D01*
X1059109Y488788D01*
X1062053Y491047D01*
X1064313Y493992D01*
X1065733Y497421D01*
X1066134Y500465D01*
D02*
G37*
G36*
X380000Y527569D02*
X379017Y527374D01*
X378183Y526817D01*
X377626Y525983D01*
X377431Y525000D01*
Y514966D01*
X377046Y514863D01*
X376899Y514749D01*
X376715Y514725D01*
X374891Y513672D01*
X374777Y513525D01*
X374606Y513454D01*
X373116Y511964D01*
X373045Y511793D01*
X372898Y511679D01*
X371845Y509855D01*
X371820Y509671D01*
X371707Y509524D01*
X371162Y507489D01*
X371186Y507305D01*
X371115Y507133D01*
Y482080D01*
X371518Y481108D01*
X372490Y480705D01*
X388490D01*
X389462Y481108D01*
X389865Y482080D01*
Y506080D01*
X389865Y506080D01*
Y507133D01*
X389794Y507305D01*
X389818Y507489D01*
X389273Y509524D01*
X389160Y509671D01*
X389135Y509855D01*
X388082Y511679D01*
X387935Y511792D01*
X387864Y511964D01*
X386374Y513454D01*
X386203Y513525D01*
X386089Y513672D01*
X384265Y514725D01*
X384081Y514749D01*
X383934Y514863D01*
X382569Y515228D01*
Y525000D01*
X382374Y525983D01*
X381817Y526817D01*
X380983Y527374D01*
X380000Y527569D01*
D02*
G37*
G36*
X252500D02*
X251517Y527374D01*
X250683Y526817D01*
X250126Y525983D01*
X249931Y525000D01*
Y524053D01*
X250126Y523070D01*
X250683Y522236D01*
X251081Y521839D01*
Y515140D01*
X250046Y514863D01*
X249899Y514749D01*
X249715Y514725D01*
X247890Y513672D01*
X247778Y513525D01*
X247606Y513454D01*
X246116Y511964D01*
X246045Y511793D01*
X245898Y511679D01*
X244845Y509855D01*
X244820Y509671D01*
X244707Y509524D01*
X244162Y507489D01*
X244186Y507305D01*
X244115Y507133D01*
Y482080D01*
X244518Y481108D01*
X245490Y480705D01*
X261490D01*
X262462Y481108D01*
X262865Y482080D01*
Y506080D01*
X262865Y506080D01*
Y507133D01*
X262794Y507305D01*
X262818Y507489D01*
X262273Y509524D01*
X262160Y509671D01*
X262135Y509855D01*
X261082Y511679D01*
X260935Y511792D01*
X260864Y511964D01*
X259374Y513454D01*
X259202Y513525D01*
X259089Y513672D01*
X257265Y514725D01*
X257081Y514749D01*
X256934Y514863D01*
X256219Y515054D01*
Y522903D01*
X256024Y523886D01*
X255467Y524720D01*
X255040Y525146D01*
X254874Y525983D01*
X254317Y526817D01*
X253483Y527374D01*
X252500Y527569D01*
D02*
G37*
G36*
X135000Y525069D02*
X134017Y524874D01*
X133183Y524317D01*
X124833Y515967D01*
X124324Y515205D01*
X123046Y514863D01*
X122899Y514749D01*
X122715Y514725D01*
X120891Y513672D01*
X120778Y513525D01*
X120606Y513454D01*
X119116Y511964D01*
X119045Y511793D01*
X118898Y511679D01*
X117845Y509855D01*
X117820Y509671D01*
X117707Y509524D01*
X117162Y507489D01*
X117186Y507305D01*
X117115Y507133D01*
Y482080D01*
X117518Y481108D01*
X118490Y480705D01*
X134490D01*
X135462Y481108D01*
X135865Y482080D01*
Y506080D01*
X135865Y506080D01*
Y507133D01*
X135794Y507305D01*
X135818Y507489D01*
X135273Y509524D01*
X135160Y509671D01*
X135135Y509855D01*
X134082Y511679D01*
X133935Y511792D01*
X133864Y511964D01*
X132374Y513454D01*
X132203Y513525D01*
X132089Y513672D01*
X131545Y513986D01*
X131379Y515246D01*
X136817Y520683D01*
X137374Y521517D01*
X137569Y522500D01*
X137374Y523483D01*
X136817Y524317D01*
X135983Y524874D01*
X135000Y525069D01*
D02*
G37*
G36*
X768770Y484770D02*
X755230D01*
Y479560D01*
X729020D01*
Y483520D01*
X718480D01*
Y471480D01*
X729020D01*
Y475440D01*
X755230D01*
Y470230D01*
X768770D01*
Y484770D01*
D02*
G37*
G36*
X923770Y484365D02*
X918885D01*
Y478980D01*
X923770D01*
Y484365D01*
D02*
G37*
G36*
X917615D02*
X912730D01*
Y478980D01*
X917615D01*
Y484365D01*
D02*
G37*
G36*
X923544Y468581D02*
X911439D01*
Y464560D01*
X901259D01*
X900579Y465578D01*
X899166Y466522D01*
X897500Y466854D01*
X895834Y466522D01*
X894421Y465578D01*
X893478Y464166D01*
X893146Y462500D01*
X893478Y460834D01*
X894421Y459422D01*
X895834Y458478D01*
X897500Y458146D01*
X899166Y458478D01*
X900579Y459422D01*
X901259Y460440D01*
X911439D01*
Y456419D01*
X923544D01*
Y468581D01*
D02*
G37*
G36*
X832365Y462770D02*
X827480D01*
Y460385D01*
X832365D01*
Y462770D01*
D02*
G37*
G36*
X864520Y462020D02*
X853135D01*
Y450635D01*
X864520D01*
Y462020D01*
D02*
G37*
G36*
X710000Y494354D02*
X708334Y494022D01*
X706921Y493078D01*
X705978Y491666D01*
X705646Y490000D01*
X705978Y488334D01*
X706921Y486922D01*
X708334Y485978D01*
X708681Y485909D01*
Y483520D01*
X705980D01*
Y471480D01*
X708681D01*
Y446020D01*
X703480D01*
Y433980D01*
X707184D01*
X708426Y433750D01*
X708641Y432669D01*
X709253Y431753D01*
X730503Y410503D01*
X731419Y409891D01*
X732500Y409676D01*
X732500Y409676D01*
X807500D01*
X807500Y409676D01*
X808581Y409891D01*
X809497Y410503D01*
X821170Y422176D01*
X824252D01*
X824421Y421922D01*
X825834Y420978D01*
X827500Y420646D01*
X829166Y420978D01*
X830579Y421922D01*
X831259Y422940D01*
X840871D01*
X841659Y423097D01*
X842328Y423544D01*
X843206Y424422D01*
X843579Y424980D01*
X846292Y424980D01*
X847190Y424082D01*
Y420103D01*
X831647Y404560D01*
X738759D01*
X738079Y405578D01*
X736666Y406522D01*
X735000Y406854D01*
X733334Y406522D01*
X731921Y405578D01*
X730978Y404166D01*
X730646Y402500D01*
X730978Y400834D01*
X731921Y399422D01*
X733334Y398478D01*
X735000Y398146D01*
X736666Y398478D01*
X738079Y399422D01*
X738759Y400440D01*
X832500D01*
X833288Y400597D01*
X833956Y401044D01*
X850706Y417794D01*
X851153Y418462D01*
X851310Y419250D01*
Y424082D01*
X852208Y424980D01*
X853540Y424980D01*
X855115D01*
Y430500D01*
X856385D01*
Y424980D01*
X859292Y424980D01*
X860190Y424082D01*
Y416786D01*
X859006Y415994D01*
X858011Y414506D01*
X857662Y412750D01*
X858011Y410994D01*
X859006Y409506D01*
X860494Y408511D01*
X862250Y408162D01*
X864006Y408511D01*
X865494Y409506D01*
X866489Y410994D01*
X866838Y412750D01*
X866489Y414506D01*
X865494Y415994D01*
X864309Y416786D01*
Y424980D01*
X865270D01*
Y436020D01*
X858708Y436020D01*
X858018Y436710D01*
X858312Y437980D01*
X864520D01*
Y449365D01*
X853135D01*
Y437980D01*
X853188D01*
X853482Y436710D01*
X852792Y436020D01*
X851460Y436020D01*
X847040D01*
X846230Y436020D01*
X844960Y436020D01*
X839730D01*
Y429699D01*
X839690Y429500D01*
Y427060D01*
X831259D01*
X830579Y428078D01*
X829166Y429022D01*
X827500Y429354D01*
X825834Y429022D01*
X824421Y428078D01*
X824252Y427824D01*
X820000D01*
X820000Y427824D01*
X818919Y427609D01*
X818003Y426997D01*
X806330Y415324D01*
X742974D01*
X742589Y416594D01*
X743079Y416922D01*
X743759Y417940D01*
X794599D01*
X795388Y418097D01*
X796056Y418544D01*
X822203Y444690D01*
X826582D01*
X827480Y443792D01*
X827480Y442460D01*
Y437230D01*
X838520D01*
Y442460D01*
X838520Y443270D01*
X838520Y444540D01*
Y448960D01*
X838520Y449770D01*
X838520Y451040D01*
X838520Y456792D01*
X839210Y457482D01*
X840480Y457188D01*
Y450635D01*
X851865D01*
Y462020D01*
X840480D01*
Y461810D01*
X838520D01*
Y462770D01*
X833635D01*
Y459750D01*
X833000D01*
Y459115D01*
X827480D01*
Y457540D01*
X827480Y456730D01*
X827283Y455542D01*
X825401D01*
X824455Y456959D01*
X822966Y457953D01*
X821210Y458302D01*
X819454Y457953D01*
X817966Y456959D01*
X816971Y455470D01*
X816622Y453714D01*
X816971Y451959D01*
X817966Y450470D01*
X819454Y449475D01*
X819495Y449468D01*
X819782Y448558D01*
X819799Y448112D01*
X793746Y422060D01*
X743759D01*
X743079Y423078D01*
X741666Y424022D01*
X740000Y424354D01*
X738334Y424022D01*
X736921Y423078D01*
X735978Y421666D01*
X735646Y420000D01*
X735978Y418334D01*
X736921Y416922D01*
X737411Y416594D01*
X737026Y415324D01*
X733670D01*
X716284Y432710D01*
X716810Y433980D01*
X726520D01*
Y437940D01*
X755230D01*
Y432730D01*
X768770D01*
Y447270D01*
X755230D01*
Y442060D01*
X726520D01*
Y446020D01*
X715980D01*
Y435395D01*
X714710Y434816D01*
X714074Y435308D01*
Y436750D01*
X714074Y436750D01*
X714020Y437023D01*
Y446020D01*
X713819D01*
Y471480D01*
X716520D01*
Y483520D01*
X713819D01*
Y487803D01*
X713784Y487978D01*
X714022Y488334D01*
X714354Y490000D01*
X714022Y491666D01*
X713079Y493078D01*
X711666Y494022D01*
X710000Y494354D01*
D02*
G37*
G36*
X807500Y456854D02*
X805834Y456522D01*
X804421Y455578D01*
X803478Y454166D01*
X803146Y452500D01*
X803385Y451298D01*
X799397Y447309D01*
X787750D01*
X787551Y447270D01*
X776230D01*
Y432730D01*
X789770D01*
Y443190D01*
X800250D01*
X801038Y443347D01*
X801706Y443794D01*
X806298Y448385D01*
X807500Y448146D01*
X809166Y448478D01*
X810579Y449422D01*
X811522Y450834D01*
X811854Y452500D01*
X811522Y454166D01*
X810579Y455578D01*
X809166Y456522D01*
X807500Y456854D01*
D02*
G37*
G36*
X851865Y449365D02*
X840480D01*
Y437980D01*
X851865D01*
Y449365D01*
D02*
G37*
G36*
X923770Y426020D02*
X918885D01*
Y420635D01*
X923770D01*
Y426020D01*
D02*
G37*
G36*
X917615D02*
X912730D01*
Y420635D01*
X917615D01*
Y426020D01*
D02*
G37*
G36*
X1052636Y423033D02*
Y409535D01*
X1066134D01*
X1065733Y412580D01*
X1064313Y416008D01*
X1062053Y418953D01*
X1059109Y421212D01*
X1055680Y422632D01*
X1052636Y423033D01*
D02*
G37*
G36*
X1006366Y408265D02*
X995717D01*
X996021Y405958D01*
X997156Y403216D01*
X998963Y400862D01*
X1001317Y399056D01*
X1004059Y397920D01*
X1006366Y397616D01*
Y408265D01*
D02*
G37*
G36*
X1066134Y408265D02*
X1052636D01*
Y394767D01*
X1055680Y395168D01*
X1059109Y396588D01*
X1062053Y398847D01*
X1064313Y401792D01*
X1065733Y405221D01*
X1066134Y408265D01*
D02*
G37*
G36*
X950270Y363270D02*
X945635D01*
Y358135D01*
X950270D01*
Y363270D01*
D02*
G37*
G36*
X960000Y399354D02*
X958334Y399022D01*
X956921Y398078D01*
X955978Y396666D01*
X955646Y395000D01*
X955978Y393334D01*
X956921Y391922D01*
X957176Y391752D01*
Y388770D01*
X952230D01*
Y376230D01*
X956426D01*
Y363270D01*
X954730D01*
Y351730D01*
X965270D01*
Y363270D01*
X962074D01*
Y376230D01*
X966270D01*
Y388770D01*
X962824D01*
Y391752D01*
X963079Y391922D01*
X964022Y393334D01*
X964354Y395000D01*
X964022Y396666D01*
X963079Y398078D01*
X961666Y399022D01*
X960000Y399354D01*
D02*
G37*
G36*
X950270Y356865D02*
X945635D01*
Y351730D01*
X950270D01*
Y356865D01*
D02*
G37*
G36*
X944365Y363270D02*
X939730D01*
Y359442D01*
X925000D01*
X924257Y359294D01*
X923627Y358873D01*
X923205Y358243D01*
X923058Y357500D01*
X923205Y356757D01*
X923627Y356127D01*
X924257Y355705D01*
X925000Y355558D01*
X939730D01*
Y351730D01*
X944365D01*
Y357500D01*
X945000D01*
D01*
X944365D01*
Y363270D01*
D02*
G37*
G36*
X450169Y351669D02*
X427629D01*
Y329129D01*
X450169D01*
Y351669D01*
D02*
G37*
G36*
X272670D02*
X250130D01*
Y329129D01*
X272670D01*
Y351669D01*
D02*
G37*
G36*
X92670D02*
X70130D01*
Y329129D01*
X92670D01*
Y351669D01*
D02*
G37*
G36*
X889770Y334770D02*
X883135D01*
Y328135D01*
X889770D01*
Y334770D01*
D02*
G37*
G36*
X502399Y377166D02*
X499457Y376779D01*
X496716Y375643D01*
X494361Y373837D01*
X492555Y371482D01*
X491419Y368741D01*
X491032Y365799D01*
X491419Y362857D01*
X492555Y360115D01*
X494361Y357761D01*
X496716Y355954D01*
X499457Y354819D01*
X499830Y354770D01*
Y321411D01*
X498560Y321223D01*
X497831Y323627D01*
X495747Y327525D01*
X492943Y330942D01*
X489526Y333746D01*
X485628Y335830D01*
X481398Y337113D01*
X476999Y337546D01*
X472601Y337113D01*
X468371Y335830D01*
X464473Y333746D01*
X461056Y330942D01*
X458252Y327525D01*
X456168Y323627D01*
X454885Y319398D01*
X454452Y314999D01*
X454885Y310600D01*
X456168Y306370D01*
X458252Y302472D01*
X461056Y299055D01*
X464473Y296251D01*
X468371Y294167D01*
X472601Y292884D01*
X476999Y292451D01*
X481398Y292884D01*
X485628Y294167D01*
X489526Y296251D01*
X492943Y299055D01*
X495747Y302472D01*
X497831Y306370D01*
X498560Y308775D01*
X499830Y308586D01*
Y229964D01*
X489636Y219770D01*
X479729D01*
Y205230D01*
X493269D01*
Y216136D01*
X504216Y227083D01*
X504773Y227917D01*
X504969Y228900D01*
Y354770D01*
X505341Y354819D01*
X508083Y355954D01*
X510437Y357761D01*
X512244Y360115D01*
X513379Y362857D01*
X513767Y365799D01*
X513379Y368741D01*
X512244Y371482D01*
X510437Y373837D01*
X508083Y375643D01*
X505341Y376779D01*
X502399Y377166D01*
D02*
G37*
G36*
X324900D02*
X321958Y376779D01*
X319216Y375643D01*
X316862Y373837D01*
X315055Y371482D01*
X313920Y368741D01*
X313532Y365799D01*
X313920Y362857D01*
X315055Y360115D01*
X316862Y357761D01*
X319216Y355954D01*
X321958Y354819D01*
X322330Y354770D01*
Y321411D01*
X321060Y321223D01*
X320331Y323627D01*
X318247Y327525D01*
X315443Y330942D01*
X312027Y333746D01*
X308128Y335830D01*
X303899Y337113D01*
X299500Y337546D01*
X295101Y337113D01*
X290871Y335830D01*
X286973Y333746D01*
X283556Y330942D01*
X280752Y327525D01*
X278668Y323627D01*
X277385Y319398D01*
X276952Y314999D01*
X277385Y310600D01*
X278668Y306370D01*
X280752Y302472D01*
X283556Y299055D01*
X286973Y296251D01*
X290871Y294167D01*
X295101Y292884D01*
X299500Y292451D01*
X303899Y292884D01*
X308128Y294167D01*
X312027Y296251D01*
X315443Y299055D01*
X318247Y302472D01*
X320331Y306370D01*
X321060Y308775D01*
X322330Y308586D01*
Y229964D01*
X312136Y219770D01*
X302230D01*
Y205230D01*
X315770D01*
Y216136D01*
X326716Y227083D01*
X327273Y227917D01*
X327469Y228900D01*
Y354770D01*
X327842Y354819D01*
X330583Y355954D01*
X332938Y357761D01*
X334744Y360115D01*
X335880Y362857D01*
X336267Y365799D01*
X335880Y368741D01*
X334744Y371482D01*
X332938Y373837D01*
X330583Y375643D01*
X327842Y376779D01*
X324900Y377166D01*
D02*
G37*
G36*
X144900D02*
X141958Y376779D01*
X139216Y375643D01*
X136862Y373837D01*
X135056Y371482D01*
X133920Y368741D01*
X133533Y365799D01*
X133920Y362857D01*
X135056Y360115D01*
X136862Y357761D01*
X139216Y355954D01*
X141958Y354819D01*
X142331Y354770D01*
Y321411D01*
X141061Y321223D01*
X140331Y323627D01*
X138248Y327525D01*
X135444Y330942D01*
X132027Y333746D01*
X128129Y335830D01*
X123899Y337113D01*
X119500Y337546D01*
X115101Y337113D01*
X110871Y335830D01*
X106973Y333746D01*
X103556Y330942D01*
X100752Y327525D01*
X98669Y323627D01*
X97386Y319398D01*
X96952Y314999D01*
X97386Y310600D01*
X98669Y306370D01*
X100752Y302472D01*
X103556Y299055D01*
X106973Y296251D01*
X110871Y294167D01*
X115101Y292884D01*
X119500Y292451D01*
X123899Y292884D01*
X128129Y294167D01*
X132027Y296251D01*
X135444Y299055D01*
X138248Y302472D01*
X140331Y306370D01*
X141061Y308775D01*
X142331Y308586D01*
Y229964D01*
X132136Y219770D01*
X122230D01*
Y205230D01*
X135770D01*
Y216136D01*
X146717Y227083D01*
X147274Y227917D01*
X147469Y228900D01*
Y354770D01*
X147842Y354819D01*
X150584Y355954D01*
X152938Y357761D01*
X154744Y360115D01*
X155880Y362857D01*
X156267Y365799D01*
X155880Y368741D01*
X154744Y371482D01*
X152938Y373837D01*
X150584Y375643D01*
X147842Y376779D01*
X144900Y377166D01*
D02*
G37*
G36*
X889770Y326865D02*
X883135D01*
Y320230D01*
X889770D01*
Y326865D01*
D02*
G37*
G36*
X881865Y334770D02*
X875230D01*
Y330069D01*
X870000D01*
X869017Y329874D01*
X868183Y329317D01*
X850683Y311817D01*
X850126Y310983D01*
X849931Y310000D01*
X850126Y309017D01*
X850683Y308183D01*
X851517Y307626D01*
X852500Y307431D01*
X853483Y307626D01*
X854317Y308183D01*
X871064Y324931D01*
X875230D01*
Y320230D01*
X881865D01*
Y327500D01*
Y334770D01*
D02*
G37*
G36*
X527799Y326103D02*
X524925Y325724D01*
X522247Y324615D01*
X519948Y322850D01*
X518183Y320551D01*
X517074Y317873D01*
X516695Y314999D01*
X517074Y312125D01*
X518183Y309447D01*
X519948Y307147D01*
X522247Y305382D01*
X524925Y304273D01*
X527799Y303895D01*
X530673Y304273D01*
X533351Y305382D01*
X535651Y307147D01*
X537416Y309447D01*
X538525Y312125D01*
X538903Y314999D01*
X538525Y317873D01*
X537416Y320551D01*
X535651Y322850D01*
X533351Y324615D01*
X530673Y325724D01*
X527799Y326103D01*
D02*
G37*
G36*
X426199D02*
X423325Y325724D01*
X420647Y324615D01*
X418348Y322850D01*
X416583Y320551D01*
X415474Y317873D01*
X415095Y314999D01*
X415474Y312125D01*
X416583Y309447D01*
X418348Y307147D01*
X420647Y305382D01*
X423325Y304273D01*
X426199Y303895D01*
X429073Y304273D01*
X431751Y305382D01*
X434051Y307147D01*
X435816Y309447D01*
X436925Y312125D01*
X437303Y314999D01*
X436925Y317873D01*
X435816Y320551D01*
X434051Y322850D01*
X431751Y324615D01*
X429073Y325724D01*
X426199Y326103D01*
D02*
G37*
G36*
X350300D02*
X347426Y325724D01*
X344748Y324615D01*
X342448Y322850D01*
X340683Y320551D01*
X339574Y317873D01*
X339196Y314999D01*
X339574Y312125D01*
X340683Y309447D01*
X342448Y307147D01*
X344748Y305382D01*
X347426Y304273D01*
X350300Y303895D01*
X353174Y304273D01*
X355852Y305382D01*
X358151Y307147D01*
X359916Y309447D01*
X361025Y312125D01*
X361404Y314999D01*
X361025Y317873D01*
X359916Y320551D01*
X358151Y322850D01*
X355852Y324615D01*
X353174Y325724D01*
X350300Y326103D01*
D02*
G37*
G36*
X248700D02*
X245826Y325724D01*
X243148Y324615D01*
X240848Y322850D01*
X239083Y320551D01*
X237974Y317873D01*
X237596Y314999D01*
X237974Y312125D01*
X239083Y309447D01*
X240848Y307147D01*
X243148Y305382D01*
X245826Y304273D01*
X248700Y303895D01*
X251574Y304273D01*
X254252Y305382D01*
X256551Y307147D01*
X258316Y309447D01*
X259425Y312125D01*
X259804Y314999D01*
X259425Y317873D01*
X258316Y320551D01*
X256551Y322850D01*
X254252Y324615D01*
X251574Y325724D01*
X248700Y326103D01*
D02*
G37*
G36*
X170300D02*
X167426Y325724D01*
X164748Y324615D01*
X162448Y322850D01*
X160684Y320551D01*
X159574Y317873D01*
X159196Y314999D01*
X159574Y312125D01*
X160684Y309447D01*
X162448Y307147D01*
X164748Y305382D01*
X167426Y304273D01*
X170300Y303895D01*
X173174Y304273D01*
X175852Y305382D01*
X178152Y307147D01*
X179916Y309447D01*
X181026Y312125D01*
X181404Y314999D01*
X181026Y317873D01*
X179916Y320551D01*
X178152Y322850D01*
X175852Y324615D01*
X173174Y325724D01*
X170300Y326103D01*
D02*
G37*
G36*
X68700D02*
X65826Y325724D01*
X63148Y324615D01*
X60848Y322850D01*
X59084Y320551D01*
X57974Y317873D01*
X57596Y314999D01*
X57974Y312125D01*
X59084Y309447D01*
X60848Y307147D01*
X63148Y305382D01*
X65826Y304273D01*
X68700Y303895D01*
X71574Y304273D01*
X74252Y305382D01*
X76552Y307147D01*
X78316Y309447D01*
X79426Y312125D01*
X79804Y314999D01*
X79426Y317873D01*
X78316Y320551D01*
X76552Y322850D01*
X74252Y324615D01*
X71574Y325724D01*
X68700Y326103D01*
D02*
G37*
G36*
X647500Y324588D02*
X645744Y324239D01*
X644256Y323244D01*
X643261Y321756D01*
X642912Y320000D01*
X643070Y319204D01*
X526436Y202569D01*
X478564D01*
X472269Y208864D01*
Y219770D01*
X458729D01*
Y209364D01*
X451935Y202569D01*
X301564D01*
X294770Y209364D01*
Y219770D01*
X281230D01*
Y208498D01*
X281180Y208250D01*
Y207314D01*
X276436Y202569D01*
X121564D01*
X114770Y209364D01*
Y219770D01*
X101230D01*
Y205230D01*
X111636D01*
X118683Y198183D01*
X119517Y197626D01*
X120500Y197431D01*
X277500D01*
X278483Y197626D01*
X279317Y198183D01*
X285567Y204433D01*
X286099Y205230D01*
X291636D01*
X298683Y198183D01*
X299516Y197626D01*
X300500Y197431D01*
X452999D01*
X453983Y197626D01*
X454816Y198183D01*
X461863Y205230D01*
X468636D01*
X475682Y198183D01*
X476516Y197626D01*
X477499Y197431D01*
X527500D01*
X528483Y197626D01*
X529317Y198183D01*
X646704Y315570D01*
X647500Y315412D01*
X649256Y315761D01*
X650744Y316756D01*
X651195Y317431D01*
X663936D01*
X672923Y308443D01*
X672437Y307270D01*
X668730D01*
Y292730D01*
X682270D01*
Y307270D01*
X679284D01*
Y308286D01*
X679088Y309269D01*
X678531Y310102D01*
X666817Y321817D01*
X665983Y322374D01*
X665000Y322569D01*
X651195D01*
X650744Y323244D01*
X649256Y324239D01*
X647500Y324588D01*
D02*
G37*
G36*
X680500Y272885D02*
X654500D01*
X651036Y272428D01*
X647808Y271091D01*
X645036Y268964D01*
X642909Y266192D01*
X641572Y262964D01*
X641115Y259500D01*
X641572Y256036D01*
X642909Y252808D01*
X645036Y250036D01*
X647808Y247909D01*
X651036Y246572D01*
X654500Y246115D01*
X680500D01*
X683964Y246572D01*
X687192Y247909D01*
X689964Y250036D01*
X692091Y252808D01*
X693428Y256036D01*
X693885Y259500D01*
X693428Y262964D01*
X692091Y266192D01*
X689964Y268964D01*
X687192Y271091D01*
X683964Y272428D01*
X680500Y272885D01*
D02*
G37*
G36*
X661270Y307270D02*
X647730D01*
Y296364D01*
X595683Y244317D01*
X595126Y243483D01*
X594931Y242500D01*
Y236199D01*
X592951Y235379D01*
X591067Y233933D01*
X589621Y232049D01*
X588712Y229855D01*
X588402Y227500D01*
X588712Y225145D01*
X589621Y222951D01*
X591067Y221067D01*
X592951Y219621D01*
X595145Y218712D01*
X597500Y218402D01*
X599855Y218712D01*
X602049Y219621D01*
X603933Y221067D01*
X605379Y222951D01*
X606288Y225145D01*
X606598Y227500D01*
X606288Y229855D01*
X605379Y232049D01*
X603933Y233933D01*
X602049Y235379D01*
X600069Y236199D01*
Y241436D01*
X651364Y292730D01*
X661270D01*
Y307270D01*
D02*
G37*
G36*
X743135Y211514D02*
Y203135D01*
X751514D01*
X751288Y204855D01*
X750379Y207049D01*
X748933Y208933D01*
X747049Y210379D01*
X744855Y211288D01*
X743135Y211514D01*
D02*
G37*
G36*
X741865Y211514D02*
X740145Y211288D01*
X737951Y210379D01*
X736067Y208933D01*
X734621Y207049D01*
X733712Y204855D01*
X733486Y203135D01*
X741865D01*
Y211514D01*
D02*
G37*
G36*
Y201865D02*
X733486D01*
X733712Y200145D01*
X734621Y197951D01*
X736067Y196067D01*
X737951Y194621D01*
X740145Y193712D01*
X741865Y193486D01*
Y201865D01*
D02*
G37*
G36*
X751514D02*
X743135D01*
Y193486D01*
X744855Y193712D01*
X747049Y194621D01*
X748933Y196067D01*
X750379Y197951D01*
X751288Y200145D01*
X751514Y201865D01*
D02*
G37*
G36*
X597500Y186598D02*
X595145Y186288D01*
X592951Y185379D01*
X591067Y183933D01*
X589621Y182049D01*
X588712Y179855D01*
X588402Y177500D01*
X588712Y175145D01*
X589621Y172951D01*
X591067Y171067D01*
X592951Y169621D01*
X595145Y168712D01*
X597500Y168402D01*
X599855Y168712D01*
X602049Y169621D01*
X603933Y171067D01*
X605379Y172951D01*
X606288Y175145D01*
X606598Y177500D01*
X606288Y179855D01*
X605379Y182049D01*
X603933Y183933D01*
X602049Y185379D01*
X599855Y186288D01*
X597500Y186598D01*
D02*
G37*
G36*
X878135Y177501D02*
Y164835D01*
X890801D01*
X890428Y167664D01*
X889091Y170892D01*
X886964Y173664D01*
X884192Y175791D01*
X880964Y177128D01*
X878135Y177501D01*
D02*
G37*
G36*
X876865D02*
X874036Y177128D01*
X870808Y175791D01*
X868036Y173664D01*
X865909Y170892D01*
X864572Y167664D01*
X864199Y164835D01*
X876865D01*
Y177501D01*
D02*
G37*
G36*
X890801Y163565D02*
X878135D01*
Y150899D01*
X880964Y151272D01*
X884192Y152609D01*
X886964Y154736D01*
X889091Y157508D01*
X890428Y160736D01*
X890801Y163565D01*
D02*
G37*
G36*
X876865D02*
X864199D01*
X864572Y160736D01*
X865909Y157508D01*
X868036Y154736D01*
X870808Y152609D01*
X874036Y151272D01*
X876865Y150899D01*
Y163565D01*
D02*
G37*
G36*
X680500Y158884D02*
X654500D01*
X651036Y158428D01*
X647808Y157091D01*
X645036Y154964D01*
X642909Y152192D01*
X641572Y148964D01*
X641115Y145500D01*
X641572Y142036D01*
X642909Y138808D01*
X645036Y136036D01*
X647808Y133909D01*
X651036Y132572D01*
X654500Y132115D01*
X680500D01*
X683964Y132572D01*
X687192Y133909D01*
X689964Y136036D01*
X692091Y138808D01*
X693428Y142036D01*
X693885Y145500D01*
X693428Y148964D01*
X692091Y152192D01*
X689964Y154964D01*
X687192Y157091D01*
X683964Y158428D01*
X680500Y158884D01*
D02*
G37*
G36*
X450169Y151669D02*
X427629D01*
Y129129D01*
X450169D01*
Y151669D01*
D02*
G37*
G36*
X272670D02*
X250130D01*
Y129129D01*
X272670D01*
Y151669D01*
D02*
G37*
G36*
X92670D02*
X70130D01*
Y129129D01*
X92670D01*
Y151669D01*
D02*
G37*
G36*
X502399Y177166D02*
X499457Y176779D01*
X496716Y175643D01*
X494361Y173836D01*
X492555Y171482D01*
X491419Y168741D01*
X491032Y165799D01*
X491419Y162857D01*
X492555Y160115D01*
X494361Y157761D01*
X496716Y155954D01*
X499457Y154819D01*
X499830Y154770D01*
Y121411D01*
X498560Y121223D01*
X497831Y123627D01*
X495747Y127525D01*
X492943Y130942D01*
X489526Y133746D01*
X485628Y135830D01*
X481398Y137113D01*
X476999Y137546D01*
X472601Y137113D01*
X468371Y135830D01*
X464473Y133746D01*
X461056Y130942D01*
X458252Y127525D01*
X456168Y123627D01*
X454885Y119397D01*
X454452Y114999D01*
X454885Y110600D01*
X456168Y106370D01*
X458252Y102472D01*
X461056Y99055D01*
X464473Y96251D01*
X468371Y94167D01*
X472601Y92884D01*
X476999Y92451D01*
X481398Y92884D01*
X485628Y94167D01*
X489526Y96251D01*
X492943Y99055D01*
X495747Y102472D01*
X497831Y106370D01*
X498560Y108775D01*
X499830Y108586D01*
Y23464D01*
X491136Y14770D01*
X481230D01*
Y230D01*
X494770D01*
Y11136D01*
X504216Y20583D01*
X504773Y21416D01*
X504969Y22399D01*
Y154770D01*
X505341Y154819D01*
X508083Y155954D01*
X510437Y157761D01*
X512244Y160115D01*
X513379Y162857D01*
X513767Y165799D01*
X513379Y168741D01*
X512244Y171482D01*
X510437Y173836D01*
X508083Y175643D01*
X505341Y176779D01*
X502399Y177166D01*
D02*
G37*
G36*
X144900D02*
X141958Y176779D01*
X139216Y175643D01*
X136862Y173836D01*
X135056Y171482D01*
X133920Y168741D01*
X133533Y165799D01*
X133920Y162857D01*
X135056Y160115D01*
X136862Y157761D01*
X139216Y155954D01*
X141958Y154819D01*
X142331Y154770D01*
Y121411D01*
X141061Y121223D01*
X140331Y123627D01*
X138248Y127525D01*
X135444Y130942D01*
X132027Y133746D01*
X128129Y135830D01*
X123899Y137113D01*
X119500Y137546D01*
X115101Y137113D01*
X110871Y135830D01*
X106973Y133746D01*
X103556Y130942D01*
X100752Y127525D01*
X98669Y123627D01*
X97386Y119397D01*
X96952Y114999D01*
X97386Y110600D01*
X98669Y106370D01*
X100752Y102472D01*
X103556Y99055D01*
X106973Y96251D01*
X110871Y94167D01*
X115101Y92884D01*
X119500Y92451D01*
X123899Y92884D01*
X128129Y94167D01*
X132027Y96251D01*
X135444Y99055D01*
X138248Y102472D01*
X140331Y106370D01*
X141061Y108775D01*
X142331Y108586D01*
Y25964D01*
X131136Y14770D01*
X121230D01*
Y230D01*
X134770D01*
Y11136D01*
X146717Y23083D01*
X147274Y23917D01*
X147469Y24900D01*
Y154770D01*
X147842Y154819D01*
X150584Y155954D01*
X152938Y157761D01*
X154744Y160115D01*
X155880Y162857D01*
X156267Y165799D01*
X155880Y168741D01*
X154744Y171482D01*
X152938Y173836D01*
X150584Y175643D01*
X147842Y176779D01*
X144900Y177166D01*
D02*
G37*
G36*
X527799Y126103D02*
X524925Y125724D01*
X522247Y124615D01*
X519948Y122850D01*
X518183Y120551D01*
X517074Y117873D01*
X516695Y114999D01*
X517074Y112125D01*
X518183Y109447D01*
X519948Y107147D01*
X522247Y105382D01*
X524925Y104273D01*
X527799Y103895D01*
X530673Y104273D01*
X533351Y105382D01*
X535651Y107147D01*
X537416Y109447D01*
X538525Y112125D01*
X538903Y114999D01*
X538525Y117873D01*
X537416Y120551D01*
X535651Y122850D01*
X533351Y124615D01*
X530673Y125724D01*
X527799Y126103D01*
D02*
G37*
G36*
X426199D02*
X423325Y125724D01*
X420647Y124615D01*
X418348Y122850D01*
X416583Y120551D01*
X415474Y117873D01*
X415095Y114999D01*
X415474Y112125D01*
X416583Y109447D01*
X418348Y107147D01*
X420647Y105382D01*
X423325Y104273D01*
X426199Y103895D01*
X429073Y104273D01*
X431751Y105382D01*
X434051Y107147D01*
X435816Y109447D01*
X436925Y112125D01*
X437303Y114999D01*
X436925Y117873D01*
X435816Y120551D01*
X434051Y122850D01*
X431751Y124615D01*
X429073Y125724D01*
X426199Y126103D01*
D02*
G37*
G36*
X350300D02*
X347426Y125724D01*
X344748Y124615D01*
X342448Y122850D01*
X340683Y120551D01*
X339574Y117873D01*
X339196Y114999D01*
X339574Y112125D01*
X340683Y109447D01*
X342448Y107147D01*
X344748Y105382D01*
X347426Y104273D01*
X350300Y103895D01*
X353174Y104273D01*
X355852Y105382D01*
X358151Y107147D01*
X359916Y109447D01*
X361025Y112125D01*
X361404Y114999D01*
X361025Y117873D01*
X359916Y120551D01*
X358151Y122850D01*
X355852Y124615D01*
X353174Y125724D01*
X350300Y126103D01*
D02*
G37*
G36*
X248700D02*
X245826Y125724D01*
X243148Y124615D01*
X240848Y122850D01*
X239083Y120551D01*
X237974Y117873D01*
X237596Y114999D01*
X237974Y112125D01*
X239083Y109447D01*
X240848Y107147D01*
X243148Y105382D01*
X245826Y104273D01*
X248700Y103895D01*
X251574Y104273D01*
X254252Y105382D01*
X256551Y107147D01*
X258316Y109447D01*
X259425Y112125D01*
X259804Y114999D01*
X259425Y117873D01*
X258316Y120551D01*
X256551Y122850D01*
X254252Y124615D01*
X251574Y125724D01*
X248700Y126103D01*
D02*
G37*
G36*
X170300D02*
X167426Y125724D01*
X164748Y124615D01*
X162448Y122850D01*
X160684Y120551D01*
X159574Y117873D01*
X159196Y114999D01*
X159574Y112125D01*
X160684Y109447D01*
X162448Y107147D01*
X164748Y105382D01*
X167426Y104273D01*
X170300Y103895D01*
X173174Y104273D01*
X175852Y105382D01*
X178152Y107147D01*
X179916Y109447D01*
X181026Y112125D01*
X181404Y114999D01*
X181026Y117873D01*
X179916Y120551D01*
X178152Y122850D01*
X175852Y124615D01*
X173174Y125724D01*
X170300Y126103D01*
D02*
G37*
G36*
X68700D02*
X65826Y125724D01*
X63148Y124615D01*
X60848Y122850D01*
X59084Y120551D01*
X57974Y117873D01*
X57596Y114999D01*
X57974Y112125D01*
X59084Y109447D01*
X60848Y107147D01*
X63148Y105382D01*
X65826Y104273D01*
X68700Y103895D01*
X71574Y104273D01*
X74252Y105382D01*
X76552Y107147D01*
X78316Y109447D01*
X79426Y112125D01*
X79804Y114999D01*
X79426Y117873D01*
X78316Y120551D01*
X76552Y122850D01*
X74252Y124615D01*
X71574Y125724D01*
X68700Y126103D01*
D02*
G37*
G36*
X299500Y137546D02*
X295101Y137113D01*
X290871Y135830D01*
X286973Y133746D01*
X283556Y130942D01*
X280752Y127525D01*
X278668Y123627D01*
X277385Y119397D01*
X276952Y114999D01*
X277385Y110600D01*
X278668Y106370D01*
X280752Y102472D01*
X283556Y99055D01*
X286973Y96251D01*
X290871Y94167D01*
X295101Y92884D01*
X299500Y92451D01*
X303899Y92884D01*
X308128Y94167D01*
X312026Y96251D01*
X315443Y99055D01*
X318247Y102472D01*
X320331Y106370D01*
X321614Y110600D01*
X322047Y114999D01*
X321614Y119397D01*
X320331Y123627D01*
X318247Y127525D01*
X315443Y130942D01*
X312026Y133746D01*
X308128Y135830D01*
X303899Y137113D01*
X299500Y137546D01*
D02*
G37*
G36*
X324900Y177166D02*
X321958Y176779D01*
X319216Y175643D01*
X316862Y173836D01*
X315055Y171482D01*
X313920Y168741D01*
X313532Y165799D01*
X313920Y162857D01*
X315055Y160115D01*
X316862Y157761D01*
X319216Y155954D01*
X321958Y154819D01*
X324900Y154431D01*
X324931Y154404D01*
Y23064D01*
X316636Y14770D01*
X306230D01*
Y230D01*
X319770D01*
Y10636D01*
X329317Y20183D01*
X329874Y21017D01*
X330069Y22000D01*
Y155741D01*
X330583Y155954D01*
X332938Y157761D01*
X334744Y160115D01*
X335880Y162857D01*
X336267Y165799D01*
X335880Y168741D01*
X334744Y171482D01*
X332938Y173836D01*
X330583Y175643D01*
X327842Y176779D01*
X324900Y177166D01*
D02*
G37*
G36*
X473770Y14770D02*
X460230D01*
Y4364D01*
X455296Y-570D01*
X454500Y-412D01*
X452744Y-761D01*
X451256Y-1756D01*
X450805Y-2431D01*
X305064D01*
X298770Y3864D01*
Y14770D01*
X285230D01*
Y4364D01*
X278436Y-2431D01*
X120064D01*
X113770Y3864D01*
Y14770D01*
X100230D01*
Y230D01*
X110136D01*
X117183Y-6817D01*
X118017Y-7374D01*
X119000Y-7569D01*
X279500D01*
X280483Y-7374D01*
X281317Y-6817D01*
X288364Y230D01*
X295136D01*
X302183Y-6817D01*
X303017Y-7374D01*
X304000Y-7569D01*
X450805D01*
X451256Y-8244D01*
X452744Y-9239D01*
X454500Y-9588D01*
X456256Y-9239D01*
X457744Y-8244D01*
X458739Y-6756D01*
X459088Y-5000D01*
X458930Y-4204D01*
X463364Y230D01*
X473770D01*
Y14770D01*
D02*
G37*
G36*
X1030000Y26351D02*
X1025878Y26027D01*
X1021857Y25062D01*
X1018037Y23479D01*
X1014511Y21319D01*
X1011367Y18633D01*
X1008681Y15489D01*
X1006521Y11963D01*
X1004939Y8143D01*
X1003973Y4122D01*
X1003649Y0D01*
X1003973Y-4122D01*
X1004939Y-8143D01*
X1006521Y-11963D01*
X1008681Y-15489D01*
X1011367Y-18633D01*
X1014511Y-21319D01*
X1018037Y-23479D01*
X1021857Y-25062D01*
X1025878Y-26027D01*
X1030000Y-26351D01*
X1034122Y-26027D01*
X1038143Y-25062D01*
X1041963Y-23479D01*
X1045489Y-21319D01*
X1048633Y-18633D01*
X1051319Y-15489D01*
X1053479Y-11963D01*
X1055061Y-8143D01*
X1056027Y-4122D01*
X1056351Y0D01*
X1056027Y4122D01*
X1055061Y8143D01*
X1053479Y11963D01*
X1051319Y15489D01*
X1048633Y18633D01*
X1045489Y21319D01*
X1041963Y23479D01*
X1038143Y25062D01*
X1034122Y26027D01*
X1030000Y26351D01*
D02*
G37*
G36*
X0D02*
X-4122Y26027D01*
X-8143Y25062D01*
X-11963Y23479D01*
X-15489Y21319D01*
X-18633Y18633D01*
X-21319Y15489D01*
X-23479Y11963D01*
X-25062Y8143D01*
X-26027Y4122D01*
X-26351Y0D01*
X-26027Y-4122D01*
X-25062Y-8143D01*
X-23479Y-11963D01*
X-21319Y-15489D01*
X-18633Y-18633D01*
X-15489Y-21319D01*
X-11963Y-23479D01*
X-8143Y-25062D01*
X-4122Y-26027D01*
X0Y-26351D01*
X4122Y-26027D01*
X8143Y-25062D01*
X11963Y-23479D01*
X15489Y-21319D01*
X18633Y-18633D01*
X21319Y-15489D01*
X23479Y-11963D01*
X25062Y-8143D01*
X26027Y-4122D01*
X26351Y0D01*
X26027Y4122D01*
X25062Y8143D01*
X23479Y11963D01*
X21319Y15489D01*
X18633Y18633D01*
X15489Y21319D01*
X11963Y23479D01*
X8143Y25062D01*
X4122Y26027D01*
X0Y26351D01*
D02*
G37*
%LPD*%
G36*
X109090Y683920D02*
X109090D01*
Y682867D01*
X108545Y680832D01*
X107492Y679008D01*
X106002Y677518D01*
X104178Y676465D01*
X102143Y675920D01*
X100037D01*
X98002Y676465D01*
X96178Y677518D01*
X94688Y679008D01*
X93635Y680832D01*
X93090Y682867D01*
Y683920D01*
Y707920D01*
X109090D01*
Y683920D01*
D02*
G37*
G36*
X261490D02*
X261490D01*
Y682867D01*
X260945Y680832D01*
X259891Y679008D01*
X258402Y677518D01*
X256578Y676465D01*
X254543Y675920D01*
X252437D01*
X250402Y676465D01*
X248578Y677518D01*
X247088Y679008D01*
X246035Y680832D01*
X245490Y682867D01*
Y683920D01*
Y707920D01*
X261490D01*
Y683920D01*
D02*
G37*
G36*
X515490D02*
X515490D01*
Y682867D01*
X514945Y680832D01*
X513891Y679008D01*
X512402Y677518D01*
X510578Y676465D01*
X508543Y675920D01*
X506437D01*
X504402Y676465D01*
X502578Y677518D01*
X501088Y679008D01*
X500035Y680832D01*
X499490Y682867D01*
Y683920D01*
Y707920D01*
X515490D01*
Y683920D01*
D02*
G37*
G36*
X388490D02*
X388490D01*
Y682867D01*
X387945Y680832D01*
X386892Y679008D01*
X385402Y677518D01*
X383578Y676465D01*
X381543Y675920D01*
X379437D01*
X377402Y676465D01*
X375578Y677518D01*
X374088Y679008D01*
X373035Y680832D01*
X372490Y682867D01*
Y683920D01*
Y707920D01*
X388490D01*
Y683920D01*
D02*
G37*
G36*
X363090D02*
X363090D01*
Y682867D01*
X362545Y680832D01*
X361492Y679008D01*
X360002Y677518D01*
X358178Y676465D01*
X356143Y675920D01*
X354037D01*
X352002Y676465D01*
X350178Y677518D01*
X348688Y679008D01*
X347635Y680832D01*
X347090Y682867D01*
Y683920D01*
Y707920D01*
X363090D01*
Y683920D01*
D02*
G37*
G36*
X337690D02*
X337690D01*
Y682867D01*
X337145Y680832D01*
X336091Y679008D01*
X334602Y677518D01*
X332778Y676465D01*
X330743Y675920D01*
X328637D01*
X326602Y676465D01*
X324778Y677518D01*
X323288Y679008D01*
X322235Y680832D01*
X321690Y682867D01*
Y683920D01*
Y707920D01*
X337690D01*
Y683920D01*
D02*
G37*
G36*
X312290D02*
X312290D01*
Y682867D01*
X311745Y680832D01*
X310692Y679008D01*
X309202Y677518D01*
X307378Y676465D01*
X305343Y675920D01*
X303237D01*
X301202Y676465D01*
X299378Y677518D01*
X297888Y679008D01*
X296835Y680832D01*
X296290Y682867D01*
Y683920D01*
Y707920D01*
X312290D01*
Y683920D01*
D02*
G37*
G36*
X286890D02*
X286890D01*
Y682867D01*
X286345Y680832D01*
X285292Y679008D01*
X283802Y677518D01*
X281978Y676465D01*
X279943Y675920D01*
X277837D01*
X275802Y676465D01*
X273978Y677518D01*
X272488Y679008D01*
X271435Y680832D01*
X270890Y682867D01*
Y683920D01*
Y707920D01*
X286890D01*
Y683920D01*
D02*
G37*
G36*
X236090D02*
X236090D01*
Y682867D01*
X235545Y680832D01*
X234492Y679008D01*
X233002Y677518D01*
X231178Y676465D01*
X229143Y675920D01*
X227037D01*
X225002Y676465D01*
X223178Y677518D01*
X221688Y679008D01*
X220635Y680832D01*
X220090Y682867D01*
Y683920D01*
Y707920D01*
X236090D01*
Y683920D01*
D02*
G37*
G36*
X210690D02*
X210690D01*
Y682867D01*
X210145Y680832D01*
X209091Y679008D01*
X207602Y677518D01*
X205778Y676465D01*
X203743Y675920D01*
X201637D01*
X199602Y676465D01*
X197778Y677518D01*
X196288Y679008D01*
X195235Y680832D01*
X194690Y682867D01*
Y683920D01*
Y707920D01*
X210690D01*
Y683920D01*
D02*
G37*
G36*
X185290D02*
X185290D01*
Y682867D01*
X184745Y680832D01*
X183692Y679008D01*
X182202Y677518D01*
X180378Y676465D01*
X178343Y675920D01*
X176237D01*
X174202Y676465D01*
X172378Y677518D01*
X170888Y679008D01*
X169835Y680832D01*
X169290Y682867D01*
Y683920D01*
Y707920D01*
X185290D01*
Y683920D01*
D02*
G37*
G36*
X159890D02*
X159890D01*
Y682867D01*
X159345Y680832D01*
X158292Y679008D01*
X156802Y677518D01*
X154978Y676465D01*
X152943Y675920D01*
X150837D01*
X148802Y676465D01*
X146978Y677518D01*
X145488Y679008D01*
X144435Y680832D01*
X143890Y682867D01*
Y683920D01*
Y707920D01*
X159890D01*
Y683920D01*
D02*
G37*
G36*
X134490D02*
X134490D01*
Y682867D01*
X133945Y680832D01*
X132892Y679008D01*
X131402Y677518D01*
X129578Y676465D01*
X127543Y675920D01*
X125437D01*
X123402Y676465D01*
X121578Y677518D01*
X120088Y679008D01*
X119035Y680832D01*
X118490Y682867D01*
Y683920D01*
Y707920D01*
X134490D01*
Y683920D01*
D02*
G37*
G36*
X83690D02*
X83690D01*
Y682867D01*
X83145Y680832D01*
X82092Y679008D01*
X80602Y677518D01*
X78778Y676465D01*
X76743Y675920D01*
X74637D01*
X72602Y676465D01*
X70778Y677518D01*
X69288Y679008D01*
X68235Y680832D01*
X67690Y682867D01*
Y683920D01*
Y707920D01*
X83690D01*
Y683920D01*
D02*
G37*
G36*
X566290D02*
X566290D01*
Y682867D01*
X565745Y680832D01*
X564692Y679008D01*
X563202Y677518D01*
X561378Y676465D01*
X559343Y675920D01*
X557237D01*
X555202Y676465D01*
X553378Y677518D01*
X551888Y679008D01*
X550835Y680832D01*
X550290Y682867D01*
Y683920D01*
Y707920D01*
X566290D01*
Y683920D01*
D02*
G37*
G36*
X464690D02*
X464690D01*
Y682867D01*
X464145Y680832D01*
X463092Y679008D01*
X461602Y677518D01*
X459778Y676465D01*
X457743Y675920D01*
X455637D01*
X453602Y676465D01*
X451778Y677518D01*
X450288Y679008D01*
X449235Y680832D01*
X448690Y682867D01*
Y683920D01*
Y707920D01*
X464690D01*
Y683920D01*
D02*
G37*
G36*
X439290D02*
X439290D01*
Y682867D01*
X438745Y680832D01*
X437691Y679008D01*
X436202Y677518D01*
X434378Y676465D01*
X432343Y675920D01*
X430237D01*
X428202Y676465D01*
X426378Y677518D01*
X424888Y679008D01*
X423835Y680832D01*
X423290Y682867D01*
Y683920D01*
Y707920D01*
X439290D01*
Y683920D01*
D02*
G37*
G36*
X413890D02*
X413890D01*
Y682867D01*
X413345Y680832D01*
X412291Y679008D01*
X410802Y677518D01*
X408978Y676465D01*
X406943Y675920D01*
X404837D01*
X402802Y676465D01*
X400978Y677518D01*
X399488Y679008D01*
X398435Y680832D01*
X397890Y682867D01*
Y683920D01*
Y707920D01*
X413890D01*
Y683920D01*
D02*
G37*
G36*
X490090D02*
X490090D01*
Y682867D01*
X489545Y680832D01*
X488492Y679008D01*
X487002Y677518D01*
X485178Y676465D01*
X483143Y675920D01*
X481037D01*
X479002Y676465D01*
X477178Y677518D01*
X475688Y679008D01*
X474635Y680832D01*
X474090Y682867D01*
Y683920D01*
Y707920D01*
X490090D01*
Y683920D01*
D02*
G37*
G36*
X579990Y612400D02*
X554937D01*
X552902Y612945D01*
X551078Y613998D01*
X549588Y615488D01*
X548535Y617312D01*
X547990Y619347D01*
Y621453D01*
X548535Y623488D01*
X549588Y625312D01*
X551078Y626802D01*
X552902Y627855D01*
X554937Y628400D01*
X555990D01*
Y628400D01*
X579990D01*
Y612400D01*
D02*
G37*
G36*
Y561600D02*
X554937D01*
X552902Y562145D01*
X551078Y563198D01*
X549588Y564688D01*
X548535Y566512D01*
X547990Y568547D01*
Y570653D01*
X548535Y572688D01*
X549588Y574512D01*
X551078Y576002D01*
X552902Y577055D01*
X554937Y577600D01*
X555990D01*
Y577600D01*
X579990D01*
Y561600D01*
D02*
G37*
G36*
X540890Y683920D02*
X540890D01*
Y682867D01*
X540345Y680832D01*
X539291Y679008D01*
X537802Y677518D01*
X535978Y676465D01*
X533943Y675920D01*
X531837D01*
X529802Y676465D01*
X527978Y677518D01*
X526488Y679008D01*
X525435Y680832D01*
X524890Y682867D01*
Y683920D01*
Y707920D01*
X540890D01*
Y683920D01*
D02*
G37*
G36*
X579990Y587000D02*
X554937D01*
X552902Y587545D01*
X551078Y588598D01*
X549588Y590088D01*
X548535Y591912D01*
X547990Y593947D01*
Y596053D01*
X548535Y598088D01*
X549588Y599912D01*
X551078Y601402D01*
X552902Y602455D01*
X554937Y603000D01*
X555990D01*
Y603000D01*
X579990D01*
Y587000D01*
D02*
G37*
G36*
X485178Y513535D02*
X487002Y512482D01*
X488492Y510992D01*
X489545Y509168D01*
X490090Y507133D01*
Y506080D01*
X490090D01*
Y482080D01*
X474090D01*
Y506080D01*
Y507133D01*
X474635Y509168D01*
X475688Y510992D01*
X477178Y512482D01*
X479002Y513535D01*
X481037Y514080D01*
X483143D01*
X485178Y513535D01*
D02*
G37*
G36*
X459778D02*
X461602Y512482D01*
X463092Y510992D01*
X464145Y509168D01*
X464690Y507133D01*
Y506080D01*
X464690D01*
Y482080D01*
X448690D01*
Y506080D01*
Y507133D01*
X449235Y509168D01*
X450288Y510992D01*
X451778Y512482D01*
X453602Y513535D01*
X455637Y514080D01*
X457743D01*
X459778Y513535D01*
D02*
G37*
G36*
X434378D02*
X436202Y512482D01*
X437691Y510992D01*
X438745Y509168D01*
X439290Y507133D01*
Y506080D01*
X439290D01*
Y482080D01*
X423290D01*
Y506080D01*
Y507133D01*
X423835Y509168D01*
X424888Y510992D01*
X426378Y512482D01*
X428202Y513535D01*
X430237Y514080D01*
X432343D01*
X434378Y513535D01*
D02*
G37*
G36*
X408978D02*
X410802Y512482D01*
X412291Y510992D01*
X413345Y509168D01*
X413890Y507133D01*
Y506080D01*
X413890D01*
Y482080D01*
X397890D01*
Y506080D01*
Y507133D01*
X398435Y509168D01*
X399488Y510992D01*
X400978Y512482D01*
X402802Y513535D01*
X404837Y514080D01*
X406943D01*
X408978Y513535D01*
D02*
G37*
G36*
X358178D02*
X360002Y512482D01*
X361492Y510992D01*
X362545Y509168D01*
X363090Y507133D01*
Y506080D01*
X363090D01*
Y482080D01*
X347090D01*
Y506080D01*
Y507133D01*
X347635Y509168D01*
X348688Y510992D01*
X350178Y512482D01*
X352002Y513535D01*
X354037Y514080D01*
X356143D01*
X358178Y513535D01*
D02*
G37*
G36*
X332778D02*
X334602Y512482D01*
X336091Y510992D01*
X337145Y509168D01*
X337690Y507133D01*
Y506080D01*
X337690D01*
Y482080D01*
X321690D01*
Y506080D01*
Y507133D01*
X322235Y509168D01*
X323288Y510992D01*
X324778Y512482D01*
X326602Y513535D01*
X328637Y514080D01*
X330743D01*
X332778Y513535D01*
D02*
G37*
G36*
X561378D02*
X563202Y512482D01*
X564692Y510992D01*
X565745Y509168D01*
X566290Y507133D01*
Y506080D01*
X566290D01*
Y482080D01*
X550290D01*
Y506080D01*
Y507133D01*
X550835Y509168D01*
X551888Y510992D01*
X553378Y512482D01*
X555202Y513535D01*
X557237Y514080D01*
X559343D01*
X561378Y513535D01*
D02*
G37*
G36*
X535978D02*
X537802Y512482D01*
X539291Y510992D01*
X540345Y509168D01*
X540890Y507133D01*
Y506080D01*
X540890D01*
Y482080D01*
X524890D01*
Y506080D01*
Y507133D01*
X525435Y509168D01*
X526488Y510992D01*
X527978Y512482D01*
X529802Y513535D01*
X531837Y514080D01*
X533943D01*
X535978Y513535D01*
D02*
G37*
G36*
X510578D02*
X512402Y512482D01*
X513891Y510992D01*
X514945Y509168D01*
X515490Y507133D01*
Y506080D01*
X515490D01*
Y482080D01*
X499490D01*
Y506080D01*
Y507133D01*
X500035Y509168D01*
X501088Y510992D01*
X502578Y512482D01*
X504402Y513535D01*
X506437Y514080D01*
X508543D01*
X510578Y513535D01*
D02*
G37*
G36*
X307378D02*
X309202Y512482D01*
X310692Y510992D01*
X311745Y509168D01*
X312290Y507133D01*
Y506080D01*
X312290D01*
Y482080D01*
X296290D01*
Y506080D01*
Y507133D01*
X296835Y509168D01*
X297888Y510992D01*
X299378Y512482D01*
X301202Y513535D01*
X303237Y514080D01*
X305343D01*
X307378Y513535D01*
D02*
G37*
G36*
X281978D02*
X283802Y512482D01*
X285292Y510992D01*
X286345Y509168D01*
X286890Y507133D01*
Y506080D01*
X286890D01*
Y482080D01*
X270890D01*
Y506080D01*
Y507133D01*
X271435Y509168D01*
X272488Y510992D01*
X273978Y512482D01*
X275802Y513535D01*
X277837Y514080D01*
X279943D01*
X281978Y513535D01*
D02*
G37*
G36*
X231178D02*
X233002Y512482D01*
X234492Y510992D01*
X235545Y509168D01*
X236090Y507133D01*
Y506080D01*
X236090D01*
Y482080D01*
X220090D01*
Y506080D01*
Y507133D01*
X220635Y509168D01*
X221688Y510992D01*
X223178Y512482D01*
X225002Y513535D01*
X227037Y514080D01*
X229143D01*
X231178Y513535D01*
D02*
G37*
G36*
X205778D02*
X207602Y512482D01*
X209091Y510992D01*
X210145Y509168D01*
X210690Y507133D01*
Y506080D01*
X210690D01*
Y482080D01*
X194690D01*
Y506080D01*
Y507133D01*
X195235Y509168D01*
X196288Y510992D01*
X197778Y512482D01*
X199602Y513535D01*
X201637Y514080D01*
X203743D01*
X205778Y513535D01*
D02*
G37*
G36*
X180378D02*
X182202Y512482D01*
X183692Y510992D01*
X184745Y509168D01*
X185290Y507133D01*
Y506080D01*
X185290D01*
Y482080D01*
X169290D01*
Y506080D01*
Y507133D01*
X169835Y509168D01*
X170888Y510992D01*
X172378Y512482D01*
X174202Y513535D01*
X176237Y514080D01*
X178343D01*
X180378Y513535D01*
D02*
G37*
G36*
X154978D02*
X156802Y512482D01*
X158292Y510992D01*
X159345Y509168D01*
X159890Y507133D01*
Y506080D01*
X159890D01*
Y482080D01*
X143890D01*
Y506080D01*
Y507133D01*
X144435Y509168D01*
X145488Y510992D01*
X146978Y512482D01*
X148802Y513535D01*
X150837Y514080D01*
X152943D01*
X154978Y513535D01*
D02*
G37*
G36*
X104178D02*
X106002Y512482D01*
X107492Y510992D01*
X108545Y509168D01*
X109090Y507133D01*
Y506080D01*
X109090D01*
Y482080D01*
X93090D01*
Y506080D01*
Y507133D01*
X93635Y509168D01*
X94688Y510992D01*
X96178Y512482D01*
X98002Y513535D01*
X100037Y514080D01*
X102143D01*
X104178Y513535D01*
D02*
G37*
G36*
X78778D02*
X80602Y512482D01*
X82092Y510992D01*
X83145Y509168D01*
X83690Y507133D01*
Y506080D01*
X83690D01*
Y482080D01*
X67690D01*
Y506080D01*
Y507133D01*
X68235Y509168D01*
X69288Y510992D01*
X70778Y512482D01*
X72602Y513535D01*
X74637Y514080D01*
X76743D01*
X78778Y513535D01*
D02*
G37*
G36*
X1019166Y471119D02*
Y434334D01*
X1008771D01*
Y434730D01*
Y439730D01*
Y444730D01*
Y445440D01*
X1013512D01*
X1014300Y445597D01*
X1014968Y446044D01*
X1015712Y446788D01*
X1016159Y447456D01*
X1016316Y448244D01*
Y456606D01*
X1016159Y457394D01*
X1015712Y458063D01*
X1014968Y458807D01*
X1014300Y459253D01*
X1013512Y459410D01*
X1008771D01*
Y459730D01*
Y464730D01*
Y469730D01*
Y474730D01*
Y475666D01*
X1014619D01*
X1019166Y471119D01*
D02*
G37*
G36*
X383578Y513535D02*
X385402Y512482D01*
X386892Y510992D01*
X387945Y509168D01*
X388490Y507133D01*
Y506080D01*
X388490D01*
Y482080D01*
X372490D01*
Y506080D01*
Y507133D01*
X373035Y509168D01*
X374088Y510992D01*
X375578Y512482D01*
X377402Y513535D01*
X379437Y514080D01*
X381543D01*
X383578Y513535D01*
D02*
G37*
G36*
X256578D02*
X258402Y512482D01*
X259891Y510992D01*
X260945Y509168D01*
X261490Y507133D01*
Y506080D01*
X261490D01*
Y482080D01*
X245490D01*
Y506080D01*
Y507133D01*
X246035Y509168D01*
X247088Y510992D01*
X248578Y512482D01*
X250402Y513535D01*
X252437Y514080D01*
X254543D01*
X256578Y513535D01*
D02*
G37*
G36*
X129578D02*
X131402Y512482D01*
X132892Y510992D01*
X133945Y509168D01*
X134490Y507133D01*
Y506080D01*
X134490D01*
Y482080D01*
X118490D01*
Y506080D01*
Y507133D01*
X119035Y509168D01*
X120088Y510992D01*
X121578Y512482D01*
X123402Y513535D01*
X125437Y514080D01*
X127543D01*
X129578Y513535D01*
D02*
G37*
D14*
X877500Y446750D02*
X887052D01*
X872000D02*
X877500D01*
X889381Y444422D02*
X890599D01*
X887052Y446750D02*
X889381Y444422D01*
X959734Y429734D02*
Y430234D01*
X972500Y442500D02*
X1001251D01*
X959734Y430234D02*
X964000Y434500D01*
X964500D01*
X972500Y442500D01*
X783000Y440500D02*
X787750Y445250D01*
X800250D02*
X807500Y452500D01*
X783000Y440000D02*
Y440500D01*
X787750Y445250D02*
X800250D01*
X818146Y472500D02*
X841750D01*
X794599Y420000D02*
X821349Y446750D01*
X833000D01*
X740000Y420000D02*
X794599D01*
X635000Y435000D02*
X665000Y405000D01*
X665000D01*
X130000Y435000D02*
X635000D01*
X735000Y402500D02*
X832500D01*
X849250Y419250D01*
X838250Y505000D02*
X851786D01*
X829000Y495750D02*
X838250Y505000D01*
X855000Y502500D02*
X866500D01*
X854286D02*
X855000D01*
X851786Y505000D02*
X854286Y502500D01*
X872000Y440250D02*
X872500Y439750D01*
Y425000D02*
Y439750D01*
X101250Y463750D02*
Y498100D01*
Y463750D02*
X130000Y435000D01*
X75850Y461650D02*
Y498100D01*
Y461650D02*
X120000Y417500D01*
X640000D01*
X667500Y390000D01*
X915000Y252500D02*
Y382500D01*
X877500Y215000D02*
X915000Y252500D01*
X932500Y420750D02*
Y440028D01*
X931750Y420000D02*
X932500Y420750D01*
X821210Y453714D02*
X821442Y453482D01*
X721250Y440000D02*
X762000D01*
X842750Y469500D02*
Y471500D01*
X833000Y459750D02*
X842750D01*
X832768Y453482D02*
X833000Y453250D01*
X841750Y425879D02*
Y429500D01*
X840871Y425000D02*
X841750Y425879D01*
X827500Y425000D02*
X840871D01*
X821442Y453482D02*
X832768D01*
X919715Y502500D02*
X982500D01*
X918250Y501035D02*
X919715Y502500D01*
X829000Y495000D02*
Y495750D01*
X841750Y472500D02*
X842750Y471500D01*
X849250Y419250D02*
Y430500D01*
X862250Y412750D02*
Y430500D01*
Y412750D02*
X862500Y412500D01*
X1013512Y447500D02*
X1014256Y448244D01*
X1001251Y423000D02*
X1003101D01*
X998001D02*
X1001251D01*
X872000Y453250D02*
X894250D01*
X918250Y485000D02*
Y501035D01*
X931750Y485000D02*
X932509Y484241D01*
X845000Y480000D02*
X849250Y475750D01*
X1007001Y501100D02*
X1052001D01*
X897500Y462500D02*
X917491D01*
X842750Y459750D02*
X852500Y450000D01*
X894250Y453250D02*
X907500Y440000D01*
X917483D01*
X841750Y429500D02*
X842750Y430500D01*
X1014256Y448244D02*
Y456606D01*
X1001251Y457500D02*
X1001400Y457350D01*
X1001251Y487000D02*
X1003101D01*
X1005466Y499565D02*
X1007001Y501100D01*
X982500Y502500D02*
X996250Y488750D01*
X1005466Y489365D02*
Y499565D01*
X996250Y488750D02*
X999501D01*
X1003101Y487000D02*
X1005466Y489365D01*
X999501Y488750D02*
X1001251Y487000D01*
X852500Y450000D02*
X855750Y446750D01*
Y430500D02*
Y446750D01*
X1001400Y457350D02*
X1013512D01*
X1014256Y456606D01*
X981218Y447500D02*
X1013512D01*
X990744Y462500D02*
X1001251D01*
X982500Y462500D02*
X990744D01*
X982500D02*
X992500Y452500D01*
X1001251D01*
X978718Y450000D02*
X981218Y447500D01*
X1005466Y410435D02*
X1007001Y408900D01*
X1003101Y423000D02*
X1005466Y420635D01*
Y410435D02*
Y420635D01*
X1007001Y408900D02*
X1052001D01*
X980021Y405020D02*
X998001Y423000D01*
X919695Y405020D02*
X980021D01*
X932500Y440028D02*
X942472Y450000D01*
X918250Y406464D02*
Y420000D01*
Y406464D02*
X919695Y405020D01*
X942472Y450000D02*
X978718D01*
X849250Y469500D02*
Y475750D01*
X932509Y462500D02*
Y484241D01*
X961250Y472500D02*
X1001251D01*
X960000Y471250D02*
X961250Y472500D01*
X932509Y462500D02*
X982500D01*
X785500Y480000D02*
X845000D01*
X723750Y477500D02*
X762000D01*
X782002Y476502D02*
X785500Y480000D01*
D15*
X131979Y535000D02*
X167078Y570099D01*
X22500Y535000D02*
X131979D01*
X124478Y552500D02*
X142078Y570099D01*
X7500Y552500D02*
X124478D01*
X73979Y585000D02*
X74078Y585099D01*
X7500Y585000D02*
X73979D01*
X186445Y575732D02*
X192078Y570099D01*
X184268Y575732D02*
X186445D01*
X7500Y622500D02*
X137500D01*
X184268Y575732D01*
X252500Y524053D02*
Y525000D01*
X253650Y498100D02*
Y522903D01*
X252500Y524053D02*
X253650Y522903D01*
X507500Y497950D02*
X507650Y498100D01*
X507500Y467500D02*
Y497950D01*
X380000Y498750D02*
Y525000D01*
Y498750D02*
X380650Y498100D01*
X126650Y514150D02*
X135000Y522500D01*
X126650Y498100D02*
Y514150D01*
X587500Y595000D02*
X592500Y600000D01*
X564150Y595000D02*
X587500D01*
X262500Y735000D02*
X287500D01*
X253650Y726150D02*
X262500Y735000D01*
X287500Y780000D02*
X290000Y777500D01*
X292500D01*
X329850Y691900D02*
Y740150D01*
X292500Y777500D02*
X329850Y740150D01*
X253650Y691900D02*
Y726150D01*
X884950Y485000D02*
Y496050D01*
X872500Y470000D02*
X884139Y481639D01*
X872000Y469500D02*
X872500Y470000D01*
X397186Y727500D02*
X676036D01*
X677500Y589200D02*
Y726036D01*
X676036Y727500D02*
X677500Y726036D01*
X655000Y566700D02*
X677500Y589200D01*
X710000Y489053D02*
X711250Y487803D01*
Y477500D02*
Y487803D01*
X710000Y489053D02*
Y490000D01*
X707250Y437750D02*
X708750Y439250D01*
X592500Y490000D02*
X632500D01*
X708750Y439250D02*
Y440000D01*
X462500Y525000D02*
X743300D01*
X482250Y518286D02*
X483714Y519750D01*
X420000Y535000D02*
X732500D01*
X718702Y545000D02*
X770802Y597100D01*
X370500Y540000D02*
X725000D01*
X355250Y524750D02*
X370500Y540000D01*
X743300Y525000D02*
X790000Y571700D01*
X483714Y519750D02*
X763450D01*
X350000Y545000D02*
X718702D01*
X737500Y530000D02*
X755000Y547500D01*
X725000Y540000D02*
X752500Y567500D01*
X763450Y519750D02*
X790000Y546300D01*
X329850Y524850D02*
X350000Y545000D01*
X440000Y530000D02*
X737500D01*
X732500Y535000D02*
X755000Y557500D01*
X406050Y521050D02*
X420000Y535000D01*
X430000Y520000D02*
X440000Y530000D01*
X456850Y519350D02*
X462500Y525000D01*
X722500Y400000D02*
X740000Y382500D01*
X632500Y490000D02*
X722500Y400000D01*
X755000Y547500D02*
X755000D01*
X635000Y480000D02*
X742500Y372500D01*
X574700Y480000D02*
X635000D01*
X742500Y227500D02*
Y372500D01*
X548511Y466489D02*
X626011D01*
X727500Y365000D01*
Y192500D02*
Y365000D01*
X711250Y442500D02*
Y477500D01*
X708750Y440000D02*
X711250Y442500D01*
X770802Y597100D02*
X790000D01*
X534185Y480815D02*
Y490865D01*
X530000Y495050D02*
X533050Y498100D01*
X534185Y480815D02*
X548511Y466489D01*
X530000Y495050D02*
X534185Y490865D01*
X915000Y382500D02*
X935750D01*
X882500Y352500D02*
Y382500D01*
X852500Y310000D02*
X870000Y327500D01*
X882500D01*
X878500Y502500D02*
X884950Y496050D01*
X884139Y484139D02*
X885000Y485000D01*
X884139Y481639D02*
Y484139D01*
X862250Y469500D02*
X872000D01*
Y459750D02*
Y469500D01*
X582100Y569600D02*
X630000Y617500D01*
X564150Y569600D02*
X582100D01*
X630000Y617500D02*
X655000D01*
X589187Y642900D02*
X655000D01*
X575571Y629284D02*
X589187Y642900D01*
X482250Y498100D02*
Y518286D01*
X575571Y627686D02*
Y629284D01*
X568285Y620400D02*
X575571Y627686D01*
X564150Y620400D02*
X568285D01*
X253650Y691900D02*
X257400Y695650D01*
X505000Y637500D02*
X533050Y665550D01*
X505000Y612500D02*
Y637500D01*
X533050Y665550D02*
Y691900D01*
X547500Y652500D02*
Y653447D01*
X558450Y664397D01*
Y691900D01*
X482250D02*
X482500Y691650D01*
Y650000D02*
Y691650D01*
X457500Y652500D02*
Y691250D01*
X456850Y691900D02*
X457500Y691250D01*
X430000Y653447D02*
X431450Y654897D01*
X430000Y652500D02*
Y653447D01*
X431450Y654897D02*
Y691900D01*
X405000Y652500D02*
Y690850D01*
X406050Y691900D01*
Y498100D02*
Y521050D01*
X20571Y570000D02*
X81979D01*
X107078Y595099D01*
X558450Y496250D02*
X574700Y480000D01*
X558450Y496250D02*
Y498100D01*
X456850D02*
Y519350D01*
X355250Y498100D02*
Y524750D01*
X329850Y498100D02*
Y524850D01*
X430000Y499550D02*
X431450Y498100D01*
X430000Y499550D02*
Y520000D01*
X727500Y192500D02*
X742500Y177500D01*
X304000Y-5000D02*
X454500D01*
X292000Y7000D02*
X304000Y-5000D01*
X454500D02*
X462250Y2750D01*
X462750D02*
X467000Y7000D01*
X462250Y2750D02*
X462750D01*
X467000Y7000D02*
Y7500D01*
X292000Y7000D02*
Y7500D01*
X287750Y2750D02*
X292000Y7000D01*
X279500Y-5000D02*
X287250Y2750D01*
X287750D01*
X119000Y-5000D02*
X279500D01*
X107000Y7000D02*
Y7500D01*
Y7000D02*
X119000Y-5000D01*
X665000Y320000D02*
X676714Y308286D01*
X647500Y320000D02*
X665000D01*
X675500Y300000D02*
X676714Y301215D01*
Y308286D01*
X465499Y212000D02*
Y212500D01*
Y212000D02*
X477499Y200000D01*
X527500D01*
X647500Y320000D01*
X461249Y207750D02*
X465499Y212000D01*
X300500Y200000D02*
X452999D01*
X460749Y207750D02*
X461249D01*
X452999Y200000D02*
X460749Y207750D01*
X292250D02*
X292750D01*
X300500Y200000D01*
X288000Y212000D02*
Y212500D01*
Y212000D02*
X292250Y207750D01*
X283750Y208250D02*
X288000Y212500D01*
X283750Y206250D02*
Y208250D01*
X277500Y200000D02*
X283750Y206250D01*
X120500Y200000D02*
X277500D01*
X108000Y212000D02*
X112250Y207750D01*
X112750D01*
X108000Y212000D02*
Y212500D01*
X112750Y207750D02*
X120500Y200000D01*
X597500Y242500D02*
X654500Y299500D01*
X597500Y227500D02*
Y242500D01*
X654500Y299500D02*
Y300000D01*
X20000Y605099D02*
X74078D01*
X128000Y8000D02*
X144900Y24900D01*
Y165799D01*
X128000Y7500D02*
Y8000D01*
X502399Y228900D02*
Y365799D01*
X486499Y213000D02*
X502399Y228900D01*
X486499Y212500D02*
Y213000D01*
X324900Y228900D02*
Y365799D01*
X309000Y213000D02*
X324900Y228900D01*
X309000Y212500D02*
Y213000D01*
X129000Y212500D02*
Y213000D01*
X144900Y228900D02*
Y365799D01*
X129000Y213000D02*
X144900Y228900D01*
X502399Y22399D02*
Y165799D01*
X488000Y7500D02*
Y8000D01*
X502399Y22399D01*
X324900Y165799D02*
X327500Y163198D01*
X313000Y7500D02*
X327500Y22000D01*
Y163198D01*
D17*
X842750Y430500D02*
D03*
X849250D02*
D03*
X855750D02*
D03*
X862250D02*
D03*
Y469500D02*
D03*
X855750D02*
D03*
X849250D02*
D03*
X842750D02*
D03*
D18*
X872000Y440250D02*
D03*
Y446750D02*
D03*
Y453250D02*
D03*
Y459750D02*
D03*
X833000D02*
D03*
Y453250D02*
D03*
Y446750D02*
D03*
Y440250D02*
D03*
D19*
X852500Y450000D02*
D03*
D20*
X192078Y570099D02*
D03*
X167078D02*
D03*
X142078D02*
D03*
X107078Y595099D02*
D03*
X74078Y605099D02*
D03*
Y585099D02*
D03*
D21*
X558450Y694400D02*
D03*
X533050D02*
D03*
X507650D02*
D03*
X482250D02*
D03*
X456850D02*
D03*
X431450D02*
D03*
X406050D02*
D03*
X380650D02*
D03*
X355250D02*
D03*
X329850D02*
D03*
X304450D02*
D03*
X279050D02*
D03*
X253650D02*
D03*
X228250D02*
D03*
X202850D02*
D03*
X177450D02*
D03*
X152050D02*
D03*
X126650D02*
D03*
X101250D02*
D03*
X75850D02*
D03*
Y495600D02*
D03*
X101250D02*
D03*
X152050D02*
D03*
X177450D02*
D03*
X202850D02*
D03*
X228250D02*
D03*
X253650D02*
D03*
X279050D02*
D03*
X304450D02*
D03*
X329850D02*
D03*
X355250D02*
D03*
X380650D02*
D03*
X406050D02*
D03*
X431450D02*
D03*
X456850D02*
D03*
X482250D02*
D03*
X507650D02*
D03*
X533050D02*
D03*
X558450D02*
D03*
D22*
X126650Y498100D02*
D03*
D23*
X566650Y569600D02*
D03*
Y595000D02*
D03*
Y620400D02*
D03*
D24*
X1001251Y437500D02*
D03*
Y447500D02*
D03*
Y462500D02*
D03*
Y472500D02*
D03*
Y467500D02*
D03*
Y457500D02*
D03*
Y452500D02*
D03*
Y442500D02*
D03*
D25*
Y487000D02*
D03*
Y479000D02*
D03*
Y431000D02*
D03*
Y423000D02*
D03*
D26*
X960000Y357500D02*
D03*
X945000D02*
D03*
D27*
X935750Y382500D02*
D03*
X959250D02*
D03*
D28*
X918250Y420000D02*
D03*
X931750D02*
D03*
X918250Y485000D02*
D03*
X931750D02*
D03*
D29*
X783000Y440000D02*
D03*
X762000D02*
D03*
X783000Y477500D02*
D03*
X762000D02*
D03*
X654500Y300000D02*
D03*
X675500D02*
D03*
X309000Y212500D02*
D03*
X288000D02*
D03*
X129000D02*
D03*
X108000D02*
D03*
X486499D02*
D03*
X465499D02*
D03*
X313000Y7500D02*
D03*
X292000D02*
D03*
X128000D02*
D03*
X107000D02*
D03*
X488000D02*
D03*
X467000D02*
D03*
D30*
X708750Y440000D02*
D03*
X721250D02*
D03*
X711250Y477500D02*
D03*
X723750D02*
D03*
D31*
X866500Y502500D02*
D03*
X878500D02*
D03*
X841000Y495000D02*
D03*
X829000D02*
D03*
D32*
X932509Y462500D02*
D03*
X917491D02*
D03*
X932500Y440000D02*
D03*
X917483D02*
D03*
D33*
X960000Y471250D02*
D03*
Y483750D02*
D03*
X960000Y418750D02*
D03*
Y431250D02*
D03*
D34*
X77500Y735000D02*
D03*
X62500D02*
D03*
X165000Y765000D02*
D03*
X150000D02*
D03*
X105000D02*
D03*
X120000D02*
D03*
D54*
X882500Y327500D02*
D03*
D55*
Y352500D02*
D03*
D59*
X667500Y259500D02*
D03*
Y145500D02*
D03*
D60*
X742500Y202500D02*
D03*
Y227500D02*
D03*
X597500D02*
D03*
Y177500D02*
D03*
D61*
X742500D02*
D03*
D62*
X790000Y546300D02*
D03*
Y571700D02*
D03*
Y597100D02*
D03*
Y622500D02*
D03*
Y647900D02*
D03*
Y673300D02*
D03*
Y698700D02*
D03*
D63*
Y724100D02*
D03*
D67*
X960000Y418750D02*
X960001Y418749D01*
X968749D01*
X981000Y431000D01*
X1001251D01*
X947500Y415000D02*
X951250Y418750D01*
X960000D01*
X177500Y691950D02*
Y750000D01*
X1022500Y432500D02*
Y472500D01*
X1021000Y431000D02*
X1022500Y432500D01*
X1001251Y431000D02*
X1021000D01*
X1001251Y479000D02*
X1016000D01*
X1022500Y472500D01*
X962500Y486250D02*
X971250D01*
X960000Y483750D02*
X962500Y486250D01*
X971250D02*
X978500Y479000D01*
X1001251D01*
X165000Y764000D02*
X177450Y751550D01*
X165000Y764000D02*
Y765000D01*
D68*
X62500Y715250D02*
X75850Y701900D01*
X62500Y715250D02*
Y735000D01*
X75850Y691900D02*
Y701900D01*
D69*
X77500Y758500D02*
X83750Y764750D01*
X77500Y735000D02*
Y758500D01*
X104250Y764750D02*
X105000Y764000D01*
X83750Y764750D02*
X104250D01*
X103742Y681258D02*
X227500Y557500D01*
X525000D01*
X101250Y691900D02*
X103742Y689408D01*
Y681258D02*
Y689408D01*
X101250Y760250D02*
X105000Y764000D01*
X101250Y691900D02*
Y760250D01*
D70*
X151757Y797500D02*
X716600D01*
X150000Y795743D02*
X151757Y797500D01*
X150000Y765000D02*
Y795743D01*
X716600Y797500D02*
X790000Y724100D01*
X707250Y437750D02*
X710250D01*
X711250Y436750D01*
Y433750D02*
X732500Y412500D01*
X711250Y433750D02*
Y436750D01*
X732500Y412500D02*
X807500D01*
X820000Y425000D01*
X827500D01*
X959250Y358250D02*
X960000Y357500D01*
X959250Y358250D02*
Y382875D01*
X740000Y382500D02*
X882500D01*
X960000Y383250D02*
Y395000D01*
X959250Y382500D02*
X960000Y383250D01*
X882500Y382500D02*
X915000D01*
X841000Y494250D02*
Y495000D01*
Y494250D02*
X844000Y491250D01*
X848750D01*
X857500Y482500D01*
Y481282D02*
Y482500D01*
X855750Y479532D02*
X857500Y481282D01*
X855750Y469500D02*
Y479532D01*
X120000Y765000D02*
X150000D01*
D71*
X925000Y357500D02*
X945000D01*
D72*
X1052001Y501100D02*
D03*
Y408900D02*
D03*
D73*
X1007001Y501100D02*
D03*
Y408900D02*
D03*
X144900Y365799D02*
D03*
X502399D02*
D03*
X324900D02*
D03*
X502399Y165799D02*
D03*
X324900D02*
D03*
X144900D02*
D03*
D74*
X1012601Y488000D02*
D03*
Y422000D02*
D03*
D75*
X877500Y215000D02*
D03*
Y164200D02*
D03*
D76*
X352500Y780000D02*
D03*
Y735000D02*
D03*
X287500D02*
D03*
X655000Y592100D02*
D03*
Y617500D02*
D03*
Y642900D02*
D03*
D77*
X287500Y780000D02*
D03*
D78*
X81400Y340399D02*
D03*
X438899D02*
D03*
X261400D02*
D03*
X438899Y140399D02*
D03*
X261400D02*
D03*
X81400D02*
D03*
D79*
X655000Y566700D02*
D03*
D80*
X890599Y444422D02*
D03*
X22500Y535000D02*
D03*
X7500Y552500D02*
D03*
Y585000D02*
D03*
X947500Y415000D02*
D03*
X807500Y452500D02*
D03*
X818146Y472500D02*
D03*
X252500Y525000D02*
D03*
X592500Y600000D02*
D03*
X507500Y467500D02*
D03*
X380000Y525000D02*
D03*
X135000Y522500D02*
D03*
X110000Y572500D02*
D03*
X142500Y665000D02*
D03*
X115000Y642500D02*
D03*
X177500Y750000D02*
D03*
X397186Y727500D02*
D03*
X710000Y490000D02*
D03*
X525000Y557500D02*
D03*
X592500Y490000D02*
D03*
X740000Y420000D02*
D03*
X665000Y405000D02*
D03*
X735000Y402500D02*
D03*
X872500Y425000D02*
D03*
X752500Y567500D02*
D03*
X755000Y557500D02*
D03*
Y547500D02*
D03*
X667500Y390000D02*
D03*
X925000Y357500D02*
D03*
X862250Y412750D02*
D03*
X872500Y470000D02*
D03*
X827500Y425000D02*
D03*
X897500Y462500D02*
D03*
X885000Y485000D02*
D03*
X855000Y502500D02*
D03*
X857500Y482500D02*
D03*
X960000Y395000D02*
D03*
X821210Y453714D02*
D03*
X852500Y310000D02*
D03*
X882500Y382500D02*
D03*
X942500Y502500D02*
D03*
X977500Y462500D02*
D03*
Y450000D02*
D03*
X505000Y612500D02*
D03*
X547500Y652500D02*
D03*
X647500Y320000D02*
D03*
X454500Y-5000D02*
D03*
X430000Y652500D02*
D03*
X405000D02*
D03*
X457500D02*
D03*
X482500Y650000D02*
D03*
X20571Y570000D02*
D03*
X7500Y622500D02*
D03*
X20000Y605099D02*
D03*
D81*
X0Y775000D02*
D03*
Y0D02*
D03*
X1030000D02*
D03*
Y775000D02*
D03*
M02*
